<svg width="128" height="128" viewBox="0 0 128 128" fill="none" xmlns="http://www.w3.org/2000/svg">
<path d="M36.6525 65.0699V56.2932H42.634V65.0699H36.6525ZM79.529 42.7775C80.2794 42.759 81.034 42.749 81.795 42.749C109.211 42.749 125.676 65.0699 125.676 65.0699H105.11C105.11 58.5029 99.7857 53.1791 93.2194 53.1791C93.2187 53.1791 93.2187 53.1791 93.2187 53.1791C91.32 53.1791 89.5261 53.6241 87.9341 54.4159L79.529 42.7775ZM79.529 87.3623C80.2801 87.3815 81.0347 87.3908 81.795 87.3908C81.034 87.3908 80.2801 87.3815 79.529 87.3623Z" fill="#151518"/>
<path d="M29.9015 50.2418V44.1912H42.634H33.323V50.2418H29.9015Z" fill="#151518"/>
<path d="M33.323 44.1912V50.2417H42.6339V44.1912H33.323Z" fill="#151518"/>
<path d="M23.98 50.2418V42.7668L24.9079 43.2262V50.2418H23.98ZM25.7339 50.2418V43.6349L28.2139 44.8631V50.2418H27.3872V44.4544L26.5613 44.045V50.2418H25.7339ZM29.9015 54.7853V50.2418H29.0406V45.2725L28.771 45.1391L29.9015 45.699V54.7853Z" fill="#151518"/>
<path d="M24.9079 50.2418V43.2254L25.7339 43.6349V50.2418H24.9079Z" fill="#151518"/>
<path d="M26.5613 50.2418V44.045L27.3872 44.4544V50.2418H26.5613Z" fill="#151518"/>
<path d="M28.2139 50.2418V44.8631L28.771 45.1391L29.0406 45.2725V50.2418H28.2139Z" fill="#151518"/>
<path d="M29.9015 79.9222V73.8709H33.323V79.9222H29.9015Z" fill="#151518"/>
<path d="M33.323 79.9094V73.8587H42.6339V79.9094H33.323Z" fill="#151518"/>
<path d="M23.98 79.9222V72.4465L26.5613 73.7246V79.9222H25.7339V73.3159L24.9079 72.9072V79.9222H23.98ZM27.3872 79.9222V74.1341L28.2139 74.5442V79.9222H27.3872ZM29.9015 84.4657V79.9222H29.0406V74.9529L29.9015 75.3794V84.4657Z" fill="#151518"/>
<path d="M24.9079 79.9222V72.9072L25.7339 73.3159V79.9222H24.9079Z" fill="#151518"/>
<path d="M26.5613 79.9222V73.7246L27.3872 74.134V79.9222H26.5613Z" fill="#151518"/>
<path d="M28.2139 79.9222V74.5435L29.0406 74.9529V79.9222H28.2139Z" fill="#151518"/>
<path d="M74.6324 94.1432L76.4434 91.6354H82.1681C83.5532 91.6354 84.6759 92.7581 84.6759 94.1432H74.6324Z" fill="#151518"/>
<path d="M67.2637 104.347L70.2466 100.216H70.6745C72.9563 100.216 74.8058 102.065 74.8058 104.347H67.2637Z" fill="#151518"/>
<path d="M39.8843 100.216V104.347H42.6337V100.216H39.8843Z" fill="#151518"/>
<path d="M35.8415 104.347V99.2424L37.604 100.115V104.347H37.0391V99.8358L36.4749 99.557V104.347H35.8415ZM39.8843 107.448V104.347H39.2966V100.954L39.2267 100.919L39.8843 101.245V107.448ZM38.1682 104.347V100.395L38.7324 100.675V104.347H38.1682Z" fill="#151518"/>
<path d="M36.4749 104.347V99.557L37.0391 99.8358V104.347H36.4749Z" fill="#151518"/>
<path d="M37.604 104.347V100.115L38.1682 100.395V104.347H37.604Z" fill="#151518"/>
<path d="M38.7324 104.347V100.674L39.2267 100.919L39.2966 100.954V104.347H38.7324Z" fill="#151518"/>
<path d="M72.8208 33.4887H82.1681C83.5532 33.4887 84.6759 34.6113 84.6759 35.9972H74.6324L72.8208 33.4887Z" fill="#151518"/>
<path d="M64.2922 21.6791H70.6745C72.9563 21.6791 74.8058 23.5293 74.8058 25.8097H67.2751L64.2922 21.6791Z" fill="#151518"/>
<path d="M39.8843 21.6791V25.8097H42.6337V21.6791H39.8843Z" fill="#151518"/>
<path d="M35.8415 25.8096V20.7063L37.604 21.5793V25.8096H37.0391V21.2997L36.4749 21.0201V25.8096H35.8415ZM39.8843 28.9123V25.8096H39.2966V22.4174L38.7324 22.1385V25.8096H38.1682V21.8582L39.8843 22.7091V28.9123Z" fill="#151518"/>
<path d="M36.4749 25.8097V21.0201L37.0391 21.2997V25.8097H36.4749Z" fill="#151518"/>
<path d="M37.604 25.8096V21.5793L38.1682 21.8582V25.8096H37.604Z" fill="#151518"/>
<path d="M38.7324 25.8096V22.1385L39.2966 22.4174V25.8096H38.7324Z" fill="#151518"/>
<path d="M48.1261 10.0608H50.4093L84.3863 57.1091C83.9555 57.587 83.5625 58.1006 83.2123 58.6441L48.1261 10.0608Z" fill="#151518"/>
<path d="M81.3286 65.0699H83.1859C83.1859 70.6112 87.6781 75.1034 93.2194 75.1034C98.7608 75.1034 103.252 70.6112 103.252 65.0699H105.11C105.11 58.5029 99.7857 53.1791 93.2187 53.1791C93.2194 53.1791 93.2194 53.1791 93.2194 53.1791C99.7857 53.1791 105.11 58.5029 105.11 65.0699C105.11 71.6362 99.7857 76.96 93.2194 76.96C91.3207 76.96 89.5261 76.5149 87.9341 75.7239C86.5868 75.0542 85.3842 74.1369 84.387 73.0306C83.9555 72.5527 83.5625 72.0392 83.213 71.4957C82.0204 69.6426 81.3286 67.4372 81.3286 65.0699Z" fill="#151518"/>
<path d="M81.3286 65.0699C81.3286 62.7026 82.0204 60.4971 83.2123 58.6441C83.5625 58.1006 83.9555 57.587 84.3863 57.1091C85.3842 56.0036 86.5868 55.0849 87.9341 54.4158C89.5261 53.6241 91.32 53.1791 93.2187 53.1791C99.7857 53.1791 105.11 58.5029 105.11 65.0699H103.252C103.252 59.5292 98.76 55.0371 93.2194 55.0371C87.6781 55.0371 83.1859 59.5292 83.1859 65.0699H81.3286Z" fill="#151518"/>
<path d="M83.1859 65.0699C83.1859 59.5292 87.6781 55.0371 93.2194 55.0371C98.76 55.0371 103.252 59.5292 103.252 65.0699H103.145L89.9213 55.6034C88.0889 56.2411 86.5012 57.3909 85.3278 58.8866L93.9676 65.0699H91.0168L84.3813 60.3202C84.044 60.9458 83.7786 61.6134 83.5796 62.3096L87.4348 65.0699H83.1859Z" fill="#151518"/>
<path d="M83.1859 65.0699H87.4348L98.9391 73.3074C99.5282 72.8972 100.067 72.4229 100.556 71.898L91.0168 65.0699H93.9676L101.62 70.5463C102.636 68.99 103.234 67.1384 103.249 65.1441L103.145 65.0699H103.252C103.252 70.6112 98.7608 75.1034 93.2194 75.1034C87.6781 75.1034 83.1859 70.6112 83.1859 65.0699Z" fill="#151518"/>
<path d="M85.3278 58.8866C86.5012 57.3909 88.0889 56.2411 89.9213 55.6034L103.145 65.0699L103.249 65.1441C103.234 67.1384 102.636 68.99 101.62 70.5463L93.9676 65.0699L85.3278 58.8866Z" fill="#151518"/>
<path d="M83.5796 62.3095C83.7786 61.6134 84.044 60.9458 84.3813 60.3202L91.0168 65.0699L100.556 71.898C100.067 72.4229 99.5282 72.8972 98.9391 73.3074L87.4348 65.0699L83.5796 62.3095Z" fill="#151518"/>
<path d="M46.166 25.8018V44.1383H48.5571V25.8018H46.166Z" fill="#151518"/>
<path d="M46.166 85.9999V104.338H48.5571V85.9999H46.166Z" fill="#151518"/>
<path d="M50.1225 25.8018V44.1383H52.5133V25.8018H50.1225Z" fill="#151518"/>
<path d="M50.1225 85.9999V104.338H52.5133V85.9999H50.1225Z" fill="#151518"/>
<path d="M48.1261 65.0727V62.2725H54.0626V65.0699H58.6517C58.6517 65.0706 58.6517 65.072 58.6517 65.0727H48.1261Z" fill="#151518"/>
<path d="M48.1261 67.8794V65.0791H58.6517C58.6517 65.0806 58.6517 65.0813 58.6517 65.0827H54.0626V67.8794H48.1261Z" fill="#151518"/>
<path d="M54.0626 65.0699V59.1241H70.4605C73.7437 59.1241 76.4056 61.7867 76.4056 65.0699H58.6517H54.0626Z" fill="#151518"/>
<path d="M54.0626 71.0271V65.0827H76.4056C76.4056 68.3659 73.7437 71.0271 70.4605 71.0271H54.0626Z" fill="#151518"/>
<path d="M127.816 62.9301C127.816 62.9301 111.351 85.251 83.9348 85.251C60.462 85.251 41.6511 76.0877 36.726 73.4529C35.9492 73.0371 35.4628 72.2304 35.4628 71.3502V62.9301V54.5107C35.4628 53.6291 35.9492 52.8224 36.726 52.4066C41.6511 49.7718 60.462 40.6092 83.9348 40.6092C111.351 40.6092 127.816 62.9301 127.816 62.9301Z" fill="#4D6A7B"/>
<path d="M35.4628 71.3502C35.4628 72.2304 35.9492 73.0371 36.726 73.4529C41.6511 76.0877 60.462 85.251 83.9348 85.251C111.351 85.251 127.816 62.9301 127.816 62.9301L35.4628 62.9301V71.3502Z" fill="#415565"/>
<path d="M35.4628 77.7824V48.102H38.7923V77.7824H35.4628Z" fill="#D3D8DD"/>
<path d="M35.4628 62.9429V48.102H38.7923V62.9429H35.4628Z" fill="#EEF0F2"/>
<path d="M21.4528 55.8209C23.4977 55.1954 26.1198 53.2939 26.1198 53.2939V48.102V48.0771V42.8852C26.1198 42.8852 23.4977 41.8851 21.4528 41.2596C19.8023 40.7539 13.2027 42.5473 13.2027 42.5473L16.4186 44.3869L7.34749 48.0521H7.27759L7.31254 48.0657L7.27759 48.0771H7.34749L16.4186 53.2939L13.958 54.3894C13.958 54.3894 19.8023 56.3259 21.4528 55.8209Z" fill="#F5E80C"/>
<path d="M23.5659 52.5574C24.7242 52.2029 26.2929 50.8239 26.2929 50.8239V47.881V47.8674V45.7724C26.2929 45.7724 24.7242 44.8453 23.5659 44.4908C22.63 44.2048 19.8107 44.9245 19.8107 44.9245L21.2479 46.2061L17.6369 48.0808H17.5969L17.6169 48.0886L17.5969 48.0943H17.6369L21.2479 49.9149L19.3471 51.3057C19.3471 51.3057 22.6301 52.8449 23.5659 52.5574Z" fill="#F8A411"/>
<path d="M16.9023 48.0906H16.9422L20.5469 50.7773L19.6445 51.0781C19.6445 51.0781 22.6764 52.9211 23.6122 52.6337C24.7705 52.2792 26.1197 51.0393 26.1197 51.0393V48.102V48.0964V48.0906L16.9223 48.0849L16.9023 48.0906Z" fill="#F68316"/>
<path d="M7.30795 48.0898L16.4186 53.2931L13.7359 54.4717C13.7359 54.4717 19.9378 56.3665 21.5883 55.8615C23.6332 55.236 26.1197 53.2931 26.1197 53.2931V51.0385C26.1197 51.0385 24.8169 52.1864 23.6586 52.5409C22.7228 52.8284 19.6367 51.0859 19.6367 51.0859L20.8008 50.707L17.5795 48.0898L12.5285 48.0955L12.5484 48.0898L7.273 48.0784L7.23805 48.0898H7.30795Z" fill="#F8CD11"/>
<path d="M22.2076 85.5325C24.2525 84.907 26.8745 83.0055 26.8745 83.0055V77.8136V77.7887V72.5968C26.8745 72.5968 24.2525 71.5967 22.2076 70.9712C20.5571 70.4655 13.9575 72.2589 13.9575 72.2589L17.1734 74.0985L8.10225 77.7637H8.03236L8.06731 77.7773L8.03236 77.7887H8.10225L17.1734 83.0055L14.7128 84.101C14.7128 84.101 20.5571 86.0375 22.2076 85.5325Z" fill="#F5E80C"/>
<path d="M24.3206 82.269C25.479 81.9145 27.0477 80.5355 27.0477 80.5355V77.5926V77.579V75.484C27.0477 75.484 25.479 74.5569 24.3206 74.2024C23.3848 73.9164 20.5655 74.6361 20.5655 74.6361L22.0026 75.9177L18.3916 77.7923H18.3517L18.3717 77.8002L18.3517 77.8059H18.3916L22.0026 79.6265L20.1019 81.0173C20.1019 81.0173 23.3848 82.5564 24.3206 82.269Z" fill="#F8A411"/>
<path d="M17.6571 77.8022H17.697L21.3016 80.4889L20.3993 80.7897C20.3993 80.7897 23.4311 82.6327 24.3669 82.3453C25.5253 81.9908 26.8745 80.7509 26.8745 80.7509V77.8136V77.8079V77.8022L17.677 77.7965L17.6571 77.8022Z" fill="#F68316"/>
<path d="M8.06272 77.8014L17.1734 83.0047L14.4906 84.1833C14.4906 84.1833 20.6926 86.0781 22.3431 85.5731C24.388 84.9475 26.8745 83.0047 26.8745 83.0047V80.7501C26.8745 80.7501 25.5717 81.898 24.4133 82.2525C23.4775 82.54 20.3915 80.7975 20.3915 80.7975L21.5556 80.4186L18.3343 77.8014L13.2832 77.8071L13.3032 77.8014L8.02777 77.79L7.99282 77.8014H8.06272Z" fill="#F8CD11"/>
<path d="M32.0413 54.1541V42.0514H47.7146V54.1541H32.0413Z" fill="#4D6A7B"/>
<path d="M32.0413 48.102V54.1541H47.7146V48.102H32.0413Z" fill="#415565"/>
<path d="M35.4628 54.1541V42.0514H47.7145V54.1541H35.4628Z" fill="#F8A411"/>
<path d="M35.4628 48.102V54.1541H47.7145V48.102H35.4628Z" fill="#F68316"/>
<path d="M26.1198 55.5785V40.627L32.0413 43.5592V52.6455L26.1198 55.5785Z" fill="#4D6A7B"/>
<path d="M26.1198 48.102V55.5785L32.0413 52.6455V48.102H26.1198Z" fill="#415565"/>
<path d="M27.0477 48.102V55.1191L27.8737 54.709V48.102H27.0477Z" fill="#6E8892"/>
<path d="M28.701 48.102V54.3003L29.527 53.8909V48.102H28.701Z" fill="#6E8892"/>
<path d="M31.1804 53.0721V48.102H30.3537V53.4808L31.1804 53.0721Z" fill="#6E8892"/>
<path d="M27.8737 48.102V41.4951L27.0477 41.0857V48.102H27.8737Z" fill="#8BA1AB"/>
<path d="M29.527 48.102V42.3146L28.701 41.9052V48.102H29.527Z" fill="#8BA1AB"/>
<path d="M31.1804 48.102V43.1327L30.3537 42.7233V48.102H31.1804Z" fill="#8BA1AB"/>
<path d="M32.0413 83.8337V71.7311H47.7146V83.8337H32.0413Z" fill="#4D6A7B"/>
<path d="M32.0413 77.7824V83.8337H47.7146V77.7824H32.0413Z" fill="#415565"/>
<path d="M35.4628 83.8202V71.7189H47.7145V83.8202H35.4628Z" fill="#F8A411"/>
<path d="M35.4628 77.7696V83.8202H47.7145V77.7696H35.4628Z" fill="#F68316"/>
<path d="M26.1198 85.2581V70.3067L32.0413 73.2396V82.3259L26.1198 85.2581Z" fill="#4D6A7B"/>
<path d="M26.1198 77.7824V85.2581L32.0413 82.3259V77.7824H26.1198Z" fill="#415565"/>
<path d="M27.0477 77.7824V84.7988L27.8737 84.3894V77.7824H27.0477Z" fill="#6E8892"/>
<path d="M28.701 77.7824V83.98L29.527 83.5713V77.7824H28.701Z" fill="#6E8892"/>
<path d="M31.1804 82.7517V77.7824H30.3537V83.1611L31.1804 82.7517Z" fill="#6E8892"/>
<path d="M27.8737 77.7824V71.1761L27.0477 70.7674V77.7824H27.8737Z" fill="#8BA1AB"/>
<path d="M29.527 77.7824V71.9942L28.701 71.5848V77.7824H29.527Z" fill="#8BA1AB"/>
<path d="M31.1804 77.7824V72.8131L30.3537 72.4037V77.7824H31.1804Z" fill="#8BA1AB"/>
<path d="M49.2416 94.512V89.4956H84.3079C85.693 89.4956 86.8157 90.6183 86.8157 92.0035C86.8157 93.3879 85.693 94.512 84.3079 94.512H49.2416Z" fill="#4D6A7B"/>
<path d="M49.2416 92.0034V94.512H84.3079C85.693 94.512 86.8157 93.3879 86.8157 92.0034H49.2416Z" fill="#415565"/>
<path d="M35.5821 107.248C36.9779 106.82 38.0291 105.752 38.0291 105.752V102.207V102.189V98.6447C38.0291 98.6447 36.7619 97.88 35.366 97.4527C34.239 97.1075 30.5368 97.8552 30.5368 97.8552L32.6999 99.2385L25.6954 102.051H25.6476L25.6718 102.06L25.6476 102.068H25.6954L32.4987 105.752L30.6295 106.455C30.6295 106.455 34.4551 107.592 35.5821 107.248Z" fill="#E5F6FC"/>
<path d="M35.9471 104.773C36.7381 104.531 37.9813 104.212 37.9813 104.212V102.203V102.193V100.185C37.9813 100.185 36.7381 99.5528 35.9471 99.311C35.3087 99.1148 33.5 99.7662 33.5 99.7662L34.4804 100.887L30.7959 102.203H30.7688L30.7824 102.208L30.7688 102.213H30.7959L34.4804 103.268L33.5 104.493C33.5 104.493 35.3087 104.969 35.9471 104.773Z" fill="#548DD2"/>
<path d="M30.8321 102.198H30.8592L34.2274 104.212L32.3985 104.481C32.3985 104.481 35.3126 105.809 35.951 105.614C36.742 105.372 37.9813 104.212 37.9813 104.212V102.207V102.203V102.198L30.8457 102.193L30.8321 102.198Z" fill="#4773C2"/>
<path d="M25.607 102.056L32.4987 105.752L30.5645 106.457C30.5645 106.457 34.5434 107.581 35.6703 107.237C37.0662 106.81 37.9813 105.752 37.9813 105.752V104.212C37.9813 104.212 36.7381 105.373 35.9471 105.615C35.3087 105.81 32.4987 104.481 32.4987 104.481L34.2274 104.212L30.9073 102.198L28.7025 102.203L28.716 102.198L25.5835 102.047L25.5592 102.056H25.607Z" fill="#AFE4F9"/>
<path d="M35.7207 28.7097C37.1165 28.2824 38.1677 27.2137 38.1677 27.2137V23.6688V23.6509V20.1067C38.1677 20.1067 36.9005 19.342 35.5046 18.9148C34.3777 18.5695 30.6754 19.3172 30.6754 19.3172L32.8385 20.7006L25.834 23.5127H25.7862L25.8104 23.522L25.7862 23.5305H25.834L32.6373 27.2137L30.7682 27.9175C30.7682 27.9175 34.5937 29.0542 35.7207 28.7097Z" fill="#E5F6FC"/>
<path d="M36.0857 26.2353C36.8767 25.9935 38.1199 25.6738 38.1199 25.6738V23.6652V23.6552V21.6467C38.1199 21.6467 36.8767 21.0148 36.0857 20.773C35.4473 20.5769 33.6386 21.2282 33.6386 21.2282L34.619 22.3487L30.9345 23.6652H30.9074L30.921 23.6702L30.9074 23.6752H30.9345L34.619 24.7297L33.6386 25.9552C33.6386 25.9552 35.4473 26.4307 36.0857 26.2353Z" fill="#548DD2"/>
<path d="M30.9707 23.6602H30.9978L34.366 25.6737L32.5371 25.9429C32.5371 25.9429 35.4512 27.2711 36.0896 27.0756C36.8806 26.8338 38.12 25.6737 38.12 25.6737V23.6687V23.6652V23.6602L30.9843 23.6552L30.9707 23.6602Z" fill="#4773C2"/>
<path d="M25.7456 23.5176L32.6373 27.2136L30.7031 27.9191C30.7031 27.9191 34.682 29.0434 35.809 28.6989C37.2048 28.2716 38.1199 27.2136 38.1199 27.2136V25.6737C38.1199 25.6737 36.8767 26.8348 36.0857 27.0766C35.4473 27.2721 32.6373 25.9429 32.6373 25.9429L34.366 25.6737L31.0459 23.6601L28.8411 23.6651L28.8546 23.6601L25.7221 23.509L25.6978 23.5176H25.7456Z" fill="#AFE4F9"/>
<path d="M42.0241 106.339V98.0762H72.8143C75.0961 98.0762 76.9456 99.925 76.9456 102.207C76.9456 104.488 75.0961 106.339 72.8143 106.339H42.0241Z" fill="#F8A411"/>
<path d="M42.0241 102.207V106.339H72.8143C75.0961 106.339 76.9456 104.488 76.9456 102.207H42.0241Z" fill="#F68316"/>
<path d="M42.0241 106.339V98.0762H51.4563C53.7381 98.0762 55.5868 99.925 55.5868 102.207C55.5868 104.488 53.7381 106.339 51.4563 106.339H42.0241Z" fill="#4D6A7B"/>
<path d="M42.0241 102.207V106.339H51.4563C53.7381 106.339 55.5868 104.488 55.5868 102.207H42.0241Z" fill="#415565"/>
<path d="M37.9813 107.311V97.1026L42.0241 99.1055V105.308L37.9813 107.311Z" fill="#4D6A7B"/>
<path d="M37.9813 102.207V107.311L42.0241 105.308V102.207H37.9813Z" fill="#415565"/>
<path d="M38.6147 102.207V106.996L39.1789 106.717V102.207H38.6147Z" fill="#6E8892"/>
<path d="M39.7438 102.207V106.438L40.308 106.158V102.207H39.7438Z" fill="#6E8892"/>
<path d="M41.4364 105.599V102.207H40.8722V105.879L41.4364 105.599Z" fill="#6E8892"/>
<path d="M39.1789 102.207V97.696L38.6147 97.4172V102.207H39.1789Z" fill="#8BA1AB"/>
<path d="M40.308 102.207V98.2552L39.7438 97.9756V102.207H40.308Z" fill="#8BA1AB"/>
<path d="M41.4364 102.207V98.8144L40.8722 98.5341V102.207H41.4364Z" fill="#8BA1AB"/>
<path d="M93.9683 62.9301V68.1918L58.0412 117.939H44.7737V62.9301H93.9683Z" fill="#D3D8DD"/>
<path d="M49.2416 36.3646V31.3489L84.3079 31.3489C85.693 31.3489 86.8157 32.4715 86.8157 33.8567C86.8157 35.2419 85.693 36.3646 84.3079 36.3646H49.2416Z" fill="#4D6A7B"/>
<path d="M49.2416 33.8567V36.3646H84.3079C85.693 36.3646 86.8157 35.2419 86.8157 33.8567H49.2416Z" fill="#415565"/>
<path d="M42.0241 27.8018V19.5394L72.8143 19.5394C75.0961 19.5394 76.9456 21.3896 76.9456 23.6699C76.9456 25.9516 75.0961 27.8018 72.8143 27.8018H42.0241Z" fill="#F8A411"/>
<path d="M42.0241 23.6699V27.8018H72.8143C75.0961 27.8018 76.9456 25.9516 76.9456 23.6699L42.0241 23.6699Z" fill="#F68316"/>
<path d="M42.0241 27.8018V19.5394H51.4563C53.7381 19.5394 55.5868 21.3896 55.5868 23.6699C55.5868 25.9516 53.7381 27.8018 51.4563 27.8018H42.0241Z" fill="#4D6A7B"/>
<path d="M42.0241 23.6699V27.8018H51.4563C53.7381 27.8018 55.5868 25.9516 55.5868 23.6699H42.0241Z" fill="#415565"/>
<path d="M37.9813 28.7747V18.5665L42.0241 20.5693V26.7726L37.9813 28.7747Z" fill="#4D6A7B"/>
<path d="M37.9813 23.6699V28.7747L42.0241 26.7726V23.6699H37.9813Z" fill="#415565"/>
<path d="M38.6147 23.6699V28.4609L39.1789 28.1813V23.6699H38.6147Z" fill="#6E8892"/>
<path d="M39.7438 23.6699V27.9024L40.308 27.6228V23.6699H39.7438Z" fill="#6E8892"/>
<path d="M41.4364 27.0636V23.6699H40.8722V27.3432L41.4364 27.0636Z" fill="#6E8892"/>
<path d="M39.1789 23.6699V19.1599L38.6147 18.8803V23.6699H39.1789Z" fill="#8BA1AB"/>
<path d="M40.308 23.6699V19.7184L39.7438 19.4395V23.6699H40.308Z" fill="#8BA1AB"/>
<path d="M41.4364 23.6699V20.2776L40.8722 19.9987V23.6699H41.4364Z" fill="#8BA1AB"/>
<path d="M93.9683 62.9301V57.6683L58.0412 7.92099L44.7737 7.92099V62.9301H93.9683Z" fill="#EEF0F2"/>
<path d="M88.4755 68.1918V62.9301H86.193V68.1918L50.2659 117.939H52.549L88.4755 68.1918Z" fill="#EEF0F2"/>
<path d="M88.4755 57.6683L52.549 7.92099H50.2659L86.193 57.6683V62.9301H88.4755V57.6683Z" fill="white"/>
<path d="M95.3592 51.0393C88.7922 51.0393 83.4684 56.3631 83.4684 62.9301C83.4684 69.4964 88.7922 74.8202 95.3592 74.8202C101.926 74.8202 107.249 69.4964 107.249 62.9301C107.249 56.3631 101.926 51.0393 95.3592 51.0393Z" fill="#354852"/>
<path d="M95.3585 51.0393C101.926 51.0393 107.249 56.3631 107.249 62.9301H83.4684C83.4684 56.3631 88.7922 51.0393 95.3585 51.0393Z" fill="#4C6573"/>
<path d="M95.3592 52.8973C89.8179 52.8973 85.3257 57.3894 85.3257 62.9301C85.3257 68.4714 89.8179 72.9636 95.3592 72.9636C100.901 72.9636 105.392 68.4714 105.392 62.9301C105.392 57.3894 100.9 52.8973 95.3592 52.8973Z" fill="#6ACEDA"/>
<path d="M85.3257 62.9301C85.3257 68.4714 89.8179 72.9636 95.3592 72.9636C100.901 72.9636 105.392 68.4714 105.392 62.9301H85.3257Z" fill="#56C7D7"/>
<path d="M105.388 63.0043L92.0611 53.4637C90.2287 54.1013 88.6409 55.2511 87.4676 56.7468L103.76 68.4065C104.776 66.8502 105.373 64.9986 105.388 63.0043Z" fill="#92DBE5"/>
<path d="M85.7194 60.1698L101.079 71.1676C101.668 70.7575 102.207 70.2831 102.696 69.7575L86.5211 58.1805C86.1838 58.806 85.9184 59.4736 85.7194 60.1698Z" fill="#92DBE5"/>
<path d="M48.3058 41.9993V23.662H50.6967V41.9993H48.3058Z" fill="#4D6A7B"/>
<path d="M48.3058 102.198V83.8601H50.6967V102.198H48.3058Z" fill="#415565"/>
<path d="M52.2623 41.9993V23.662H54.6532V41.9993H52.2623Z" fill="#4D6A7B"/>
<path d="M52.2623 102.198V83.8601H54.6532V102.198H52.2623Z" fill="#415565"/>
<path d="M50.2659 62.9329V60.1327H57.9913C59.5376 60.1327 60.7915 61.3859 60.7915 62.9329H50.2659Z" fill="#F8A411"/>
<path d="M50.2659 62.9394V65.7396H57.9913C59.5376 65.7396 60.7915 64.4857 60.7915 62.9394H50.2659Z" fill="#F68316"/>
<path d="M56.2024 62.9301V56.9843H72.6003C75.8835 56.9843 78.5447 59.6469 78.5447 62.9301H56.2024Z" fill="#F8A411"/>
<path d="M56.2024 62.9429V68.8873H72.6003C75.8835 68.8873 78.5447 66.2261 78.5447 62.9429H56.2024Z" fill="#F68316"/>
</svg>
