<svg width="128" height="128" viewBox="0 0 128 128" fill="none" xmlns="http://www.w3.org/2000/svg">
<path d="M126.248 63.9109C126.248 77.6395 126.993 89.9931 115.069 98.9363C110.683 102.225 104.377 113.33 100.164 116.823C89.1991 125.913 74.5324 128 59.1769 128C45.3508 128 39.0371 120.614 28.6221 113.097C22.5664 108.725 14.5623 105.523 10.376 99.3271C6.23916 93.2021 7.317 86.2083 5.52 78.8155C4.35104 74.0019 0.845213 67.565 0.302993 62.4206C-1.1864 48.2612 3.09708 43.3864 6.99975 34.0971C16.6988 11.0004 21.6113 18.6851 28.6221 13.2359C33.5425 9.41114 34.4824 6.92843 40.4065 4.67762C47.3981 2.02067 55.2173 -1.3544 62.9028 0.564445C77.8073 4.29147 85.7947 0.648041 94.9474 5.78182C103.634 10.6566 105.381 24.4146 115.499 28.5972C123.131 31.7545 128.484 46.7697 125.996 50.5097C123.47 54.305 126.248 59.7166 126.248 63.9109Z" fill="#FFE500"/>
<path d="M93.9762 107.889C89.5558 107.039 86.3256 108.518 85.3885 103.284C84.5115 98.39 80.0452 97.3082 75.8249 97.3423C73.9944 97.3564 72.3263 96.6019 70.6629 95.8473C68.4556 94.8455 66.2578 93.8425 63.7033 94.6383C58.415 96.2875 54.2121 100.223 50.0784 103.756C48.1798 105.378 46.4737 107.203 44.6114 108.865C42.3361 110.896 38.9364 111.696 36.1654 112.806C34.2745 113.564 32.34 114.046 30.3815 114.394C31.8667 115.506 33.2757 116.605 34.6474 117.669C35.323 117.085 37.9643 117.486 40.5758 117.887C43.0755 118.272 45.5481 118.655 46.2424 118.175C49.9382 115.615 72.4511 102.28 74.6666 104.274C77.4483 104.074 79.9699 104.251 82.4879 106.65C83.8123 107.911 84.9518 109.612 85.9324 111.434C89.391 112.593 92.9344 113.383 94.1246 117.571C94.4471 118.705 94.5648 119.744 94.5283 120.704C96.4931 119.575 98.3825 118.3 100.164 116.823C100.698 116.38 101.265 115.815 101.858 115.159C100.898 111.617 98.3978 108.74 93.9762 107.889Z" fill="#F0C900"/>
<path d="M94.1245 117.571C92.9344 113.383 89.391 112.593 85.9324 111.434C84.9518 109.612 83.8122 107.911 82.4879 106.65C79.9698 104.251 77.4483 104.074 74.6665 104.274C72.4511 102.28 70.0225 100.493 66.9441 100.662C66.6969 100.675 66.4638 100.703 66.2283 100.728C61.1424 100.044 58.1188 104.356 54.1421 106.919C53.032 107.635 51.9997 108.5 51.0037 109.438C46.9064 111.192 46.9952 112.672 43.2994 115.232C41.8799 116.215 35.9705 116.525 34.6474 117.669C41.9608 123.345 48.2055 128 59.1769 128C72.0367 128 84.4044 126.519 94.5283 120.704C94.5648 119.744 94.4471 118.705 94.1245 117.571Z" fill="#D5A200"/>
<path d="M29.6894 37.6334C31.314 39.8583 32.9529 41.6818 35.1501 43.3452C40.3269 47.2629 48.3495 42.0149 52.1611 38.5798C56.6736 34.5138 57.4479 28.7102 53.6087 24.1367C48.3835 17.914 55.1772 8.5023 54.8526 1.17068C54.8388 0.85754 54.8024 0.554993 54.7592 0.254807C52.4113 0.582069 50.0827 1.20364 47.8004 1.9547C47.9287 2.58921 48.0165 3.25551 48.0096 3.98655C47.9659 8.65534 45.1425 12.7649 47.2389 17.2395C48.6575 20.2673 50.129 23.3339 50.8069 26.6242C52.226 33.5132 47.6762 38.1914 41.0972 39.0542C32.4434 40.1902 32.0843 31.5625 28.9661 25.9002C26.2585 20.9854 21.6624 24.3404 17.4708 22.0201C16.3994 21.4268 15.574 20.8005 14.9352 20.0848C13.5231 21.6352 12.0148 23.8106 10.3617 26.9173C14.0791 29.5683 19.2274 30.0122 23.5619 31.0775C27.3483 32.0087 27.6353 34.8175 29.6894 37.6334Z" fill="#F0C900"/>
<path d="M84.03 16.5567C83.9723 16.4613 83.8982 16.3401 83.7852 16.1506C83.3696 15.449 83.0247 14.705 82.6197 13.9975C81.6956 12.3776 80.2865 10.8955 78.476 10.3152C74.7183 9.10972 71.7129 10.8084 68.3826 11.9409C67.1419 11.437 65.7233 11.4535 64.4849 12.3129C64.346 12.4094 64.2059 12.5059 64.0658 12.6037L64.1176 12.6919C63.0534 13.3629 62.3118 14.4919 62.1034 15.7362C61.2766 16.9134 61.0302 18.5662 61.2311 19.9247C61.6086 22.4839 63.6891 24.4451 66.1824 25.0008C68.1578 25.4411 68.8311 26.8914 71.461 27.4223C72.7913 27.6907 74.0673 27.52 75.354 27.1115C76.025 26.8996 77.7614 25.8448 78.0063 25.8495C80.4984 25.8966 83.1177 25.859 84.8399 23.7494C86.6834 21.4927 86.6516 18.2283 84.03 16.5567Z" fill="#F0C900"/>
<path d="M80.8975 16.0905C79.599 13.1628 77.2799 11.9009 74.0732 12.44C72.743 12.6649 71.5293 13.2912 70.3273 13.8821C70.3238 13.8845 71.5057 13.9304 70.0495 13.8951C68.9182 13.868 67.9882 14.0881 67.0206 14.6861C64.4566 16.2765 64.4566 19.9482 67.0206 21.5386C68.1389 22.232 69.3491 22.4357 70.5593 22.3344C71.4104 22.7641 72.2933 23.2067 73.3174 23.1502C74.2427 23.0984 75.1056 22.9419 75.9791 22.6523C76.2758 22.5463 76.5712 22.4404 76.8679 22.3356C76.9715 22.2979 78.2735 22.0731 77.4377 22.119C80.6844 21.9412 82.1453 18.9029 80.8975 16.0905Z" fill="#D5A200"/>
<path d="M37.115 66.6349C35.8224 66.795 34.6235 67.2224 33.3742 67.5826C30.9783 68.2712 29.4153 65.7226 27.712 64.6561C24.9019 62.8961 22.72 61.6742 20.3486 59.3104C17.2617 56.232 10.9508 52.6757 7.89183 57.8989C6.7988 59.766 20.3238 87.5809 34.28 86.6533C40.6268 86.2318 47.0099 81.9374 48.2226 75.4887C49.2729 69.9052 41.7337 66.0675 37.115 66.6349Z" fill="#F0C900"/>
<path d="M32.1412 69.0976C28.6515 69.2907 23.6392 63.9026 21.2168 61.8037C18.5727 59.514 15.8752 57.9036 12.3458 58.4639C10.369 58.7771 9.5541 61.8731 11.1163 63.1198C11.296 63.2634 11.4671 63.4164 11.6436 63.5636C11.6685 63.9332 11.7545 64.3064 11.955 64.656C14.1259 68.4478 16.7645 72.4268 19.2614 76.0431C21.3956 79.1345 23.7229 80.7296 27.3529 81.6572C31.451 82.7073 42.7218 84.8804 43.9359 78.3916C45.4036 70.5432 38.2916 68.7562 32.1412 69.0976Z" fill="#D5A200"/>
<path d="M117.42 40.2056C116.15 38.1502 116.029 35.4873 114.819 33.4237C113.181 30.6278 110.242 30.7856 108.138 28.6148C105.904 26.3063 106.544 22.4781 104.174 19.9412C102.325 17.9635 100.425 16.2624 97.7444 15.5903C95.8021 15.1041 94.0727 15.9234 92.9779 17.5303C91.3405 19.9306 91.8361 23.6517 91.2675 26.4347C91.0273 27.613 90.5612 28.7184 90.1609 29.8073C88.4069 32.1947 86.3927 34.3725 84.2878 36.6057C81.8075 39.2367 78.928 41.8949 77.1316 45.0992C76.3676 45.7326 75.7896 46.6213 75.4105 47.5654C73.2445 52.9441 79.446 54.9665 83.2048 55.7988C86.9565 56.6287 90.175 55.8706 88.7883 61.3305C88.0478 64.2535 87.9948 67.1341 88.3986 70.0877C89.1049 75.2462 92.6978 78.0691 97.8374 77.1886C100.25 76.7754 101.682 76.0855 103.561 74.5481C106.346 72.2679 109.07 72.3421 111.518 69.392C115.16 64.9987 118.092 60.6936 119.494 55.0642C121.007 48.9993 120.695 45.5006 117.42 40.2056Z" fill="#F0C900"/>
<path d="M83.2907 61.8261C82.7033 60.4782 81.2294 59.6671 79.7921 59.6094C79.6614 59.6035 79.5307 59.5811 79.3989 59.567C78.5725 59.1279 77.6001 59.062 76.6066 59.2421C76.3346 59.2915 76.091 59.3869 75.8649 59.507C74.5182 59.494 73.1291 59.9826 72.072 60.9102C71.3892 61.5106 70.989 62.2334 70.1885 62.6101C69.1702 63.0904 68.0624 63.3717 67.1442 64.0415C65.6456 65.1363 64.7592 66.7373 65.2748 68.6374C65.5656 69.7074 65.9929 70.734 66.6062 71.6616C66.9806 72.2278 67.435 72.7493 67.8647 73.2732C67.7187 73.0954 67.7599 73.2355 67.8293 73.3744C67.9059 73.5263 68.0153 73.6781 67.9541 73.418C68.2814 74.7859 69.5716 76.1809 70.9866 76.4505C75.7884 77.3698 82.1677 77.072 84.0842 71.6816C85.0024 69.1 85.2614 64.3206 83.2907 61.8261Z" fill="#F0C900"/>
<path d="M81.0282 65.9769C80.5926 64.224 78.6326 63.0563 76.875 63.2352C75.9156 62.8385 74.8078 62.8138 73.9591 63.4471L73.8084 63.5695L73.673 63.619C72.8984 63.9286 72.1297 64.3135 71.5741 64.9386C68.8418 65.4566 66.9029 69.1353 69.4127 71.4603C69.6564 71.6863 69.9201 71.8829 70.1932 72.0642L70.1955 72.0654L70.3156 72.1407C70.5263 72.2608 70.7288 72.3856 70.9278 72.528L70.9595 72.5539C71.2962 72.8223 71.64 73.0848 71.9873 73.3403C72.9161 74.0278 74.2651 74.5034 75.42 74.3503C76.9044 74.1526 78.0922 73.644 78.9339 72.3703C79.0693 72.1666 79.4319 71.8099 78.9386 72.2467C79.2894 71.9371 79.5355 71.5062 79.7062 71.0542C80.9246 69.8181 81.5556 68.0959 81.0282 65.9769Z" fill="#D5A200"/>
<path d="M111.604 38.9424C105.102 37.5368 106.279 30.4736 103.925 26.942C102.748 26.942 100.393 26.942 99.2159 25.7648C93.3299 32.828 81.5579 45.7773 85.0895 48.1317C93.3299 54.0177 95.6843 56.3721 94.5071 66.9669C93.3299 72.8529 101.57 72.8529 103.925 68.1441C107.456 59.9037 115.697 55.1949 116.115 46.0598C116.244 41.8689 114.774 40.9448 111.604 38.9424Z" fill="#D5A200"/>
<path d="M59.1769 128C59.2 128 59.223 128 59.2459 128C59.2234 128 59.1995 128 59.1769 128ZM59.1769 128C59.1576 128 59.1393 128 59.1199 128C59.1388 128 59.1581 128 59.1769 128ZM59.2565 128C59.2791 128 59.3016 128 59.3241 128C59.3021 128 59.2791 128 59.2565 128ZM59.1076 128C59.0886 128 59.0698 128 59.0514 128C59.0703 128 59.0886 128 59.1076 128ZM59.3324 128C72.1356 127.988 84.4444 126.496 94.5284 120.704C96.4766 119.584 98.3507 118.321 100.119 116.86C89.1956 125.888 74.6101 127.986 59.3324 128ZM59.0423 128C59.0257 128 59.0087 128 58.9916 128C59.0092 128 59.0252 128 59.0423 128ZM58.981 128C58.9627 128 58.9438 128 58.9255 128C58.9443 128 58.9622 128 58.981 128ZM58.7885 127.999C58.7687 127.999 58.7502 127.998 58.7301 127.998C58.7498 127.998 58.7687 127.999 58.7885 127.999ZM58.6638 127.997C58.644 127.997 58.6233 127.997 58.603 127.997C58.6238 127.997 58.6435 127.997 58.6638 127.997ZM58.6027 127.997C47.2072 127.825 40.957 122.552 33.0504 116.431C33.5894 116.847 34.1215 117.261 34.6474 117.669C41.8326 123.247 47.9853 127.837 58.6027 127.997ZM100.164 116.823C100.698 116.38 101.265 115.815 101.858 115.159C100.898 111.617 98.3978 108.74 93.9762 107.889C89.5558 107.039 86.3256 108.518 85.3885 103.284C84.8823 100.46 83.1801 98.9045 81.0199 98.1016C82.1041 96.5383 83.0977 94.7183 84.9177 92.5676C90.3834 86.1083 103.796 90.5793 107.772 79.6502C108.96 76.3869 109.659 73.5652 109.911 70.9235C110.457 70.5162 110.994 70.023 111.518 69.392C115.16 64.9987 118.092 60.6936 119.494 55.0642C121.007 48.9993 120.695 45.5007 117.42 40.2056C116.15 38.1502 116.029 35.4874 114.819 33.4237C113.181 30.6279 110.242 30.7856 108.138 28.6149C105.904 26.3064 106.544 22.4781 104.174 19.9412C102.325 17.9635 100.425 16.2625 97.7445 15.5903C97.3678 15.4961 97.0005 15.4514 96.6426 15.4514C95.6408 15.4514 94.7249 15.8069 93.9645 16.4367C88.8566 11.3665 82.515 6.21975 77.7132 2.52215C82.7339 2.72345 86.9342 2.69518 91.1404 4.09488C91.1427 4.09488 91.1451 4.09606 91.1474 4.09724C91.1545 4.09959 91.1627 4.10195 91.171 4.10431C91.1733 4.10548 91.1768 4.10667 91.1792 4.10784C91.1874 4.11019 91.1945 4.11256 91.2028 4.11491C91.2039 4.11609 91.2075 4.11609 91.2086 4.11726C91.2192 4.1208 91.2286 4.12431 91.2381 4.12666C91.2416 4.12902 91.2463 4.1302 91.2498 4.13138C91.2557 4.13255 91.2616 4.13492 91.2663 4.13727C91.2722 4.13845 91.2781 4.14081 91.2828 4.14198C91.2875 4.14316 91.291 4.14552 91.2946 4.1467C91.3005 4.14906 91.3075 4.15021 91.3134 4.15256C91.3158 4.15374 91.3193 4.15491 91.3228 4.1561C91.3299 4.15845 91.3358 4.16081 91.3428 4.16316H91.344C92.5024 4.56106 93.6608 5.06844 94.8391 5.72178C94.8403 5.72178 94.8403 5.72178 94.8403 5.72178C94.8485 5.72649 94.8556 5.73003 94.8627 5.73474C94.865 5.73592 94.8685 5.73708 94.8709 5.73943C94.878 5.74296 94.8839 5.7465 94.8897 5.75003C94.8944 5.75239 94.898 5.75475 94.9027 5.7571C94.9086 5.75946 94.9133 5.763 94.918 5.76535C94.9274 5.77124 94.938 5.77711 94.9474 5.78182C103.634 10.6566 105.381 24.4146 115.499 28.5972C121.842 31.22 126.609 42.035 126.612 47.7609C126.613 48.924 126.416 49.8775 125.996 50.5097C125.206 51.6963 124.936 53.0395 124.936 54.4545C124.936 57.5682 126.248 61.028 126.248 63.9109C126.248 65.4389 126.257 66.9505 126.257 68.442C126.256 80.3482 125.665 90.989 115.069 98.9363C110.683 102.225 104.377 113.33 100.164 116.823ZM30.3834 114.393C29.8085 113.962 29.2222 113.53 28.6222 113.097C22.5664 108.725 14.5623 105.523 10.376 99.3271C6.23916 93.2021 7.317 86.2083 5.52 78.8155C5.51671 78.8026 5.51353 78.7896 5.51035 78.7755C5.51035 78.7743 5.50988 78.7743 5.50941 78.7719C5.44596 78.5118 5.37509 78.2469 5.29834 77.9773C5.29739 77.9726 5.29598 77.9691 5.29469 77.9644C5.29233 77.9561 5.29045 77.9491 5.28821 77.942C4.32667 74.5752 2.44915 70.5504 1.27289 66.7586C6.5955 72.6246 14.3761 75.2662 16.358 80.6449C19.8354 90.0837 16.358 92.0696 28.7785 97.5342C35.8955 100.666 42.0331 103.471 48.8751 104.828C47.4376 106.156 46.0728 107.56 44.6114 108.865C42.3361 110.896 38.9365 111.696 36.1654 112.806C34.2754 113.563 32.3409 114.046 30.3834 114.393Z" fill="#E5CE00"/>
<path d="M94.5283 120.704C94.533 120.592 94.5342 120.478 94.5342 120.364C94.5342 119.5 94.4094 118.572 94.1245 117.571C92.9344 113.383 89.391 112.593 85.9324 111.434C84.9518 109.612 83.8122 107.911 82.4879 106.65C82.4584 106.621 82.4278 106.593 82.3984 106.564C82.3913 106.559 82.3843 106.551 82.3772 106.546C80.3595 104.675 78.3382 104.215 76.1792 104.214C76.1757 104.214 76.1734 104.214 76.1698 104.214H76.1686C75.7225 104.214 75.2716 104.232 74.8137 104.263C74.7901 104.265 74.7666 104.267 74.7419 104.269C74.7172 104.27 74.6913 104.273 74.6665 104.274C74.3004 103.944 73.9296 103.622 73.5494 103.311C77.8403 101.938 79.5178 100.267 81.0199 98.1016C83.1801 98.9045 84.8823 100.46 85.3885 103.284C86.3256 108.518 89.5558 107.039 93.9762 107.889C98.3978 108.74 100.898 111.617 101.858 115.159C101.265 115.815 100.698 116.38 100.164 116.823C100.151 116.834 100.138 116.845 100.125 116.856C100.124 116.857 100.12 116.859 100.119 116.86C98.3507 118.321 96.4766 119.584 94.5283 120.704ZM34.6474 117.669C34.1214 117.261 33.5893 116.847 33.0504 116.431C32.1841 115.76 31.2984 115.079 30.3833 114.393C32.3409 114.046 34.2754 113.563 36.1654 112.806C38.9364 111.696 42.3361 110.896 44.6114 108.865C46.0727 107.56 47.4376 106.156 48.8751 104.828C51.1195 105.273 53.439 105.563 55.8946 105.657C55.3253 106.102 54.7445 106.53 54.1421 106.919C53.032 107.635 51.9997 108.5 51.0037 109.438C46.9064 111.192 46.9952 112.672 43.2994 115.232C41.8799 116.215 35.9705 116.525 34.6474 117.669Z" fill="#D8B500"/>
<path d="M59.1769 128C59.1581 128 59.1388 128 59.1199 128C59.1158 128 59.1117 128 59.1076 128C59.0886 128 59.0702 128 59.0514 128C59.0492 128 59.0449 128 59.0422 128C59.0252 128 59.0092 128 58.9916 128C58.9875 128 58.9853 128 58.981 128C58.9622 128 58.9443 128 58.9254 128C58.9222 128 58.9171 128 58.9139 128C58.8753 127.999 58.8372 127.999 58.7985 127.999C58.7953 127.999 58.7921 127.999 58.7884 127.999C58.7686 127.999 58.7498 127.998 58.73 127.998H58.7291C58.7093 127.998 58.69 127.998 58.6702 127.998C58.6684 127.998 58.6656 127.997 58.6638 127.997C58.6435 127.997 58.6237 127.997 58.603 127.997C58.6022 127.997 58.603 127.997 58.6027 127.997C47.9852 127.837 41.8326 123.247 34.6474 117.669C35.9705 116.525 41.8799 116.215 43.2994 115.232C46.9952 112.672 46.9064 111.192 51.0037 109.438C51.9997 108.5 53.032 107.635 54.1421 106.919C54.7445 106.53 55.3253 106.102 55.8946 105.657C56.4717 105.679 57.0566 105.691 57.6494 105.691C60.2636 105.691 63.0381 105.471 66.0388 104.987C69.2055 104.476 71.6376 103.923 73.5494 103.311C73.9296 103.622 74.3004 103.944 74.6665 104.274C74.6913 104.273 74.7172 104.27 74.7419 104.269C74.7666 104.267 74.7902 104.265 74.8137 104.263C75.2716 104.233 75.7225 104.214 76.1686 104.214H76.1698C76.1734 104.214 76.1757 104.214 76.1793 104.214C78.3382 104.215 80.3595 104.675 82.3772 106.546C82.3843 106.551 82.3913 106.559 82.3984 106.564C82.4278 106.593 82.4585 106.621 82.4879 106.65C83.8122 107.911 84.9518 109.612 85.9324 111.434C89.391 112.593 92.9344 113.383 94.1245 117.571C94.4094 118.572 94.5342 119.5 94.5342 120.364C94.5342 120.478 94.533 120.592 94.5283 120.704C84.4444 126.496 72.1356 127.988 59.3324 128C59.3291 128 59.3273 128 59.324 128C59.3016 128 59.2791 128 59.2565 128C59.2524 128 59.2497 128 59.2459 128C59.2229 128 59.2 128 59.1769 128Z" fill="#BF9100"/>
<path d="M109.911 70.9235C110.246 67.406 109.788 64.2064 108.631 60.6972C112.13 56.2191 115.838 52.1094 116.115 46.0598C116.244 41.869 114.774 40.9449 111.604 38.9424C105.102 37.5369 106.279 30.4736 103.925 26.942C103.459 26.942 102.808 26.942 102.117 26.8679C100.797 23.8366 97.7127 20.1578 93.9644 16.4367C94.7249 15.8069 95.6408 15.4513 96.6426 15.4513C97.0005 15.4513 97.3677 15.4961 97.7444 15.5903C100.425 16.2624 102.325 17.9635 104.174 19.9412C106.544 22.4781 105.904 26.3063 108.138 28.6148C110.242 30.7856 113.181 30.6278 114.819 33.4237C116.029 35.4873 116.15 38.1502 117.42 40.2056C120.695 45.5006 121.007 48.9993 119.494 55.0642C118.092 60.6936 115.16 64.9987 111.518 69.392C110.994 70.023 110.457 70.5162 109.911 70.9235Z" fill="#D8B500"/>
<path d="M108.631 60.6972C107.746 58.0143 106.452 55.1502 104.791 51.8281C99.3266 40.8978 103.301 39.4086 102.804 29.4707C102.764 28.6761 102.525 27.8038 102.117 26.8679C102.808 26.9421 103.459 26.9421 103.925 26.9421C106.279 30.4737 105.102 37.5369 111.604 38.9425C114.774 40.9449 116.244 41.869 116.115 46.0598C115.838 52.1095 112.13 56.2191 108.631 60.6972Z" fill="#BF9100"/>
<path d="M24.6059 31.4142C24.2899 31.2847 23.9437 31.1717 23.5619 31.0775C19.2274 30.0122 14.0791 29.5684 10.3617 26.9173C12.0148 23.8107 13.5231 21.6352 14.9352 20.0848C15.574 20.8006 16.3994 21.4268 17.4708 22.0201C21.0337 23.9919 24.8886 21.8647 27.6278 24.1991C26.4948 26.2769 25.4395 28.6819 24.6059 31.4142ZM51.7527 16.3625C50.8588 15.841 49.8333 15.4019 48.6502 15.064C47.9172 14.8545 47.2017 14.6732 46.5031 14.5178C46.4775 14.2388 46.4655 13.961 46.4655 13.682C46.4627 10.5083 47.9779 7.39692 48.0096 3.98656C48.0101 3.96301 48.0101 3.94064 48.0101 3.91827C48.011 3.24256 47.9314 2.62334 47.8156 2.03121C49.6646 2.88586 51.9877 3.97832 54.4695 5.19201C53.7374 8.84252 52.2024 12.7391 51.7527 16.3625Z" fill="#F4D94C"/>
<path d="M72.7654 27.5518C72.3345 27.5518 71.9001 27.5106 71.461 27.4223C68.8311 26.8914 68.1578 25.4411 66.1824 25.0008C63.6891 24.4452 61.6086 22.4839 61.2311 19.9247C61.0302 18.5662 61.2766 16.9134 62.1034 15.7362C62.3118 14.4919 63.0534 13.363 64.1176 12.692L64.0658 12.6037C64.2059 12.506 64.346 12.4094 64.4849 12.3129C65.1371 11.8609 65.8387 11.6419 66.5391 11.6089C67.8611 12.4047 69.0548 13.1746 70.0448 13.8951C69.9872 13.8927 69.9283 13.8927 69.8718 13.8927C68.8194 13.8927 67.9365 14.1199 67.0206 14.6861C64.4567 16.2765 64.4567 19.9482 67.0206 21.5386C67.9624 22.1214 68.9689 22.358 69.9848 22.358C70.1755 22.358 70.3674 22.3497 70.5593 22.3344C71.361 22.7394 72.1909 23.1549 73.1409 23.1549C73.1986 23.1549 73.2586 23.1538 73.3175 23.1502C74.2427 23.0984 75.1056 22.9419 75.9791 22.6523C76.2475 22.5569 76.5159 22.4604 76.7843 22.365C77.6143 23.6329 78.4536 24.8148 79.4366 25.8531C79.2529 25.8578 79.0693 25.859 78.8845 25.859C78.5913 25.859 78.2982 25.8554 78.0063 25.8496C78.0051 25.8496 78.0051 25.8496 78.0039 25.8496C77.7532 25.8496 76.0227 26.8996 75.354 27.1115C74.4923 27.3846 73.6365 27.5518 72.7654 27.5518Z" fill="#F4D94C"/>
<path d="M73.1409 23.155C72.1909 23.155 71.3609 22.7394 70.5593 22.3345C70.3674 22.3498 70.1755 22.358 69.9848 22.358C68.9689 22.358 67.9623 22.1214 67.0206 21.5387C64.4566 19.9483 64.4566 16.2766 67.0206 14.6862C67.9365 14.1199 68.8194 13.8927 69.8718 13.8927C69.9283 13.8927 69.9871 13.8927 70.0448 13.8951C71.1396 14.6897 71.9884 15.4219 72.4969 16.0576C74.2345 18.2295 75.4976 20.4015 76.7843 22.3651C76.5159 22.4604 76.2475 22.5569 75.9791 22.6523C75.1056 22.9419 74.2427 23.0985 73.3174 23.1503C73.2586 23.1538 73.1985 23.155 73.1409 23.155Z" fill="#E2BE4C"/>
<path d="M27.6278 24.1992C24.8886 21.8648 21.0337 23.992 17.4708 22.0202C16.3994 21.4268 15.574 20.8006 14.9352 20.0848C19.5051 15.0676 23.0667 16.578 27.2604 14.1553C27.2604 14.1553 27.2609 14.1553 27.2614 14.1553C27.2647 14.1529 27.2674 14.1506 27.2706 14.1494C27.271 14.1494 27.271 14.1494 27.2715 14.1482C27.278 14.1447 27.284 14.1411 27.2903 14.1376H27.2908C27.2936 14.1364 27.2964 14.1341 27.2987 14.1329C27.3005 14.1317 27.3024 14.1305 27.3038 14.1305C27.3051 14.1294 27.3074 14.1282 27.3088 14.127C27.313 14.1246 27.3166 14.1223 27.3207 14.1199H27.3217C27.7296 13.881 28.1433 13.6043 28.565 13.2794C28.5655 13.2794 28.566 13.2794 28.5664 13.2782C28.5751 13.2724 28.584 13.2653 28.5927 13.2582C28.5941 13.2582 28.5949 13.2571 28.5963 13.2559C28.6 13.2535 28.6033 13.2512 28.6065 13.2476C28.6074 13.2476 28.6083 13.2465 28.6092 13.2465C28.6134 13.2429 28.618 13.2394 28.6221 13.2359C33.5425 9.41113 34.4824 6.92841 40.4065 4.6776C40.4199 4.67171 40.4332 4.66701 40.4461 4.6623C42.7876 3.77233 45.2221 2.80702 47.7121 1.98416C47.7466 1.99946 47.7811 2.01593 47.8156 2.03124C47.9314 2.62337 48.011 3.24258 48.0101 3.9183C48.0101 3.94066 48.0101 3.96304 48.0096 3.98658C47.9779 7.39694 46.4627 10.5083 46.4655 13.682C46.4655 13.961 46.4775 14.2388 46.5031 14.5178C44.5489 14.087 42.7334 13.8716 41.0821 13.8716C37.7201 13.8716 35.0379 14.7651 33.2495 16.5532C31.6064 18.1966 29.511 20.7452 27.6278 24.1992Z" fill="#E2BE4C"/>
<path d="M45.1209 81.5631C44.2532 81.4253 43.4125 81.2111 42.6019 80.9297C43.2668 80.2882 43.7367 79.4571 43.9359 78.3917C45.2933 71.1319 39.3103 69.0588 33.5374 69.0588C33.0688 69.0588 32.603 69.0718 32.1413 69.0977C32.0802 69.1012 32.018 69.1024 31.956 69.1024C31.4438 69.1035 30.9011 68.9894 30.3405 68.7892C30.1088 68.243 29.9185 67.7192 29.7717 67.2295C29.6375 66.7821 29.4462 66.3254 29.2061 65.8639C30.2109 66.7656 31.2658 67.6992 32.5713 67.6992C32.8283 67.6992 33.096 67.6627 33.3742 67.5826C34.6235 67.2224 35.8224 66.7951 37.1149 66.635C37.4189 66.5985 37.7349 66.5796 38.0608 66.5796C42.6878 66.5796 49.2034 70.2725 48.2226 75.4887C47.7838 77.8231 46.6678 79.875 45.1209 81.5631Z" fill="#F4D94C"/>
<path d="M42.6019 80.9297C36.5613 78.839 32.1652 73.0907 30.3405 68.7892C30.9011 68.9893 31.4438 69.1035 31.956 69.1023C32.018 69.1023 32.0802 69.1012 32.1413 69.0976C32.603 69.0717 33.0688 69.0588 33.5374 69.0588C39.3103 69.0588 45.2934 71.1318 43.9359 78.3917C43.7367 79.457 43.2668 80.2881 42.6019 80.9297Z" fill="#E2BE4C"/>
<path d="M88.959 58.0343C88.3303 56.1708 85.9053 56.3968 83.2048 55.7988C79.446 54.9665 73.2445 52.9441 75.4105 47.5654C75.7896 46.6213 76.3676 45.7325 77.1316 45.0992C78.928 41.8948 81.8075 39.2367 84.2878 36.6057C85.1342 35.7075 85.9653 34.8187 86.7717 33.9216C87.0637 35.6392 87.1508 37.7275 87.491 40.3044C84.9376 44.0256 83.5403 47.0981 85.0895 48.1317C86.5539 49.177 87.8324 50.1105 88.9378 50.9993C89.0967 53.3408 89.1297 55.7494 88.959 58.0343Z" fill="#F4D94C"/>
<path d="M70.6229 72.3232C70.5216 72.2608 70.4204 72.1996 70.3156 72.1407L70.1955 72.0654L70.1932 72.0642C69.9201 71.8829 69.6564 71.6863 69.4127 71.4603C66.9029 69.1353 68.8418 65.4566 71.5741 64.9386C72.1297 64.3135 72.8984 63.9286 73.673 63.619L73.8084 63.5695L73.9591 63.4471C74.4229 63.101 74.9632 62.9515 75.5153 62.9515C75.9744 62.9515 76.4394 63.0551 76.875 63.2352C76.9939 63.2234 77.1128 63.2175 77.2329 63.2175C78.8904 63.2175 80.622 64.3418 81.0282 65.9769C81.5202 67.9499 81.0058 69.578 79.9487 70.7917C76.9574 71.3285 73.653 71.239 70.6229 72.3232Z" fill="#E2BE4C"/>
<path d="M88.9378 50.9994C87.8324 50.1106 86.5539 49.1771 85.0895 48.1317C83.5403 47.0981 84.9376 44.0256 87.491 40.3045C87.5969 41.1156 87.7288 41.9737 87.8995 42.8849C88.3409 45.2358 88.7377 48.0646 88.9378 50.9994Z" fill="#E2BE4C"/>
<path d="M41.8867 49.9246C38.2094 49.9246 34.5091 48.8839 31.7591 46.3635C25.7978 40.8978 21.8219 43.3828 23.8098 34.4396C24.0429 33.3907 24.3106 32.3819 24.6059 31.4142C27.4242 32.5749 27.8422 35.1012 29.6894 37.6334C31.314 39.8583 32.9529 41.6818 35.1501 43.3452C36.4523 44.3317 37.9363 44.7366 39.4864 44.7366C44.0982 44.7378 49.3082 41.1509 52.1611 38.5799C56.6736 34.5138 57.4479 28.7102 53.6087 24.1367C51.7146 21.8812 51.4001 19.2054 51.7528 16.3625C56.1139 18.9111 57.3505 23.4445 58.5875 27.9803C60.0778 33.4461 58.0894 42.3893 53.1222 46.3635C50.4455 48.5049 46.1822 49.9246 41.8867 49.9246ZM39.611 39.1555C32.4476 39.1543 31.9036 31.3459 29.0364 26.0297C31.9036 31.3459 32.449 39.1532 39.611 39.1555Z" fill="#FFF281"/>
<path d="M39.4864 44.7366C37.9362 44.7366 36.4523 44.3317 35.15 43.3452C32.9529 41.6818 31.314 39.8583 29.6894 37.6334C27.8422 35.1012 27.4242 32.5749 24.6058 31.4142C25.4395 28.6819 26.4948 26.2769 27.6278 24.1991C28.1112 24.6123 28.5596 25.1632 28.9661 25.9002C28.983 25.932 29.0006 25.9638 29.0175 25.9955C29.0216 26.0026 29.0258 26.0097 29.03 26.0179C29.0322 26.0214 29.0346 26.0261 29.0364 26.0297C31.9036 31.3459 32.4475 39.1543 39.6109 39.1555C39.6119 39.1555 39.6128 39.1555 39.6138 39.1555C40.0644 39.1555 40.5399 39.1249 41.0448 39.0613C41.0479 39.0601 41.0517 39.0601 41.0544 39.059C41.0687 39.0578 41.0829 39.0554 41.0972 39.0542C46.8669 38.2973 51.0754 34.6068 51.0667 29.0633C51.0657 28.2864 50.9811 27.4717 50.8068 26.6242C50.129 23.3339 48.6575 20.2673 47.2389 17.2395C46.808 16.3189 46.585 15.4148 46.5031 14.5178C47.2017 14.6732 47.9172 14.8545 48.6502 15.064C49.8333 15.4019 50.8588 15.841 51.7527 16.3625C51.4 19.2054 51.7146 21.8812 53.6087 24.1367C57.4479 28.7102 56.6736 34.5138 52.1611 38.5798C49.3081 41.1509 44.0982 44.7378 39.4864 44.7366Z" fill="#F7E481"/>
<path d="M39.6138 39.1555C39.6128 39.1555 39.6119 39.1555 39.6109 39.1555C32.449 39.1532 31.9036 31.346 29.0364 26.0297C29.0346 26.0262 29.0322 26.0214 29.03 26.0179C29.0258 26.0097 29.0216 26.0026 29.0175 25.9956C29.0006 25.9638 28.983 25.932 28.9661 25.9002C28.5596 25.1633 28.1112 24.6123 27.6278 24.1991C29.511 20.7452 31.6064 18.1966 33.2495 16.5532C35.0379 14.765 37.7201 13.8715 41.0821 13.8715C42.7334 13.8715 44.5488 14.087 46.5031 14.5178C46.5851 15.4149 46.808 16.3189 47.2389 17.2395C48.6575 20.2673 50.129 23.3339 50.8069 26.6242C50.9811 27.4718 51.0657 28.2864 51.0667 29.0633C51.0754 34.6068 46.8669 38.2973 41.0972 39.0543C41.0829 39.0554 41.0687 39.0578 41.0544 39.059C41.0517 39.0602 41.048 39.0602 41.0448 39.0613C40.5399 39.1249 40.0644 39.1555 39.6138 39.1555Z" fill="#EBD181"/>
</svg>
