<svg width="128" height="128" viewBox="0 0 128 128" fill="none" xmlns="http://www.w3.org/2000/svg">
<g clip-path="url(#clip0_2_534)">
<path d="M126.942 63.9096C126.942 77.6393 127.687 89.9929 115.763 98.9361C111.377 102.225 105.071 113.331 100.857 116.82C89.8928 125.91 75.2261 128 59.8707 128C46.0456 128 39.7311 120.613 29.3164 113.095C23.2609 108.723 15.2571 105.523 11.0709 99.3269C6.93307 93.2031 8.0114 86.207 6.21381 78.8142C5.04485 74.0006 1.53915 67.5648 0.997638 62.4193C-0.4927 48.2599 3.79112 43.3851 7.69355 34.0958C17.3937 10.9991 22.3062 18.685 29.3164 13.2346C34.2371 9.41104 35.1765 6.92833 41.1014 4.67516C48.0916 2.02058 55.9106 -1.35565 63.5977 0.565536C78.5011 4.29138 86.4884 0.646774 95.6423 5.78172C104.328 10.6553 106.073 24.4121 116.193 28.5971C123.826 31.7543 129.176 46.7696 126.69 50.5095C124.164 54.3048 126.942 59.7164 126.942 63.9096Z" fill="#FF42B0"/>
<path d="M50.2976 51.3395C59.3468 49.1864 67.2811 45.51 74.907 40.2879C80.9884 36.1253 88.8816 29.566 92.3802 23.2526C94.6381 19.1807 97.0655 13.8032 98.7101 8.10087C97.7812 7.2062 96.7724 6.41627 95.6423 5.78176C89.8646 2.53975 84.546 2.79641 77.664 2.48916C77.1049 3.89003 76.5174 5.29561 75.8853 6.72709C70.6114 18.6627 60.3062 22.5651 48.4706 27.4399C46.7343 28.1545 44.9249 28.4912 43.0885 28.7478C38.5103 29.1551 33.8792 29.0233 29.2092 28.8926C25.873 28.7984 22.5157 28.7043 19.1453 28.8067C16.107 28.8997 13.2523 28.5665 10.4211 28.1427C9.5535 29.8603 8.64705 31.825 7.69352 34.0958C6.02072 38.0783 4.28083 41.2521 2.95294 44.6918C4.50803 45.7961 5.99012 46.7201 7.12494 47.3711C19.9988 54.7369 35.7451 54.7993 50.2976 51.3395Z" fill="#C03192"/>
<path d="M67.6743 85.7844C71.6097 85.7137 74.9918 86.121 78.0726 86.5272C86.7568 87.6726 93.0336 88.8192 102.494 79.2815C106.875 74.8623 113.876 68.6384 115.051 62.8007C116.486 55.6633 120.825 37.5509 120.818 32.131C119.424 30.5465 117.863 29.2881 116.193 28.5971C113.518 27.4905 111.437 25.707 109.649 23.6034C108.677 24.1367 107.977 39.7299 105.633 43.1802C100.931 50.0951 92.6192 58.2567 84.4436 60.4463C81.8043 61.1526 77.7017 61.1373 73.2272 61.1208C67.5437 61.102 61.261 61.082 56.6263 62.544C48.3423 65.1551 39.6605 70.2088 34.2159 71.4331C29.0256 71.8298 18.2919 64.696 13.6172 64.0144C9.92671 63.4764 5.83358 63.6894 2.43029 61.9696C1.92174 61.7117 1.40965 61.4645 0.897568 61.215C0.931707 61.6176 0.954085 62.0013 0.997641 62.4193C1.53915 67.5648 5.04485 74.0006 6.21381 78.8141C6.82714 81.3381 7.10495 83.8125 7.371 86.2246C11.7996 88.0493 16.4331 89.4678 21.4962 90.1247C37.133 92.1483 52.1047 86.061 67.6743 85.7844Z" fill="#C03192"/>
<path d="M82.281 114.472C85.6549 113.947 89.4443 111.859 92.3991 110.208C93.3008 109.704 94.1979 109.185 95.0925 108.654C100.508 107.227 104.74 104.345 108.189 100.154C109.917 98.9796 111.637 97.8071 113.35 96.657C116.25 94.7111 119.352 93.6045 121.791 91.05C122.653 90.147 123.462 89.2029 124.253 88.247C126.746 82.2751 126.952 75.5262 126.95 68.3147C126.207 70.5608 125.929 73.0188 124.538 75.1283C120.5 81.2521 113.451 85.2287 107.403 89.0629C105.353 90.3625 103.431 91.9152 101.469 93.3961C99.0974 94.6334 96.8383 96.0707 94.5957 97.5469C94.2685 97.6788 93.9483 97.8283 93.6104 97.9401C91.1913 98.743 82.2363 103.679 79.7347 103.61C76.5127 103.519 66.1051 99.4481 63.2539 99.6859C56.837 100.22 47.2192 100.8 40.7388 101.034C29.8485 101.425 19.5433 95.448 8.85426 94.6793C9.36046 96.2756 10.0573 97.8283 11.0709 99.3269C15.257 105.522 23.2609 108.723 29.3164 113.095C31.7791 114.873 34.0087 116.64 36.1665 118.307C47.9892 118.081 59.8271 115.289 71.5791 114.866C72.7869 114.822 73.9759 114.827 75.1578 114.831C77.5287 114.839 79.8701 114.847 82.281 114.472Z" fill="#C03192"/>
<path d="M59.8707 128C46.0644 128 39.7488 120.634 29.3611 113.127C31.8062 114.894 34.0217 116.649 36.1665 118.307C47.9892 118.081 59.8271 115.289 71.5791 114.866C72.4349 114.835 73.2802 114.828 74.1207 114.828C74.468 114.828 74.8129 114.829 75.1578 114.831C75.5027 114.832 75.8465 114.833 76.1902 114.833C78.2115 114.833 80.2198 114.793 82.2811 114.472C85.6549 113.947 89.4443 111.859 92.3991 110.208C93.3008 109.704 94.1979 109.185 95.0926 108.654C100.508 107.227 104.74 104.345 108.189 100.154C109.917 98.9796 111.637 97.8071 113.35 96.657C116.25 94.7111 119.352 93.6045 121.791 91.05C122.653 90.1471 123.462 89.2029 124.253 88.2471C126.746 82.2751 126.952 75.5262 126.95 68.3147C126.207 70.5608 125.929 73.0188 124.538 75.1283C120.5 81.2521 113.451 85.2287 107.403 89.0629C105.353 90.3625 103.431 91.9152 101.469 93.3962C99.0974 94.6334 96.8383 96.0707 94.5957 97.547C94.2685 97.6788 93.9483 97.8283 93.6105 97.9401C91.2078 98.7371 82.3623 103.611 79.7889 103.611C79.7701 103.611 79.7524 103.611 79.7348 103.61C78.8413 103.585 77.3933 103.253 75.7076 102.793C81.6042 100.475 81.5795 97.3315 85.6102 92.5674C91.0783 86.1081 104.49 90.5779 108.466 79.6488C109.669 76.3409 110.371 73.4885 110.614 70.8151C112.771 68.2017 114.515 65.4612 115.051 62.8007C116.486 55.6633 120.825 37.5509 120.818 32.131C119.451 30.5783 117.924 29.3376 116.292 28.6383C122.586 31.3329 127.303 42.0643 127.305 47.7607C127.307 48.9238 127.11 49.8785 126.69 50.5095C125.9 51.6961 125.629 53.0393 125.629 54.4543C125.629 57.568 126.942 61.0278 126.942 63.9096C126.942 65.4376 126.951 66.9491 126.951 68.4418C126.95 80.348 126.359 90.9888 115.763 98.9361C111.377 102.225 105.071 113.331 100.857 116.82C89.8929 125.91 75.2261 128 59.8707 128Z" fill="#E53B9E"/>
<path d="M37.4132 100.966C27.7366 100.257 18.4496 95.3692 8.85427 94.6793C9.34869 96.2379 10.0256 97.7554 10.9991 99.221C8.32099 95.1926 7.87365 90.7899 7.36275 86.1458C7.3651 86.1717 7.36863 86.1976 7.37098 86.2247C11.2404 87.8198 15.2665 89.1041 19.5986 89.8398C20.6122 92.5674 22.6287 94.5228 29.4729 97.534C32.2347 98.7489 34.848 99.9143 37.4132 100.966Z" fill="#E53B9E"/>
<path d="M103.263 46.3811C101.4 39.9959 103.897 37.4708 103.498 29.4705C103.338 26.2709 99.9343 21.7846 95.3915 17.1723C96.6311 14.3624 97.793 11.2828 98.7101 8.10081C97.7813 7.20613 96.7724 6.41621 95.6423 5.7817C102.031 9.36628 104.666 17.7574 109.638 23.6104C108.673 24.2532 107.969 39.7428 105.633 43.1802C104.922 44.2267 104.128 45.3016 103.263 46.3811Z" fill="#E53B9E"/>
<path d="M95.3915 17.1723C90.1683 11.8679 83.4405 6.39623 78.4068 2.52089C84.9321 2.7834 90.0729 2.65858 95.6423 5.7817C96.7724 6.41621 97.7812 7.20614 98.7101 8.10081C97.793 11.2828 96.6311 14.3624 95.3915 17.1723Z" fill="#AC2C83"/>
<path d="M19.5986 89.8398C15.2665 89.104 11.2405 87.8197 7.371 86.2246C7.36864 86.1975 7.36512 86.1716 7.36276 86.1457C7.10142 83.7796 6.82478 81.3498 6.22912 78.8765C6.22912 78.8753 6.22794 78.873 6.22794 78.8706C6.22323 78.8518 6.21852 78.833 6.21381 78.8141C6.21146 78.8012 6.20793 78.7894 6.2044 78.7764C6.2044 78.7741 6.20322 78.7718 6.20322 78.7694C6.19616 78.7435 6.19027 78.7176 6.18438 78.6917C6.1832 78.6905 6.1832 78.6882 6.18202 78.687C6.17967 78.674 6.17614 78.6623 6.17379 78.6505C6.17261 78.6493 6.17261 78.6481 6.17261 78.647C6.16908 78.634 6.16672 78.6222 6.16319 78.6081C6.16201 78.6069 6.16202 78.6046 6.16084 78.6034C6.15849 78.5916 6.15613 78.5799 6.15259 78.5693C6.15259 78.5669 6.15142 78.5646 6.15142 78.5634C6.14788 78.5504 6.14436 78.5387 6.142 78.5257C6.14083 78.5222 6.13965 78.5198 6.13965 78.5163C6.13729 78.5069 6.13495 78.4986 6.13259 78.4892C6.13141 78.4845 6.13023 78.481 6.12906 78.4763C6.12552 78.4657 6.12316 78.4539 6.12081 78.4433C6.11845 78.4374 6.11729 78.4315 6.11611 78.4268C6.11375 78.4198 6.11257 78.4151 6.1114 78.4092C6.10904 78.4021 6.10786 78.395 6.1055 78.388C6.1055 78.3856 6.10434 78.3833 6.10316 78.3809C6.09963 78.3644 6.09491 78.3468 6.0902 78.3291C5.16727 74.887 3.18959 70.6961 1.96765 66.7584C7.29096 72.6232 15.0711 75.266 17.0523 80.6435C18.6133 84.8814 18.7734 87.6172 19.5986 89.8398ZM110.614 70.815C111.174 64.6559 109.295 59.4503 105.485 51.8268C104.421 49.6972 103.714 47.9267 103.263 46.3811C104.128 45.3016 104.922 44.2267 105.633 43.1802C107.969 39.7428 108.673 24.2532 109.638 23.6104C111.377 25.6564 113.402 27.3928 115.973 28.504C115.974 28.504 115.975 28.5052 115.976 28.5052C115.984 28.5088 115.993 28.5123 116 28.5158C116.003 28.517 116.006 28.5182 116.009 28.5205C116.015 28.5229 116.021 28.5241 116.027 28.5276C116.031 28.5288 116.036 28.5311 116.041 28.5335C116.046 28.5346 116.05 28.537 116.054 28.5394C116.061 28.5417 116.067 28.5441 116.073 28.5465C116.075 28.5476 116.078 28.5499 116.082 28.5511C116.089 28.5535 116.096 28.557 116.103 28.5594C116.104 28.5606 116.107 28.5618 116.108 28.5618C116.136 28.5735 116.164 28.5853 116.193 28.597C116.2 28.6006 116.206 28.6018 116.213 28.6053C116.217 28.6065 116.221 28.6088 116.224 28.6112C116.228 28.6112 116.23 28.6123 116.234 28.6147C116.239 28.6159 116.242 28.6182 116.247 28.6194C116.249 28.6206 116.252 28.6218 116.253 28.623C116.259 28.6241 116.263 28.6265 116.269 28.6288C116.27 28.63 116.272 28.63 116.273 28.6312C116.279 28.6335 116.285 28.6359 116.289 28.6383C116.29 28.6383 116.29 28.6383 116.292 28.6383C117.924 29.3375 119.451 30.5783 120.818 32.131C120.825 37.5508 116.486 55.6633 115.051 62.8006C114.515 65.4611 112.771 68.2017 110.614 70.815Z" fill="#AC2C83"/>
<path d="M36.1665 118.307C34.0217 116.649 31.8062 114.894 29.3611 113.127C29.3458 113.117 29.3317 113.106 29.3164 113.095C23.2609 108.723 15.257 105.522 11.0709 99.3269C11.0627 99.3151 11.0544 99.3033 11.0462 99.2915C11.045 99.2892 11.0438 99.2868 11.0427 99.2845C11.0356 99.2751 11.0285 99.2645 11.0227 99.2562C11.018 99.2492 11.0133 99.2421 11.0097 99.2362C11.0062 99.2303 11.0027 99.2256 10.9991 99.2209C10.0256 97.7553 9.34869 96.2379 8.85426 94.6793C18.4496 95.3691 27.7366 100.257 37.4132 100.966C44.1373 103.723 50.5237 105.691 58.3438 105.691C60.9572 105.691 63.7319 105.471 66.7325 104.987C70.7704 104.335 73.6133 103.615 75.7075 102.793C77.3933 103.253 78.8412 103.585 79.7347 103.61C79.7524 103.611 79.7701 103.611 79.7889 103.611C82.3623 103.611 91.2078 98.7371 93.6104 97.9401C93.9483 97.8283 94.2685 97.6788 94.5957 97.5469C96.8383 96.0707 99.0974 94.6334 101.469 93.3961C103.431 91.9152 105.353 90.3625 107.403 89.0629C113.451 85.2287 120.5 81.2521 124.538 75.1283C125.929 73.0188 126.207 70.5608 126.95 68.3147C126.952 75.5262 126.746 82.2751 124.253 88.247C123.462 89.2029 122.653 90.147 121.791 91.05C119.352 93.6045 116.25 94.7111 113.35 96.657C111.637 97.8071 109.917 98.9796 108.189 100.154C104.74 104.345 100.508 107.227 95.0925 108.654C94.1979 109.185 93.3008 109.704 92.3991 110.208C89.4443 111.859 85.6549 113.947 82.281 114.472C80.2198 114.793 78.2115 114.833 76.1902 114.833C75.8465 114.833 75.5027 114.832 75.1578 114.831C74.8129 114.829 74.4679 114.828 74.1207 114.828C73.2801 114.828 72.4349 114.835 71.5791 114.866C59.8271 115.289 47.9892 118.081 36.1665 118.307Z" fill="#AC2C83"/>
<path d="M33.7827 71.4484C33.3271 71.4484 32.8362 71.399 32.3147 71.3083C31.453 69.8474 30.8279 68.436 30.4653 67.2281C28.975 62.2592 20.5298 56.299 15.5608 53.8151C13.2299 52.6485 9.69832 50.4977 6.75885 47.158C6.88363 47.2322 7.00606 47.3028 7.12496 47.3711C14.8015 51.7632 23.501 53.5585 32.3571 53.5585C38.3538 53.5585 44.4223 52.7356 50.2977 51.3394C59.3468 49.1863 67.2811 45.5099 74.907 40.2879C78.534 37.8052 82.8073 34.4678 86.4072 30.8408C88.0081 33.3742 87.5019 37.0635 88.5932 42.8848C89.3996 47.1886 90.0612 53.0935 89.6315 58.3144C87.9198 59.2479 86.1788 59.9813 84.4436 60.4463C82.1916 61.049 78.8719 61.1255 75.1649 61.1255C74.5292 61.1255 73.8829 61.1232 73.2272 61.1208C72.5715 61.1196 71.9075 61.1161 71.2401 61.1161C66.1157 61.1161 60.7265 61.2503 56.6263 62.5441C48.3423 65.1551 39.6605 70.2088 34.2159 71.4331C34.0758 71.4437 33.931 71.4484 33.7827 71.4484ZM3.73815 42.7812C3.73815 42.78 3.73697 42.7788 3.73697 42.7776C4.52923 40.9518 5.41685 39.146 6.32211 37.1895C6.77298 36.2124 7.22973 35.1989 7.68059 34.1264C6.32446 37.3508 4.92594 40.0442 3.73815 42.7812ZM7.69354 34.0958C7.69943 34.0817 7.70532 34.0687 7.7112 34.0546C7.70532 34.0675 7.69943 34.0817 7.69354 34.0958ZM7.80774 33.8238C17.4325 11.0568 22.3332 18.6639 29.3164 13.2346C34.2371 9.41105 35.1765 6.92834 41.1014 4.67517C43.4546 3.78285 45.902 2.81047 48.4059 1.98289C54.5321 4.81053 66.0227 10.3258 71.1459 14.1952C67.5507 18.2695 63.0067 21.0159 57.8918 23.4162C56.5086 19.6986 54.3307 16.4872 49.3441 15.0628C46.5624 14.2682 44.0196 13.8703 41.7782 13.8703C38.415 13.8703 35.7321 14.765 33.944 16.5531C31.639 18.8569 28.4441 22.9442 26.1945 28.8125C24.8866 28.7831 23.5752 28.7619 22.2626 28.7619C21.2243 28.7619 20.186 28.7749 19.1454 28.8067C18.7981 28.8172 18.4543 28.8219 18.113 28.8219C15.456 28.8219 12.9286 28.5182 10.4211 28.1427C9.58767 29.792 8.72007 31.6672 7.80774 33.8238Z" fill="#FF7AC8"/>
<path d="M32.3571 53.5585C23.501 53.5585 14.8015 51.7632 7.12494 47.3711C7.00604 47.3028 6.88362 47.2322 6.75883 47.158C5.63107 45.8772 4.59042 44.4222 3.73813 42.7812C4.92593 40.0442 6.32444 37.3508 7.68058 34.1264C7.68528 34.1158 7.68881 34.1052 7.69352 34.0958C7.69941 34.0817 7.7053 34.0675 7.71118 34.0546C7.73708 33.9922 7.76299 33.9286 7.78888 33.8674C7.79242 33.8604 7.79476 33.8545 7.7983 33.8474C7.80065 33.8404 7.80419 33.8309 7.80772 33.8238C8.72005 31.6672 9.58765 29.792 10.4211 28.1427C12.9285 28.5182 15.456 28.8219 18.1129 28.8219C18.4543 28.8219 18.7981 28.8173 19.1453 28.8067C20.186 28.7749 21.2243 28.7619 22.2626 28.7619C23.5752 28.7619 24.8866 28.7831 26.1944 28.8125C25.534 30.5348 24.9548 32.4101 24.504 34.4384C22.5169 43.3804 26.4923 40.8977 32.4536 46.3634C35.2036 48.8838 38.9035 49.9244 42.5811 49.9244C46.8767 49.9244 51.1393 48.5036 53.8163 46.3634C58.7841 42.388 60.7712 33.4448 59.282 27.9803C58.8594 26.4322 58.438 24.8842 57.8918 23.4162C63.0067 21.0159 67.5507 18.2695 71.1459 14.1952C72.0452 14.8745 72.7481 15.5031 73.1919 16.0564C77.1661 21.0242 78.6552 25.9931 83.6242 28.4759C84.9544 29.141 85.8221 29.9144 86.4071 30.8408C82.8072 34.4678 78.534 37.8052 74.907 40.2879C67.2811 45.5099 59.3468 49.1863 50.2976 51.3394C44.4222 52.7356 38.3537 53.5585 32.3571 53.5585Z" fill="#D36EB2"/>
<path d="M55.3726 82.6071C52.7286 82.6059 49.7903 82.0397 46.3634 81.6371C39.9701 80.8849 34.9987 75.8606 32.3147 71.3083C32.8362 71.399 33.3271 71.4484 33.7827 71.4484C33.931 71.4484 34.0758 71.4437 34.2159 71.4331C39.6605 70.2088 48.3423 65.1551 56.6263 62.5441C60.7265 61.2503 66.1157 61.1161 71.2401 61.1161C71.9075 61.1161 72.5715 61.1197 73.2272 61.1208C73.8829 61.1232 74.5292 61.1255 75.1649 61.1255C78.8719 61.1255 82.1916 61.049 84.4435 60.4463C86.1787 59.9813 87.9198 59.2479 89.6315 58.3144C89.2665 62.7371 88.1176 66.669 85.6102 68.7197C80.1468 73.1907 71.2036 68.7185 65.7402 76.6681C62.4923 81.3923 59.2456 82.6071 55.3726 82.6071Z" fill="#D36EB2"/>
<path d="M36.1006 29.022C33.8133 29.022 31.5166 28.9573 29.2093 28.8926C28.2063 28.8643 27.201 28.8361 26.1945 28.8125C28.4441 22.9442 31.639 18.8569 33.944 16.5531C35.7321 14.765 38.415 13.8703 41.7782 13.8703C44.0196 13.8703 46.5624 14.2682 49.3441 15.0628C54.3307 16.4872 56.5086 19.6986 57.8918 23.4162C54.9194 24.8101 51.7539 26.0873 48.4706 27.4399C46.7343 28.1544 44.9249 28.4912 43.0885 28.7478C40.7717 28.9538 38.4421 29.022 36.1006 29.022Z" fill="#FFA2D8"/>
<path d="M42.5811 49.9244C38.9035 49.9244 35.2036 48.8838 32.4536 46.3634C26.4923 40.8977 22.5169 43.3804 24.504 34.4384C24.9549 32.4101 25.5341 30.5348 26.1945 28.8125C27.201 28.8361 28.2063 28.8643 29.2093 28.8926C31.5166 28.9573 33.8133 29.022 36.1006 29.022C38.4421 29.022 40.7718 28.9538 43.0885 28.7478C44.9249 28.4912 46.7343 28.1544 48.4706 27.4399C51.7539 26.0873 54.9194 24.8101 57.8918 23.4162C58.438 24.8842 58.8594 26.4322 59.2821 27.9803C60.7712 33.4448 58.7841 42.388 53.8163 46.3634C51.1394 48.5036 46.8767 49.9244 42.5811 49.9244Z" fill="#E099C9"/>
</g>
<defs>
<clipPath id="clip0_2_534">
<rect width="128" height="128" fill="white"/>
</clipPath>
</defs>
</svg>
