<svg width="128" height="128" viewBox="0 0 128 128" fill="none" xmlns="http://www.w3.org/2000/svg">
<g clip-path="url(#clip0_1_2)">
<path d="M126.942 63.9112C126.942 77.6397 127.686 89.9932 115.762 98.9364C111.376 102.225 105.069 113.33 100.857 116.822C89.8922 125.913 75.2255 128 59.8702 128C46.044 128 39.7307 120.614 29.316 113.095C23.2605 108.725 15.2555 105.522 11.0694 99.3272C6.93275 93.2023 8.01106 86.2085 6.21348 78.8145C5.04334 74.001 1.53882 67.5653 0.996129 62.4197C-0.494203 48.2592 3.79081 43.3868 7.69205 34.0963C17.3922 11.0009 22.3058 18.6856 29.316 13.2364C34.2355 9.41167 35.1761 6.92897 41.0997 4.67817C48.0911 2.02006 55.9101 -1.355 63.596 0.565018C78.5005 4.29203 86.4878 0.648613 95.6405 5.78237C104.327 10.656 106.074 24.4139 116.192 28.5976C123.825 31.7549 129.178 46.7689 126.69 50.5088C124.164 54.3053 126.942 59.7169 126.942 63.9112Z" fill="#BDC2D6"/>
<path d="M116.449 42.9288C115.805 40.1636 115.833 37.1405 114.331 34.6637C113.838 33.8503 113.264 32.9956 112.62 32.1857C112.205 31.4264 111.686 30.7001 111.267 30.0468C110.539 28.9143 110.104 27.6994 109.052 26.8777C107.553 25.7017 105.695 25.4804 104.215 26.8777L104.001 27.079C103.025 27.9996 102.794 29.2262 103.025 30.4187C102.926 30.6542 102.846 30.9037 102.801 31.1827C102.721 31.6948 102.684 32.1822 102.666 32.6625C102.036 33.3358 101.637 34.2176 101.677 35.1829C101.671 35.3418 101.664 35.5019 101.658 35.6608C100.754 36.592 100.106 37.8351 99.8772 39.0029C99.5935 40.4544 100.031 42.0236 101.415 42.7793C102.166 43.189 102.917 43.5563 103.71 43.8859C104.034 44.0342 104.367 44.159 104.71 44.2591C104.764 44.2767 105.618 44.4109 105.983 44.4674C105.799 44.4427 105.916 44.5428 106.086 44.6428C106.297 44.7676 106.586 44.8936 106.46 44.7735C106.884 45.1737 107.391 45.461 107.933 45.6352C108.711 46.3215 109.577 46.9442 110.463 47.5305C113.605 49.6129 117.213 46.205 116.449 42.9288Z" fill="#8189B0"/>
<path d="M109.868 59.8039C109.254 59.7545 108.614 59.7404 107.963 59.7545C106.816 59.4225 105.645 59.233 104.5 59.2271C96.1231 59.1871 94.2726 63.4356 81.912 69.3216C78.3828 71.0015 78.9572 81.6916 81.9885 84.8406C84.722 87.68 88.2253 87.6411 91.8405 87.6023C92.3526 87.5964 92.8682 87.5917 93.3826 87.5941C103.818 87.6482 116.02 91.5012 121.539 79.4926C124.724 72.5612 117.427 60.4043 109.868 59.8039Z" fill="#8189B0"/>
<path d="M27.1641 85.3645C31.5044 83.8494 32.983 80.5733 37.0361 75.8068C41.0903 71.0392 43.3777 73.0015 47.8569 74.2953C52.3373 75.5902 56.5834 84.3591 51.9665 90.9008C50.2478 93.3341 42.2828 92.8679 39.6565 94.6055C35.2255 97.5379 33.149 100.968 27.9269 97.7168C19.6124 92.5348 20.1351 87.8189 27.1641 85.3645Z" fill="#8189B0"/>
<path d="M28.0811 17.8333C24.7614 20.1265 17.172 28.3069 31.3808 31.4877C45.5872 34.6684 42.7819 34.1552 52.03 24.8282C59.3863 19.8687 66.5967 18.5008 68.0941 11.5306C69.5914 4.56043 53.2543 3.88471 49.0647 7.75651C44.8762 11.6295 45.6684 20.4538 40.1144 18.8669C34.5616 17.2812 31.3996 15.5425 28.0811 17.8333Z" fill="#8189B0"/>
<path d="M67.117 108.169C66.9922 107.148 66.9181 106.253 67.0052 105.226C67.1735 103.273 65.3489 102.064 63.6655 101.886C61.1863 101.623 58.7895 100.019 56.2633 100.353C55.8924 100.402 55.5346 100.482 55.1943 100.589C54.6175 100.508 53.9924 100.603 53.3697 100.951C50.9918 102.278 50.4785 104.858 51.113 107.37C51.5862 109.242 53.5993 111.043 55.0013 112.269C57.3086 114.286 60.0927 114.85 62.898 113.657C64.4707 112.987 65.8398 111.733 66.4566 110.198C66.924 109.624 67.21 108.924 67.117 108.169Z" fill="#8189B0"/>
<path d="M4.31701 59.1789C10.2313 62.0559 20.7719 62.7576 21.9656 54.4277C23.038 46.956 14.5198 44.4992 9.8263 40.0023C9.77333 39.6091 9.73094 39.2866 9.69798 39.0876C9.29185 36.6273 9.33071 34.2188 8.62321 31.9444C8.31714 32.6319 8.00755 33.3453 7.69206 34.0963C4.14281 42.5486 0.291013 47.3669 0.744234 58.8257C1.9332 59.1294 3.16218 59.2519 4.31701 59.1789Z" fill="#8189B0"/>
<path d="M87.5355 10.7242C85.8651 9.02906 84.0557 7.55991 81.6295 7.25737C79.4905 6.99132 77.1326 8.71828 75.6517 10.0862C75.3173 10.3958 75.0607 10.7795 74.8724 11.1998C74.6723 11.3446 74.478 11.5 74.2991 11.6766C73.2514 12.7113 73.0477 14.3794 73.7858 15.6473C74.7088 17.2306 76.3368 18.1464 78.1921 17.7179C78.3263 17.6956 78.4522 17.6426 78.5782 17.5955C78.8972 17.8168 79.2092 18.0511 79.527 18.2442C82.696 20.1724 86.4089 18.1006 88.1276 15.3177C89.0246 13.8638 88.7092 11.9167 87.5355 10.7242Z" fill="#8189B0"/>
<path d="M59.8702 128C46.044 128 39.7307 120.614 29.316 113.096C23.2605 108.725 15.2555 105.522 11.0694 99.3272C6.93275 93.2023 8.01106 86.2085 6.21348 78.8146C6.20995 78.804 6.20759 78.7934 6.20523 78.7828C6.20288 78.7745 6.2017 78.7675 6.19934 78.7592C6.19934 78.758 6.19934 78.758 6.19934 78.7569C5.3341 75.2382 3.23987 70.8614 1.96732 66.7589C7.28943 72.6249 15.0695 75.2665 17.0519 80.6439C19.896 88.3652 18.0867 91.0998 24.134 94.8315C25.091 95.7674 26.3506 96.7339 27.9269 97.7168C29.4302 98.6527 30.6721 99.0341 31.7857 99.0341C32.0954 99.0341 32.3955 99.0047 32.6886 98.9493C38.9243 101.683 44.563 104.003 50.874 105.067C50.8316 105.816 50.9176 106.597 51.113 107.37C51.5862 109.242 53.5992 111.043 55.0013 112.269C56.501 113.58 58.2021 114.276 59.9785 114.278C60.9367 114.278 61.9161 114.075 62.8979 113.657C64.4706 112.987 65.8397 111.733 66.4566 110.198C66.9239 109.624 67.21 108.924 67.117 108.169C66.9922 107.148 66.918 106.253 67.0051 105.226C67.0134 105.128 67.0169 105.033 67.0157 104.939C82.1098 102.46 80.1803 98.9847 85.6108 92.5666C88.3536 89.3258 93.0977 88.8372 97.6464 87.773C100.44 87.959 103.276 88.2251 106.007 88.2251C112.386 88.2251 118.192 86.7771 121.539 79.4926C124.724 72.5613 117.427 60.4044 109.868 59.804C109.584 59.7804 109.295 59.7652 109 59.7569C108.135 57.3437 106.953 54.7656 105.485 51.8273C103.671 48.2015 102.898 45.6152 102.654 43.415C103 43.5798 103.351 43.7364 103.71 43.8859C104.034 44.0342 104.367 44.159 104.71 44.2591C104.764 44.2768 105.618 44.411 105.983 44.4675C105.963 44.4651 105.947 44.4639 105.934 44.4639C105.823 44.4639 105.935 44.5534 106.086 44.6429C106.236 44.7323 106.428 44.8218 106.478 44.8218C106.498 44.8218 106.495 44.8077 106.46 44.7735C106.884 45.1738 107.391 45.461 107.933 45.6352C108.711 46.3215 109.577 46.9443 110.463 47.5305C111.131 47.9743 111.821 48.1686 112.486 48.1686C114.943 48.1686 117.05 45.5081 116.449 42.9289C115.805 40.1636 115.833 37.1406 114.331 34.6638C113.838 33.8503 113.264 32.9957 112.62 32.1858C112.205 31.4265 111.686 30.7001 111.267 30.0468C110.539 28.9143 110.104 27.6995 109.052 26.8778C108.271 26.2645 107.39 25.9113 106.518 25.9113C105.717 25.9113 104.923 26.2091 104.215 26.8778L104.001 27.0791C103.673 27.3898 103.428 27.7348 103.257 28.1009C101.239 20.9965 87.2223 9.31163 78.4063 2.52273C84.3146 2.75935 89.0858 2.67928 94.0677 4.97835C94.0689 4.97953 94.0689 4.97953 94.0701 4.97953C94.1125 4.99954 94.1572 5.02073 94.2008 5.04074C94.2008 5.04074 94.2019 5.04075 94.2019 5.04192C94.2102 5.04546 94.2184 5.049 94.2267 5.05253C94.2278 5.0537 94.229 5.05371 94.2302 5.05489C94.2644 5.07137 94.2973 5.08666 94.3314 5.10314C94.3326 5.10314 94.3338 5.10432 94.335 5.10432C94.342 5.10785 94.3503 5.11139 94.3585 5.11492C94.3597 5.1161 94.3609 5.11728 94.362 5.11728C94.3703 5.12081 94.3785 5.1255 94.3856 5.12904C94.3868 5.12904 94.3891 5.13021 94.3903 5.13139C94.3986 5.13493 94.4056 5.13847 94.4138 5.142C94.4397 5.15495 94.4645 5.16673 94.4892 5.1785C94.4904 5.17967 94.4939 5.18082 94.4951 5.182C94.5022 5.18553 94.5092 5.18908 94.5162 5.1926C94.5186 5.19379 94.521 5.19497 94.5245 5.19614C94.5304 5.19968 94.5386 5.20322 94.5445 5.20675C94.5469 5.20675 94.5492 5.20792 94.5516 5.20911C94.5751 5.22088 94.5986 5.23263 94.6222 5.2444C94.6234 5.24557 94.6257 5.24557 94.6269 5.24676C94.634 5.25028 94.6398 5.25265 94.6469 5.25618C94.6504 5.25854 94.654 5.25972 94.6563 5.26207C94.6634 5.26443 94.6693 5.26794 94.6752 5.27029C94.6787 5.27264 94.6823 5.27383 94.687 5.27618C94.6929 5.27972 94.6975 5.28208 94.7046 5.28561C94.707 5.28679 94.7117 5.28915 94.7152 5.29032C94.7293 5.29739 94.7411 5.30444 94.7552 5.31151C94.7564 5.31151 94.7588 5.31268 94.76 5.31268C94.7659 5.31622 94.7717 5.31976 94.7776 5.32211C94.7811 5.32446 94.7858 5.32562 94.7882 5.32797C94.7941 5.33033 94.8012 5.33387 94.807 5.33622C94.8106 5.33858 94.8141 5.34093 94.8176 5.34329C94.8247 5.34565 94.8294 5.34801 94.8353 5.35154C94.84 5.3539 94.8435 5.35622 94.8483 5.35741C94.853 5.36094 94.8588 5.3633 94.8647 5.36683C94.8682 5.36801 94.8729 5.37037 94.8765 5.37272C94.8871 5.37743 94.8965 5.3833 94.9071 5.38802C94.9118 5.39037 94.9165 5.39273 94.9212 5.39508C94.9271 5.39861 94.9318 5.40098 94.9377 5.40333C94.9412 5.40569 94.9459 5.40804 94.9495 5.4104C94.9565 5.41393 94.9612 5.41627 94.9671 5.41862C94.9718 5.42097 94.9753 5.42334 94.9801 5.42569C94.9848 5.42805 94.9907 5.43159 94.9966 5.43394C95.0013 5.43629 95.006 5.43865 95.0107 5.44218C95.0154 5.44454 95.0201 5.44688 95.0248 5.44923C95.0331 5.45394 95.0425 5.45866 95.0507 5.46219C95.0554 5.46572 95.0625 5.46809 95.0672 5.47162C95.0731 5.47397 95.0778 5.4763 95.0825 5.47866C95.0872 5.48219 95.0931 5.48455 95.0978 5.48691C95.1025 5.48926 95.1072 5.4928 95.1119 5.49516C95.1166 5.49751 95.1225 5.49987 95.1272 5.50223C95.1319 5.50576 95.1366 5.50809 95.1413 5.51044C95.1472 5.5128 95.152 5.51634 95.1578 5.51869C95.1614 5.52105 95.1661 5.52341 95.1696 5.52576C95.1802 5.53047 95.1908 5.53635 95.2014 5.54223C95.2049 5.54459 95.2096 5.54694 95.2131 5.54813C95.219 5.55166 95.2249 5.5552 95.2296 5.55755C95.2343 5.55991 95.2391 5.56224 95.2438 5.56459C95.2485 5.56695 95.2544 5.57049 95.2579 5.57284C95.2638 5.5752 95.2696 5.57874 95.2744 5.58109C95.2791 5.58344 95.2838 5.58581 95.2885 5.58816C95.2944 5.59169 95.2991 5.5952 95.305 5.59756C95.3097 5.59991 95.3132 5.60227 95.3179 5.60463C95.3262 5.60934 95.3356 5.61406 95.3438 5.61877C95.3474 5.62112 95.3521 5.62345 95.3568 5.62581C95.3627 5.62934 95.3697 5.63288 95.3768 5.63641C95.3803 5.63877 95.385 5.64113 95.3886 5.64349C95.3945 5.64584 95.4003 5.64935 95.4062 5.65289C95.4109 5.65524 95.4144 5.6576 95.4191 5.65995C95.425 5.66348 95.4309 5.66585 95.438 5.66938C95.4415 5.67173 95.4462 5.6741 95.4486 5.67645C95.4568 5.67998 95.4651 5.68467 95.4721 5.6882C95.4745 5.68938 95.4769 5.69174 95.4792 5.69292C95.4886 5.69762 95.4992 5.70353 95.5086 5.70941C95.5122 5.71059 95.5145 5.71175 95.5181 5.7141C95.5251 5.71763 95.5322 5.72118 95.5392 5.72588C95.5428 5.72823 95.5463 5.72942 95.5499 5.73177C95.5569 5.73531 95.5628 5.73882 95.5699 5.74235C95.5734 5.74471 95.5769 5.74706 95.5804 5.74825C95.5875 5.75295 95.5946 5.75649 95.6017 5.7612C95.6052 5.76238 95.6075 5.76357 95.6111 5.76591C95.6205 5.7718 95.6311 5.7765 95.6405 5.78239C104.327 10.656 106.074 24.4139 116.192 28.5977C122.536 31.2205 127.304 42.0342 127.307 47.7601C127.307 48.9232 127.111 49.8779 126.69 50.5088C125.902 51.6954 125.63 53.0398 125.63 54.4548C125.63 57.5685 126.942 61.0283 126.942 63.9112C126.942 65.4392 126.952 66.9508 126.952 68.4423C126.952 80.3484 126.358 90.9891 115.762 98.9364C111.376 102.225 105.069 113.33 100.857 116.822C89.8922 125.913 75.2255 128 59.8702 128Z" fill="#AAAEC0"/>
<path d="M59.9785 114.278C58.2021 114.276 56.501 113.58 55.0013 112.269C53.5993 111.043 51.5862 109.242 51.113 107.37C50.9176 106.597 50.8317 105.816 50.874 105.067C53.2461 105.467 55.7135 105.69 58.3422 105.69C60.9556 105.69 63.7326 105.47 66.7332 104.985C66.8274 104.97 66.9228 104.954 67.0158 104.939C67.017 105.033 67.0134 105.128 67.0052 105.226C66.9181 106.253 66.9922 107.148 67.117 108.169C67.21 108.924 66.924 109.624 66.4566 110.198C65.8398 111.733 64.4707 112.987 62.898 113.657C61.9162 114.075 60.9367 114.278 59.9785 114.278Z" fill="#747B9E"/>
<path d="M112.486 48.1685C111.821 48.1685 111.131 47.9743 110.463 47.5305C109.577 46.9443 108.711 46.3215 107.933 45.6352C107.391 45.461 106.884 45.1738 106.46 44.7735C106.495 44.8076 106.498 44.8218 106.478 44.8218C106.428 44.8218 106.236 44.7323 106.086 44.6428C105.935 44.5534 105.823 44.4639 105.934 44.4639C105.947 44.4639 105.963 44.4651 105.983 44.4674C105.618 44.4109 104.764 44.2767 104.71 44.2591C104.367 44.159 104.034 44.0342 103.71 43.8859C103.351 43.7364 103 43.5798 102.654 43.415C102.165 38.9805 103.829 36.1117 103.496 29.4711C103.475 29.0367 103.394 28.58 103.257 28.1009C103.428 27.7347 103.673 27.3898 104.001 27.079L104.215 26.8777C104.923 26.2091 105.717 25.9113 106.518 25.9113C107.39 25.9113 108.271 26.2644 109.052 26.8777C110.104 27.6994 110.539 28.9143 111.267 30.0468C111.686 30.7001 112.205 31.4264 112.62 32.1857C113.264 32.9956 113.838 33.8503 114.331 34.6637C115.833 37.1406 115.805 40.1636 116.449 42.9288C117.05 45.5081 114.943 48.1685 112.486 48.1685Z" fill="#747B9E"/>
<path d="M55.3721 82.6075C54.8576 82.6075 54.3326 82.5851 53.7958 82.5486C53.126 78.5096 50.5326 75.0687 47.8569 74.2953C45.5354 73.6243 43.8026 72.7743 42.1074 72.7743C40.5323 72.7743 38.989 73.5089 37.036 75.8068C36.8241 76.0564 36.6181 76.3012 36.4192 76.5437C33.3514 73.563 31.2643 69.8949 30.4638 67.2297C29.4549 63.8629 25.2523 60.0417 21.1015 57.1541C21.5182 56.3783 21.8161 55.4742 21.9656 54.4277C23.038 46.956 14.5198 44.4992 9.8263 40.0023C9.77333 39.6091 9.73094 39.2866 9.69798 39.0876C9.29184 36.6273 9.3307 34.2187 8.62321 31.9444C8.40425 32.4353 8.18292 32.9415 7.96043 33.4641C17.4828 11.1398 22.3694 18.635 29.316 13.2364C34.2355 9.41164 35.1761 6.92894 41.0997 4.67814C43.4529 3.78347 45.8992 2.8111 48.4054 1.98354C50.4243 2.9147 53.0247 4.1378 55.7888 5.49747C52.96 5.75291 50.3984 6.52398 49.0647 7.7565C47.2847 9.40222 46.4042 11.9438 45.5531 14.2005C44.217 13.9804 42.955 13.8709 41.7766 13.8709C38.4145 13.8709 35.7317 14.7644 33.9436 16.5525C33.8164 16.6808 33.6858 16.8139 33.5527 16.9528C32.8629 16.8115 32.2107 16.7291 31.5821 16.7291C30.3625 16.7291 29.2312 17.0399 28.0811 17.8333C25.3194 19.7404 19.6065 25.7194 25.9339 29.5076C25.3806 31.0368 24.8932 32.679 24.5024 34.4389C22.5153 43.3832 26.4907 40.8982 32.4532 46.3639C35.202 48.8843 38.9031 49.9249 42.5807 49.9249C46.8751 49.9249 51.1389 48.504 53.8146 46.3639C58.7836 42.3885 60.7707 33.4465 59.2804 27.9808C58.6965 25.8383 58.1114 23.697 57.1991 21.764C62.3246 18.9929 66.652 16.9763 67.9669 12.0568C70.4025 13.5601 72.3084 14.9551 73.1902 16.0581C77.1656 21.0247 78.6559 25.9937 83.6237 28.4764C88.5926 30.9614 87.1023 34.9356 88.5926 42.8841C89.8769 49.7389 90.794 60.6562 87.5178 66.401C85.9086 67.3157 84.0722 68.2927 81.912 69.3216C81.3293 69.5994 80.8572 70.1233 80.4911 70.819C75.5163 71.6736 69.7092 70.892 65.7385 76.6685C62.4918 81.3926 59.2451 82.6075 55.3721 82.6075ZM73.9518 44.026C72.5968 44.026 71.2254 44.438 70.4026 45.2279C68.6238 46.9348 68.1529 49.2268 68.4731 51.3587C68.5155 51.6424 68.5673 51.9438 68.6332 52.2511C67.4454 53.546 68.0929 55.5472 69.9058 56.33C70.7357 56.6867 71.5291 56.8468 72.3061 56.8468C73.355 56.8468 74.3756 56.5561 75.4209 56.0652C76.4251 55.5931 77.3621 55.1281 78.2898 54.5654C80.6689 53.1222 80.9797 50.3087 79.899 48.3098C79.0997 46.8324 78.2085 45.4339 76.3709 44.5357C75.6693 44.1931 74.8135 44.026 73.9518 44.026ZM3.73902 42.7876C3.73784 42.7852 3.73548 42.7817 3.7343 42.7793C4.1322 41.8646 4.55362 40.9547 4.98919 40.0282C5.63664 38.6485 6.31589 37.2324 6.99396 35.7091C5.86031 38.2577 4.72551 40.5073 3.73902 42.7876Z" fill="#D1D4E2"/>
<path d="M72.3061 56.8468C71.5291 56.8468 70.7357 56.6867 69.9058 56.33C68.0929 55.5472 67.4454 53.546 68.6332 52.2511C68.5673 51.9438 68.5155 51.6424 68.4731 51.3587C68.1529 49.2268 68.6238 46.9348 70.4026 45.2279C71.2254 44.438 72.5969 44.026 73.9518 44.026C74.8135 44.026 75.6693 44.1931 76.3709 44.5357C78.2085 45.4339 79.0997 46.8324 79.899 48.3098C80.9797 50.3087 80.6689 53.1222 78.2898 54.5654C77.3622 55.1281 76.4251 55.5931 75.421 56.0652C74.3756 56.5561 73.355 56.8468 72.3061 56.8468Z" fill="#A7ACC8"/>
<path d="M25.9339 29.5076C19.6065 25.7194 25.3194 19.7404 28.0811 17.8333C29.2312 17.0399 30.3625 16.7291 31.5821 16.7291C32.2107 16.7291 32.8629 16.8115 33.5527 16.9528C31.1936 19.4143 28.0717 23.5992 25.9339 29.5076ZM57.1991 21.764C55.7817 18.7668 53.5733 16.2724 49.3437 15.0622C48.024 14.6855 46.7585 14.3983 45.5531 14.2005C46.4042 11.9438 47.2848 9.40223 49.0647 7.7565C50.3984 6.52398 52.96 5.75292 55.7888 5.49747C59.9585 7.54932 64.4989 9.91431 67.9669 12.0568C66.652 16.9763 62.3246 18.9929 57.1991 21.764Z" fill="#A7ACC8"/>
<path d="M21.1015 57.1541C19.1262 55.7791 17.1614 54.6172 15.5593 53.8155C12.3361 52.2028 6.81504 48.7065 3.73902 42.7876C4.72551 40.5073 5.86032 38.2577 6.99396 35.7091C7.22705 35.1852 7.46015 34.6484 7.69206 34.0963C7.78153 33.8832 7.87215 33.6713 7.96044 33.4641C8.18293 32.9415 8.40425 32.4353 8.62321 31.9444C9.33071 34.2187 9.29185 36.6273 9.69798 39.0876C9.73094 39.2866 9.77333 39.6091 9.82631 40.0023C14.5198 44.4992 23.038 46.956 21.9656 54.4277C21.8161 55.4742 21.5182 56.3783 21.1015 57.1541Z" fill="#A7ACC8"/>
<path d="M42.5807 49.9249C38.9031 49.9249 35.202 48.8843 32.4532 46.3639C26.4907 40.8982 22.5153 43.3832 24.5024 34.4389C24.8933 32.679 25.3806 31.0368 25.9339 29.5076C27.2147 30.2751 28.9887 30.952 31.3808 31.4876C36.3109 32.5918 39.1927 33.2499 41.2398 33.2499C45.0916 33.2499 45.991 30.9179 52.03 24.8282C53.7864 23.644 55.5345 22.6645 57.1991 21.764C58.1114 23.6969 58.6965 25.8383 59.2804 27.9808C60.7707 33.4465 58.7836 42.3885 53.8147 46.3639C51.1389 48.504 46.8751 49.9249 42.5807 49.9249ZM41.3458 19.0564C40.9738 19.0564 40.5653 18.9964 40.1144 18.8669C37.4799 18.1147 35.3833 17.3271 33.5527 16.9528C33.6858 16.8139 33.8164 16.6808 33.9436 16.5525C35.7317 14.7644 38.4146 13.8709 41.7766 13.8709C42.955 13.8709 44.217 13.9804 45.5531 14.2005C44.5654 16.8209 43.6178 19.0564 41.3458 19.0564Z" fill="#DFE1EB"/>
<path d="M41.2398 33.2499C39.1927 33.2499 36.3109 32.5919 31.3808 31.4877C28.9887 30.952 27.2147 30.2751 25.9339 29.5076C28.0717 23.5992 31.1936 19.4143 33.5527 16.9528C35.3833 17.3271 37.4799 18.1147 40.1144 18.8669C40.5653 18.9964 40.9738 19.0564 41.3458 19.0564C43.6178 19.0564 44.5654 16.8209 45.5531 14.2005C46.7585 14.3983 48.024 14.6855 49.3437 15.0622C53.5733 16.2724 55.7817 18.7669 57.1991 21.764C55.5345 22.6646 53.7864 23.644 52.03 24.8282C45.991 30.9179 45.0916 33.2499 41.2398 33.2499Z" fill="#C1C5D8"/>
</g>
<defs>
<clipPath id="clip0_1_2">
<rect width="128" height="128" fill="white"/>
</clipPath>
</defs>
</svg>
