<svg width="1430" height="417" viewBox="0 0 1430 417" fill="none" xmlns="http://www.w3.org/2000/svg">
<mask id="mask0_14_419" style="mask-type:luminance" maskUnits="userSpaceOnUse" x="0" y="0" width="1444" height="458">
<path d="M1319.33 77.4947C1311.47 74.8783 1303.05 73.442 1294.29 73.442C1251.35 73.442 1216.53 107.496 1216.53 149.505C1216.53 155.755 1217.32 161.822 1218.77 167.641C1203.71 171.201 1190.52 179.465 1180.95 190.785C1167.22 179.18 1149.34 172.149 1129.77 172.149C1119.66 172.149 1110 174.041 1101.13 177.455C1076.24 151.934 1041.16 136.004 1002.25 136.004C928.808 136.004 868.913 192.669 865.73 263.744C852.256 253.559 835.384 247.484 817.038 247.484C774.652 247.484 740.008 279.861 737.508 320.71C728.261 314.892 717.262 311.502 705.443 311.502C701.932 311.502 698.5 311.815 695.168 312.385C688.541 255.687 639.346 211.631 579.601 211.631C547.024 211.631 517.588 224.742 496.472 245.848C487.237 241.156 476.758 238.487 465.63 238.487C428.628 238.487 398.63 267.829 398.63 304.027C398.63 329.963 414.039 352.376 436.386 363C424.222 376.196 414.563 391.642 408.131 408.626C397.678 400.993 384.711 396.468 370.659 396.468C355.887 396.468 342.317 401.477 331.601 409.839C331.73 407.699 331.813 405.55 331.813 403.385C331.813 343.558 282.23 295.059 221.071 295.059C159.907 295.059 110.329 343.558 110.329 403.385L110.341 403.865C98.8473 395.451 84.5703 390.462 69.1119 390.462C31.0816 390.462 0.252228 420.622 0.252228 457.817H688.824H1443.88V269.692V0.284393C1388.85 0.284393 1341.38 31.8603 1319.33 77.4947Z" fill="white"/>
</mask>
<g mask="url(#mask0_14_419)">
<path d="M0.210815 457.744V450.419H0.626811V447.978H1.04281V445.13H1.4588V443.095H1.8748V441.467H2.29079V439.84H2.70679V438.619H3.12278V436.991H3.53878V435.771H3.95477V434.957H4.37077V433.736H4.78676V432.516H5.20276V431.702H5.61875V430.481H6.03475V429.667H6.45074V428.853H6.86674V428.04H7.28273V427.226H7.69873V426.412H8.11473V425.598H8.53072V424.784H8.94672V424.377H9.36271V423.564H9.77871V422.75H10.1947V422.343H10.6107V421.529H11.0267V420.715H11.4427V420.308H11.8587V419.495H12.2747V419.088H12.6907V418.681H13.1067V417.867H13.5227V417.46H13.9387V417.053H14.3547V416.239H14.7706V415.832H15.1866V415.425H15.6026V414.612H16.0186V414.205H16.4346V413.798H16.8506V413.391H17.2666V412.984H17.6826V412.577H18.0986V412.17H18.5146V411.763H18.9306V410.95H19.3466V410.543H19.7626V410.136H20.1786V409.729H20.5946V409.322H21.0106V408.915H21.8426V408.508H22.2586V408.101H22.6746V407.694H23.0906V407.287H23.5065V406.88H23.9225V406.474H24.3385V406.067H24.7545V405.66H25.1705V405.253H26.0025V404.846H26.4185V404.439H26.8345V404.032H27.6665V403.625H28.0825V403.218H28.4985V402.811H29.3305V402.404H29.7465V401.998H30.1625V401.591H30.9945V401.184H31.8265V400.777H32.2425V400.37H33.0744V399.963H33.9064V399.556H34.3224V399.149H35.1544V398.742H35.9864V398.335H36.8184V397.929H37.6504V397.522H38.4824V397.115H39.3144V396.708H40.1464V396.301H40.9784V395.894H41.8103V395.487H43.0583V395.08H43.8903V394.673H45.1383V394.266H46.3863V393.859H47.2183V393.453H48.4663V393.046H50.1302V392.639H51.7942V392.232H53.4582V391.825H55.1222V391.418H57.6182V391.011H60.5301V390.604H65.1061V390.197H73.426V390.604H77.1699V391.011H80.9139V391.418H82.5779V391.825H84.2419V392.232H85.9058V392.639H87.5698V393.046H89.2338V393.453H90.8978V393.859H92.1458V394.266H92.9778V394.673H93.8098V395.08H95.0577V395.487H95.8897V395.894H96.7217V396.301H97.9697V396.708H98.8017V397.115H99.6337V397.522H100.882V397.929H101.714V398.335H102.13V398.742H102.962V399.149H103.794V399.556H104.21V399.963H105.042V400.37H105.874V400.777H106.706V401.184H107.122V401.591H107.954V401.998H108.37V402.404H109.202V402.811H109.618V403.218H110.034V398.742H110.45V392.639H110.866V389.79H111.282V386.942H111.698V384.501H112.114V381.652H112.53V380.025H112.946V378.397H113.362V376.769H113.778V375.142H114.194V373.514H114.61V371.887H115.026V370.666H115.442V369.445H115.857V368.224H116.273V367.411H116.689V366.19H117.105V364.969H117.521V363.748H117.937V362.935H118.353V361.714H118.769V360.9H119.185V359.679H119.601V358.866H120.017V358.052H120.433V357.238H120.849V356.424H121.265V355.61H121.681V354.797H122.097V353.983H122.513V353.169H122.929V352.355H123.345V351.541H123.761V350.728H124.177V349.914H124.593V349.507H125.009V348.693H125.425V348.286H125.841V347.472H126.257V346.658H126.673V346.252H127.089V345.438H127.505V344.624H127.921V344.217H128.337V343.403H128.753V342.589H129.169V342.182H129.585V341.776H130.001V340.962H130.417V340.555H130.833V340.148H131.249V339.334H131.665V338.927H132.081V338.52H132.497V337.707H132.913V337.3H133.329V336.893H133.745V336.079H134.161V335.672H134.577V335.265H134.993V334.451H135.409V334.044H135.825V333.637H136.241V333.231H136.657V332.824H137.073V332.417H137.489V332.01H137.905V331.196H138.321V330.789H138.737V330.382H139.153V329.975H139.569V329.568H139.985V329.161H140.401V328.755H140.817V328.348H141.233V327.941H141.649V327.534H142.065V326.72H142.481V326.313H142.897V325.906H143.729V325.499H144.145V325.092H144.561V324.686H144.977V324.279H145.393V323.872H145.809V323.465H146.225V323.058H146.641V322.651H147.057V322.244H147.473V321.837H148.305V321.43H148.721V321.023H149.137V320.616H149.553V320.21H149.969V319.803H150.385V319.396H150.801V318.989H151.633V318.582H152.049V318.175H152.465V317.768H153.297V317.361H153.713V316.954H154.129V316.547H154.961V316.141H155.377V315.734H155.793V315.327H156.625V314.92H157.041V314.513H157.457V314.106H158.289V313.699H158.705V313.292H159.537V312.885H159.953V312.478H160.785V312.071H161.617V311.665H162.033V311.258H162.865V310.851H163.697V310.444H164.113V310.037H164.945V309.63H165.361V309.223H166.193V308.816H167.025V308.409H167.441V308.002H168.273V307.596H169.105V307.189H169.937V306.782H170.769V306.375H172.017V305.968H172.849V305.561H173.681V305.154H174.513V304.747H175.345V304.34H176.177V303.933H177.009V303.526H177.841V303.12H179.089V302.713H180.337V302.306H181.169V301.899H182.417V301.492H183.665V301.085H184.913V300.678H185.745V300.271H186.993V299.864H188.241V299.457H189.905V299.05H191.569V298.644H193.233V298.237H194.481V297.83H196.145V297.423H197.809V297.016H200.305V296.609H202.801V296.202H205.712V295.795H208.208V295.388H213.2V294.981H229.008V295.388H233.584V295.795H236.496V296.202H239.408V296.609H241.904V297.016H244.4V297.423H246.064V297.83H247.312V298.237H248.976V298.644H250.64V299.05H252.304V299.457H253.968V299.864H255.216V300.271H256.464V300.678H257.296V301.085H258.544V301.492H259.792V301.899H261.04V302.306H261.872V302.713H263.12V303.12H264.368V303.526H265.2V303.933H266.032V304.34H266.864V304.747H267.696V305.154H268.528V305.561H269.36V305.968H270.192V306.375H271.024V306.782H271.856V307.189H273.104V307.596H273.936V308.002H274.352V308.409H275.184V308.816H276.016V309.223H276.432V309.63H277.264V310.037H278.096V310.444H278.512V310.851H279.344V311.258H280.176V311.665H280.592V312.071H281.424V312.478H282.256V312.885H282.672V313.292H283.504V313.699H283.92V314.106H284.336V314.513H285.168V314.92H285.584V315.327H286V315.734H286.832V316.141H287.248V316.547H287.664V316.954H288.496V317.361H288.912V317.768H289.328V318.175H290.16V318.582H290.576V318.989H290.992V319.396H291.823V319.803H292.24V320.21H292.655V320.616H293.071V321.023H293.487V321.43H293.903V321.837H294.319V322.244H294.735V322.651H295.567V323.058H295.983V323.465H296.399V323.872H296.815V324.279H297.231V324.686H297.647V325.092H298.063V325.499H298.479V325.906H298.895V326.313H299.311V326.72H299.727V327.127H300.143V327.534H300.559V327.941H300.975V328.348H301.391V328.755H301.807V329.161H302.223V329.568H302.639V329.975H303.055V330.382H303.471V330.789H303.887V331.603H304.303V332.01H304.719V332.417H305.135V332.824H305.551V333.231H305.967V333.637H306.383V334.044H306.799V334.451H307.215V335.265H307.631V335.672H308.047V336.079H308.463V336.893H308.879V337.3H309.295V337.707H309.711V338.52H310.127V338.927H310.543V339.334H310.959V340.148H311.375V340.555H311.791V341.369H312.207V341.776H312.623V342.182H313.039V342.996H313.455V343.403H313.871V344.217H314.287V345.031H314.703V345.438H315.119V346.252H315.535V347.065H315.951V347.472H316.367V348.286H316.783V348.693H317.199V349.507H317.615V350.321H318.031V350.728H318.447V351.541H318.863V352.355H319.279V353.169H319.695V353.983H320.111V354.797H320.527V355.61H320.943V356.424H321.359V357.645H321.775V358.459H322.191V359.273H322.607V360.086H323.023V360.9H323.439V361.714H323.855V362.935H324.271V364.155H324.687V365.376H325.103V366.19H325.519V367.411H325.935V368.631H326.351V369.852H326.767V370.666H327.183V372.293H327.599V373.921H328.015V375.549H328.431V377.176H328.847V378.804H329.263V380.025H329.679V382.059H330.095V384.908H330.511V387.349H330.927V390.197H331.343V393.453H331.759V399.556H332.175V406.474H331.759V409.322H332.175V408.915H332.591V408.508H333.007V408.101H333.839V407.694H334.255V407.287H335.087V406.88H335.503V406.474H336.335V406.067H337.167V405.66H337.583V405.253H338.415V404.846H338.831V404.439H339.663V404.032H340.495V403.625H341.327V403.218H342.159V402.811H342.991V402.404H344.239V401.998H345.071V401.591H345.903V401.184H346.735V400.777H347.567V400.37H348.815V399.963H349.647V399.556H351.311V399.149H352.975V398.742H354.223V398.335H355.887V397.929H357.551V397.522H359.215V397.115H362.127V396.708H365.455V396.301H375.855V396.708H379.599V397.115H382.094V397.522H383.758V397.929H385.422V398.335H387.086V398.742H388.75V399.149H390.414V399.556H391.662V399.963H392.494V400.37H393.742V400.777H394.574V401.184H395.406V401.591H396.654V401.998H397.486V402.404H398.318V402.811H399.566V403.218H400.398V403.625H400.814V404.032H401.646V404.439H402.478V404.846H402.894V405.253H403.726V405.66H404.558V406.067H404.974V406.474H405.806V406.88H406.638V407.287H407.054V407.694H407.47V408.101H408.302V406.88H408.718V405.66H409.134V404.846H409.55V404.032H409.966V402.811H410.382V401.998H410.798V401.184H411.214V400.37H411.63V399.149H412.046V398.335H412.462V397.522H412.878V396.708H413.294V395.894H413.71V395.08H414.126V394.266H414.542V393.453H414.958V392.639H415.374V391.825H415.79V391.011H416.206V390.604H416.622V389.79H417.038V388.977H417.454V388.163H417.87V387.349H418.286V386.535H418.702V386.128H419.118V385.314H419.534V384.501H419.95V383.687H420.366V383.28H420.782V382.466H421.198V382.059H421.614V381.245H422.03V380.839H422.446V380.025H422.862V379.618H423.278V378.804H423.694V378.397H424.11V377.583H424.526V377.176H424.942V376.769H425.358V375.956H425.774V375.549H426.19V374.735H426.606V374.328H427.022V373.514H427.438V373.107H427.854V372.293H428.27V371.887H428.686V371.48H429.102V371.073H429.518V370.259H429.934V369.852H430.35V369.445H430.766V369.038H431.182V368.224H431.598V367.818H432.014V367.411H432.43V367.004H432.846V366.19H433.262V365.783H433.678V365.376H434.094V364.969H434.51V364.562H434.926V363.748H435.342V363.342H435.758V362.935H435.342V362.528H434.51V362.121H433.678V361.714H432.846V361.307H432.43V360.9H431.598V360.493H430.766V360.086H430.35V359.679H429.518V359.273H428.686V358.866H428.27V358.459H427.438V358.052H427.022V357.645H426.606V357.238H425.774V356.831H425.358V356.424H424.942V356.017H424.526V355.61H423.694V355.203H423.278V354.797H422.862V354.39H422.03V353.983H421.614V353.576H421.198V353.169H420.782V352.762H420.366V352.355H419.95V351.948H419.534V351.541H419.118V351.134H418.702V350.728H418.286V350.321H417.87V349.914H417.454V349.507H417.038V349.1H416.622V348.693H416.206V348.286H415.79V347.879H415.374V347.472H414.958V347.065H414.542V346.658H414.126V346.252H413.71V345.438H413.294V345.031H412.878V344.217H412.462V343.81H412.046V343.403H411.63V342.589H411.214V342.182H410.798V341.776H410.382V340.962H409.966V340.555H409.55V340.148H409.134V339.334H408.718V338.52H408.302V338.113H407.886V337.3H407.47V336.486H407.054V335.672H406.638V334.858H406.222V334.044H405.806V333.637H405.39V332.824H404.974V332.01H404.558V331.196H404.142V329.975H403.726V329.161H403.31V327.941H402.894V326.72H402.478V325.906H402.062V324.686H401.646V323.465H401.23V322.244H400.814V320.21H400.398V318.582H399.982V316.547H399.566V314.92H399.15V312.071H398.734V307.596H398.318V300.678H398.734V296.202H399.15V293.354H399.566V290.505H399.982V288.878H400.398V287.657H400.814V286.03H401.23V284.402H401.646V283.181H402.062V281.96H402.478V281.147H402.894V279.926H403.31V278.705H403.726V277.891H404.142V277.078H404.558V276.264H404.974V275.45H405.39V274.636H405.806V273.415H406.222V272.602H406.638V272.195H407.054V271.381H407.47V270.567H407.886V270.16H408.302V269.346H408.718V268.533H409.134V268.126H409.55V267.312H409.966V266.905H410.382V266.091H410.798V265.684H411.214V265.277H411.63V264.464H412.046V264.057H412.462V263.65H412.878V262.836H413.294V262.429H413.71V262.022H414.126V261.615H414.542V261.208H414.958V260.394H415.374V259.988H415.79V259.581H416.206V259.174H416.622V258.767H417.038V258.36H417.454V257.953H417.87V257.546H418.286V257.139H418.702V256.732H419.118V256.325H419.534V255.919H419.95V255.512H420.366V255.105H420.782V254.698H421.198V254.291H422.03V253.884H422.446V253.477H422.862V253.07H423.278V252.663H423.694V252.256H424.526V251.849H424.942V251.443H425.358V251.036H426.19V250.629H426.606V250.222H427.022V249.815H427.854V249.408H428.27V249.001H429.102V248.594H429.934V248.187H430.35V247.78H431.182V247.373H432.014V246.967H432.43V246.56H433.262V246.153H434.094V245.746H434.926V245.339H435.758V244.932H436.59V244.525H437.422V244.118H438.254V243.711H439.086V243.304H440.334V242.898H441.582V242.491H442.414V242.084H443.662V241.677H444.91V241.27H446.158V240.863H447.822V240.456H449.486V240.049H451.15V239.642H453.23V239.235H455.726V238.828H458.638V238.422H472.365V238.828H475.277V239.235H477.773V239.642H479.853V240.049H481.933V240.456H483.597V240.863H484.845V241.27H486.093V241.677H487.341V242.084H488.589V242.491H489.837V242.898H491.085V243.304H491.917V243.711H492.749V244.118H493.997V244.525H494.829V244.932H495.661V245.339H496.909V244.932H497.325V244.525H497.741V244.118H498.157V243.711H498.573V243.304H498.989V242.898H499.405V242.491H499.821V242.084H500.237V241.677H500.653V241.27H501.069V240.863H501.485V240.456H502.317V240.049H502.733V239.642H503.149V239.235H503.565V238.828H503.981V238.422H504.397V238.015H504.813V237.608H505.645V237.201H506.061V236.794H506.477V236.387H507.309V235.98H507.725V235.573H508.141V235.166H508.973V234.759H509.389V234.353H509.805V233.946H510.637V233.539H511.053V233.132H511.469V232.725H511.885V232.318H512.717V231.911H513.133V231.504H513.549V231.097H514.381V230.69H515.213V230.283H515.629V229.877H516.461V229.47H517.293V229.063H517.709V228.656H518.541V228.249H518.957V227.842H519.789V227.435H520.621V227.028H521.037V226.621H521.869V226.214H522.285V225.807H523.117V225.401H523.949V224.994H524.781V224.587H525.613V224.18H526.445V223.773H527.277V223.366H528.109V222.959H528.941V222.552H529.773V222.145H530.605V221.738H531.437V221.332H532.269V220.925H533.517V220.518H534.349V220.111H535.597V219.704H536.429V219.297H537.677V218.89H538.925V218.483H540.173V218.076H541.005V217.669H542.253V217.262H543.501V216.856H544.333V216.449H545.997V216.042H547.661V215.635H549.325V215.228H550.989V214.821H552.653V214.414H553.901V214.007H555.565V213.6H558.476V213.193H560.972V212.787H563.884V212.38H566.38V211.973H571.372V211.566H588.012V211.973H592.588V212.38H595.5V212.787H598.412V213.193H601.324V213.6H603.404V214.007H605.068V214.414H606.732V214.821H608.396V215.228H610.06V215.635H612.14V216.042H613.388V216.449H614.636V216.856H615.884V217.262H616.716V217.669H617.964V218.076H619.212V218.483H620.46V218.89H621.708V219.297H622.956V219.704H623.788V220.111H624.62V220.518H625.452V220.925H626.7V221.332H627.532V221.738H628.364V222.145H629.196V222.552H630.444V222.959H631.276V223.366H632.108V223.773H632.94V224.18H633.772V224.587H634.188V224.994H635.02V225.401H635.852V225.807H636.684V226.214H637.516V226.621H637.932V227.028H638.764V227.435H639.596V227.842H640.428V228.249H640.844V228.656H641.676V229.063H642.091V229.47H642.924V229.877H643.339V230.283H644.172V230.69H644.587V231.097H645.419V231.504H645.835V231.911H646.667V232.318H647.083V232.725H647.915V233.132H648.331V233.539H648.747V233.946H649.579V234.353H649.995V234.759H650.411V235.166H651.243V235.573H651.659V235.98H652.075V236.387H652.491V236.794H652.907V237.201H653.739V237.608H654.155V238.015H654.571V238.422H654.987V238.828H655.819V239.235H656.235V239.642H656.651V240.049H657.067V240.456H657.483V240.863H657.899V241.27H658.315V241.677H658.731V242.084H659.147V242.491H659.563V242.898H659.979V243.304H660.395V243.711H661.227V244.118H661.643V244.525H662.059V244.932H662.475V245.339H662.891V245.746H663.307V246.153H663.723V246.56H664.139V246.967H664.555V247.373H664.971V247.78H665.387V248.594H665.803V249.001H666.219V249.408H666.635V249.815H667.051V250.222H667.467V250.629H667.883V251.443H668.299V251.849H668.715V252.256H669.131V252.663H669.547V253.07H669.963V253.884H670.379V254.291H670.795V254.698H671.211V255.105H671.627V255.512H672.043V256.325H672.459V256.732H672.875V257.546H673.291V257.953H673.707V258.36H674.123V259.174H674.539V259.581H674.955V260.394H675.371V260.801H675.787V261.208H676.203V262.022H676.619V262.429H677.035V263.243H677.451V263.65H677.867V264.464H678.283V264.87H678.699V265.684H679.115V266.498H679.531V267.312H679.947V267.719H680.363V268.533H680.779V269.346H681.195V270.16H681.611V270.567H682.027V271.381H682.443V272.195H682.859V273.009H683.275V273.822H683.691V274.636H684.107V275.45H684.523V276.264H684.939V277.078H685.355V277.891H685.771V279.112H686.187V279.926H686.603V280.74H687.019V281.554H687.435V282.367H687.851V283.588H688.267V284.809H688.683V286.03H689.099V287.25H689.515V288.064H689.931V289.285H690.347V290.505H690.763V291.726H691.179V293.354H691.595V294.575H692.011V296.202H692.427V297.83H692.843V299.457H693.259V301.085H693.675V303.12H694.091V305.154H694.507V307.596H694.923V310.037H695.339V312.071H697.419V311.665H701.163V311.258H709.483V311.665H713.643V312.071H716.139V312.478H717.803V312.885H719.883V313.292H721.547V313.699H723.211V314.106H724.043V314.513H725.291V314.92H726.539V315.327H727.371V315.734H728.619V316.141H729.867V316.547H730.698V316.954H731.531V317.361H732.362V317.768H733.194V318.175H734.026V318.582H734.858V318.989H735.69V319.396H736.106V319.803H736.938V320.21H737.354V317.361H737.77V314.106H738.186V311.665H738.602V309.63H739.018V308.002H739.434V305.968H739.85V304.34H740.266V303.12H740.682V301.899H741.098V300.678H741.514V299.457H741.93V298.237H742.346V297.016H742.762V296.202H743.178V295.388H743.594V294.168H744.01V293.354H744.426V292.133H744.842V291.319H745.258V290.505H745.674V289.692H746.09V289.285H746.506V288.471H746.922V287.657H747.338V286.843H747.754V286.03H748.17V285.216H748.586V284.809H749.002V283.995H749.418V283.588H749.834V282.774H750.25V282.367H750.666V281.554H751.082V281.147H751.498V280.333H751.914V279.926H752.33V279.112H752.746V278.705H753.162V278.298H753.578V277.484H753.994V277.078H754.41V276.671H754.826V276.264H755.242V275.45H755.658V275.043H756.074V274.636H756.49V274.229H756.906V273.822H757.322V273.415H757.738V272.602H758.154V272.195H758.57V271.788H758.986V271.381H759.402V270.974H759.818V270.567H760.234V270.16H760.65V269.753H761.066V269.346H761.482V268.939H761.898V268.533H762.314V268.126H762.73V267.719H763.562V267.312H763.978V266.905H764.394V266.498H764.81V266.091H765.226V265.684H765.642V265.277H766.058V264.87H766.89V264.464H767.306V264.057H767.722V263.65H768.138V263.243H768.97V262.836H769.386V262.429H770.218V262.022H770.634V261.615H771.05V261.208H771.882V260.801H772.298V260.394H773.13V259.988H773.546V259.581H774.378V259.174H774.794V258.767H775.626V258.36H776.458V257.953H777.29V257.546H777.706V257.139H778.538V256.732H779.37V256.325H779.786V255.919H780.618V255.512H781.866V255.105H782.698V254.698H783.53V254.291H784.362V253.884H785.194V253.477H786.026V253.07H787.274V252.663H788.522V252.256H789.77V251.849H790.602V251.443H791.85V251.036H793.098V250.629H794.346V250.222H796.01V249.815H797.674V249.408H799.338V249.001H801.002V248.594H803.914V248.187H806.826V247.78H810.154V247.373H824.297V247.78H827.625V248.187H830.537V248.594H832.617V249.001H834.697V249.408H836.361V249.815H838.025V250.222H839.273V250.629H840.937V251.036H842.185V251.443H843.433V251.849H844.681V252.256H845.513V252.663H846.761V253.07H847.593V253.477H848.841V253.884H849.673V254.291H850.505V254.698H851.337V255.105H852.169V255.512H853.001V255.919H853.833V256.325H854.665V256.732H855.497V257.139H856.329V257.546H857.161V257.953H857.577V258.36H858.409V258.767H859.241V259.174H859.657V259.581H860.489V259.988H861.321V260.394H861.737V260.801H862.153V261.208H862.985V261.615H863.401V262.022H864.233V262.429H864.649V262.836H865.481V259.988H865.897V256.325H866.313V252.663H866.729V249.408H867.145V247.373H867.561V245.339H867.977V243.304H868.393V241.27H868.809V239.235H869.225V237.201H869.641V235.98H870.057V234.353H870.473V233.132H870.889V231.504H871.305V230.283H871.721V229.063H872.137V227.435H872.553V226.214H872.969V224.994H873.385V223.773H873.801V222.959H874.217V221.738H874.633V220.925H875.049V220.111H875.465V218.89H875.881V218.076H876.297V216.856H876.713V216.042H877.129V214.821H877.545V214.007H877.961V213.193H878.377V212.38H878.793V211.566H879.209V210.752H879.625V209.938H880.041V209.124H880.457V208.311H880.873V207.497H881.289V206.683H881.705V205.869H882.121V205.055H882.537V204.242H882.953V203.835H883.369V203.021H883.785V202.207H884.201V201.393H884.617V200.986H885.033V200.172H885.449V199.766H885.865V198.952H886.281V198.545H886.697V197.731H887.113V196.917H887.529V196.51H887.945V195.697H888.361V195.29H888.777V194.476H889.193V194.069H889.609V193.255H890.025V192.848H890.441V192.034H890.857V191.627H891.273V190.814H891.689V190.407H892.105V190H892.521V189.593H892.937V188.779H893.353V188.372H893.769V187.965H894.185V187.558H894.601V186.745H895.017V186.338H895.433V185.931H895.849V185.117H896.265V184.71H896.681V184.303H897.097V183.896H897.513V183.082H897.929V182.676H898.345V182.269H898.761V181.862H899.177V181.455H899.593V181.048H900.009V180.641H900.425V179.827H900.841V179.42H901.257V179.013H901.673V178.606H902.089V178.2H902.505V177.793H902.921V177.386H903.337V176.979H903.753V176.572H904.169V176.165H904.585V175.758H905.001V175.351H905.417V174.944H905.833V174.537H906.249V174.13H906.664V173.724H907.081V173.317H907.497V172.91H907.912V172.503H908.328V172.096H908.745V171.689H909.16V171.282H909.576V170.875H909.992V170.468H910.824V170.061H911.24V169.655H911.656V169.248H912.072V168.841H912.488V168.434H912.904V168.027H913.32V167.62H914.152V167.213H914.568V166.806H914.984V166.399H915.4V165.992H915.816V165.585H916.232V165.179H916.648V164.772H917.48V164.365H917.896V163.958H918.728V163.551H919.144V163.144H919.56V162.737H920.392V162.33H920.808V161.923H921.224V161.516H922.056V161.11H922.472V160.703H923.304V160.296H923.72V159.889H924.136V159.482H924.968V159.075H925.384V158.668H926.216V158.261H926.632V157.854H927.048V157.447H927.88V157.04H928.712V156.634H929.128V156.227H929.96V155.82H930.792V155.413H931.208V155.006H932.04V154.599H932.872V154.192H933.288V153.785H934.12V153.378H934.952V152.971H935.784V152.565H936.2V152.158H937.032V151.751H937.864V151.344H938.28V150.937H939.112V150.53H940.36V150.123H941.192V149.716H942.024V149.309H942.856V148.902H943.688V148.495H944.52V148.089H945.352V147.682H946.6V147.275H947.432V146.868H948.264V146.461H949.096V146.054H949.928V145.647H951.176V145.24H952.424V144.833H953.256V144.426H954.504V144.02H955.752V143.613H957V143.206H958.248V142.799H959.496V142.392H960.328V141.985H961.576V141.578H962.824V141.171H964.488V140.764H966.152V140.357H967.816V139.95H969.48V139.544H971.144V139.137H972.808V138.73H974.472V138.323H976.968V137.916H979.88V137.509H982.792V137.102H985.288V136.695H988.2V136.288H994.023V135.881H1010.25V136.288H1016.07V136.695H1019.4V137.102H1021.9V137.509H1024.39V137.916H1027.3V138.323H1029.8V138.73H1031.88V139.137H1033.13V139.544H1034.79V139.95H1036.46V140.357H1038.12V140.764H1039.78V141.171H1041.03V141.578H1042.69V141.985H1044.36V142.392H1045.19V142.799H1046.44V143.206H1047.69V143.613H1048.52V144.02H1049.77V144.426H1051.01V144.833H1051.85V145.24H1053.09V145.647H1054.34V146.054H1055.17V146.461H1056.42V146.868H1057.25V147.275H1058.09V147.682H1058.92V148.089H1059.75V148.495H1060.58V148.902H1061.41V149.309H1062.25V149.716H1063.08V150.123H1063.91V150.53H1064.74V150.937H1065.57V151.344H1066.41V151.751H1067.24V152.158H1068.07V152.565H1068.9V152.971H1069.73V153.378H1070.57V153.785H1070.98V154.192H1071.81V154.599H1072.23V155.006H1073.06V155.413H1073.89V155.82H1074.31V156.227H1075.14V156.634H1075.56V157.04H1076.39V157.447H1077.22V157.854H1077.64V158.261H1078.47V158.668H1078.89V159.075H1079.72V159.482H1080.13V159.889H1080.97V160.296H1081.38V160.703H1082.21V161.11H1082.63V161.516H1083.05V161.923H1083.46V162.33H1084.29V162.737H1084.71V163.144H1085.13V163.551H1085.96V163.958H1086.37V164.365H1086.79V164.772H1087.21V165.179H1088.04V165.585H1088.45V165.992H1088.87V166.399H1089.7V166.806H1090.12V167.213H1090.53V167.62H1090.95V168.027H1091.78V168.434H1092.2V168.841H1092.61V169.248H1093.03V169.655H1093.45V170.061H1093.86V170.468H1094.28V170.875H1094.69V171.282H1095.11V171.689H1095.53V172.096H1096.36V172.503H1096.77V172.91H1097.19V173.317H1097.61V173.724H1098.02V174.13H1098.44V174.537H1098.85V174.944H1099.27V175.351H1099.69V175.758H1100.1V176.165H1100.52V176.572H1100.93V176.979H1102.18V176.572H1103.43V176.165H1104.68V175.758H1105.93V175.351H1107.17V174.944H1108.84V174.537H1110.5V174.13H1112.17V173.724H1113.83V173.317H1116.33V172.91H1119.24V172.503H1122.15V172.096H1137.54V172.503H1140.45V172.91H1143.37V173.317H1145.45V173.724H1147.53V174.13H1149.19V174.537H1150.85V174.944H1152.1V175.351H1153.35V175.758H1155.01V176.165H1156.26V176.572H1157.51V176.979H1158.34V177.386H1159.17V177.793H1160.42V178.2H1161.25V178.606H1162.09V179.013H1163.33V179.42H1164.17V179.827H1165V180.234H1165.83V180.641H1166.66V181.048H1167.08V181.455H1167.91V181.862H1168.74V182.269H1169.57V182.676H1170.41V183.082H1170.82V183.489H1171.65V183.896H1172.07V184.303H1172.9V184.71H1173.32V185.117H1174.15V185.524H1174.57V185.931H1175.4V186.338H1175.81V186.745H1176.65V187.151H1177.06V187.558H1177.48V187.965H1178.31V188.372H1178.73V188.779H1179.14V189.186H1179.56V189.593H1180.39V190H1180.81V190.407H1181.22V189.593H1181.64V189.186H1182.05V188.779H1182.47V188.372H1182.89V187.965H1183.3V187.558H1183.72V187.151H1184.13V186.745H1184.55V186.338H1184.97V185.931H1185.38V185.524H1185.8V185.117H1186.21V184.71H1186.63V184.303H1187.05V183.896H1187.46V183.489H1187.88V183.082H1188.29V182.676H1188.71V182.269H1189.54V181.862H1189.96V181.455H1190.37V181.048H1191.21V180.641H1191.62V180.234H1192.04V179.827H1192.87V179.42H1193.29V179.013H1193.7V178.606H1194.53V178.2H1194.95V177.793H1195.37V177.386H1196.2V176.979H1196.61V176.572H1197.03V176.165H1197.86V175.758H1198.69V175.351H1199.53V174.944H1200.36V174.537H1201.19V174.13H1202.02V173.724H1202.44V173.317H1203.27V172.91H1204.1V172.503H1204.93V172.096H1205.77V171.689H1206.6V171.282H1207.43V170.875H1208.68V170.468H1209.51V170.061H1210.76V169.655H1212.01V169.248H1213.25V168.841H1214.08V168.434H1215.33V168.027H1217V167.62H1218.66V167.213H1218.24V165.585H1217.83V163.144H1217.41V160.703H1217V157.447H1216.58V152.565H1216.17V146.461H1216.58V141.171H1217V138.323H1217.41V135.881H1217.83V133.44H1218.24V131.812H1218.66V130.185H1219.08V128.557H1219.49V127.336H1219.91V125.709H1220.32V124.895H1220.74V123.674H1221.16V122.453H1221.57V121.64H1221.99V120.419H1222.4V119.198H1222.82V118.384H1223.24V117.571H1223.65V116.757H1224.07V115.943H1224.48V115.129H1224.9V114.315H1225.32V113.502H1225.73V112.688H1226.15V111.874H1226.56V111.467H1226.98V110.653H1227.4V109.839H1227.81V109.433H1228.23V108.619H1228.64V107.805H1229.06V107.398H1229.48V106.584H1229.89V106.177H1230.31V105.77H1230.72V104.957H1231.14V104.55H1231.56V104.143H1231.97V103.329H1232.39V102.922H1232.8V102.515H1233.22V101.701H1233.64V101.294H1234.05V100.888H1234.47V100.481H1234.88V99.6668H1235.3V99.2599H1235.72V98.853H1236.13V98.4461H1236.55V98.0392H1236.96V97.6323H1237.38V97.2253H1237.8V96.8185H1238.21V96.4115H1238.63V95.5977H1239.04V95.1908H1239.88V94.7839H1240.29V94.377H1240.71V93.9701H1241.12V93.5632H1241.54V93.1563H1241.96V92.7494H1242.37V92.3425H1242.79V91.9356H1243.2V91.5287H1243.62V91.1218H1244.45V90.7149H1244.87V90.308H1245.28V89.9011H1245.7V89.4941H1246.53V89.0872H1246.95V88.6803H1247.36V88.2734H1248.2V87.8665H1248.61V87.4596H1249.03V87.0527H1249.86V86.6458H1250.28V86.2389H1251.11V85.832H1251.52V85.4251H1252.36V85.0182H1253.19V84.6113H1253.6V84.2044H1254.44V83.7975H1254.85V83.3906H1255.68V82.9836H1256.52V82.5768H1256.93V82.1699H1258.18V81.7629H1259.01V81.356H1259.84V80.9491H1260.68V80.5422H1261.51V80.1353H1262.34V79.7284H1263.17V79.3215H1264V78.9146H1265.25V78.5077H1266.5V78.1008H1267.33V77.6939H1268.58V77.287H1269.83V76.8801H1271.08V76.4732H1272.32V76.0663H1273.99V75.6594H1275.65V75.2524H1277.32V74.8456H1279.4V74.4386H1281.89V74.0317H1284.8V73.6248H1289.38V73.2179H1299.36V73.6248H1303.11V74.0317H1306.85V74.4386H1308.93V74.8456H1310.6V75.2524H1312.26V75.6594H1314.34V76.0663H1316V76.4732H1317.67V76.8801H1318.92V77.287H1319.33V76.4732H1319.75V75.6594H1320.16V74.8456H1320.58V74.0317H1321V73.2179H1321.41V72.4041H1321.83V71.5903H1322.24V70.7765H1322.66V69.9627H1323.08V69.5558H1323.49V68.742H1323.91V67.9282H1324.32V67.5212H1324.74V66.7074H1325.16V65.8936H1325.57V65.4867H1325.99V64.6729H1326.4V63.8591H1326.82V63.4522H1327.24V62.6384H1327.65V61.8246H1328.07V61.4177H1328.48V60.6039H1328.9V60.197H1329.32V59.3831H1329.73V58.9762H1330.15V58.5693H1330.56V57.7555H1330.98V57.3486H1331.4V56.5348H1331.81V56.1279H1332.23V55.3141H1332.64V54.9072H1333.06V54.5003H1333.48V53.6865H1333.89V53.2795H1334.31V52.8727H1334.72V52.0588H1335.14V51.6519H1335.56V51.245H1335.97V50.8381H1336.39V50.0243H1336.8V49.6174H1337.22V49.2105H1337.64V48.8036H1338.05V48.3967H1338.47V47.5829H1338.88V47.176H1339.3V46.7691H1339.72V46.3622H1340.13V45.9553H1340.55V45.1414H1340.96V44.7345H1341.38V44.3276H1341.8V43.9207H1342.21V43.5138H1342.63V43.1069H1343.04V42.7H1343.46V42.2931H1343.88V41.8862H1344.29V41.4793H1344.71V41.0724H1345.12V40.6655H1345.54V40.2586H1345.96V39.8517H1346.37V39.4448H1346.79V39.0379H1347.2V38.631H1347.62V38.2241H1348.04V37.8171H1348.45V37.4102H1348.87V37.0033H1349.28V36.5964H1349.7V36.1895H1350.12V35.7826H1350.53V35.3757H1350.95V34.9688H1351.36V34.5619H1352.2V34.155H1352.61V33.7481H1353.03V33.3412H1353.44V32.9343H1353.86V32.5274H1354.28V32.1205H1354.69V31.7136H1355.52V31.3066H1355.94V30.8997H1356.36V30.4929H1356.77V30.0859H1357.6V29.679H1358.02V29.2721H1358.44V28.8652H1358.85V28.4583H1359.68V28.0514H1360.1V27.6445H1360.52V27.2376H1360.93V26.8307H1361.76V26.4238H1362.18V26.0169H1363.01V25.61H1363.43V25.2031H1363.84V24.7962H1364.68V24.3893H1365.09V23.9824H1365.92V23.5754H1366.34V23.1685H1367.17V22.7616H1367.59V22.3547H1368V21.9478H1368.84V21.5409H1369.25V21.134H1370.08V20.7271H1370.92V20.3202H1371.33V19.9133H1372.16V19.5064H1373V19.0995H1373.41V18.6926H1374.24V18.2857H1375.08V17.8788H1375.49V17.4719H1376.32V17.065H1377.16V16.6581H1377.99V16.2512H1378.82V15.8442H1379.65V15.4373H1380.48V15.0304H1381.32V14.6235H1382.15V14.2166H1382.98V13.8097H1383.81V13.4028H1384.64V12.9959H1385.06V12.589H1386.31V12.1821H1387.14V11.7752H1387.97V11.3683H1389.22V10.9614H1390.05V10.5545H1390.88V10.1476H1392.13V9.74066H1392.96V9.33377H1394.21V8.92685H1395.04V8.51996H1396.29V8.11304H1397.54V7.70615H1398.79V7.29922H1400.03V6.89233H1401.28V6.48541H1402.53V6.07852H1403.78V5.6716H1405.03V5.26471H1406.69V4.85779H1408.35V4.4509H1410.02V4.04398H1411.68V3.63708H1412.93V3.23016H1415.01V2.82327H1417.51V2.41635H1419.59V2.00946H1422.08V1.60254H1424.58V1.19565H1428.32V0.788727H1432.07V0.381836H1439.14V-0.0250854H1441.22V421.936H1440.8V425.191H1440.39V427.226H1439.97V428.446H1439.55V430.074H1439.14V431.295H1438.72V432.516H1438.31V433.736H1437.89V434.55H1437.47V435.364H1437.06V436.178H1436.64V436.991H1436.23V437.805H1435.81V438.619H1435.39V439.026H1434.98V439.84H1434.56V440.654H1434.15V441.061H1433.73V441.467H1433.31V442.281H1432.9V442.688H1432.48V443.095H1432.07V443.502H1431.65V443.909H1431.23V444.723H1430.82V445.13H1430.4V445.536H1429.99V445.943H1429.57V446.35H1429.15V446.757H1428.74V447.164H1428.32V447.571H1427.91V447.978H1427.07V448.385H1426.66V448.792H1426.24V449.199H1425.83V449.606H1425.41V450.012H1424.58V450.419H1424.16V450.826H1423.75V451.233H1422.91V451.64H1422.08V452.047H1421.25V452.454H1420.83V452.861H1420V453.268H1419.17V453.675H1418.34V454.082H1417.51V454.488H1416.67V454.895H1415.43V455.302H1414.18V455.709H1412.51V456.116H1411.27V456.523H1410.02V456.93H1407.52V457.337H1404.19V457.744" fill="url(#paint0_linear_14_419)"/>
</g>
<defs>
<linearGradient id="paint0_linear_14_419" x1="722.836" y1="232.139" x2="791.15" y2="518.488" gradientUnits="userSpaceOnUse">
<stop stop-color="#1C1D44"/>
<stop offset="0.553191" stop-color="#F03187"/>
<stop offset="1" stop-color="#EDA523"/>
</linearGradient>
</defs>
</svg>
