<svg width="1728" height="458" viewBox="0 0 1728 458" fill="none" xmlns="http://www.w3.org/2000/svg">
<g id="clouds">
<g id="cloud-4">
<g id="Clip path group">
<mask id="mask0_14_1088" style="mask-type:luminance" maskUnits="userSpaceOnUse" x="-39" y="0" width="1178" height="499">
<g id="clipPath123">
<path id="path123" d="M1138.28 318.464C1138.28 271.992 1099.77 234.32 1052.26 234.32C1046.52 234.32 1040.92 234.878 1035.49 235.928L1035.51 235.187C1035.51 153.2 967.568 86.7398 883.753 86.7398C799.938 86.7398 731.998 153.2 731.998 235.187C731.998 237.071 732.073 238.943 732.144 240.819C720.978 237.181 709.052 235.187 696.63 235.187C692.424 235.187 688.277 235.427 684.192 235.871C684.712 231.891 685.011 227.846 685.011 223.729C685.011 171.409 641.648 128.993 588.155 128.993C534.666 128.993 491.303 171.409 491.303 223.729L491.311 224.03C489.19 223.834 487.052 223.729 484.876 223.729C478.977 223.729 473.249 224.457 467.783 225.824C444.171 183.783 398.486 155.283 345.979 155.283C300.935 155.283 260.925 176.271 235.549 208.775C220.106 199.184 201.805 193.601 182.157 193.601C168.082 193.601 154.692 196.47 142.551 201.617C143.452 194.415 143.972 187.099 143.972 179.665C143.972 80.8681 62.0925 0.776901 -38.9111 0.776901V358.553V498.817H1097.44L1072.72 400.195C1110.35 391.211 1138.28 358.036 1138.28 318.464Z" fill="white"/>
</g>
</mask>
<g mask="url(#mask0_14_1088)">
<path id="path124" d="M0.774002 498.744V498.337H-2.55396V497.93H-5.04993V497.523H-6.29792V497.116H-7.5459V496.709H-9.20988V496.302H-10.4579V495.895H-11.7059V495.488H-12.5378V495.082H-13.3698V494.675H-14.2018V494.268H-15.0338V493.861H-15.8658V493.454H-16.2818V493.047H-17.1138V492.64H-17.9458V492.233H-18.7778V491.826H-19.1938V491.419H-19.6098V491.012H-20.4418V490.606H-20.8578V490.199H-21.2737V489.792H-21.6897V489.385H-22.1057V488.978H-22.9377V488.571H-23.3537V488.164H-23.7697V487.757H-24.1857V487.35H-24.6017V486.943H-25.0177V486.536H-25.4337V486.13H-25.8497V485.723H-26.2657V484.909H-26.6817V484.502H-27.0977V484.095H-27.5137V483.688H-27.9297V483.281H-28.3457V482.467H-28.7617V482.061H-29.1777V481.654H-29.5937V480.84H-30.0096V480.026H-30.4256V479.619H-30.8416V478.805H-31.2576V477.991H-31.6736V477.178H-32.0896V476.364H-32.5056V475.55H-32.9216V474.736H-33.3376V473.516H-33.7536V472.295H-34.1696V471.074H-34.5856V469.446H-35.0016V468.226H-35.4176V466.191H-35.8336V462.936H-36.2496V0.691245H-27.9297V1.09815H-22.5217V1.50506H-18.3618V1.91196H-15.0338V2.31887H-11.7059V2.72577H-9.20988V3.13268H-6.71391V3.53958H-4.63394V3.94649H-2.13796V4.35339H-0.473983V4.7603H1.60599V5.16721H3.26997V5.57411H4.93396V5.98102H7.01393V6.38792H8.26192V6.79483H9.9259V7.20173H11.1739V7.60864H12.8379V8.01554H14.0859V8.42245H15.7498V8.82936H16.9978V9.23626H18.2458V9.64317H19.4938V10.0501H20.7418V10.457H21.9898V10.8639H23.2377V11.2708H24.4857V11.6777H25.3177V12.0846H26.5657V12.4915H27.3977V12.8984H28.6457V13.3053H29.4777V13.7122H30.7257V14.1191H31.5577V14.526H32.8056V14.9329H33.6376V15.3398H34.4696V15.7468H35.3016V16.1537H36.5496V16.5606H37.3816V16.9675H38.2136V17.3744H39.0456V17.7813H39.8776V18.1882H41.1255V18.5951H41.5415V19.002H42.3735V19.4089H43.2055V19.8158H44.0375V20.2227H44.8695V20.6296H45.7015V21.0365H46.5335V21.4434H47.3655V21.8503H48.1975V22.2572H49.0295V22.6641H49.8614V23.0711H50.2774V23.478H51.1094V23.8849H51.9414V24.2918H52.7734V24.6987H53.1894V25.1056H54.0214V25.5125H54.8534V25.9194H55.6854V26.3263H56.1014V26.7332H56.9334V27.1401H57.3494V27.547H58.1813V27.9539H59.0133V28.3608H59.4293V28.7677H60.2613V29.1746H60.6773V29.5815H61.5093V29.9884H61.9253V30.3954H62.7573V30.8023H63.1733V31.2092H64.0053V31.6161H64.4213V32.023H65.2533V32.4299H65.6693V32.8368H66.5013V33.2437H66.9173V33.6506H67.3332V34.0575H68.1652V34.4644H68.5812V34.8713H69.4132V35.2782H69.8292V35.6851H70.2452V36.092H71.0772V36.4989H71.4932V36.9058H71.9092V37.3127H72.7412V37.7197H73.1572V38.1266H73.5732V38.5335H73.9892V38.9404H74.8212V39.3473H75.2372V39.7542H75.6532V40.1611H76.0691V40.568H76.9011V40.9749H77.3171V41.3818H77.7331V41.7887H78.1491V42.1956H78.9811V42.6025H79.3971V43.0094H79.8131V43.4163H80.2291V43.8232H80.6451V44.2301H81.0611V44.637H81.4771V45.044H82.3091V45.4509H82.7251V45.8578H83.1411V46.2647H83.5571V46.6716H83.9731V47.0785H84.3891V47.4854H84.805V47.8923H85.221V48.2992H85.637V48.7061H86.053V49.113H86.885V49.5199H87.301V49.9268H87.717V50.3337H88.133V50.7406H88.549V51.1475H88.965V51.5544H89.381V51.9613H89.797V52.3683H90.213V52.7752H90.629V53.1821H91.045V53.589H91.461V53.9959H91.877V54.4028H92.293V54.8097H92.709V55.2166H93.125V55.6235H93.5409V56.0304H93.9569V56.4373H94.3729V56.8442H94.7889V57.658H95.2049V58.0649H95.6209V58.4718H96.0369V58.8787H96.4529V59.2856H96.8689V59.6926H97.2849V60.0995H97.7009V60.5064H98.1169V60.9133H98.5329V61.3202H98.9489V62.134H99.3649V62.5409H99.7809V62.9478H100.197V63.3547H100.613V63.7616H101.029V64.1685H101.445V64.9823H101.861V65.3892H102.277V65.7961H102.693V66.203H103.109V66.6099H103.525V67.4238H103.941V67.8307H104.357V68.2376H104.773V69.0514H105.189V69.4583H105.605V69.8652H106.021V70.2721H106.437V71.0859H106.853V71.4928H107.269V71.8997H107.685V72.3066H108.101V73.1204H108.517V73.5273H108.933V74.3412H109.349V74.7481H109.765V75.155H110.181V75.9688H110.597V76.3757H111.013V77.1895H111.429V77.5964H111.845V78.4102H112.261V78.8171H112.677V79.224H113.093V80.0378H113.509V80.4447H113.925V81.2585H114.341V82.0724H114.757V82.4793H115.173V83.2931H115.589V83.7H116.005V84.5138H116.421V84.9207H116.837V85.7345H117.253V86.1414H117.669V86.9552H118.085V87.769H118.501V88.5828H118.917V88.9898H119.333V89.8036H119.749V90.6174H120.165V91.4312H120.581V91.8381H120.997V92.6519H121.413V93.4657H121.829V94.2795H122.245V94.6864H122.661V95.5002H123.077V96.3141H123.493V97.1279H123.909V97.9417H124.325V98.7555H124.741V99.5693H125.157V100.383H125.573V101.197H125.989V102.011H126.405V102.825H126.821V103.638H127.237V104.859H127.653V105.673H128.069V106.487H128.485V107.301H128.901V108.521H129.317V109.335H129.733V110.149H130.149V111.37H130.565V112.183H130.981V113.404H131.397V114.218H131.813V115.439H132.229V116.252H132.645V117.473H133.06V118.694H133.476V119.508H133.892V120.728H134.308V121.949H134.724V123.17H135.14V124.391H135.556V125.611H135.972V126.832H136.388V128.46H136.804V130.087H137.22V131.308H137.636V132.936H138.052V134.156H138.468V135.784H138.884V137.412H139.3V139.446H139.716V141.074H140.132V142.701H140.548V145.143H140.964V147.177H141.38V149.619H141.796V151.653H142.212V154.908H142.628V158.164H143.044V161.419H143.46V166.709H143.876V174.44H144.292V184.613H143.876V192.344H143.46V197.227H143.044V200.889H143.876V200.482H145.124V200.075H146.372V199.668H147.62V199.261H148.452V198.854H149.7V198.447H150.948V198.04H152.196V197.634H153.86V197.227H155.524V196.82H157.188V196.413H158.436V196.006H160.1V195.599H161.764V195.192H164.676V194.785H167.172V194.378H170.084V193.971H173.828V193.564H190.052V193.971H194.212V194.378H197.54V194.785H199.62V195.192H201.284V195.599H203.364V196.006H205.028V196.413H207.108V196.82H208.772V197.227H210.852V197.634H211.684V198.04H212.932V198.447H214.18V198.854H215.012V199.261H216.26V199.668H217.508V200.075H218.34V200.482H219.588V200.889H220.836V201.296H221.667V201.703H222.915V202.109H224.163V202.516H224.995V202.923H225.411V203.33H226.243V203.737H227.075V204.144H227.907V204.551H228.739V204.958H229.571V205.365H230.403V205.772H231.235V206.179H232.067V206.585H232.899V206.992H233.731V207.399H234.147V207.806H234.979V208.213H235.811V207.806H236.227V206.992H236.643V206.585H237.059V206.179H237.475V205.772H237.891V205.365H238.307V204.551H238.723V204.144H239.139V203.737H239.555V203.33H239.971V202.923H240.387V202.109H240.803V201.703H241.219V201.296H241.635V200.889H242.051V200.482H242.467V200.075H242.883V199.668H243.299V199.261H243.715V198.854H244.131V198.04H244.547V197.634H244.963V197.227H245.379V196.82H245.795V196.413H246.211V196.006H246.627V195.599H247.043V195.192H247.459V194.785H247.875V194.378H248.291V193.971H248.707V193.564H249.123V193.158H249.539V192.751H249.955V192.344H250.371V191.937H250.787V191.53H251.203V191.123H252.035V190.716H252.451V190.309H252.867V189.902H253.283V189.495H253.699V189.089H254.115V188.682H254.531V188.275H254.947V187.868H255.779V187.461H256.195V187.054H256.611V186.647H257.027V186.24H257.443V185.833H258.275V185.426H258.691V185.019H259.107V184.613H259.523V184.206H260.355V183.799H260.771V183.392H261.187V182.985H261.603V182.578H262.435V182.171H262.851V181.764H263.267V181.357H264.099V180.95H264.515V180.544H265.347V180.137H265.763V179.73H266.595V179.323H267.011V178.916H267.427V178.509H268.259V178.102H268.675V177.695H269.507V177.288H269.923V176.881H270.755V176.474H271.171V176.068H272.003V175.661H272.835V175.254H273.251V174.847H274.083V174.44H274.915V174.033H275.331V173.626H276.163V173.219H276.995V172.812H277.411V172.405H278.243V171.998H279.075V171.592H279.907V171.185H280.739V170.778H281.571V170.371H281.987V169.964H282.819V169.557H283.651V169.15H284.483V168.743H285.731V168.336H286.563V167.929H287.395V167.523H288.227V167.116H289.059V166.709H289.891V166.302H291.139V165.895H291.971V165.488H293.219V165.081H294.051V164.674H295.299V164.267H296.131V163.86H296.963V163.453H298.211V163.047H299.459V162.64H300.707V162.233H301.955V161.826H303.203V161.419H304.451V161.012H305.699V160.605H307.363V160.198H309.026V159.791H310.274V159.384H311.938V158.978H313.602V158.571H315.682V158.164H317.346V157.757H319.426V157.35H321.506V156.943H324.418V156.536H327.33V156.129H330.658V155.722H335.234V155.315H342.722V154.908H349.378V155.315H356.866V155.722H361.026V156.129H365.186V156.536H367.682V156.943H370.178V157.35H372.258V157.757H374.754V158.164H376.418V158.571H378.082V158.978H379.746V159.384H381.41V159.791H383.074V160.198H384.738V160.605H385.986V161.012H387.234V161.419H388.482V161.826H389.73V162.233H391.394V162.64H392.642V163.047H393.474V163.453H394.722V163.86H395.97V164.267H396.801V164.674H398.049V165.081H398.881V165.488H400.129V165.895H400.961V166.302H401.793V166.709H403.041V167.116H403.873V167.523H404.705V167.929H405.537V168.336H406.369V168.743H407.201V169.15H408.033V169.557H408.865V169.964H409.697V170.371H410.529V170.778H411.361V171.185H412.193V171.592H413.025V171.998H413.441V172.405H414.273V172.812H415.105V173.219H415.937V173.626H416.353V174.033H417.185V174.44H418.017V174.847H418.849V175.254H419.265V175.661H420.097V176.068H420.513V176.474H421.345V176.881H421.761V177.288H422.593V177.695H423.009V178.102H423.841V178.509H424.257V178.916H425.089V179.323H425.505V179.73H426.337V180.137H426.753V180.544H427.169V180.95H428.001V181.357H428.417V181.764H428.833V182.171H429.665V182.578H430.081V182.985H430.497V183.392H431.329V183.799H431.745V184.206H432.161V184.613H432.993V185.019H433.409V185.426H433.825V185.833H434.241V186.24H434.657V186.647H435.489V187.054H435.905V187.461H436.321V187.868H436.737V188.275H437.153V188.682H437.569V189.089H438.401V189.495H438.817V189.902H439.233V190.309H439.649V190.716H440.065V191.123H440.481V191.53H440.897V191.937H441.313V192.344H441.729V192.751H442.145V193.158H442.561V193.564H442.977V193.971H443.393V194.378H443.809V194.785H444.225V195.192H444.641V195.599H445.473V196.006H445.889V196.413H446.305V196.82H446.721V197.634H447.137V198.04H447.553V198.447H447.969V198.854H448.385V199.261H448.801V199.668H449.217V200.075H449.633V200.482H450.049V200.889H450.465V201.703H450.881V202.109H451.297V202.516H451.713V202.923H452.129V203.33H452.545V203.737H452.961V204.551H453.377V204.958H453.793V205.365H454.209V205.772H454.625V206.585H455.041V206.992H455.457V207.399H455.873V207.806H456.289V208.62H456.705V209.027H457.121V209.434H457.537V209.841H457.953V210.655H458.369V211.061H458.785V211.875H459.201V212.282H459.617V213.096H460.033V213.503H460.449V214.317H460.865V214.724H461.281V215.13H461.697V215.944H462.113V216.351H462.529V217.165H462.945V217.572H463.361V218.386H463.777V218.793H464.193V219.606H464.609V220.42H465.025V220.827H465.441V221.641H465.857V222.455H466.273V222.862H466.689V223.675H467.105V224.489H467.521V225.303H470.017V224.896H472.513V224.489H474.593V224.082H478.337V223.675H491.232V215.944H491.648V212.282H492.064V209.434H492.48V206.992H492.896V204.144H493.312V202.516H493.728V201.296H494.144V199.668H494.56V198.04H494.976V196.413H495.392V194.785H495.808V193.971H496.224V192.751H496.64V191.53H497.056V190.309H497.472V189.495H497.888V188.275H498.304V187.054H498.72V186.24H499.136V185.426H499.552V184.613H499.968V183.799H500.384V182.985H500.8V182.171H501.216V180.95H501.632V180.137H502.048V179.323H502.464V178.509H502.88V177.695H503.296V177.288H503.712V176.474H504.128V176.068H504.544V175.254H504.96V174.44H505.376V174.033H505.792V173.219H506.208V172.405H506.624V171.998H507.04V171.185H507.456V170.371H507.872V169.964H508.288V169.557H508.704V168.743H509.12V168.336H509.536V167.929H509.952V167.116H510.368V166.709H510.784V166.302H511.2V165.488H511.616V165.081H512.032V164.674H512.448V163.86H512.864V163.453H513.28V163.047H513.696V162.64H514.112V162.233H514.528V161.826H514.944V161.012H515.36V160.605H515.776V160.198H516.192V159.791H516.608V159.384H517.024V158.978H517.44V158.571H517.856V158.164H518.272V157.757H518.688V157.35H519.104V156.536H519.52V156.129H520.352V155.722H520.768V155.315H521.184V154.908H521.6V154.502H522.016V154.095H522.432V153.688H522.848V153.281H523.264V152.874H523.68V152.467H524.096V152.06H524.928V151.653H525.344V151.246H525.76V150.839H526.176V150.432H526.592V150.026H527.008V149.619H527.84V149.212H528.256V148.805H528.672V148.398H529.504V147.991H529.92V147.584H530.336V147.177H531.168V146.77H531.584V146.363H532V145.957H532.832V145.55H533.248V145.143H533.664V144.736H534.496V144.329H535.328V143.922H535.744V143.515H536.576V143.108H537.408V142.701H537.824V142.294H538.656V141.887H539.488V141.481H539.904V141.074H540.736V140.667H541.568V140.26H541.984V139.853H542.816V139.446H544.064V139.039H544.896V138.632H545.728V138.225H546.56V137.818H547.392V137.412H548.224V137.005H549.056V136.598H549.888V136.191H551.136V135.784H551.968V135.377H553.216V134.97H554.464V134.563H555.296V134.156H556.544V133.749H557.792V133.342H559.04V132.936H560.288V132.529H561.952V132.122H563.616V131.715H565.28V131.308H566.944V130.901H568.608V130.494H571.104V130.087H574.015V129.68H576.511V129.273H581.087V128.866H595.231V129.273H599.391V129.68H602.303V130.087H605.215V130.494H607.711V130.901H609.375V131.308H611.039V131.715H612.703V132.122H614.367V132.529H616.031V132.936H617.279V133.342H618.527V133.749H619.775V134.156H621.023V134.563H621.855V134.97H623.103V135.377H624.351V135.784H625.183V136.191H626.431V136.598H627.263V137.005H628.095V137.412H628.927V137.818H629.759V138.225H630.591V138.632H631.423V139.039H632.255V139.446H633.503V139.853H634.335V140.26H634.751V140.667H635.583V141.074H636.415V141.481H636.831V141.887H637.663V142.294H638.495V142.701H638.911V143.108H639.743V143.515H640.575V143.922H640.991V144.329H641.823V144.736H642.655V145.143H643.071V145.55H643.487V145.957H644.319V146.363H644.735V146.77H645.151V147.177H645.983V147.584H646.399V147.991H646.815V148.398H647.647V148.805H648.063V149.212H648.479V149.619H649.311V150.026H649.727V150.432H650.143V150.839H650.559V151.246H650.975V151.653H651.391V152.06H652.223V152.467H652.639V152.874H653.055V153.281H653.471V153.688H653.887V154.095H654.303V154.502H654.719V154.908H655.135V155.315H655.551V155.722H655.967V156.129H656.799V156.536H657.215V157.35H657.631V157.757H658.047V158.164H658.463V158.571H658.879V158.978H659.295V159.384H659.711V159.791H660.127V160.198H660.543V160.605H660.958V161.012H661.374V161.826H661.79V162.233H662.206V162.64H662.622V163.047H663.038V163.453H663.454V163.86H663.87V164.674H664.286V165.081H664.702V165.488H665.118V166.302H665.534V166.709H665.95V167.116H666.366V167.929H666.782V168.336H667.198V168.743H667.614V169.557H668.03V169.964H668.446V170.371H668.862V171.185H669.278V171.998H669.694V172.405H670.11V173.219H670.526V174.033H670.942V174.44H671.358V175.254H671.774V176.068H672.19V176.474H672.606V177.288H673.022V177.695H673.438V178.509H673.854V179.323H674.27V180.137H674.686V180.95H675.102V182.171H675.518V182.985H675.934V183.799H676.35V184.613H676.766V185.426H677.182V186.24H677.598V187.054H678.014V188.275H678.43V189.495H678.846V190.716H679.262V191.53H679.678V192.751H680.094V193.971H680.51V194.785H680.926V196.413H681.342V198.04H681.758V199.668H682.174V201.296H682.59V202.516H683.006V204.144H683.422V206.992H683.838V209.434H684.254V212.282H684.67V215.944H685.086V231H684.67V235.476H689.246V235.069H704.638V235.476H708.798V235.883H712.126V236.29H715.454V236.696H717.534V237.103H719.198V237.51H721.278V237.917H723.358V238.324H725.022V238.731H726.686V239.138H727.934V239.545H729.598V239.952H730.846V240.359H732.094V239.545H731.678V229.779H732.094V223.675H732.51V218.793H732.926V216.351H733.342V213.503H733.758V211.061H734.174V208.213H734.59V205.365H735.006V203.737H735.422V202.109H735.838V200.482H736.254V198.854H736.67V197.634H737.086V196.006H737.502V194.378H737.918V192.751H738.334V191.123H738.75V189.902H739.166V188.682H739.582V187.868H739.998V186.647H740.414V185.426H740.83V184.206H741.246V183.392H741.662V182.171H742.078V180.95H742.494V179.73H742.91V178.916H743.326V177.695H743.742V176.881H744.158V176.068H744.574V174.847H744.99V174.033H745.406V173.219H745.822V172.405H746.238V171.592H746.654V170.778H747.07V169.964H747.486V169.15H747.902V168.336H748.318V167.523H748.733V166.709H749.149V165.895H749.565V165.081H749.981V164.267H750.397V163.453H750.813V162.64H751.229V162.233H751.645V161.419H752.061V160.605H752.477V160.198H752.893V159.384H753.309V158.571H753.725V158.164H754.141V157.35H754.557V156.536H754.973V156.129H755.389V155.315H755.805V154.908H756.221V154.095H756.637V153.281H757.053V152.874H757.469V152.06H757.885V151.653H758.301V150.839H758.717V150.432H759.133V150.026H759.549V149.212H759.965V148.805H760.381V148.398H760.797V147.584H761.213V147.177H761.629V146.77H762.045V145.957H762.461V145.55H762.877V145.143H763.293V144.329H763.709V143.922H764.125V143.515H764.541V142.701H764.957V142.294H765.373V141.887H765.789V141.074H766.205V140.667H766.621V140.26H767.037V139.853H767.453V139.446H767.869V138.632H768.285V138.225H768.701V137.818H769.117V137.412H769.533V137.005H769.949V136.598H770.365V136.191H770.781V135.784H771.197V135.377H771.613V134.97H772.029V134.156H772.445V133.749H772.861V133.342H773.277V132.936H773.693V132.529H774.109V132.122H774.525V131.715H774.941V131.308H775.357V130.901H775.773V130.494H776.189V129.68H777.021V129.273H777.437V128.866H777.853V128.46H778.269V128.053H778.685V127.646H779.101V127.239H779.517V126.832H779.933V126.425H780.349V126.018H780.765V125.611H781.597V125.204H782.013V124.797H782.429V124.391H782.845V123.984H783.261V123.577H783.677V123.17H784.093V122.763H784.509V122.356H784.925V121.949H785.341V121.542H786.173V121.135H786.589V120.728H787.005V120.321H787.421V119.915H787.837V119.508H788.669V119.101H789.085V118.694H789.501V118.287H790.333V117.88H790.749V117.473H791.165V117.066H791.997V116.659H792.413V116.252H792.829V115.846H793.661V115.439H794.077V115.032H794.493V114.625H795.325V114.218H795.741V113.811H796.157V113.404H796.989V112.997H797.405V112.59H797.821V112.183H798.653V111.776H799.069V111.37H799.901V110.963H800.733V110.556H801.149V110.149H801.981V109.742H802.813V109.335H803.229V108.928H804.061V108.521H804.893V108.114H805.309V107.707H806.141V107.301H806.557V106.894H807.389V106.487H808.221V106.08H808.637V105.673H809.469V105.266H810.301V104.859H810.717V104.452H811.549V104.045H812.381V103.638H813.213V103.231H814.045V102.825H815.293V102.418H816.125V102.011H816.957V101.604H817.789V101.197H818.621V100.79H819.453V100.383H820.285V99.9762H821.117V99.5693H821.949V99.1624H822.781V98.7555H823.613V98.3486H824.445V97.9417H825.693V97.5348H826.941V97.1279H828.189V96.721H829.021V96.3141H830.269V95.9071H831.517V95.5002H832.765V95.0933H833.597V94.6864H834.845V94.2795H836.093V93.8726H837.34V93.4657H838.172V93.0588H839.836V92.6519H841.5V92.245H843.164V91.8381H844.828V91.4312H846.492V91.0243H847.74V90.6174H849.404V90.2105H851.068V89.8036H852.732V89.3967H855.228V88.9898H858.14V88.5828H860.636V88.1759H863.548V87.769H866.46V87.3621H870.204V86.9552H876.444V86.5483H891.004V86.9552H897.244V87.3621H901.404V87.769H903.9V88.1759H906.812V88.5828H909.308V88.9898H912.22V89.3967H914.716V89.8036H916.38V90.2105H918.044V90.6174H919.708V91.0243H921.372V91.4312H922.62V91.8381H924.284V92.245H925.947V92.6519H927.611V93.0588H929.275V93.4657H930.523V93.8726H931.355V94.2795H932.603V94.6864H933.851V95.0933H935.099V95.5002H935.931V95.9071H937.179V96.3141H938.427V96.721H939.259V97.1279H940.507V97.5348H941.755V97.9417H943.003V98.3486H943.835V98.7555H944.667V99.1624H945.499V99.5693H946.331V99.9762H947.163V100.383H947.995V100.79H948.827V101.197H949.659V101.604H950.491V102.011H951.739V102.418H952.571V102.825H953.403V103.231H954.235V103.638H955.067V104.045H955.899V104.452H956.731V104.859H957.147V105.266H957.979V105.673H958.811V106.08H959.227V106.487H960.059V106.894H960.891V107.301H961.307V107.707H962.139V108.114H962.971V108.521H963.387V108.928H964.219V109.335H965.051V109.742H965.467V110.149H966.299V110.556H966.715V110.963H967.547V111.37H968.379V111.776H968.795V112.183H969.627V112.59H970.043V112.997H970.459V113.404H971.291V113.811H971.707V114.218H972.123V114.625H972.955V115.032H973.371V115.439H973.787V115.846H974.619V116.252H975.035V116.659H975.451V117.066H976.283V117.473H976.699V117.88H977.115V118.287H977.947V118.694H978.363V119.101H978.779V119.508H979.611V119.915H980.027V120.321H980.443V120.728H980.859V121.135H981.691V121.542H982.107V121.949H982.523V122.356H982.939V122.763H983.355V123.17H983.771V123.577H984.187V123.984H984.603V124.391H985.019V124.797H985.435V125.204H986.267V125.611H986.683V126.018H987.099V126.425H987.515V126.832H987.931V127.239H988.347V127.646H988.763V128.053H989.179V128.46H989.595V128.866H990.011V129.273H990.843V129.68H991.259V130.087H991.675V130.494H992.091V131.308H992.507V131.715H992.923V132.122H993.339V132.529H993.755V132.936H994.171V133.342H994.587V133.749H995.003V134.156H995.419V134.563H995.835V134.97H996.251V135.784H996.667V136.191H997.083V136.598H997.499V137.005H997.915V137.412H998.331V137.818H998.747V138.225H999.163V138.632H999.579V139.039H999.995V139.446H1000.41V140.26H1000.83V140.667H1001.24V141.074H1001.66V141.481H1002.07V142.294H1002.49V142.701H1002.91V143.108H1003.32V143.922H1003.74V144.329H1004.15V144.736H1004.57V145.55H1004.99V145.957H1005.4V146.363H1005.82V147.177H1006.23V147.584H1006.65V147.991H1007.07V148.805H1007.48V149.212H1007.9V149.619H1008.31V150.432H1008.73V150.839H1009.15V151.246H1009.56V152.06H1009.98V152.467H1010.39V153.281H1010.81V154.095H1011.23V154.502H1011.64V155.315H1012.06V156.129H1012.47V156.536H1012.89V157.35H1013.31V158.164H1013.72V158.571H1014.14V159.384H1014.55V159.791H1014.97V160.605H1015.39V161.419H1015.8V161.826H1016.22V162.64H1016.63V163.453H1017.05V163.86H1017.47V164.674H1017.88V165.488H1018.3V166.302H1018.71V167.116H1019.13V168.336H1019.55V169.15H1019.96V169.964H1020.38V170.778H1020.79V171.592H1021.21V172.405H1021.63V173.219H1022.04V174.033H1022.46V174.847H1022.87V175.661H1023.29V176.474H1023.71V177.695H1024.12V178.509H1024.54V179.73H1024.95V180.95H1025.37V182.171H1025.79V182.985H1026.2V184.206H1026.62V185.426H1027.03V186.24H1027.45V187.461H1027.87V188.682H1028.28V189.902H1028.7V190.716H1029.11V192.344H1029.53V193.971H1029.95V195.599H1030.36V197.227H1030.78V198.854H1031.19V200.482H1031.61V202.109H1032.03V203.737H1032.44V205.365H1032.86V207.806H1033.27V210.655H1033.69V213.096H1034.11V215.944H1034.52V218.386H1034.94V222.862H1035.35V228.965H1035.77V235.476H1037.85V235.069H1041.18V234.662H1044.51V234.255H1059.9V234.662H1063.23V235.069H1066.14V235.476H1068.63V235.883H1070.71V236.29H1072.38V236.696H1074.04V237.103H1075.71V237.51H1077.37V237.917H1078.62V238.324H1079.87V238.731H1081.11V239.138H1081.95V239.545H1083.19V239.952H1084.44V240.359H1085.27V240.766H1086.52V241.172H1087.35V241.579H1088.19V241.986H1089.02V242.393H1089.85V242.8H1090.68V243.207H1091.51V243.614H1092.35V244.021H1093.18V244.428H1094.01V244.835H1094.84V245.241H1095.26V245.648H1096.09V246.055H1096.92V246.462H1097.34V246.869H1098.17V247.276H1099V247.683H1099.42V248.09H1100.25V248.497H1100.67V248.904H1101.5V249.311H1101.91V249.717H1102.33V250.124H1103.16V250.531H1103.58V250.938H1103.99V251.345H1104.83V251.752H1105.24V252.159H1105.66V252.566H1106.49V252.973H1106.91V253.38H1107.32V253.787H1107.74V254.193H1108.57V254.6H1108.99V255.007H1109.4V255.414H1109.82V255.821H1110.23V256.228H1110.65V256.635H1111.07V257.042H1111.48V257.449H1111.9V257.856H1112.31V258.262H1113.15V258.669H1113.56V259.076H1113.98V259.89H1114.39V260.297H1114.81V260.704H1115.23V261.111H1115.64V261.518H1116.06V261.925H1116.47V262.332H1116.89V262.738H1117.31V263.145H1117.72V263.552H1118.14V264.366H1118.55V264.773H1118.97V265.18H1119.39V265.587H1119.8V266.401H1120.22V266.807H1120.63V267.214H1121.05V268.028H1121.47V268.435H1121.88V268.842H1122.3V269.656H1122.71V270.063H1123.13V270.47H1123.55V271.283H1123.96V271.69H1124.38V272.504H1124.79V273.318H1125.21V273.725H1125.63V274.539H1126.04V275.352H1126.46V275.759H1126.87V276.573H1127.29V276.98H1127.71V277.794H1128.12V278.608H1128.54V279.422H1128.95V280.235H1129.37V281.049H1129.79V281.863H1130.2V282.677H1130.62V283.491H1131.03V284.711H1131.45V285.525H1131.87V286.339H1132.28V287.56H1132.7V288.78H1133.11V289.594H1133.53V290.815H1133.95V292.036H1134.36V293.256H1134.78V294.477H1135.19V296.105H1135.61V297.732H1136.03V299.36H1136.44V300.988H1136.86V303.429H1137.27V305.87H1137.69V308.719H1138.11V313.602H1138.52V323.367H1138.11V327.843H1137.69V331.099H1137.27V333.947H1136.86V335.575H1136.44V337.609H1136.03V339.237H1135.61V340.864H1135.19V342.085H1134.78V343.713H1134.36V344.933H1133.95V346.154H1133.53V347.375H1133.11V348.596H1132.7V349.409H1132.28V350.223H1131.87V351.444H1131.45V352.258H1131.03V353.478H1130.62V354.292H1130.2V355.106H1129.79V355.92H1129.37V356.734H1128.95V357.547H1128.54V358.361H1128.12V359.175H1127.71V359.989H1127.29V360.396H1126.87V361.21H1126.46V361.616H1126.04V362.43H1125.63V363.244H1125.21V363.651H1124.79V364.465H1124.38V365.279H1123.96V365.686H1123.55V366.499H1123.13V366.906H1122.71V367.313H1122.3V368.127H1121.88V368.534H1121.47V368.941H1121.05V369.755H1120.63V370.161H1120.22V370.568H1119.8V371.382H1119.39V371.789H1118.97V372.196H1118.55V372.603H1118.14V373.01H1117.72V373.417H1117.31V374.231H1116.89V374.637H1116.47V375.044H1116.06V375.451H1115.64V375.858H1115.23V376.265H1114.81V376.672H1114.39V377.079H1113.98V377.486H1113.56V377.893H1113.15V378.3H1112.73V378.707H1112.31V379.113H1111.9V379.52H1111.48V379.927H1111.07V380.334H1110.65V380.741H1110.23V381.148H1109.82V381.555H1109.4V381.962H1108.99V382.369H1108.15V382.776H1107.74V383.182H1107.32V383.589H1106.91V383.996H1106.49V384.403H1105.66V384.81H1105.24V385.217H1104.83V385.624H1104.41V386.031H1103.58V386.438H1103.16V386.845H1102.33V387.252H1101.91V387.658H1101.08V388.065H1100.67V388.472H1100.25V388.879H1099.42V389.286H1099V389.693H1098.17V390.1H1097.34V390.507H1096.92V390.914H1096.09V391.321H1095.26V391.727H1094.84V392.134H1094.01V392.541H1093.18V392.948H1092.35V393.355H1091.51V393.762H1090.68V394.169H1089.85V394.576H1089.02V394.983H1088.19V395.39H1087.35V395.797H1086.52V396.203H1085.27V396.61H1084.03V397.017H1083.19V397.424H1081.95V397.831H1081.11V398.238H1079.87V398.645H1078.62V399.052H1076.95V399.459H1075.71V399.866H1074.46V400.273H1073.21V401.9H1073.63V403.528H1074.04V405.155H1074.46V406.783H1074.87V408.411H1075.29V410.038H1075.71V412.073H1076.12V413.7H1076.54V415.328H1076.95V416.956H1077.37V418.583H1077.79V420.211H1078.2V421.839H1078.62V423.466H1079.03V425.094H1079.45V426.721H1079.87V428.349H1080.28V429.977H1080.7V431.604H1081.11V433.639H1081.53V435.266H1081.95V436.894H1082.36V438.522H1082.78V440.149H1083.19V441.777H1083.61V443.404H1084.03V445.032H1084.44V446.66H1084.86V448.287H1085.27V449.915H1085.69V451.543H1086.11V453.577H1086.52V455.205H1086.94V456.832H1087.35V458.46H1087.77V460.088H1088.19V461.715H1088.6V463.343H1089.02V464.97H1089.43V466.598H1089.85V468.226H1090.27V469.853H1090.68V471.481H1091.1V473.109H1091.51V475.143H1091.93V476.771H1092.35V478.398H1092.76V480.026H1093.18V481.654H1093.59V483.281H1094.01V484.909H1094.43V486.536H1094.84V488.164H1095.26V489.792H1095.67V491.419H1096.09V493.047H1096.51V494.675H1096.92V496.709H1097.34V498.337H1097.75V498.744" fill="url(#paint0_linear_14_1088)"/>
</g>
</g>
</g>
<g id="cloud-3">
<g id="Clip path group_2">
<mask id="mask1_14_1088" style="mask-type:luminance" maskUnits="userSpaceOnUse" x="-39" y="258" width="589" height="241">
<g id="clipPath192">
<path id="path192" d="M530.777 412.545C521.384 367.297 480.487 333.239 431.458 333.239C394.676 333.239 362.478 352.4 344.715 381.083C328.695 369.763 309.026 363.065 287.748 363.065L287.632 363.069C287.703 361.572 287.748 360.066 287.748 358.553C287.748 303.437 242.072 258.755 185.721 258.755C129.375 258.755 83.6918 303.437 83.6918 358.553C83.6918 362.011 83.8757 365.421 84.2247 368.795C80.0843 367.562 75.78 366.699 71.3468 366.26C60.7601 316.19 15.4183 278.543 -38.9111 278.543V498.817H116.689H506.662H549.684V412.545H530.777Z" fill="white"/>
</g>
</mask>
<g mask="url(#mask1_14_1088)">
<path id="path193" d="M0.774002 498.744V498.337H-2.55396V497.93H-5.04993V497.523H-6.29792V497.116H-7.5459V496.709H-9.20988V496.302H-10.4579V495.895H-11.7059V495.488H-12.5378V495.082H-13.3698V494.675H-14.2018V494.268H-15.0338V493.861H-15.8658V493.454H-16.2818V493.047H-17.1138V492.64H-17.9458V492.233H-18.7778V491.826H-19.1938V491.419H-19.6098V491.012H-20.4418V490.606H-20.8578V490.199H-21.2737V489.792H-21.6897V489.385H-22.1057V488.978H-22.9377V488.571H-23.3537V488.164H-23.7697V487.757H-24.1857V487.35H-24.6017V486.943H-25.0177V486.536H-25.4337V486.13H-25.8497V485.723H-26.2657V484.909H-26.6817V484.502H-27.0977V484.095H-27.5137V483.688H-27.9297V483.281H-28.3457V482.467H-28.7617V482.061H-29.1777V481.654H-29.5937V480.84H-30.0096V480.026H-30.4256V479.619H-30.8416V478.805H-31.2576V477.991H-31.6736V477.178H-32.0896V476.364H-32.5056V475.55H-32.9216V474.736H-33.3376V473.516H-33.7536V472.295H-34.1696V471.074H-34.5856V469.446H-35.0016V468.226H-35.4176V466.191H-35.8336V462.936H-36.2496V278.201H-35.0016V278.608H-28.3457V279.015H-25.4337V279.422H-22.1057V279.828H-19.1938V280.235H-17.1138V280.642H-15.0338V281.049H-13.3698V281.456H-11.2899V281.863H-9.62588V282.27H-8.37789V282.677H-6.71391V283.084H-5.46593V283.491H-4.21794V283.898H-2.96995V284.304H-1.72197V284.711H-0.473983V285.118H0.774002V285.525H1.60599V285.932H2.85398V286.339H3.68597V286.746H4.93396V287.153H5.76595V287.56H6.59794V287.967H7.84592V288.373H8.67791V288.78H9.5099V289.187H10.3419V289.594H11.1739V290.001H12.0059V290.408H12.8379V290.815H13.6699V291.222H14.5018V291.629H15.3338V292.036H16.1658V292.443H16.5818V292.849H17.4138V293.256H18.2458V293.663H18.6618V294.07H19.4938V294.477H20.3258V294.884H20.7418V295.291H21.5738V295.698H21.9898V296.105H22.8218V296.512H23.6537V296.918H24.0697V297.325H24.9017V297.732H25.3177V298.139H26.1497V298.546H26.5657V298.953H26.9817V299.36H27.8137V299.767H28.2297V300.174H28.6457V300.581H29.0617V300.988H29.8937V301.394H30.3097V301.801H30.7257V302.208H31.5577V302.615H31.9736V303.022H32.3896V303.429H33.2216V303.836H33.6376V304.243H34.0536V304.65H34.4696V305.057H34.8856V305.464H35.3016V305.87H35.7176V306.277H36.1336V306.684H36.9656V307.091H37.3816V307.498H37.7976V307.905H38.2136V308.312H38.6296V308.719H39.0456V309.126H39.4616V309.533H39.8776V309.939H40.2936V310.346H40.7095V310.753H41.1255V311.16H41.5415V311.567H41.9575V311.974H42.3735V312.381H42.7895V312.788H43.2055V313.195H43.6215V313.602H44.0375V314.009H44.4535V314.415H44.8695V314.822H45.2855V315.229H45.7015V316.043H46.1175V316.45H46.5335V316.857H46.9495V317.264H47.3655V317.671H47.7815V318.484H48.1975V318.891H48.6135V319.298H49.0295V319.705H49.4454V320.519H49.8614V320.926H50.2774V321.333H50.6934V321.74H51.1094V322.554H51.5254V322.96H51.9414V323.367H52.3574V324.181H52.7734V324.588H53.1894V325.402H53.6054V325.809H54.0214V326.623H54.4374V327.03H54.8534V327.843H55.2694V328.25H55.6854V329.064H56.1014V329.471H56.5174V330.285H56.9334V330.692H57.3494V331.505H57.7654V331.912H58.1813V332.726H58.5973V333.54H59.0133V334.354H59.4293V335.168H59.8453V335.575H60.2613V336.388H60.6773V337.202H61.0933V338.016H61.5093V338.83H61.9253V339.237H62.3413V340.457H62.7573V341.271H63.1733V342.085H63.5893V342.899H64.0053V344.12H64.4213V344.933H64.8373V345.747H65.2533V346.561H65.6693V347.782H66.0853V348.596H66.5013V349.816H66.9173V351.037H67.3332V352.258H67.7492V353.478H68.1652V354.699H68.5812V355.92H68.9972V357.141H69.4132V358.361H69.8292V359.989H70.2452V361.616H70.6612V362.837H71.0772V364.872H71.4932V366.092H73.5732V366.499H76.0691V366.906H78.5651V367.313H80.2291V367.72H81.8931V368.127H83.5571V368.534H83.9731V365.686H83.5571V351.851H83.9731V346.968H84.3891V344.526H84.805V341.678H85.221V339.237H85.637V337.202H86.053V335.575H86.469V333.947H86.885V332.319H87.301V330.692H87.717V329.064H88.133V327.843H88.549V327.03H88.965V325.809H89.381V324.588H89.797V323.367H90.213V322.554H90.629V321.333H91.045V320.112H91.461V319.298H91.877V318.484H92.293V317.671H92.709V316.45H93.125V315.636H93.5409V314.822H93.9569V314.009H94.3729V313.195H94.7889V312.381H95.2049V311.567H95.6209V310.753H96.0369V309.939H96.4529V309.533H96.8689V308.719H97.2849V307.905H97.7009V307.498H98.1169V306.684H98.5329V305.87H98.9489V305.464H99.3649V304.65H99.7809V303.836H100.197V303.429H100.613V302.615H101.029V302.208H101.445V301.394H101.861V300.988H102.277V300.581H102.693V299.767H103.109V299.36H103.525V298.953H103.941V298.139H104.357V297.732H104.773V297.325H105.189V296.512H105.605V296.105H106.021V295.698H106.437V294.884H106.853V294.477H107.269V294.07H107.685V293.663H108.101V293.256H108.517V292.849H108.933V292.443H109.349V292.036H109.765V291.629H110.181V290.815H110.597V290.408H111.013V290.001H111.429V289.594H111.845V289.187H112.261V288.78H112.677V288.373H113.093V287.967H113.509V287.56H113.925V287.153H114.341V286.746H114.757V286.339H115.173V285.932H115.589V285.525H116.005V285.118H116.421V284.711H117.253V284.304H117.669V283.898H118.085V283.491H118.501V283.084H118.917V282.677H119.333V282.27H119.749V281.863H120.165V281.456H120.581V281.049H121.413V280.642H121.829V280.235H122.245V279.828H123.077V279.422H123.493V279.015H123.909V278.608H124.741V278.201H125.157V277.794H125.573V277.387H126.405V276.98H126.821V276.573H127.237V276.166H128.069V275.759H128.485V275.352H129.317V274.946H129.733V274.539H130.565V274.132H131.397V273.725H131.813V273.318H132.645V272.911H133.476V272.504H133.892V272.097H134.724V271.69H135.556V271.283H135.972V270.877H136.804V270.47H137.636V270.063H138.468V269.656H139.3V269.249H140.132V268.842H140.964V268.435H141.796V268.028H142.628V267.621H143.46V267.214H144.292V266.807H145.54V266.401H146.372V265.994H147.62V265.587H148.452V265.18H149.7V264.773H150.948V264.366H152.196V263.959H153.028V263.552H154.276V263.145H155.524V262.738H157.188V262.332H158.852V261.925H160.516V261.518H162.18V261.111H163.844V260.704H165.508V260.297H168.004V259.89H170.916V259.483H173.828V259.076H177.988V258.669H193.38V259.076H197.956V259.483H200.452V259.89H203.364V260.297H205.86V260.704H207.94V261.111H209.604V261.518H210.852V261.925H212.516V262.332H214.18V262.738H215.844V263.145H217.092V263.552H218.34V263.959H219.588V264.366H220.42V264.773H221.667V265.18H222.915V265.587H223.747V265.994H224.995V266.401H226.243V266.807H227.075V267.214H227.907V267.621H228.739V268.028H229.571V268.435H230.403V268.842H231.235V269.249H232.067V269.656H232.899V270.063H233.731V270.47H234.563V270.877H235.395V271.283H236.227V271.69H236.643V272.097H237.475V272.504H238.307V272.911H238.723V273.318H239.555V273.725H239.971V274.132H240.803V274.539H241.635V274.946H242.051V275.352H242.883V275.759H243.299V276.166H244.131V276.573H244.547V276.98H244.963V277.387H245.795V277.794H246.211V278.201H246.627V278.608H247.459V279.015H247.875V279.422H248.291V279.828H249.123V280.235H249.539V280.642H249.955V281.049H250.787V281.456H251.203V281.863H251.619V282.27H252.035V282.677H252.451V283.084H252.867V283.491H253.283V283.898H254.115V284.304H254.531V284.711H254.947V285.118H255.363V285.525H255.779V285.932H256.195V286.339H256.611V286.746H257.027V287.153H257.443V287.56H257.859V287.967H258.275V288.373H258.691V288.78H259.107V289.187H259.523V289.594H259.939V290.001H260.355V290.408H260.771V290.815H261.187V291.222H261.603V291.629H262.019V292.443H262.435V292.849H262.851V293.256H263.267V293.663H263.683V294.07H264.099V294.477H264.515V294.884H264.931V295.698H265.347V296.105H265.763V296.512H266.179V297.325H266.595V297.732H267.011V298.139H267.427V298.953H267.843V299.36H268.259V299.767H268.675V300.581H269.091V300.988H269.507V301.394H269.923V302.208H270.339V302.615H270.755V303.429H271.171V303.836H271.587V304.65H272.003V305.057H272.419V305.87H272.835V306.684H273.251V307.091H273.667V307.905H274.083V308.719H274.499V309.126H274.915V309.939H275.331V310.753H275.747V311.567H276.163V312.381H276.579V313.195H276.995V314.009H277.411V314.822H277.827V315.636H278.243V316.45H278.659V317.264H279.075V318.078H279.491V318.891H279.907V320.112H280.323V320.926H280.739V322.147H281.155V323.367H281.571V324.588H281.987V325.402H282.403V326.623H282.819V327.843H283.235V329.064H283.651V330.692H284.067V332.319H284.483V333.54H284.899V335.168H285.315V336.795H285.731V338.423H286.147V341.271H286.563V344.12H286.979V346.561H287.395V350.63H287.811V362.837H293.219V363.244H298.211V363.651H301.539V364.058H304.451V364.465H306.531V364.872H308.611V365.279H310.69V365.686H312.354V366.092H313.602V366.499H315.266V366.906H316.514V367.313H318.178V367.72H319.426V368.127H320.258V368.534H321.506V368.941H322.754V369.348H323.586V369.755H324.834V370.161H325.666V370.568H326.914V370.975H327.746V371.382H328.578V371.789H329.41V372.196H330.242V372.603H331.074V373.01H331.906V373.417H332.738V373.824H333.57V374.231H334.402V374.637H335.234V375.044H335.65V375.451H336.482V375.858H337.314V376.265H338.146V376.672H338.978V377.079H339.394V377.486H340.226V377.893H340.642V378.3H341.474V378.707H341.89V379.113H342.722V379.52H343.138V379.927H343.97V380.334H344.386V380.741H344.802V379.927H345.218V379.52H345.634V378.707H346.05V377.893H346.466V377.486H346.882V377.079H347.298V376.265H347.714V375.858H348.13V375.451H348.546V374.637H348.962V374.231H349.378V373.417H349.794V373.01H350.21V372.603H350.626V371.789H351.042V371.382H351.458V370.975H351.874V370.161H352.29V369.755H352.706V369.348H353.122V368.941H353.538V368.534H353.954V368.127H354.37V367.72H354.786V367.313H355.202V366.499H355.618V366.092H356.034V365.686H356.45V365.279H356.866V364.872H357.282V364.465H357.698V364.058H358.114V363.651H358.53V363.244H358.946V362.837H359.362V362.023H359.778V361.616H360.194V361.21H360.61V360.803H361.026V360.396H361.858V359.989H362.274V359.582H362.69V359.175H363.106V358.768H363.522V358.361H363.938V357.954H364.77V357.547H365.186V357.141H365.602V356.734H366.018V356.327H366.434V355.92H366.85V355.513H367.682V355.106H368.098V354.699H368.514V354.292H368.93V353.885H369.346V353.478H369.762V353.071H370.594V352.665H371.01V352.258H371.842V351.851H372.258V351.444H373.09V351.037H373.506V350.63H374.338V350.223H374.754V349.816H375.586V349.409H376.002V349.002H376.834V348.596H377.25V348.189H378.082V347.782H378.498V347.375H379.33V346.968H379.746V346.561H380.578V346.154H381.41V345.747H382.242V345.34H383.074V344.933H383.906V344.526H384.738V344.12H385.57V343.713H386.402V343.306H387.234V342.899H388.066V342.492H388.898V342.085H389.73V341.678H390.562V341.271H391.394V340.864H392.226V340.457H393.474V340.05H394.722V339.644H395.97V339.237H397.217V338.83H398.465V338.423H399.297V338.016H400.545V337.609H401.793V337.202H403.041V336.795H404.289V336.388H406.369V335.981H408.033V335.575H410.113V335.168H412.193V334.761H414.273V334.354H416.353V333.947H419.681V333.54H424.257V333.133H439.233V333.54H442.977V333.947H446.305V334.354H449.217V334.761H451.297V335.168H453.377V335.575H455.041V335.981H456.705V336.388H458.785V336.795H460.033V337.202H461.281V337.609H462.529V338.016H463.777V338.423H465.025V338.83H466.273V339.237H467.521V339.644H468.353V340.05H469.601V340.457H470.433V340.864H471.265V341.271H472.513V341.678H473.345V342.085H474.593V342.492H475.425V342.899H476.257V343.306H476.673V343.713H477.505V344.12H478.337V344.526H479.169V344.933H480.001V345.34H480.833V345.747H481.665V346.154H482.497V346.561H482.913V346.968H483.745V347.375H484.577V347.782H484.992V348.189H485.824V348.596H486.24V349.002H487.072V349.409H487.488V349.816H488.32V350.223H489.152V350.63H489.568V351.037H489.984V351.444H490.816V351.851H491.232V352.258H491.648V352.665H492.48V353.071H492.896V353.478H493.312V353.885H494.144V354.292H494.56V354.699H494.976V355.106H495.808V355.513H496.224V355.92H496.64V356.327H497.056V356.734H497.472V357.141H497.888V357.547H498.304V357.954H499.136V358.361H499.552V358.768H499.968V359.175H500.384V359.582H500.8V359.989H501.216V360.396H501.632V360.803H502.048V361.21H502.464V361.616H502.88V362.023H503.296V362.43H503.712V362.837H504.128V363.244H504.544V363.651H504.96V364.058H505.376V364.465H505.792V364.872H506.208V365.279H506.624V365.686H507.04V366.092H507.456V366.499H507.872V366.906H508.288V367.72H508.704V368.127H509.12V368.534H509.536V368.941H509.952V369.755H510.368V370.161H510.784V370.568H511.2V370.975H511.616V371.789H512.032V372.196H512.448V372.603H512.864V373.01H513.28V373.824H513.696V374.231H514.112V375.044H514.528V375.451H514.944V376.265H515.36V376.672H515.776V377.486H516.192V377.893H516.608V378.707H517.024V379.113H517.44V379.927H517.856V380.334H518.272V381.148H518.688V381.555H519.104V382.369H519.52V383.182H519.936V383.996H520.352V384.81H520.768V385.624H521.184V386.031H521.6V386.845H522.016V387.658H522.432V388.472H522.848V389.286H523.264V390.1H523.68V391.321H524.096V392.134H524.512V392.948H524.928V394.169H525.344V394.983H525.76V395.797H526.176V397.017H526.592V398.238H527.008V399.459H527.424V400.679H527.84V401.493H528.256V402.714H528.672V403.935H529.088V405.562H529.504V407.19H529.92V408.818H530.336V410.038H530.752V412.073H531.168V412.48H549.888V498.744" fill="url(#paint1_linear_14_1088)"/>
</g>
</g>
</g>
<g id="cloud-2">
<g id="Clip path group_3">
<mask id="mask2_14_1088" style="mask-type:luminance" maskUnits="userSpaceOnUse" x="298" y="41" width="1444" height="458">
<g id="clipPath199">
<path id="path199" d="M1617.33 118.495C1609.47 115.878 1601.05 114.442 1592.29 114.442C1549.35 114.442 1514.53 148.496 1514.53 190.505C1514.53 196.755 1515.32 202.822 1516.77 208.641C1501.71 212.201 1488.52 220.465 1478.95 231.785C1465.22 220.18 1447.34 213.149 1427.77 213.149C1417.66 213.149 1408 215.041 1399.13 218.455C1374.24 192.934 1339.16 177.004 1300.25 177.004C1226.81 177.004 1166.91 233.669 1163.73 304.744C1150.26 294.559 1133.38 288.484 1115.04 288.484C1072.65 288.484 1038.01 320.861 1035.51 361.71C1026.26 355.892 1015.26 352.502 1003.44 352.502C999.932 352.502 996.5 352.815 993.168 353.385C986.541 296.687 937.346 252.631 877.601 252.631C845.024 252.631 815.588 265.742 794.472 286.848C785.237 282.156 774.758 279.487 763.63 279.487C726.628 279.487 696.63 308.829 696.63 345.027C696.63 370.963 712.039 393.376 734.386 404C722.222 417.196 712.563 432.642 706.131 449.626C695.678 441.993 682.711 437.468 668.659 437.468C653.887 437.468 640.317 442.477 629.601 450.839C629.73 448.699 629.813 446.55 629.813 444.385C629.813 384.558 580.23 336.059 519.071 336.059C457.907 336.059 408.329 384.558 408.329 444.385L408.341 444.865C396.847 436.451 382.57 431.462 367.112 431.462C329.082 431.462 298.252 461.622 298.252 498.817H986.824H1741.88V310.692V41.2844C1686.85 41.2844 1639.38 72.8603 1617.33 118.495Z" fill="white"/>
</g>
</mask>
<g mask="url(#mask2_14_1088)">
<path id="path200" d="M298.211 498.744V491.419H298.627V488.978H299.043V486.13H299.459V484.095H299.875V482.467H300.291V480.84H300.707V479.619H301.123V477.991H301.539V476.771H301.955V475.957H302.371V474.736H302.787V473.516H303.203V472.702H303.619V471.481H304.035V470.667H304.451V469.853H304.867V469.04H305.283V468.226H305.699V467.412H306.115V466.598H306.531V465.784H306.947V465.377H307.363V464.564H307.779V463.75H308.195V463.343H308.611V462.529H309.027V461.715H309.443V461.308H309.859V460.495H310.275V460.088H310.691V459.681H311.107V458.867H311.523V458.46H311.939V458.053H312.355V457.239H312.771V456.832H313.187V456.425H313.603V455.612H314.019V455.205H314.435V454.798H314.851V454.391H315.267V453.984H315.683V453.577H316.099V453.17H316.515V452.763H316.931V451.95H317.347V451.543H317.763V451.136H318.179V450.729H318.595V450.322H319.011V449.915H319.843V449.508H320.259V449.101H320.675V448.694H321.091V448.287H321.507V447.88H321.923V447.474H322.339V447.067H322.755V446.66H323.171V446.253H324.003V445.846H324.419V445.439H324.835V445.032H325.667V444.625H326.082V444.218H326.498V443.811H327.33V443.405H327.746V442.998H328.162V442.591H328.994V442.184H329.826V441.777H330.242V441.37H331.074V440.963H331.906V440.556H332.322V440.149H333.154V439.742H333.986V439.335H334.818V438.929H335.65V438.522H336.482V438.115H337.314V437.708H338.146V437.301H338.978V436.894H339.81V436.487H341.058V436.08H341.89V435.673H343.138V435.266H344.386V434.859H345.218V434.453H346.466V434.046H348.13V433.639H349.794V433.232H351.458V432.825H353.122V432.418H355.618V432.011H358.53V431.604H363.106V431.197H371.426V431.604H375.17V432.011H378.914V432.418H380.578V432.825H382.242V433.232H383.906V433.639H385.57V434.046H387.234V434.453H388.898V434.859H390.146V435.266H390.978V435.673H391.81V436.08H393.058V436.487H393.89V436.894H394.722V437.301H395.97V437.708H396.802V438.115H397.634V438.522H398.882V438.929H399.714V439.335H400.13V439.742H400.962V440.149H401.794V440.556H402.21V440.963H403.042V441.37H403.874V441.777H404.706V442.184H405.122V442.591H405.954V442.998H406.37V443.405H407.202V443.811H407.618V444.218H408.034V439.742H408.45V433.639H408.866V430.79H409.282V427.942H409.698V425.501H410.114V422.652H410.53V421.025H410.946V419.397H411.362V417.769H411.778V416.142H412.194V414.514H412.61V412.887H413.026V411.666H413.442V410.445H413.858V409.224H414.273V408.411H414.689V407.19H415.105V405.969H415.521V404.748H415.937V403.935H416.353V402.714H416.769V401.9H417.185V400.679H417.601V399.866H418.017V399.052H418.433V398.238H418.849V397.424H419.265V396.61H419.681V395.797H420.097V394.983H420.513V394.169H420.929V393.355H421.345V392.541H421.761V391.727H422.177V390.914H422.593V390.507H423.009V389.693H423.425V389.286H423.841V388.472H424.257V387.658H424.673V387.252H425.089V386.438H425.505V385.624H425.921V385.217H426.337V384.403H426.753V383.589H427.169V383.182H427.585V382.776H428.001V381.962H428.417V381.555H428.833V381.148H429.249V380.334H429.665V379.927H430.081V379.52H430.497V378.707H430.913V378.3H431.329V377.893H431.745V377.079H432.161V376.672H432.577V376.265H432.993V375.451H433.409V375.044H433.825V374.637H434.241V374.231H434.657V373.824H435.073V373.417H435.489V373.01H435.905V372.196H436.321V371.789H436.737V371.382H437.153V370.975H437.569V370.568H437.985V370.162H438.401V369.755H438.817V369.348H439.233V368.941H439.649V368.534H440.065V367.72H440.481V367.313H440.897V366.906H441.729V366.499H442.145V366.092H442.561V365.686H442.977V365.279H443.393V364.872H443.809V364.465H444.225V364.058H444.641V363.651H445.057V363.244H445.473V362.837H446.305V362.43H446.721V362.023H447.137V361.616H447.553V361.21H447.969V360.803H448.385V360.396H448.801V359.989H449.633V359.582H450.049V359.175H450.465V358.768H451.297V358.361H451.713V357.954H452.129V357.547H452.961V357.141H453.377V356.734H453.793V356.327H454.625V355.92H455.041V355.513H455.457V355.106H456.289V354.699H456.705V354.292H457.537V353.885H457.953V353.478H458.785V353.071H459.617V352.665H460.033V352.258H460.865V351.851H461.697V351.444H462.113V351.037H462.945V350.63H463.361V350.223H464.193V349.816H465.025V349.409H465.441V349.002H466.273V348.596H467.105V348.189H467.937V347.782H468.769V347.375H470.017V346.968H470.849V346.561H471.681V346.154H472.513V345.747H473.345V345.34H474.177V344.933H475.009V344.526H475.841V344.12H477.089V343.713H478.337V343.306H479.169V342.899H480.417V342.492H481.665V342.085H482.913V341.678H483.745V341.271H484.993V340.864H486.241V340.457H487.905V340.05H489.569V339.644H491.233V339.237H492.481V338.83H494.145V338.423H495.809V338.016H498.305V337.609H500.801V337.202H503.712V336.795H506.208V336.388H511.2V335.981H527.008V336.388H531.584V336.795H534.496V337.202H537.408V337.609H539.904V338.016H542.4V338.423H544.064V338.83H545.312V339.237H546.976V339.644H548.64V340.05H550.304V340.457H551.968V340.864H553.216V341.271H554.464V341.678H555.296V342.085H556.544V342.492H557.792V342.899H559.04V343.306H559.872V343.713H561.12V344.12H562.368V344.526H563.2V344.933H564.032V345.34H564.864V345.747H565.696V346.154H566.528V346.561H567.36V346.968H568.192V347.375H569.024V347.782H569.856V348.189H571.104V348.596H571.936V349.002H572.352V349.409H573.184V349.816H574.016V350.223H574.432V350.63H575.264V351.037H576.096V351.444H576.512V351.851H577.344V352.258H578.176V352.665H578.592V353.071H579.424V353.478H580.256V353.885H580.672V354.292H581.504V354.699H581.92V355.106H582.336V355.513H583.168V355.92H583.584V356.327H584V356.734H584.832V357.141H585.248V357.547H585.664V357.954H586.496V358.361H586.912V358.768H587.328V359.175H588.16V359.582H588.576V359.989H588.992V360.396H589.823V360.803H590.239V361.21H590.655V361.616H591.071V362.023H591.487V362.43H591.903V362.837H592.319V363.244H592.735V363.651H593.567V364.058H593.983V364.465H594.399V364.872H594.815V365.279H595.231V365.686H595.647V366.092H596.063V366.499H596.479V366.906H596.895V367.313H597.311V367.72H597.727V368.127H598.143V368.534H598.559V368.941H598.975V369.348H599.391V369.755H599.807V370.162H600.223V370.568H600.639V370.975H601.055V371.382H601.471V371.789H601.887V372.603H602.303V373.01H602.719V373.417H603.135V373.824H603.551V374.231H603.967V374.637H604.383V375.044H604.799V375.451H605.215V376.265H605.631V376.672H606.047V377.079H606.463V377.893H606.879V378.3H607.295V378.707H607.711V379.52H608.127V379.927H608.543V380.334H608.959V381.148H609.375V381.555H609.791V382.369H610.207V382.776H610.623V383.182H611.039V383.996H611.455V384.403H611.871V385.217H612.287V386.031H612.703V386.438H613.119V387.252H613.535V388.065H613.951V388.472H614.367V389.286H614.783V389.693H615.199V390.507H615.615V391.321H616.031V391.727H616.447V392.541H616.863V393.355H617.279V394.169H617.695V394.983H618.111V395.797H618.527V396.61H618.943V397.424H619.359V398.645H619.775V399.459H620.191V400.273H620.607V401.086H621.023V401.9H621.439V402.714H621.855V403.935H622.271V405.155H622.687V406.376H623.103V407.19H623.519V408.411H623.935V409.631H624.351V410.852H624.767V411.666H625.183V413.293H625.599V414.921H626.015V416.549H626.431V418.176H626.847V419.804H627.263V421.025H627.679V423.059H628.095V425.908H628.511V428.349H628.927V431.197H629.343V434.453H629.759V440.556H630.175V447.474H629.759V450.322H630.175V449.915H630.591V449.508H631.007V449.101H631.839V448.694H632.255V448.287H633.087V447.88H633.503V447.474H634.335V447.067H635.167V446.66H635.583V446.253H636.415V445.846H636.831V445.439H637.663V445.032H638.495V444.625H639.327V444.218H640.159V443.811H640.991V443.405H642.239V442.998H643.071V442.591H643.903V442.184H644.735V441.777H645.567V441.37H646.815V440.963H647.647V440.556H649.311V440.149H650.975V439.742H652.223V439.335H653.887V438.929H655.551V438.522H657.215V438.115H660.127V437.708H663.455V437.301H673.855V437.708H677.599V438.115H680.094V438.522H681.758V438.929H683.422V439.335H685.086V439.742H686.75V440.149H688.414V440.556H689.662V440.963H690.494V441.37H691.742V441.777H692.574V442.184H693.406V442.591H694.654V442.998H695.486V443.405H696.318V443.811H697.566V444.218H698.398V444.625H698.814V445.032H699.646V445.439H700.478V445.846H700.894V446.253H701.726V446.66H702.558V447.067H702.974V447.474H703.806V447.88H704.638V448.287H705.054V448.694H705.47V449.101H706.302V447.88H706.718V446.66H707.134V445.846H707.55V445.032H707.966V443.811H708.382V442.998H708.798V442.184H709.214V441.37H709.63V440.149H710.046V439.335H710.462V438.522H710.878V437.708H711.294V436.894H711.71V436.08H712.126V435.266H712.542V434.453H712.958V433.639H713.374V432.825H713.79V432.011H714.206V431.604H714.622V430.79H715.038V429.977H715.454V429.163H715.87V428.349H716.286V427.535H716.702V427.128H717.118V426.314H717.534V425.501H717.95V424.687H718.366V424.28H718.782V423.466H719.198V423.059H719.614V422.245H720.03V421.839H720.446V421.025H720.862V420.618H721.278V419.804H721.694V419.397H722.11V418.583H722.526V418.176H722.942V417.769H723.358V416.956H723.774V416.549H724.19V415.735H724.606V415.328H725.022V414.514H725.438V414.107H725.854V413.293H726.27V412.887H726.686V412.48H727.102V412.073H727.518V411.259H727.934V410.852H728.35V410.445H728.766V410.038H729.182V409.224H729.598V408.818H730.014V408.411H730.43V408.004H730.846V407.19H731.262V406.783H731.678V406.376H732.094V405.969H732.51V405.562H732.926V404.748H733.342V404.342H733.758V403.935H733.342V403.528H732.51V403.121H731.678V402.714H730.846V402.307H730.43V401.9H729.598V401.493H728.766V401.086H728.35V400.679H727.518V400.273H726.686V399.866H726.27V399.459H725.438V399.052H725.022V398.645H724.606V398.238H723.774V397.831H723.358V397.424H722.942V397.017H722.526V396.61H721.694V396.203H721.278V395.797H720.862V395.39H720.03V394.983H719.614V394.576H719.198V394.169H718.782V393.762H718.366V393.355H717.95V392.948H717.534V392.541H717.118V392.134H716.702V391.727H716.286V391.321H715.87V390.914H715.454V390.507H715.038V390.1H714.622V389.693H714.206V389.286H713.79V388.879H713.374V388.472H712.958V388.065H712.542V387.658H712.126V387.252H711.71V386.438H711.294V386.031H710.878V385.217H710.462V384.81H710.046V384.403H709.63V383.589H709.214V383.182H708.798V382.776H708.382V381.962H707.966V381.555H707.55V381.148H707.134V380.334H706.718V379.52H706.302V379.113H705.886V378.3H705.47V377.486H705.054V376.672H704.638V375.858H704.222V375.044H703.806V374.637H703.39V373.824H702.974V373.01H702.558V372.196H702.142V370.975H701.726V370.162H701.31V368.941H700.894V367.72H700.478V366.906H700.062V365.686H699.646V364.465H699.23V363.244H698.814V361.21H698.398V359.582H697.982V357.547H697.566V355.92H697.15V353.071H696.734V348.596H696.318V341.678H696.734V337.202H697.15V334.354H697.566V331.505H697.982V329.878H698.398V328.657H698.814V327.03H699.23V325.402H699.646V324.181H700.062V322.96H700.478V322.147H700.894V320.926H701.31V319.705H701.726V318.891H702.142V318.078H702.558V317.264H702.974V316.45H703.39V315.636H703.806V314.415H704.222V313.602H704.638V313.195H705.054V312.381H705.47V311.567H705.886V311.16H706.302V310.346H706.718V309.533H707.134V309.126H707.55V308.312H707.966V307.905H708.382V307.091H708.798V306.684H709.214V306.277H709.63V305.464H710.046V305.057H710.462V304.65H710.878V303.836H711.294V303.429H711.71V303.022H712.126V302.615H712.542V302.208H712.958V301.394H713.374V300.988H713.79V300.581H714.206V300.174H714.622V299.767H715.038V299.36H715.454V298.953H715.87V298.546H716.286V298.139H716.702V297.732H717.118V297.325H717.534V296.919H717.95V296.512H718.366V296.105H718.782V295.698H719.198V295.291H720.03V294.884H720.446V294.477H720.862V294.07H721.278V293.663H721.694V293.256H722.526V292.849H722.942V292.443H723.358V292.036H724.19V291.629H724.606V291.222H725.022V290.815H725.854V290.408H726.27V290.001H727.102V289.594H727.934V289.187H728.35V288.78H729.182V288.373H730.014V287.967H730.43V287.56H731.262V287.153H732.094V286.746H732.926V286.339H733.758V285.932H734.59V285.525H735.422V285.118H736.254V284.711H737.086V284.304H738.334V283.898H739.582V283.491H740.414V283.084H741.662V282.677H742.91V282.27H744.158V281.863H745.822V281.456H747.486V281.049H749.15V280.642H751.23V280.235H753.726V279.828H756.638V279.422H770.365V279.828H773.277V280.235H775.773V280.642H777.853V281.049H779.933V281.456H781.597V281.863H782.845V282.27H784.093V282.677H785.341V283.084H786.589V283.491H787.837V283.898H789.085V284.304H789.917V284.711H790.749V285.118H791.997V285.525H792.829V285.932H793.661V286.339H794.909V285.932H795.325V285.525H795.741V285.118H796.157V284.711H796.573V284.304H796.989V283.898H797.405V283.491H797.821V283.084H798.237V282.677H798.653V282.27H799.069V281.863H799.485V281.456H800.317V281.049H800.733V280.642H801.149V280.235H801.565V279.828H801.981V279.422H802.397V279.015H802.813V278.608H803.645V278.201H804.061V277.794H804.477V277.387H805.309V276.98H805.725V276.573H806.141V276.166H806.973V275.759H807.389V275.353H807.805V274.946H808.637V274.539H809.053V274.132H809.469V273.725H809.885V273.318H810.717V272.911H811.133V272.504H811.549V272.097H812.381V271.69H813.213V271.283H813.629V270.877H814.461V270.47H815.293V270.063H815.709V269.656H816.541V269.249H816.957V268.842H817.789V268.435H818.621V268.028H819.037V267.621H819.869V267.214H820.285V266.807H821.117V266.401H821.949V265.994H822.781V265.587H823.613V265.18H824.445V264.773H825.277V264.366H826.109V263.959H826.941V263.552H827.773V263.145H828.605V262.738H829.437V262.332H830.269V261.925H831.517V261.518H832.349V261.111H833.597V260.704H834.429V260.297H835.677V259.89H836.925V259.483H838.173V259.076H839.005V258.669H840.253V258.262H841.501V257.856H842.333V257.449H843.997V257.042H845.661V256.635H847.325V256.228H848.989V255.821H850.653V255.414H851.901V255.007H853.565V254.6H856.476V254.193H858.972V253.787H861.884V253.38H864.38V252.973H869.372V252.566H886.012V252.973H890.588V253.38H893.5V253.787H896.412V254.193H899.324V254.6H901.404V255.007H903.068V255.414H904.732V255.821H906.396V256.228H908.06V256.635H910.14V257.042H911.388V257.449H912.636V257.856H913.884V258.262H914.716V258.669H915.964V259.076H917.212V259.483H918.46V259.89H919.708V260.297H920.956V260.704H921.788V261.111H922.62V261.518H923.452V261.925H924.7V262.332H925.532V262.738H926.364V263.145H927.196V263.552H928.444V263.959H929.276V264.366H930.108V264.773H930.94V265.18H931.772V265.587H932.188V265.994H933.02V266.401H933.852V266.807H934.684V267.214H935.516V267.621H935.932V268.028H936.764V268.435H937.596V268.842H938.428V269.249H938.844V269.656H939.676V270.063H940.092V270.47H940.924V270.877H941.34V271.283H942.171V271.69H942.587V272.097H943.419V272.504H943.835V272.911H944.667V273.318H945.083V273.725H945.915V274.132H946.331V274.539H946.747V274.946H947.579V275.353H947.995V275.759H948.411V276.166H949.243V276.573H949.659V276.98H950.075V277.387H950.491V277.794H950.907V278.201H951.739V278.608H952.155V279.015H952.571V279.422H952.987V279.828H953.819V280.235H954.235V280.642H954.651V281.049H955.067V281.456H955.483V281.863H955.899V282.27H956.315V282.677H956.731V283.084H957.147V283.491H957.563V283.898H957.979V284.304H958.395V284.711H959.227V285.118H959.643V285.525H960.059V285.932H960.475V286.339H960.891V286.746H961.307V287.153H961.723V287.56H962.139V287.967H962.555V288.373H962.971V288.78H963.387V289.594H963.803V290.001H964.219V290.408H964.635V290.815H965.051V291.222H965.467V291.629H965.883V292.443H966.299V292.849H966.715V293.256H967.131V293.663H967.547V294.07H967.963V294.884H968.379V295.291H968.795V295.698H969.211V296.105H969.627V296.512H970.043V297.325H970.459V297.732H970.875V298.546H971.291V298.953H971.707V299.36H972.123V300.174H972.539V300.581H972.955V301.394H973.371V301.801H973.787V302.208H974.203V303.022H974.619V303.429H975.035V304.243H975.451V304.65H975.867V305.464H976.283V305.87H976.699V306.684H977.115V307.498H977.531V308.312H977.947V308.719H978.363V309.533H978.779V310.346H979.195V311.16H979.611V311.567H980.027V312.381H980.443V313.195H980.859V314.009H981.275V314.822H981.691V315.636H982.107V316.45H982.523V317.264H982.939V318.078H983.355V318.891H983.771V320.112H984.187V320.926H984.603V321.74H985.019V322.554H985.435V323.367H985.851V324.588H986.267V325.809H986.683V327.03H987.099V328.25H987.515V329.064H987.931V330.285H988.347V331.505H988.763V332.726H989.179V334.354H989.595V335.575H990.011V337.202H990.427V338.83H990.843V340.457H991.259V342.085H991.675V344.12H992.091V346.154H992.507V348.596H992.923V351.037H993.339V353.071H995.419V352.665H999.163V352.258H1007.48V352.665H1011.64V353.071H1014.14V353.478H1015.8V353.885H1017.88V354.292H1019.55V354.699H1021.21V355.106H1022.04V355.513H1023.29V355.92H1024.54V356.327H1025.37V356.734H1026.62V357.141H1027.87V357.547H1028.7V357.954H1029.53V358.361H1030.36V358.768H1031.19V359.175H1032.03V359.582H1032.86V359.989H1033.69V360.396H1034.11V360.803H1034.94V361.21H1035.35V358.361H1035.77V355.106H1036.19V352.665H1036.6V350.63H1037.02V349.002H1037.43V346.968H1037.85V345.34H1038.27V344.12H1038.68V342.899H1039.1V341.678H1039.51V340.457H1039.93V339.237H1040.35V338.016H1040.76V337.202H1041.18V336.388H1041.59V335.168H1042.01V334.354H1042.43V333.133H1042.84V332.319H1043.26V331.505H1043.67V330.692H1044.09V330.285H1044.51V329.471H1044.92V328.657H1045.34V327.843H1045.75V327.03H1046.17V326.216H1046.59V325.809H1047V324.995H1047.42V324.588H1047.83V323.774H1048.25V323.367H1048.67V322.554H1049.08V322.147H1049.5V321.333H1049.91V320.926H1050.33V320.112H1050.75V319.705H1051.16V319.298H1051.58V318.485H1051.99V318.078H1052.41V317.671H1052.83V317.264H1053.24V316.45H1053.66V316.043H1054.07V315.636H1054.49V315.229H1054.91V314.822H1055.32V314.415H1055.74V313.602H1056.15V313.195H1056.57V312.788H1056.99V312.381H1057.4V311.974H1057.82V311.567H1058.23V311.16H1058.65V310.753H1059.07V310.346H1059.48V309.939H1059.9V309.533H1060.31V309.126H1060.73V308.719H1061.56V308.312H1061.98V307.905H1062.39V307.498H1062.81V307.091H1063.23V306.684H1063.64V306.277H1064.06V305.87H1064.89V305.464H1065.31V305.057H1065.72V304.65H1066.14V304.243H1066.97V303.836H1067.39V303.429H1068.22V303.022H1068.63V302.615H1069.05V302.208H1069.88V301.801H1070.3V301.394H1071.13V300.988H1071.55V300.581H1072.38V300.174H1072.79V299.767H1073.63V299.36H1074.46V298.953H1075.29V298.546H1075.71V298.139H1076.54V297.732H1077.37V297.325H1077.79V296.919H1078.62V296.512H1079.87V296.105H1080.7V295.698H1081.53V295.291H1082.36V294.884H1083.19V294.477H1084.03V294.07H1085.27V293.663H1086.52V293.256H1087.77V292.849H1088.6V292.443H1089.85V292.036H1091.1V291.629H1092.35V291.222H1094.01V290.815H1095.67V290.408H1097.34V290.001H1099V289.594H1101.91V289.187H1104.83V288.78H1108.15V288.373H1122.3V288.78H1125.63V289.187H1128.54V289.594H1130.62V290.001H1132.7V290.408H1134.36V290.815H1136.03V291.222H1137.27V291.629H1138.94V292.036H1140.19V292.443H1141.43V292.849H1142.68V293.256H1143.51V293.663H1144.76V294.07H1145.59V294.477H1146.84V294.884H1147.67V295.291H1148.51V295.698H1149.34V296.105H1150.17V296.512H1151V296.919H1151.83V297.325H1152.67V297.732H1153.5V298.139H1154.33V298.546H1155.16V298.953H1155.58V299.36H1156.41V299.767H1157.24V300.174H1157.66V300.581H1158.49V300.988H1159.32V301.394H1159.74V301.801H1160.15V302.208H1160.99V302.615H1161.4V303.022H1162.23V303.429H1162.65V303.836H1163.48V300.988H1163.9V297.325H1164.31V293.663H1164.73V290.408H1165.14V288.373H1165.56V286.339H1165.98V284.304H1166.39V282.27H1166.81V280.235H1167.22V278.201H1167.64V276.98H1168.06V275.353H1168.47V274.132H1168.89V272.504H1169.3V271.283H1169.72V270.063H1170.14V268.435H1170.55V267.214H1170.97V265.994H1171.38V264.773H1171.8V263.959H1172.22V262.738H1172.63V261.925H1173.05V261.111H1173.46V259.89H1173.88V259.076H1174.3V257.856H1174.71V257.042H1175.13V255.821H1175.54V255.007H1175.96V254.193H1176.38V253.38H1176.79V252.566H1177.21V251.752H1177.62V250.938H1178.04V250.124H1178.46V249.311H1178.87V248.497H1179.29V247.683H1179.7V246.869H1180.12V246.055H1180.54V245.242H1180.95V244.835H1181.37V244.021H1181.78V243.207H1182.2V242.393H1182.62V241.986H1183.03V241.172H1183.45V240.766H1183.86V239.952H1184.28V239.545H1184.7V238.731H1185.11V237.917H1185.53V237.51H1185.94V236.696H1186.36V236.29H1186.78V235.476H1187.19V235.069H1187.61V234.255H1188.02V233.848H1188.44V233.034H1188.86V232.627H1189.27V231.814H1189.69V231.407H1190.1V231H1190.52V230.593H1190.94V229.779H1191.35V229.372H1191.77V228.965H1192.18V228.558H1192.6V227.745H1193.02V227.338H1193.43V226.931H1193.85V226.117H1194.26V225.71H1194.68V225.303H1195.1V224.896H1195.51V224.082H1195.93V223.676H1196.34V223.269H1196.76V222.862H1197.18V222.455H1197.59V222.048H1198.01V221.641H1198.42V220.827H1198.84V220.42H1199.26V220.013H1199.67V219.606H1200.09V219.2H1200.5V218.793H1200.92V218.386H1201.34V217.979H1201.75V217.572H1202.17V217.165H1202.58V216.758H1203V216.351H1203.42V215.944H1203.83V215.537H1204.25V215.13H1204.66V214.724H1205.08V214.317H1205.5V213.91H1205.91V213.503H1206.33V213.096H1206.74V212.689H1207.16V212.282H1207.58V211.875H1207.99V211.468H1208.82V211.061H1209.24V210.655H1209.66V210.248H1210.07V209.841H1210.49V209.434H1210.9V209.027H1211.32V208.62H1212.15V208.213H1212.57V207.806H1212.98V207.399H1213.4V206.992H1213.82V206.585H1214.23V206.179H1214.65V205.772H1215.48V205.365H1215.9V204.958H1216.73V204.551H1217.14V204.144H1217.56V203.737H1218.39V203.33H1218.81V202.923H1219.22V202.516H1220.06V202.11H1220.47V201.703H1221.3V201.296H1221.72V200.889H1222.14V200.482H1222.97V200.075H1223.38V199.668H1224.22V199.261H1224.63V198.854H1225.05V198.447H1225.88V198.04H1226.71V197.634H1227.13V197.227H1227.96V196.82H1228.79V196.413H1229.21V196.006H1230.04V195.599H1230.87V195.192H1231.29V194.785H1232.12V194.378H1232.95V193.971H1233.78V193.565H1234.2V193.158H1235.03V192.751H1235.86V192.344H1236.28V191.937H1237.11V191.53H1238.36V191.123H1239.19V190.716H1240.02V190.309H1240.86V189.902H1241.69V189.495H1242.52V189.089H1243.35V188.682H1244.6V188.275H1245.43V187.868H1246.26V187.461H1247.1V187.054H1247.93V186.647H1249.18V186.24H1250.42V185.833H1251.26V185.426H1252.5V185.019H1253.75V184.613H1255V184.206H1256.25V183.799H1257.5V183.392H1258.33V182.985H1259.58V182.578H1260.82V182.171H1262.49V181.764H1264.15V181.357H1265.82V180.95H1267.48V180.544H1269.14V180.137H1270.81V179.73H1272.47V179.323H1274.97V178.916H1277.88V178.509H1280.79V178.102H1283.29V177.695H1286.2V177.288H1292.02V176.881H1308.25V177.288H1314.07V177.695H1317.4V178.102H1319.9V178.509H1322.39V178.916H1325.3V179.323H1327.8V179.73H1329.88V180.137H1331.13V180.544H1332.79V180.95H1334.46V181.357H1336.12V181.764H1337.78V182.171H1339.03V182.578H1340.69V182.985H1342.36V183.392H1343.19V183.799H1344.44V184.206H1345.69V184.613H1346.52V185.019H1347.77V185.426H1349.01V185.833H1349.85V186.24H1351.09V186.647H1352.34V187.054H1353.17V187.461H1354.42V187.868H1355.25V188.275H1356.09V188.682H1356.92V189.089H1357.75V189.495H1358.58V189.902H1359.41V190.309H1360.25V190.716H1361.08V191.123H1361.91V191.53H1362.74V191.937H1363.57V192.344H1364.41V192.751H1365.24V193.158H1366.07V193.565H1366.9V193.971H1367.73V194.378H1368.57V194.785H1368.98V195.192H1369.81V195.599H1370.23V196.006H1371.06V196.413H1371.89V196.82H1372.31V197.227H1373.14V197.634H1373.56V198.04H1374.39V198.447H1375.22V198.854H1375.64V199.261H1376.47V199.668H1376.89V200.075H1377.72V200.482H1378.13V200.889H1378.97V201.296H1379.38V201.703H1380.21V202.11H1380.63V202.516H1381.05V202.923H1381.46V203.33H1382.29V203.737H1382.71V204.144H1383.13V204.551H1383.96V204.958H1384.37V205.365H1384.79V205.772H1385.21V206.179H1386.04V206.585H1386.45V206.992H1386.87V207.399H1387.7V207.806H1388.12V208.213H1388.53V208.62H1388.95V209.027H1389.78V209.434H1390.2V209.841H1390.61V210.248H1391.03V210.655H1391.45V211.061H1391.86V211.468H1392.28V211.875H1392.69V212.282H1393.11V212.689H1393.53V213.096H1394.36V213.503H1394.77V213.91H1395.19V214.317H1395.61V214.724H1396.02V215.13H1396.44V215.537H1396.85V215.944H1397.27V216.351H1397.69V216.758H1398.1V217.165H1398.52V217.572H1398.93V217.979H1400.18V217.572H1401.43V217.165H1402.68V216.758H1403.93V216.351H1405.17V215.944H1406.84V215.537H1408.5V215.13H1410.17V214.724H1411.83V214.317H1414.33V213.91H1417.24V213.503H1420.15V213.096H1435.54V213.503H1438.45V213.91H1441.37V214.317H1443.45V214.724H1445.53V215.13H1447.19V215.537H1448.85V215.944H1450.1V216.351H1451.35V216.758H1453.01V217.165H1454.26V217.572H1455.51V217.979H1456.34V218.386H1457.17V218.793H1458.42V219.2H1459.25V219.606H1460.09V220.013H1461.33V220.42H1462.17V220.827H1463V221.234H1463.83V221.641H1464.66V222.048H1465.08V222.455H1465.91V222.862H1466.74V223.269H1467.57V223.676H1468.41V224.082H1468.82V224.489H1469.65V224.896H1470.07V225.303H1470.9V225.71H1471.32V226.117H1472.15V226.524H1472.57V226.931H1473.4V227.338H1473.81V227.745H1474.65V228.151H1475.06V228.558H1475.48V228.965H1476.31V229.372H1476.73V229.779H1477.14V230.186H1477.56V230.593H1478.39V231H1478.81V231.407H1479.22V230.593H1479.64V230.186H1480.05V229.779H1480.47V229.372H1480.89V228.965H1481.3V228.558H1481.72V228.151H1482.13V227.745H1482.55V227.338H1482.97V226.931H1483.38V226.524H1483.8V226.117H1484.21V225.71H1484.63V225.303H1485.05V224.896H1485.46V224.489H1485.88V224.082H1486.29V223.676H1486.71V223.269H1487.54V222.862H1487.96V222.455H1488.37V222.048H1489.21V221.641H1489.62V221.234H1490.04V220.827H1490.87V220.42H1491.29V220.013H1491.7V219.606H1492.53V219.2H1492.95V218.793H1493.37V218.386H1494.2V217.979H1494.61V217.572H1495.03V217.165H1495.86V216.758H1496.69V216.351H1497.53V215.944H1498.36V215.537H1499.19V215.13H1500.02V214.724H1500.44V214.317H1501.27V213.91H1502.1V213.503H1502.93V213.096H1503.77V212.689H1504.6V212.282H1505.43V211.875H1506.68V211.468H1507.51V211.061H1508.76V210.655H1510.01V210.248H1511.25V209.841H1512.09V209.434H1513.33V209.027H1515V208.62H1516.66V208.213H1516.24V206.585H1515.83V204.144H1515.41V201.703H1515V198.447H1514.58V193.565H1514.16V187.461H1514.58V182.171H1515V179.323H1515.41V176.881H1515.83V174.44H1516.24V172.812H1516.66V171.185H1517.08V169.557H1517.49V168.336H1517.91V166.709H1518.32V165.895H1518.74V164.674H1519.16V163.453H1519.57V162.64H1519.99V161.419H1520.4V160.198H1520.82V159.384H1521.24V158.571H1521.65V157.757H1522.07V156.943H1522.48V156.129H1522.9V155.315H1523.32V154.502H1523.73V153.688H1524.15V152.874H1524.56V152.467H1524.98V151.653H1525.4V150.839H1525.81V150.433H1526.23V149.619H1526.64V148.805H1527.06V148.398H1527.48V147.584H1527.89V147.177H1528.31V146.77H1528.72V145.957H1529.14V145.55H1529.56V145.143H1529.97V144.329H1530.39V143.922H1530.8V143.515H1531.22V142.701H1531.64V142.294H1532.05V141.888H1532.47V141.481H1532.88V140.667H1533.3V140.26H1533.72V139.853H1534.13V139.446H1534.55V139.039H1534.96V138.632H1535.38V138.225H1535.8V137.818H1536.21V137.412H1536.63V136.598H1537.04V136.191H1537.88V135.784H1538.29V135.377H1538.71V134.97H1539.12V134.563H1539.54V134.156H1539.96V133.749H1540.37V133.342H1540.79V132.936H1541.2V132.529H1541.62V132.122H1542.45V131.715H1542.87V131.308H1543.28V130.901H1543.7V130.494H1544.53V130.087H1544.95V129.68H1545.36V129.273H1546.2V128.867H1546.61V128.46H1547.03V128.053H1547.86V127.646H1548.28V127.239H1549.11V126.832H1549.52V126.425H1550.36V126.018H1551.19V125.611H1551.6V125.204H1552.44V124.797H1552.85V124.391H1553.68V123.984H1554.52V123.577H1554.93V123.17H1556.18V122.763H1557.01V122.356H1557.84V121.949H1558.68V121.542H1559.51V121.135H1560.34V120.728H1561.17V120.322H1562V119.915H1563.25V119.508H1564.5V119.101H1565.33V118.694H1566.58V118.287H1567.83V117.88H1569.08V117.473H1570.32V117.066H1571.99V116.659H1573.65V116.252H1575.32V115.846H1577.4V115.439H1579.89V115.032H1582.8V114.625H1587.38V114.218H1597.36V114.625H1601.11V115.032H1604.85V115.439H1606.93V115.846H1608.6V116.252H1610.26V116.659H1612.34V117.066H1614V117.473H1615.67V117.88H1616.92V118.287H1617.33V117.473H1617.75V116.659H1618.16V115.846H1618.58V115.032H1619V114.218H1619.41V113.404H1619.83V112.59H1620.24V111.776H1620.66V110.963H1621.08V110.556H1621.49V109.742H1621.91V108.928H1622.32V108.521H1622.74V107.707H1623.16V106.894H1623.57V106.487H1623.99V105.673H1624.4V104.859H1624.82V104.452H1625.24V103.638H1625.65V102.825H1626.07V102.418H1626.48V101.604H1626.9V101.197H1627.32V100.383H1627.73V99.9762H1628.15V99.5693H1628.56V98.7555H1628.98V98.3486H1629.4V97.5348H1629.81V97.1279H1630.23V96.3141H1630.64V95.9072H1631.06V95.5003H1631.48V94.6865H1631.89V94.2796H1632.31V93.8726H1632.72V93.0588H1633.14V92.6519H1633.56V92.245H1633.97V91.8381H1634.39V91.0243H1634.8V90.6174H1635.22V90.2105H1635.64V89.8036H1636.05V89.3967H1636.47V88.5829H1636.88V88.176H1637.3V87.7691H1637.72V87.3622H1638.13V86.9553H1638.55V86.1414H1638.96V85.7345H1639.38V85.3276H1639.8V84.9207H1640.21V84.5138H1640.63V84.1069H1641.04V83.7H1641.46V83.2931H1641.88V82.8862H1642.29V82.4793H1642.71V82.0724H1643.12V81.6655H1643.54V81.2586H1643.96V80.8517H1644.37V80.4448H1644.79V80.0379H1645.2V79.631H1645.62V79.224H1646.04V78.8171H1646.45V78.4102H1646.87V78.0033H1647.28V77.5964H1647.7V77.1895H1648.12V76.7826H1648.53V76.3757H1648.95V75.9688H1649.36V75.5619H1650.2V75.155H1650.61V74.7481H1651.03V74.3412H1651.44V73.9343H1651.86V73.5274H1652.28V73.1205H1652.69V72.7136H1653.52V72.3067H1653.94V71.8997H1654.36V71.4928H1654.77V71.0859H1655.6V70.679H1656.02V70.2721H1656.44V69.8652H1656.85V69.4583H1657.68V69.0514H1658.1V68.6445H1658.52V68.2376H1658.93V67.8307H1659.76V67.4238H1660.18V67.0169H1661.01V66.61H1661.43V66.2031H1661.84V65.7962H1662.68V65.3893H1663.09V64.9824H1663.92V64.5754H1664.34V64.1685H1665.17V63.7616H1665.59V63.3547H1666V62.9478H1666.84V62.5409H1667.25V62.134H1668.08V61.7271H1668.92V61.3202H1669.33V60.9133H1670.16V60.5064H1671V60.0995H1671.41V59.6926H1672.24V59.2857H1673.08V58.8788H1673.49V58.4719H1674.32V58.065H1675.16V57.6581H1675.99V57.2512H1676.82V56.8442H1677.65V56.4373H1678.48V56.0304H1679.32V55.6235H1680.15V55.2166H1680.98V54.8097H1681.81V54.4028H1682.64V53.9959H1683.06V53.589H1684.31V53.1821H1685.14V52.7752H1685.97V52.3683H1687.22V51.9614H1688.05V51.5545H1688.88V51.1476H1690.13V50.7407H1690.96V50.3338H1692.21V49.9269H1693.04V49.5199H1694.29V49.113H1695.54V48.7061H1696.79V48.2992H1698.03V47.8923H1699.28V47.4854H1700.53V47.0785H1701.78V46.6716H1703.03V46.2647H1704.69V45.8578H1706.35V45.4509H1708.02V45.044H1709.68V44.6371H1710.93V44.2302H1713.01V43.8233H1715.51V43.4164H1717.59V43.0095H1720.08V42.6026H1722.58V42.1956H1726.32V41.7887H1730.07V41.3818H1737.14V40.9749H1739.22V462.936H1738.8V466.191H1738.39V468.226H1737.97V469.446H1737.55V471.074H1737.14V472.295H1736.72V473.516H1736.31V474.736H1735.89V475.55H1735.47V476.364H1735.06V477.178H1734.64V477.991H1734.23V478.805H1733.81V479.619H1733.39V480.026H1732.98V480.84H1732.56V481.654H1732.15V482.061H1731.73V482.467H1731.31V483.281H1730.9V483.688H1730.48V484.095H1730.07V484.502H1729.65V484.909H1729.23V485.723H1728.82V486.13H1728.4V486.536H1727.99V486.943H1727.57V487.35H1727.15V487.757H1726.74V488.164H1726.32V488.571H1725.91V488.978H1725.07V489.385H1724.66V489.792H1724.24V490.199H1723.83V490.606H1723.41V491.012H1722.58V491.419H1722.16V491.826H1721.75V492.233H1720.91V492.64H1720.08V493.047H1719.25V493.454H1718.83V493.861H1718V494.268H1717.17V494.675H1716.34V495.082H1715.51V495.488H1714.67V495.895H1713.43V496.302H1712.18V496.709H1710.51V497.116H1709.27V497.523H1708.02V497.93H1705.52V498.337H1702.19V498.744" fill="url(#paint2_linear_14_1088)"/>
</g>
</g>
</g>
<g id="cloud-1">
<g id="Clip path group_4">
<mask id="mask3_14_1088" style="mask-type:luminance" maskUnits="userSpaceOnUse" x="1033" y="242" width="709" height="257">
<g id="clipPath202">
<path id="path202" d="M1741.88 242.426C1696.19 242.426 1656.55 267.691 1636.71 304.703C1632.28 304.064 1627.76 303.726 1623.16 303.726C1579.75 303.726 1543.33 332.95 1533.31 372.384C1521.98 364.343 1508.05 359.586 1492.98 359.586C1484.05 359.586 1475.52 361.275 1467.69 364.311C1452.74 334.029 1421.04 313.138 1384.36 313.138C1334.58 313.138 1294 351.623 1291.98 399.829H1291.88C1278.74 399.829 1266.51 403.63 1256.25 410.145C1248.23 367.908 1210.4 335.917 1164.9 335.917C1114.11 335.917 1072.86 375.785 1072.02 425.273C1049.83 431.23 1033.52 451.083 1033.52 474.676C1033.52 483.408 1035.76 491.623 1039.69 498.817H1741.88V242.426Z" fill="white"/>
</g>
</mask>
<g mask="url(#mask3_14_1088)">
<path id="path203" d="M1039.1 498.744V497.93H1038.68V497.116H1038.27V496.303H1037.85V495.082H1037.43V494.268H1037.02V493.454H1036.6V491.827H1036.19V490.606H1035.77V489.385H1035.35V488.164H1034.94V486.537H1034.52V484.502H1034.11V482.061H1033.69V478.399H1033.27V470.668H1033.69V467.005H1034.11V464.971H1034.52V463.343H1034.94V461.716H1035.35V460.088H1035.77V458.46H1036.19V457.24H1036.6V456.426H1037.02V455.205H1037.43V454.391H1037.85V453.578H1038.27V452.764H1038.68V451.543H1039.1V450.729H1039.51V449.915H1039.93V449.102H1040.35V448.695H1040.76V447.881H1041.18V447.474H1041.59V446.66H1042.01V446.253H1042.43V445.439H1042.84V445.032H1043.26V444.219H1043.67V443.812H1044.09V442.998H1044.51V442.591H1044.92V442.184H1045.34V441.777H1045.75V441.37H1046.17V440.963H1046.59V440.557H1047V440.15H1047.42V439.336H1047.83V438.929H1048.25V438.522H1048.67V438.115H1049.08V437.708H1049.5V437.301H1049.91V436.894H1050.33V436.487H1050.75V436.081H1051.58V435.674H1051.99V435.267H1052.41V434.86H1052.83V434.453H1053.66V434.046H1054.07V433.639H1054.49V433.232H1054.91V432.825H1055.74V432.418H1056.15V432.012H1056.57V431.605H1057.4V431.198H1058.23V430.791H1059.07V430.384H1059.9V429.977H1060.31V429.57H1061.15V429.163H1061.98V428.756H1062.81V428.349H1063.23V427.942H1064.47V427.536H1065.31V427.129H1066.55V426.722H1067.39V426.315H1068.63V425.908H1069.47V425.501H1071.13V425.094H1071.96V418.991H1072.38V414.921H1072.79V412.48H1073.21V410.039H1073.63V407.597H1074.04V405.97H1074.46V404.342H1074.87V403.121H1075.29V401.494H1075.71V399.866H1076.12V398.645H1076.54V397.425H1076.95V396.204H1077.37V395.39H1077.79V394.169H1078.2V392.949H1078.62V392.135H1079.03V390.914H1079.45V390.1H1079.87V389.286H1080.28V388.473H1080.7V387.659H1081.11V386.845H1081.53V386.031H1081.95V385.217H1082.36V384.404H1082.78V383.59H1083.19V382.776H1083.61V381.962H1084.03V381.148H1084.44V380.741H1084.86V379.928H1085.27V379.114H1085.69V378.707H1086.11V377.893H1086.52V377.486H1086.94V376.672H1087.35V375.859H1087.77V375.452H1088.19V374.638H1088.6V374.231H1089.02V373.824H1089.43V373.01H1089.85V372.603H1090.27V372.196H1090.68V371.383H1091.1V370.976H1091.51V370.569H1091.93V370.162H1092.35V369.348H1092.76V368.941H1093.18V368.534H1093.59V367.72H1094.01V367.314H1094.43V366.907H1094.84V366.5H1095.26V366.093H1095.67V365.686H1096.09V365.279H1096.51V364.872H1096.92V364.465H1097.34V364.058H1097.75V363.651H1098.17V363.244H1098.59V362.431H1099V362.024H1099.42V361.617H1099.83V361.21H1100.67V360.803H1101.08V360.396H1101.5V359.989H1101.91V359.582H1102.33V359.175H1102.75V358.769H1103.16V358.362H1103.58V357.955H1103.99V357.548H1104.83V357.141H1105.24V356.734H1105.66V356.327H1106.07V355.92H1106.49V355.513H1107.32V355.106H1107.74V354.699H1108.15V354.293H1108.99V353.886H1109.4V353.479H1109.82V353.072H1110.65V352.665H1111.07V352.258H1111.48V351.851H1112.31V351.444H1112.73V351.037H1113.56V350.63H1113.98V350.223H1114.81V349.817H1115.64V349.41H1116.06V349.003H1116.89V348.596H1117.72V348.189H1118.14V347.782H1118.97V347.375H1119.8V346.968H1120.22V346.561H1121.05V346.154H1121.88V345.748H1122.71V345.341H1123.55V344.934H1124.38V344.527H1125.63V344.12H1126.46V343.713H1127.29V343.306H1128.12V342.899H1128.95V342.492H1130.2V342.085H1131.03V341.678H1132.28V341.272H1133.53V340.865H1134.78V340.458H1136.03V340.051H1136.86V339.644H1138.52V339.237H1140.19V338.83H1141.85V338.423H1143.51V338.016H1145.18V337.609H1146.84V337.203H1149.75V336.796H1152.67V336.389H1155.16V335.982H1161.4V335.575H1168.47V335.982H1174.3V336.389H1177.21V336.796H1180.54V337.203H1183.03V337.609H1184.7V338.016H1186.36V338.423H1188.44V338.83H1190.1V339.237H1191.35V339.644H1192.6V340.051H1193.85V340.458H1195.1V340.865H1196.34V341.272H1197.59V341.678H1198.84V342.085H1199.67V342.492H1200.5V342.899H1201.75V343.306H1202.58V343.713H1203.42V344.12H1204.66V344.527H1205.5V344.934H1206.33V345.341H1207.16V345.748H1207.99V346.154H1208.41V346.561H1209.24V346.968H1210.07V347.375H1210.9V347.782H1211.74V348.189H1212.57V348.596H1212.98V349.003H1213.82V349.41H1214.23V349.817H1215.06V350.223H1215.48V350.63H1216.31V351.037H1217.14V351.444H1217.56V351.851H1218.39V352.258H1218.81V352.665H1219.22V353.072H1220.06V353.479H1220.47V353.886H1220.89V354.293H1221.72V354.699H1222.14V355.106H1222.55V355.513H1222.97V355.92H1223.8V356.327H1224.22V356.734H1224.63V357.141H1225.05V357.548H1225.88V357.955H1226.3V358.362H1226.71V358.769H1227.13V359.175H1227.54V359.582H1227.96V359.989H1228.38V360.396H1228.79V360.803H1229.21V361.21H1229.62V361.617H1230.04V362.024H1230.87V362.838H1231.29V363.244H1231.7V363.651H1232.12V364.058H1232.54V364.465H1232.95V364.872H1233.37V365.279H1233.78V365.686H1234.2V366.093H1234.62V366.5H1235.03V366.907H1235.45V367.314H1235.86V368.127H1236.28V368.534H1236.7V368.941H1237.11V369.348H1237.53V370.162H1237.94V370.569H1238.36V370.976H1238.78V371.789H1239.19V372.196H1239.61V372.603H1240.02V373.01H1240.44V373.824H1240.86V374.231H1241.27V375.045H1241.69V375.452H1242.1V376.265H1242.52V376.672H1242.94V377.486H1243.35V377.893H1243.77V378.707H1244.18V379.114H1244.6V379.928H1245.02V380.741H1245.43V381.148H1245.85V381.962H1246.26V382.776H1246.68V383.59H1247.1V384.404H1247.51V385.217H1247.93V386.031H1248.34V386.845H1248.76V387.659H1249.18V388.473H1249.59V389.286H1250.01V390.507H1250.42V391.321H1250.84V392.135H1251.26V393.355H1251.67V394.169H1252.09V395.39H1252.5V396.611H1252.92V397.831H1253.34V399.052H1253.75V400.273H1254.17V401.494H1254.58V402.714H1255V404.342H1255.42V405.97H1255.83V408.004H1256.25V409.632H1256.66V409.225H1257.5V408.818H1258.33V408.411H1259.16V408.004H1259.58V407.597H1260.41V407.19H1261.24V406.783H1262.07V406.376H1262.9V405.97H1263.74V405.563H1264.57V405.156H1265.82V404.749H1267.06V404.342H1267.9V403.935H1269.14V403.528H1269.98V403.121H1271.22V402.714H1272.47V402.307H1273.72V401.901H1275.8V401.494H1277.46V401.087H1279.54V400.68H1281.21V400.273H1284.54V399.866H1288.7V399.459H1291.61V398.645H1292.02V394.169H1292.44V390.507H1292.86V388.473H1293.27V386.031H1293.69V383.997H1294.1V381.962H1294.52V380.741H1294.94V379.114H1295.35V377.893H1295.77V376.265H1296.18V375.045H1296.6V373.824H1297.02V372.603H1297.43V371.789H1297.85V370.569H1298.26V369.755H1298.68V368.534H1299.1V367.72H1299.51V366.5H1299.93V365.686H1300.34V364.872H1300.76V364.058H1301.18V363.244H1301.59V362.431H1302.01V361.617H1302.42V360.803H1302.84V359.989H1303.26V359.175H1303.67V358.362H1304.09V357.955H1304.5V357.141H1304.92V356.734H1305.34V355.92H1305.75V355.106H1306.17V354.699H1306.58V353.886H1307V353.479H1307.42V352.665H1307.83V352.258H1308.25V351.444H1308.66V351.037H1309.08V350.223H1309.5V349.817H1309.91V349.41H1310.33V349.003H1310.74V348.189H1311.16V347.782H1311.58V347.375H1311.99V346.561H1312.41V346.154H1312.82V345.748H1313.24V345.341H1313.66V344.527H1314.07V344.12H1314.49V343.713H1314.9V343.306H1315.32V342.899H1315.74V342.492H1316.15V342.085H1316.57V341.678H1316.98V341.272H1317.4V340.865H1317.82V340.458H1318.23V340.051H1318.65V339.237H1319.06V338.83H1319.48V338.423H1319.9V338.016H1320.31V337.609H1321.14V337.203H1321.56V336.796H1321.98V336.389H1322.39V335.982H1322.81V335.575H1323.22V335.168H1323.64V334.761H1324.47V334.354H1324.89V333.947H1325.3V333.54H1325.72V333.133H1326.14V332.727H1326.55V332.32H1327.38V331.913H1327.8V331.506H1328.63V331.099H1329.05V330.692H1329.46V330.285H1330.3V329.878H1330.71V329.471H1331.13V329.064H1331.96V328.658H1332.38V328.251H1333.21V327.844H1333.62V327.437H1334.46V327.03H1334.87V326.623H1335.7V326.216H1336.54V325.809H1336.95V325.402H1337.78V324.995H1338.62V324.588H1339.45V324.182H1339.86V323.775H1340.7V323.368H1341.53V322.961H1342.36V322.554H1343.19V322.147H1344.02V321.74H1344.86V321.333H1345.69V320.926H1346.94V320.519H1347.77V320.112H1348.6V319.706H1349.43V319.299H1350.68V318.892H1351.93V318.485H1353.18V318.078H1354.42V317.671H1355.26V317.264H1356.5V316.857H1357.75V316.45H1359.42V316.043H1361.08V315.637H1362.74V315.23H1364.41V314.823H1366.49V314.416H1369.4V314.009H1371.89V313.602H1374.81V313.195H1381.05V312.788H1387.29V313.195H1393.53V313.602H1397.27V314.009H1399.77V314.416H1402.26V314.823H1404.34V315.23H1406.01V315.637H1407.67V316.043H1409.33V316.45H1411V316.857H1412.25V317.264H1413.49V317.671H1414.74V318.078H1415.99V318.485H1417.24V318.892H1418.07V319.299H1418.9V319.706H1420.15V320.112H1420.98V320.519H1422.23V320.926H1423.06V321.333H1423.89V321.74H1424.73V322.147H1425.56V322.554H1426.39V322.961H1427.22V323.368H1428.05V323.775H1428.89V324.182H1429.72V324.588H1430.13V324.995H1430.97V325.402H1431.8V325.809H1432.21V326.216H1433.05V326.623H1433.88V327.03H1434.29V327.437H1435.13V327.844H1435.54V328.251H1436.37V328.658H1436.79V329.064H1437.62V329.471H1438.04V329.878H1438.87V330.285H1439.29V330.692H1439.7V331.099H1440.53V331.506H1440.95V331.913H1441.37V332.32H1441.78V332.727H1442.61V333.133H1443.03V333.54H1443.45V333.947H1443.86V334.354H1444.69V334.761H1445.11V335.168H1445.53V335.575H1445.94V335.982H1446.36V336.389H1446.77V336.796H1447.19V337.203H1447.61V337.609H1448.02V338.016H1448.85V338.423H1449.27V338.83H1449.69V339.237H1450.1V339.644H1450.52V340.458H1450.93V340.865H1451.35V341.272H1451.77V341.678H1452.18V342.085H1452.6V342.492H1453.01V342.899H1453.43V343.306H1453.85V343.713H1454.26V344.12H1454.68V344.527H1455.09V345.341H1455.51V345.748H1455.93V346.154H1456.34V346.561H1456.76V346.968H1457.17V347.782H1457.59V348.189H1458.01V348.596H1458.42V349.41H1458.84V349.817H1459.25V350.223H1459.67V351.037H1460.09V351.444H1460.5V352.258H1460.92V352.665H1461.33V353.072H1461.75V353.886H1462.17V354.699H1462.58V355.106H1463V355.92H1463.41V356.734H1463.83V357.141H1464.25V357.955H1464.66V358.362H1465.08V359.175H1465.49V359.989H1465.91V360.803H1466.33V361.617H1466.74V362.431H1467.16V362.838H1467.57V364.058H1467.99V363.651H1469.24V363.244H1470.49V362.838H1471.73V362.431H1472.98V362.024H1474.65V361.617H1476.31V361.21H1477.97V360.803H1479.64V360.396H1482.55V359.989H1485.46V359.582H1499.61V359.989H1503.77V360.396H1505.85V360.803H1507.51V361.21H1509.17V361.617H1510.84V362.024H1512.5V362.431H1514.17V362.838H1515.41V363.244H1516.25V363.651H1517.49V364.058H1518.33V364.465H1519.57V364.872H1520.41V365.279H1521.24V365.686H1522.49V366.093H1523.32V366.5H1524.15V366.907H1524.98V367.314H1525.81V367.72H1526.65V368.127H1527.06V368.534H1527.89V368.941H1528.73V369.348H1529.56V369.755H1529.97V370.162H1530.81V370.569H1531.64V370.976H1532.05V371.383H1532.47V371.789H1533.3V370.569H1533.72V369.348H1534.13V367.72H1534.55V366.5H1534.97V365.279H1535.38V364.058H1535.8V363.244H1536.21V362.024H1536.63V360.803H1537.05V359.989H1537.46V358.769H1537.88V357.955H1538.29V357.141H1538.71V356.327H1539.12V355.513H1539.54V354.699H1539.96V353.479H1540.37V352.665H1540.79V351.851H1541.2V351.037H1541.62V350.63H1542.04V349.817H1542.45V349.003H1542.87V348.596H1543.28V347.782H1543.7V346.968H1544.12V346.561H1544.53V345.748H1544.95V344.934H1545.36V344.527H1545.78V343.713H1546.2V343.306H1546.61V342.492H1547.03V342.085H1547.44V341.678H1547.86V340.865H1548.28V340.458H1548.69V339.644H1549.11V339.237H1549.52V338.83H1549.94V338.016H1550.36V337.609H1550.77V337.203H1551.19V336.796H1551.6V336.389H1552.02V335.575H1552.44V335.168H1552.85V334.761H1553.27V334.354H1553.68V333.947H1554.1V333.133H1554.52V332.727H1554.93V332.32H1555.35V331.913H1555.76V331.506H1556.18V331.099H1556.6V330.692H1557.01V330.285H1557.43V329.878H1557.84V329.471H1558.26V329.064H1558.68V328.658H1559.09V328.251H1559.51V327.844H1559.92V327.437H1560.76V327.03H1561.17V326.623H1561.59V326.216H1562V325.809H1562.42V325.402H1562.84V324.995H1563.25V324.588H1564.08V324.182H1564.5V323.775H1564.92V323.368H1565.33V322.961H1565.75V322.554H1566.58V322.147H1567V321.74H1567.83V321.333H1568.24V320.926H1568.66V320.519H1569.49V320.112H1569.91V319.706H1570.32V319.299H1571.16V318.892H1571.57V318.485H1572.4V318.078H1572.82V317.671H1573.65V317.264H1574.48V316.857H1574.9V316.45H1575.73V316.043H1576.56V315.637H1576.98V315.23H1577.81V314.823H1578.64V314.416H1579.48V314.009H1580.31V313.602H1581.14V313.195H1581.97V312.788H1582.8V312.381H1583.64V311.974H1584.47V311.567H1585.3V311.161H1586.13V310.754H1587.38V310.347H1588.21V309.94H1589.46V309.533H1590.29V309.126H1591.54V308.719H1592.79V308.312H1594.04V307.905H1595.28V307.498H1596.53V307.092H1598.2V306.685H1599.44V306.278H1601.11V305.871H1603.19V305.464H1605.27V305.057H1606.93V304.65H1610.26V304.243H1613.59V303.836H1619V303.429H1627.73V303.836H1632.31V304.243H1636.88V303.429H1637.3V302.616H1637.72V301.802H1638.13V301.395H1638.55V300.581H1638.96V299.767H1639.38V298.953H1639.8V298.546H1640.21V297.733H1640.63V297.326H1641.04V296.512H1641.46V295.698H1641.88V295.291H1642.29V294.477H1642.71V294.071H1643.12V293.257H1643.54V292.85H1643.96V292.036H1644.37V291.629H1644.79V290.815H1645.2V290.408H1645.62V290.001H1646.04V289.595H1646.45V288.781H1646.87V288.374H1647.28V287.967H1647.7V287.153H1648.12V286.746H1648.53V286.339H1648.95V285.526H1649.36V285.119H1649.78V284.712H1650.2V284.305H1650.61V283.898H1651.03V283.084H1651.44V282.677H1651.86V282.27H1652.28V281.863H1652.69V281.456H1653.11V281.05H1653.52V280.643H1653.94V279.829H1654.36V279.422H1654.77V279.015H1655.19V278.608H1655.6V278.201H1656.02V277.794H1656.44V277.387H1656.85V276.981H1657.27V276.574H1657.68V276.167H1658.1V275.76H1658.52V275.353H1658.93V274.946H1659.35V274.539H1659.76V274.132H1660.18V273.725H1660.6V273.318H1661.01V272.911H1661.43V272.505H1662.26V272.098H1662.68V271.691H1663.09V271.284H1663.51V270.877H1663.92V270.47H1664.34V270.063H1664.76V269.656H1665.17V269.249H1666V268.842H1666.42V268.435H1666.84V268.029H1667.25V267.622H1668.08V267.215H1668.5V266.808H1668.92V266.401H1669.75V265.994H1670.16V265.587H1670.58V265.18H1671V264.773H1671.83V264.366H1672.24V263.96H1672.66V263.553H1673.49V263.146H1673.91V262.739H1674.74V262.332H1675.16V261.925H1675.99V261.518H1676.4V261.111H1677.24V260.704H1677.65V260.297H1678.48V259.89H1678.9V259.484H1679.73V259.077H1680.56V258.67H1681.4V258.263H1681.81V257.856H1682.64V257.449H1683.48V257.042H1684.31V256.635H1684.72V256.228H1685.56V255.821H1686.39V255.415H1687.22V255.008H1688.05V254.601H1688.88V254.194H1689.72V253.787H1690.55V253.38H1691.38V252.973H1692.21V252.566H1693.04V252.159H1694.29V251.752H1695.12V251.345H1695.96V250.939H1697.2V250.532H1698.04V250.125H1699.28V249.718H1700.12V249.311H1701.36V248.904H1702.61V248.497H1703.86V248.09H1705.11V247.683H1706.36V247.276H1707.6V246.869H1709.27V246.463H1710.93V246.056H1712.6V245.649H1714.26V245.242H1715.92V244.835H1717.59V244.428H1720.08V244.021H1722.16V243.614H1724.66V243.207H1728.4V242.8H1732.56V242.394H1739.22V462.936H1738.8V466.192H1738.39V468.226H1737.97V469.447H1737.55V471.074H1737.14V472.295H1736.72V473.516H1736.31V474.737H1735.89V475.55H1735.47V476.364H1735.06V477.178H1734.64V477.992H1734.23V478.806H1733.81V479.619H1733.39V480.026H1732.98V480.84H1732.56V481.654H1732.15V482.061H1731.73V482.468H1731.31V483.282H1730.9V483.689H1730.48V484.095H1730.07V484.502H1729.65V484.909H1729.23V485.723H1728.82V486.13H1728.4V486.537H1727.99V486.944H1727.57V487.351H1727.15V487.758H1726.74V488.164H1726.32V488.571H1725.91V488.978H1725.07V489.385H1724.66V489.792H1724.24V490.199H1723.83V490.606H1723.41V491.013H1722.58V491.42H1722.16V491.827H1721.75V492.234H1720.91V492.64H1720.08V493.047H1719.25V493.454H1718.83V493.861H1718V494.268H1717.17V494.675H1716.34V495.082H1715.51V495.489H1714.67V495.896H1713.43V496.303H1712.18V496.709H1710.52V497.116H1709.27V497.523H1708.02V497.93H1705.52V498.337H1702.2V498.744" fill="url(#paint3_linear_14_1088)"/>
</g>
</g>
</g>
</g>
<defs>
<linearGradient id="paint0_linear_14_1088" x1="545.341" y1="194.952" x2="483.961" y2="676.038" gradientUnits="userSpaceOnUse">
<stop stop-color="#1C1D44"/>
<stop offset="0.553191" stop-color="#F03187"/>
<stop offset="1" stop-color="#EDA523"/>
</linearGradient>
<linearGradient id="paint1_linear_14_1088" x1="266.766" y1="325.373" x2="212.175" y2="642.791" gradientUnits="userSpaceOnUse">
<stop stop-color="#1C1D44"/>
<stop offset="0.553191" stop-color="#F03187"/>
<stop offset="1" stop-color="#EDA523"/>
</linearGradient>
<linearGradient id="paint2_linear_14_1088" x1="1020.84" y1="273.139" x2="1089.15" y2="559.488" gradientUnits="userSpaceOnUse">
<stop stop-color="#1C1D44"/>
<stop offset="0.553191" stop-color="#F03187"/>
<stop offset="1" stop-color="#EDA523"/>
</linearGradient>
<linearGradient id="paint3_linear_14_1088" x1="1378.58" y1="316.027" x2="1450.25" y2="685.891" gradientUnits="userSpaceOnUse">
<stop stop-color="#1C1D44"/>
<stop offset="0.553191" stop-color="#F03187"/>
<stop offset="1" stop-color="#EDA523"/>
</linearGradient>
</defs>
</svg>
