<svg width="695" height="216" viewBox="0 0 695 216" fill="none" xmlns="http://www.w3.org/2000/svg">
<mask id="mask0_14_424" style="mask-type:luminance" maskUnits="userSpaceOnUse" x="0" y="0" width="709" height="257">
<path d="M708.881 0.426147C663.192 0.426147 623.552 25.6909 603.705 62.7031C599.283 62.0642 594.761 61.7265 590.165 61.7265C546.747 61.7265 510.327 90.9504 500.305 130.384C488.982 122.343 475.05 117.586 459.983 117.586C451.047 117.586 442.52 119.275 434.686 122.311C419.735 92.0287 388.041 71.1382 351.362 71.1382C301.576 71.1382 261 109.623 258.982 157.829H258.883C245.741 157.829 233.511 161.63 223.248 168.145C215.232 125.908 177.402 93.9168 131.904 93.9168C81.1069 93.9168 39.8568 133.785 39.0165 183.273C16.8273 189.23 0.520386 209.083 0.520386 232.676C0.520386 241.408 2.75838 249.623 6.69369 256.817H708.881V0.426147Z" fill="white"/>
</mask>
<g mask="url(#mask0_14_424)">
<path d="M6.09871 256.744V255.93H5.68272V255.116H5.26672V254.303H4.85073V253.082H4.43473V252.268H4.01874V251.454H3.60274V249.827H3.18675V248.606H2.77075V247.385H2.35476V246.164H1.93876V244.537H1.52277V242.502H1.10677V240.061H0.690776V236.399H0.27478V228.668H0.690776V225.005H1.10677V222.971H1.52277V221.343H1.93876V219.716H2.35476V218.088H2.77075V216.46H3.18675V215.24H3.60274V214.426H4.01874V213.205H4.43473V212.391H4.85073V211.578H5.26672V210.764H5.68272V209.543H6.09871V208.729H6.51471V207.915H6.9307V207.102H7.3467V206.695H7.76269V205.881H8.17869V205.474H8.59468V204.66H9.01068V204.253H9.42668V203.439H9.84267V203.032H10.2587V202.219H10.6747V201.812H11.0907V200.998H11.5067V200.591H11.9226V200.184H12.3386V199.777H12.7546V199.37H13.1706V198.963H13.5866V198.557H14.0026V198.15H14.4186V197.336H14.8346V196.929H15.2506V196.522H15.6666V196.115H16.0826V195.708H16.4986V195.301H16.9146V194.894H17.3306V194.487H17.7466V194.081H18.5786V193.674H18.9946V193.267H19.4106V192.86H19.8266V192.453H20.6585V192.046H21.0745V191.639H21.4905V191.232H21.9065V190.825H22.7385V190.418H23.1545V190.012H23.5705V189.605H24.4025V189.198H25.2345V188.791H26.0665V188.384H26.8985V187.977H27.3145V187.57H28.1465V187.163H28.9785V186.756H29.8104V186.349H30.2264V185.942H31.4744V185.536H32.3064V185.129H33.5544V184.722H34.3864V184.315H35.6344V183.908H36.4664V183.501H38.1303V183.094H38.9623V176.991H39.3783V172.921H39.7943V170.48H40.2103V168.039H40.6263V165.597H41.0423V163.97H41.4583V162.342H41.8743V161.121H42.2903V159.494H42.7063V157.866H43.1223V156.645H43.5383V155.425H43.9543V154.204H44.3703V153.39H44.7863V152.169H45.2023V150.949H45.6183V150.135H46.0343V148.914H46.4503V148.1H46.8662V147.286H47.2822V146.473H47.6982V145.659H48.1142V144.845H48.5302V144.031H48.9462V143.217H49.3622V142.404H49.7782V141.59H50.1942V140.776H50.6102V139.962H51.0262V139.148H51.4422V138.741H51.8582V137.928H52.2742V137.114H52.6902V136.707H53.1062V135.893H53.5222V135.486H53.9382V134.672H54.3542V133.859H54.7702V133.452H55.1862V132.638H55.6021V132.231H56.0181V131.824H56.4341V131.01H56.8501V130.603H57.2661V130.196H57.6821V129.383H58.0981V128.976H58.5141V128.569H58.9301V128.162H59.3461V127.348H59.7621V126.941H60.1781V126.534H60.5941V125.72H61.0101V125.314H61.4261V124.907H61.8421V124.5H62.2581V124.093H62.6741V123.686H63.0901V123.279H63.5061V122.872H63.9221V122.465H64.3381V122.058H64.754V121.651H65.17V121.244H65.586V120.431H66.002V120.024H66.418V119.617H66.834V119.21H67.666V118.803H68.082V118.396H68.498V117.989H68.914V117.582H69.33V117.175H69.746V116.769H70.162V116.362H70.578V115.955H70.994V115.548H71.826V115.141H72.242V114.734H72.658V114.327H73.0739V113.92H73.4899V113.513H74.3219V113.106H74.7379V112.699H75.1539V112.293H75.9859V111.886H76.4019V111.479H76.8179V111.072H77.6499V110.665H78.0659V110.258H78.4819V109.851H79.3139V109.444H79.7299V109.037H80.5619V108.63H80.9779V108.223H81.8098V107.817H82.6418V107.41H83.0578V107.003H83.8898V106.596H84.7218V106.189H85.1378V105.782H85.9698V105.375H86.8018V104.968H87.2178V104.561H88.0498V104.154H88.8818V103.748H89.7138V103.341H90.5457V102.934H91.3777V102.527H92.6257V102.12H93.4577V101.713H94.2897V101.306H95.1217V100.899H95.9537V100.492H97.2017V100.085H98.0337V99.6785H99.2816V99.2716H100.53V98.8647H101.778V98.4578H103.026V98.0509H103.858V97.644H105.522V97.237H107.186V96.8301H108.85V96.4232H110.514V96.0163H112.177V95.6094H113.841V95.2025H116.753V94.7956H119.665V94.3887H122.161V93.9818H128.401V93.5749H135.473V93.9818H141.297V94.3887H144.209V94.7956H147.537V95.2025H150.033V95.6094H151.697V96.0163H153.361V96.4232H155.441V96.8301H157.105V97.237H158.353V97.644H159.601V98.0509H160.849V98.4578H162.097V98.8647H163.345V99.2716H164.593V99.6785H165.841V100.085H166.673V100.492H167.505V100.899H168.753V101.306H169.585V101.713H170.417V102.12H171.665V102.527H172.497V102.934H173.329V103.341H174.161V103.748H174.993V104.154H175.409V104.561H176.241V104.968H177.073V105.375H177.905V105.782H178.737V106.189H179.569V106.596H179.985V107.003H180.817V107.41H181.233V107.817H182.065V108.223H182.481V108.63H183.313V109.037H184.145V109.444H184.561V109.851H185.393V110.258H185.809V110.665H186.225V111.072H187.057V111.479H187.473V111.886H187.889V112.293H188.721V112.699H189.137V113.106H189.553V113.513H189.969V113.92H190.801V114.327H191.217V114.734H191.633V115.141H192.049V115.548H192.881V115.955H193.297V116.362H193.713V116.769H194.129V117.175H194.545V117.582H194.961V117.989H195.377V118.396H195.793V118.803H196.209V119.21H196.625V119.617H197.041V120.024H197.873V120.838H198.289V121.244H198.705V121.651H199.12V122.058H199.536V122.465H199.952V122.872H200.368V123.279H200.784V123.686H201.2V124.093H201.616V124.5H202.032V124.907H202.448V125.314H202.864V126.127H203.28V126.534H203.696V126.941H204.112V127.348H204.528V128.162H204.944V128.569H205.36V128.976H205.776V129.789H206.192V130.196H206.608V130.603H207.024V131.01H207.44V131.824H207.856V132.231H208.272V133.045H208.688V133.452H209.104V134.265H209.52V134.672H209.936V135.486H210.352V135.893H210.768V136.707H211.184V137.114H211.6V137.928H212.016V138.741H212.432V139.148H212.848V139.962H213.264V140.776H213.68V141.59H214.096V142.404H214.512V143.217H214.928V144.031H215.344V144.845H215.76V145.659H216.176V146.473H216.592V147.286H217.008V148.507H217.424V149.321H217.84V150.135H218.256V151.355H218.672V152.169H219.088V153.39H219.504V154.611H219.92V155.831H220.336V157.052H220.752V158.273H221.168V159.494H221.584V160.714H222V162.342H222.416V163.97H222.832V166.004H223.248V167.632H223.664V167.225H224.496V166.818H225.328V166.411H226.16V166.004H226.576V165.597H227.408V165.19H228.24V164.783H229.072V164.376H229.904V163.97H230.736V163.563H231.568V163.156H232.816V162.749H234.064V162.342H234.896V161.935H236.144V161.528H236.976V161.121H238.224V160.714H239.472V160.307H240.72V159.901H242.8V159.494H244.464V159.087H246.544V158.68H248.208V158.273H251.536V157.866H255.696V157.459H258.608V156.645H259.024V152.169H259.44V148.507H259.856V146.473H260.272V144.031H260.688V141.997H261.104V139.962H261.52V138.741H261.936V137.114H262.352V135.893H262.768V134.265H263.184V133.045H263.6V131.824H264.016V130.603H264.432V129.789H264.848V128.569H265.264V127.755H265.68V126.534H266.096V125.72H266.512V124.5H266.928V123.686H267.344V122.872H267.76V122.058H268.176V121.244H268.592V120.431H269.008V119.617H269.424V118.803H269.84V117.989H270.256V117.175H270.672V116.362H271.088V115.955H271.504V115.141H271.92V114.734H272.336V113.92H272.752V113.106H273.168V112.699H273.584V111.886H274V111.479H274.416V110.665H274.832V110.258H275.248V109.444H275.664V109.037H276.08V108.223H276.496V107.817H276.912V107.41H277.328V107.003H277.744V106.189H278.16V105.782H278.576V105.375H278.992V104.561H279.408V104.154H279.824V103.748H280.24V103.341H280.656V102.527H281.072V102.12H281.488V101.713H281.904V101.306H282.32V100.899H282.736V100.492H283.152V100.085H283.568V99.6785H283.984V99.2716H284.4V98.8647H284.816V98.4578H285.232V98.0509H285.648V97.237H286.064V96.8301H286.479V96.4232H286.896V96.0163H287.311V95.6094H288.143V95.2025H288.559V94.7956H288.975V94.3887H289.391V93.9818H289.807V93.5749H290.223V93.168H290.639V92.7611H291.471V92.3542H291.887V91.9473H292.303V91.5404H292.719V91.1335H293.135V90.7266H293.551V90.3197H294.383V89.9128H294.799V89.5058H295.631V89.0989H296.047V88.692H296.463V88.2851H297.295V87.8782H297.711V87.4713H298.127V87.0644H298.959V86.6575H299.375V86.2506H300.207V85.8437H300.623V85.4368H301.455V85.0299H301.871V84.623H302.703V84.2161H303.535V83.8092H303.951V83.4023H304.783V82.9954H305.615V82.5885H306.447V82.1815H306.863V81.7746H307.695V81.3677H308.527V80.9608H309.359V80.5539H310.191V80.147H311.023V79.7401H311.855V79.3332H312.687V78.9263H313.935V78.5194H314.767V78.1125H315.599V77.7056H316.431V77.2987H317.679V76.8918H318.927V76.4849H320.175V76.078H321.423V75.6711H322.255V75.2641H323.503V74.8572H324.751V74.4503H326.415V74.0434H328.079V73.6365H329.743V73.2296H331.407V72.8227H333.487V72.4158H336.399V72.0089H338.895V71.602H341.807V71.1951H348.047V70.7882H354.287V71.1951H360.527V71.602H364.271V72.0089H366.767V72.4158H369.263V72.8227H371.343V73.2296H373.007V73.6365H374.671V74.0434H376.334V74.4503H377.998V74.8572H379.246V75.2641H380.494V75.6711H381.742V76.078H382.99V76.4849H384.238V76.8918H385.07V77.2987H385.902V77.7056H387.15V78.1125H387.982V78.5194H389.23V78.9263H390.062V79.3332H390.894V79.7401H391.726V80.147H392.558V80.5539H393.39V80.9608H394.222V81.3677H395.054V81.7746H395.886V82.1815H396.718V82.5885H397.134V82.9954H397.966V83.4023H398.798V83.8092H399.214V84.2161H400.046V84.623H400.878V85.0299H401.294V85.4368H402.126V85.8437H402.542V86.2506H403.374V86.6575H403.79V87.0644H404.622V87.4713H405.038V87.8782H405.87V88.2851H406.286V88.692H406.702V89.0989H407.534V89.5058H407.95V89.9128H408.366V90.3197H408.782V90.7266H409.614V91.1335H410.03V91.5404H410.446V91.9473H410.862V92.3542H411.694V92.7611H412.11V93.168H412.526V93.5749H412.942V93.9818H413.358V94.3887H413.774V94.7956H414.19V95.2025H414.606V95.6094H415.022V96.0163H415.854V96.4232H416.27V96.8301H416.686V97.237H417.102V97.644H417.518V98.4578H417.934V98.8647H418.35V99.2716H418.766V99.6785H419.182V100.085H419.598V100.492H420.014V100.899H420.43V101.306H420.846V101.713H421.262V102.12H421.678V102.527H422.094V103.341H422.51V103.748H422.926V104.154H423.342V104.561H423.758V104.968H424.174V105.782H424.59V106.189H425.006V106.596H425.422V107.41H425.838V107.817H426.254V108.223H426.67V109.037H427.086V109.444H427.502V110.258H427.918V110.665H428.334V111.072H428.75V111.886H429.166V112.699H429.582V113.106H429.998V113.92H430.414V114.734H430.83V115.141H431.246V115.955H431.662V116.362H432.078V117.175H432.494V117.989H432.91V118.803H433.326V119.617H433.742V120.431H434.158V120.838H434.574V122.058H434.99V121.651H436.238V121.244H437.486V120.838H438.734V120.431H439.982V120.024H441.646V119.617H443.31V119.21H444.974V118.803H446.638V118.396H449.55V117.989H452.462V117.582H466.605V117.989H470.765V118.396H472.845V118.803H474.509V119.21H476.173V119.617H477.837V120.024H479.501V120.431H481.165V120.838H482.413V121.244H483.245V121.651H484.493V122.058H485.325V122.465H486.573V122.872H487.405V123.279H488.237V123.686H489.485V124.093H490.317V124.5H491.149V124.907H491.981V125.314H492.813V125.72H493.645V126.127H494.061V126.534H494.893V126.941H495.725V127.348H496.557V127.755H496.973V128.162H497.805V128.569H498.637V128.976H499.053V129.383H499.469V129.789H500.301V128.569H500.717V127.348H501.133V125.72H501.549V124.5H501.965V123.279H502.381V122.058H502.797V121.244H503.213V120.024H503.629V118.803H504.045V117.989H504.461V116.769H504.877V115.955H505.293V115.141H505.709V114.327H506.125V113.513H506.541V112.699H506.957V111.479H507.373V110.665H507.789V109.851H508.205V109.037H508.621V108.63H509.037V107.817H509.453V107.003H509.869V106.596H510.285V105.782H510.701V104.968H511.117V104.561H511.533V103.748H511.949V102.934H512.365V102.527H512.781V101.713H513.197V101.306H513.613V100.492H514.029V100.085H514.445V99.6785H514.861V98.8647H515.277V98.4578H515.693V97.644H516.109V97.237H516.525V96.8301H516.941V96.0163H517.357V95.6094H517.773V95.2025H518.189V94.7956H518.605V94.3887H519.021V93.5749H519.437V93.168H519.853V92.7611H520.269V92.3542H520.685V91.9473H521.101V91.1335H521.517V90.7266H521.933V90.3197H522.349V89.9128H522.765V89.5058H523.181V89.0989H523.597V88.692H524.013V88.2851H524.429V87.8782H524.845V87.4713H525.261V87.0644H525.677V86.6575H526.093V86.2506H526.509V85.8437H526.925V85.4368H527.757V85.0299H528.173V84.623H528.589V84.2161H529.005V83.8092H529.421V83.4023H529.837V82.9954H530.253V82.5885H531.085V82.1815H531.501V81.7746H531.917V81.3677H532.333V80.9608H532.749V80.5539H533.581V80.147H533.997V79.7401H534.829V79.3332H535.245V78.9263H535.661V78.5194H536.493V78.1125H536.909V77.7056H537.325V77.2987H538.157V76.8918H538.573V76.4849H539.405V76.078H539.821V75.6711H540.653V75.2641H541.485V74.8572H541.901V74.4503H542.733V74.0434H543.565V73.6365H543.981V73.2296H544.813V72.8227H545.645V72.4158H546.477V72.0089H547.309V71.602H548.141V71.1951H548.972V70.7882H549.805V70.3813H550.636V69.9744H551.468V69.5675H552.3V69.1606H553.132V68.7537H554.38V68.3468H555.212V67.9398H556.46V67.5329H557.292V67.126H558.54V66.7191H559.788V66.3122H561.036V65.9053H562.284V65.4984H563.532V65.0915H565.196V64.6846H566.444V64.2777H568.108V63.8708H570.188V63.4639H572.268V63.057H573.932V62.6501H577.26V62.2432H580.588V61.8363H585.996V61.4294H594.732V61.8363H599.308V62.2432H603.884V61.4294H604.3V60.6156H604.716V59.8017H605.132V59.3948H605.548V58.581H605.964V57.7672H606.38V56.9534H606.796V56.5465H607.212V55.7327H607.628V55.3258H608.044V54.512H608.46V53.6982H608.876V53.2913H609.292V52.4774H609.708V52.0705H610.124V51.2567H610.54V50.8498H610.956V50.036H611.372V49.6291H611.788V48.8153H612.204V48.4084H612.62V48.0015H613.036V47.5946H613.452V46.7808H613.868V46.3739H614.284V45.9669H614.7V45.1531H615.116V44.7462H615.532V44.3393H615.948V43.5255H616.364V43.1186H616.78V42.7117H617.196V42.3048H617.612V41.8979H618.028V41.0841H618.444V40.6772H618.86V40.2703H619.276V39.8634H619.692V39.4565H620.108V39.0496H620.524V38.6427H620.94V37.8288H621.356V37.4219H621.772V37.015H622.188V36.6081H622.604V36.2012H623.02V35.7943H623.436V35.3874H623.852V34.9805H624.268V34.5736H624.684V34.1667H625.1V33.7598H625.516V33.3529H625.932V32.946H626.348V32.5391H626.764V32.1322H627.18V31.7253H627.596V31.3184H628.012V30.9115H628.428V30.5045H629.26V30.0976H629.676V29.6907H630.092V29.2838H630.508V28.8769H630.924V28.47H631.34V28.0631H631.756V27.6562H632.172V27.2493H633.004V26.8424H633.42V26.4355H633.836V26.0286H634.252V25.6217H635.083V25.2148H635.5V24.8079H635.916V24.401H636.747V23.994H637.164V23.5871H637.579V23.1802H637.995V22.7733H638.827V22.3664H639.243V21.9595H639.659V21.5526H640.491V21.1457H640.907V20.7388H641.739V20.3319H642.155V19.925H642.987V19.5181H643.403V19.1112H644.235V18.7043H644.651V18.2974H645.483V17.8905H645.899V17.4836H646.731V17.0767H647.563V16.6698H648.395V16.2628H648.811V15.8559H649.643V15.449H650.475V15.0421H651.307V14.6352H651.723V14.2283H652.555V13.8214H653.387V13.4145H654.219V13.0076H655.051V12.6007H655.883V12.1938H656.715V11.7869H657.547V11.38H658.379V10.9731H659.211V10.5662H660.043V10.1593H661.291V9.75237H662.123V9.34546H662.955V8.93855H664.203V8.53165H665.035V8.12474H666.283V7.71783H667.115V7.31093H668.363V6.90402H669.611V6.49712H670.859V6.09021H672.107V5.6833H673.355V5.2764H674.603V4.86949H676.267V4.46259H677.931V4.05568H679.595V3.64877H681.259V3.24187H682.923V2.83496H684.587V2.42805H687.083V2.02115H689.163V1.61424H691.659V1.20735H695.403V0.800446H699.563V0.393524H706.219V220.936H705.803V224.192H705.387V226.226H704.971V227.447H704.555V229.074H704.139V230.295H703.723V231.516H703.307V232.737H702.891V233.55H702.475V234.364H702.059V235.178H701.643V235.992H701.227V236.806H700.811V237.619H700.395V238.026H699.979V238.84H699.563V239.654H699.147V240.061H698.731V240.468H698.315V241.282H697.899V241.689H697.483V242.095H697.067V242.502H696.651V242.909H696.235V243.723H695.819V244.13H695.403V244.537H694.987V244.944H694.571V245.351H694.155V245.758H693.739V246.164H693.323V246.571H692.907V246.978H692.075V247.385H691.659V247.792H691.243V248.199H690.827V248.606H690.411V249.013H689.579V249.42H689.163V249.827H688.747V250.234H687.915V250.64H687.083V251.047H686.251V251.454H685.835V251.861H685.003V252.268H684.171V252.675H683.339V253.082H682.507V253.489H681.675V253.896H680.427V254.303H679.179V254.709H677.515V255.116H676.267V255.523H675.019V255.93H672.523V256.337H669.195V256.744" fill="url(#paint0_linear_14_424)"/>
</g>
<defs>
<linearGradient id="paint0_linear_14_424" x1="345.576" y1="74.0272" x2="417.249" y2="443.891" gradientUnits="userSpaceOnUse">
<stop stop-color="#1C1D44"/>
<stop offset="0.553191" stop-color="#F03187"/>
<stop offset="1" stop-color="#EDA523"/>
</linearGradient>
</defs>
</svg>
