<svg width="128" height="128" viewBox="0 0 128 128" fill="none" xmlns="http://www.w3.org/2000/svg">
<path d="M67.1617 128C22.2601 128 17.0385 98.0984 21.7375 77.9016C21.7375 77.9016 27.4811 88.3937 31.9191 90.2292C31.9191 90.2292 23.8261 70.8197 31.6582 55.0819C31.6582 55.0819 35.3126 57.967 35.8352 62.9505C36.3571 67.9346 41.8391 68.1968 41.8391 68.1968C41.8391 68.1968 36.0962 49.8362 44.1886 39.3441C52.2817 28.8527 53.8483 14.426 53.8483 14.426C53.8483 14.426 62.4627 30.6883 61.1577 39.8686C61.1577 39.8686 71.0778 23.6063 67.4233 0C67.4233 0 84.1308 17.0489 83.6089 35.4095C83.0863 53.7702 83.0862 54.8197 85.4364 59.2787C85.4364 59.2787 90.1354 55.6063 92.2239 41.967C92.2239 41.967 101.099 58.2292 97.7059 68.7213C94.3118 79.2133 94.8344 86.8197 94.8344 86.8197C94.8344 86.8197 100.838 83.6724 103.449 73.7048C103.449 73.7048 125.9 128 67.1617 128Z" fill="#EF3B2E"/>
<path d="M62.7237 121.18C32.7021 121.18 28.7861 95.2133 28.7861 95.2133C28.7861 95.2133 34.2686 94.6882 37.9237 98.3606C37.9237 98.3606 32.4411 80 34.2686 72.1308C34.2686 72.1308 37.6621 77.1149 40.7952 77.6393C43.9277 78.1638 47.5827 78.1638 49.1493 80C49.1493 80 39.7506 56.3936 52.2817 40.1308C52.2817 40.1308 55.9362 42.7543 57.2417 53.7701C57.2417 53.7701 70.8168 44.852 72.6443 27.0165C72.6443 27.0165 78.6489 33.0489 77.3433 46.426C76.0378 59.8031 82.5643 68.7212 82.5643 68.7212C82.5643 68.7212 87.5249 67.9346 90.1354 62.6882C90.1354 62.6882 92.7459 67.9346 90.3964 76.8526C88.0469 85.7701 90.9184 95.2133 90.9184 95.2133C90.9184 95.2133 96.6613 94.1638 99.7944 89.967C99.7944 89.967 106.582 121.18 62.7237 121.18Z" fill="#F57D17"/>
<path d="M66.6397 114.623C41.3172 114.623 41.5781 102.295 41.5781 102.295C41.5781 102.295 45.7552 100.983 49.4102 103.082C49.4102 103.082 41.5782 94.426 42.8837 87.0819C42.8837 87.0819 50.1932 85.5079 54.6312 87.8686C54.6312 87.8686 50.7152 73.7048 54.6312 63.4755C54.6312 63.4755 58.2863 64.5244 61.1578 68.1968C61.1578 68.1968 67.4233 59.8032 70.2948 49.0489C70.2948 49.0489 76.5603 59.2787 75.5158 78.9505C75.5158 78.9505 80.4758 77.6394 82.8253 75.0165C82.8253 75.0165 83.8698 91.8032 79.9538 100.983C79.9538 100.983 85.1748 100.459 88.3079 98.6228C88.3079 98.6228 87.5249 114.623 66.6397 114.623Z" fill="#FAD820"/>
<path d="M65.3749 111.11C52.022 111.11 52.1596 104.609 52.1596 104.609C52.1596 104.609 54.3622 103.918 56.2891 105.024C56.2891 105.024 52.1596 100.46 52.8475 96.5871C52.8475 96.5871 56.7018 95.7576 59.0421 97.0024C59.0421 97.0024 56.9776 89.533 59.0421 84.1392C59.0421 84.1392 60.9696 84.6921 62.4837 86.6287C62.4837 86.6287 65.7877 82.2025 67.3018 76.5322C67.3018 76.5322 70.6058 81.9261 70.0554 92.2997C70.0554 92.2997 72.6708 91.6079 73.9098 90.2249C73.9098 90.2249 74.4601 99.0766 72.3957 103.918C72.3957 103.918 75.1487 103.641 76.8004 102.673C76.8004 102.673 76.3876 111.11 65.3749 111.11Z" fill="#FAF780"/>
</svg>
