<svg width="128" height="128" viewBox="0 0 128 128" fill="none" xmlns="http://www.w3.org/2000/svg">
<path d="M67.064 127.91C21.4739 130.482 4.38448 77.1438 33.0297 37.7211C33.0297 37.7211 33.0297 51.0508 38.9858 53.6036C44.9419 56.1557 46.927 45.3788 42.6732 34.3178C38.4188 23.2567 48.0617 5.38908 58.5551 0C58.5551 0 55.1518 21.8386 61.959 24.9584C68.7656 28.0782 66.7805 13.6138 66.7805 13.6138C66.7805 13.6138 80.1102 25.2419 80.6772 42.826C81.2448 60.4102 93.4398 55.5887 93.1563 41.4079C93.1563 41.4079 142.505 123.657 67.064 127.91Z" fill="#EF3B2E"/>
<path d="M67.9146 121.387C31.9256 126.148 19.7001 86.2191 31.3281 62.963C31.3281 62.963 37.5677 72.3224 46.0766 66.6498C54.5849 60.9778 55.7195 51.0508 51.7486 39.1392C47.7783 27.227 52.8832 21.2716 52.8832 21.2716C52.8832 21.2716 54.0179 37.7211 62.2426 35.7359C70.4674 33.7501 69.9004 29.4963 69.9004 29.4963C69.9004 29.4963 73.3036 35.7359 74.4377 48.7821C75.5723 61.8283 84.6482 69.7696 90.8878 60.4102C90.8878 60.4102 121.518 114.297 67.9146 121.387Z" fill="#F57D17"/>
<path d="M71.8854 115.148C49.3986 123.783 31.6122 94.4438 33.3138 78.8454C33.3138 78.8454 37.0006 83.3834 47.2105 79.1289C57.4211 74.8745 61.959 63.53 61.3914 54.4541C60.8244 45.3788 64.7947 41.4079 64.7947 41.4079C64.7947 41.4079 68.1986 76.8596 77.2739 77.4273C86.3498 77.9943 88.0514 69.7695 88.0514 69.7695C88.0514 69.7695 107.337 101.535 71.8854 115.148Z" fill="#FAD820"/>
<path d="M69.3631 111.296C55.4075 116.465 44.3686 98.9031 45.4246 89.5653C45.4246 89.5653 47.7129 92.2817 54.0496 89.7352C60.3862 87.1888 63.2022 80.3981 62.8502 74.9652C62.4982 69.5323 64.9628 67.1559 64.9628 67.1559C64.9628 67.1559 67.0748 88.3773 72.7075 88.7167C78.3401 89.056 79.3961 84.1331 79.3961 84.1331C79.3961 84.1331 91.3654 103.147 69.3631 111.296Z" fill="#FAF780"/>
</svg>
