<svg width="128" height="128" viewBox="0 0 128 128" fill="none" xmlns="http://www.w3.org/2000/svg">
<path d="M65.8956 128C26.0691 128 21.9769 91.7593 29.6149 75.8234C37.253 59.8876 27.9786 42.924 27.9786 42.924C27.9786 42.924 40.2538 48.0645 41.6177 58.0884C41.6177 58.0884 53.0747 43.9517 45.9823 31.8717C38.89 19.7917 47.6187 3.8558 54.7117 0C54.7117 0 54.7117 19.0202 62.8954 24.6752C71.0784 30.3295 71.3516 40.6104 71.3516 40.6104C71.3516 40.6104 74.3524 28.0165 86.3551 24.4176C86.3551 24.4176 80.8991 42.4095 89.901 58.0884C98.9029 73.7674 119.908 128 65.8956 128Z" fill="#EF3B2E"/>
<path d="M65.8899 121.217C34.1261 121.217 29.7446 94.6559 34.6736 83.9765C39.6027 73.2971 39.6027 61.7964 39.6027 61.7964C39.6027 61.7964 44.2574 67.273 45.0793 73.5709C45.0793 73.5709 56.58 56.046 56.58 45.6404C56.58 35.2348 51.3772 31.4014 54.1154 25.3773C54.1154 25.3773 56.58 31.6752 61.509 34.1397C66.4375 36.6042 69.7239 50.8432 69.9977 57.4149C69.9977 57.4149 73.2835 46.188 77.9388 43.4497C77.9388 43.4497 79.3076 56.5936 85.3317 65.9035C91.3558 75.2141 107.786 121.217 65.8899 121.217Z" fill="#F57D17"/>
<path d="M63.9861 114.335C38.0512 114.335 38.8881 91.1898 42.2344 82.8234C42.2344 82.8234 45.5807 84.7753 46.9751 89.2373C46.9751 89.2373 61.476 71.9476 62.3129 53.8216C62.3129 53.8216 68.1687 63.303 69.5631 71.9476C69.5631 71.9476 72.0731 64.1393 75.9769 60.793C75.9769 60.793 76.5351 68.88 81.2758 76.4095C86.0165 83.9391 95.4979 114.335 63.9861 114.335Z" fill="#FAD820"/>
<path d="M63.0893 109.991C48.1301 109.991 48.6127 96.6396 50.5428 91.8141C50.5428 91.8141 52.4735 92.9403 53.2774 95.514C53.2774 95.514 61.6419 85.5412 62.1246 75.0856C62.1246 75.0856 65.5027 80.5547 66.3066 85.5412C66.3066 85.5412 67.7546 81.0374 70.0065 79.1067C70.0065 79.1067 70.3282 83.772 73.0628 88.1148C75.7973 92.4577 81.2658 109.991 63.0893 109.991Z" fill="#FAF780"/>
</svg>
