<svg width="128" height="128" viewBox="0 0 128 128" fill="none" xmlns="http://www.w3.org/2000/svg">
<path d="M67.8461 127.996C15.1711 127.503 3.84889 82.2124 36.3396 34.953C36.3396 34.953 40.7703 39.8754 42.7394 44.3061C42.7394 44.3061 52.5857 10.338 68.3386 7.62939e-06C68.3386 7.62939e-06 82.1231 28.5532 85.0764 42.337C85.0764 42.337 87.538 35.9372 90.9837 30.5223C90.9837 30.5223 146.156 128.728 67.8461 127.996Z" fill="#EF3B2E"/>
<path d="M64.8928 119.135C21.0784 119.135 21.5709 79.7509 36.3396 54.1517C36.3396 54.1517 40.2779 56.6133 42.7394 60.5515C42.7394 60.5515 55.0465 25.1068 64.4004 18.2145C64.4004 18.2145 78.1841 44.7986 82.1231 56.6133C82.1231 56.6133 87.0455 49.2293 89.9996 46.7677C89.9996 46.7677 131.352 119.135 64.8928 119.135Z" fill="#F57D17"/>
<path d="M64.7688 111.75C30.9328 111.75 37.7003 81.072 41.3097 72.4998C41.3097 72.4998 45.8211 74.7559 47.6258 78.3653C47.6258 78.3653 52.5879 52.1988 63.8668 43.1752C63.8668 43.1752 77.4011 64.8303 80.1085 73.4025C80.1085 73.4025 85.0705 68.8911 87.778 67.5378C87.778 67.5378 107.177 111.75 64.7688 111.75Z" fill="#FAD820"/>
<path d="M64.9442 106.329C44.4201 106.329 48.5249 87.7206 50.7142 82.5215C50.7142 82.5215 53.451 83.8895 54.5453 86.0788C54.5453 86.0788 57.5558 70.207 64.3967 64.7342C64.3967 64.7342 72.6063 77.8692 74.2489 83.0683C74.2489 83.0683 77.2587 80.3322 78.9005 79.5109C78.9005 79.5109 90.6674 106.329 64.9442 106.329Z" fill="#FAF780"/>
</svg>
