<svg width="128" height="128" viewBox="0 0 128 128" fill="none" xmlns="http://www.w3.org/2000/svg">
<g clip-path="url(#clip0_2_515)">
<path d="M126.942 63.9108C126.942 77.6417 127.686 89.9929 115.763 98.9349C111.377 102.225 105.071 113.33 100.857 116.82C89.8929 125.912 75.2261 128 59.8707 128C46.0457 128 39.7311 120.613 29.3176 113.095C23.2621 108.724 15.2571 105.521 11.071 99.3269C6.93314 93.1996 8.01147 86.207 6.21506 78.8153C5.0461 74.0053 1.5404 67.566 0.997712 62.4205C-0.492625 48.2611 3.79237 43.3863 7.69362 34.0958C17.3938 11.0003 22.3062 18.6851 29.3176 13.2346C34.2371 9.41226 35.1766 6.92837 41.1014 4.67638C48.0928 2.01944 55.9106 -1.35559 63.5977 0.565605C78.5011 4.29263 86.4884 0.648018 95.6423 5.78297C104.329 10.6554 106.075 24.4145 116.193 28.5971C123.823 31.7532 129.175 46.7708 126.69 50.5095C124.162 54.3037 126.942 59.7164 126.942 63.9108Z" fill="#00D277"/>
<path d="M40.4893 23.8895C38.0325 26.5535 37.1319 29.2434 36.8094 33.0046C36.5563 35.9606 39.1155 38.0159 41.4417 38.1949C43.8596 38.3797 45.5995 39.7135 48.1246 39.6723C51.0029 39.624 53.7069 39.6581 56.5216 38.9389C62.151 37.5027 67.7933 34.1206 72.0206 29.8085C75.0684 26.7007 74.9012 22.8842 75.3863 18.6475C75.6853 16.027 77.8725 13.0828 78.8884 10.719C80.0044 8.12091 80.5212 5.44278 80.4741 2.59867C75.7783 2.43268 70.4149 2.27023 63.5978 0.565639C55.9107 -1.35555 48.0928 2.01947 41.1014 4.67641C40.2656 4.99426 39.537 5.31799 38.8742 5.64761C40.9731 8.38107 44.2858 10.5683 44.6907 14.6461C45.0757 18.5262 42.6966 21.4963 40.4893 23.8895Z" fill="#2A936B"/>
<path d="M24.663 53.9823C30.6961 56.7605 35.2177 58.272 41.8313 57.9589C44.7978 57.8188 47.4301 57.0136 50.2647 56.1566C52.9252 55.3525 55.7011 55.4514 58.3804 54.784C59.8024 54.4285 61.2633 54.5438 62.7278 54.658C64.0839 54.7651 65.4436 54.8723 66.7774 54.6039C69.6721 54.0223 72.4503 53.1818 75.1378 51.9422C80.3046 49.5619 86.1753 46.281 88.7557 40.9825C92.863 32.5572 98.8314 21.3044 96.3169 11.6643C96.0779 10.7437 94.823 10.8308 94.544 11.6643C93.0548 16.1141 92.4521 20.797 90.9747 25.2786C88.9864 31.3106 87.0511 33.2365 81.842 36.4585C77.9702 38.8541 74.4398 41.6852 70.4302 43.8866C65.785 46.4376 61.0408 45.4676 56.159 46.7295C52.339 47.716 48.2788 47.8408 44.3881 48.8862C39.0966 50.3071 32.7033 46.3929 28.0192 44.3198C23.753 42.4316 19.448 40.3256 15.7775 37.4108C13.3077 35.4484 11.3629 32.9528 9.21456 30.6478C8.72013 31.7191 8.21511 32.8551 7.69361 34.0958C6.74125 36.3643 5.76653 38.3679 4.85773 40.3091C10.0045 46.4388 17.2925 50.5908 24.663 53.9823Z" fill="#2A936B"/>
<path d="M103.279 40.946C100.07 43.8136 86.798 62.9208 78.9496 65.2752C70.6809 67.7556 63.234 68.7267 53.8364 72.3384C50.2671 73.7087 45.6313 72.5173 41.6771 71.326C37.352 70.0217 33.8416 68.7185 33.432 70.768C32.6468 74.6928 45.7525 85.5125 52.4225 85.5384C56.3862 85.5525 60.2733 86.3965 64.2346 86.5555C68.2512 86.7179 72.3161 86.4201 76.3374 86.3883C90.2178 86.28 105.893 80.9579 115.67 70.7833C119.946 66.3347 123.272 60.7606 125.639 54.7357C125.602 53.2183 125.848 51.7727 126.69 50.5096C129.175 46.7708 123.823 31.7532 116.193 28.5971C110.267 26.1474 107.211 20.4156 103.951 15.1052C102.472 21.1584 105.946 38.5621 103.279 40.946Z" fill="#2A936B"/>
<path d="M65.7908 116.06C72.6351 114.704 79.1686 111.958 85.1888 108.484C89.0206 106.272 101.219 95.8083 102.494 91.1737C103.912 86.0163 88.7451 97.4046 86.798 98.2369C84.8238 99.0809 81.2145 98.6842 77.7512 98.2875C74.9919 97.9708 72.3255 97.6553 70.6492 97.9661C63.8838 99.2222 54.5992 98.1733 47.9398 96.7207C40.1667 95.0243 32.469 90.9677 25.5353 87.1629C18.9253 83.536 11.1875 78.6035 8.32224 71.2448C7.19448 68.3477 5.29682 65.8521 3.23554 63.4918C2.47625 62.1051 1.65222 60.7795 0.775206 59.607C0.824648 60.5052 0.894105 61.4352 0.997698 62.4205C1.54039 67.5661 5.04609 74.0054 6.21505 78.8154C8.01146 86.2071 6.93313 93.1996 11.071 99.327C15.2571 105.521 23.2621 108.725 29.3176 113.096C30.7656 114.14 32.13 115.18 33.4508 116.202C37.1072 116.667 40.7647 117.1 44.4187 117.437C51.9587 118.134 58.325 117.541 65.7908 116.06Z" fill="#2A936B"/>
<path d="M59.8707 128C47.9668 128 41.6323 122.524 33.4531 116.203C37.1095 116.667 40.7647 117.1 44.4187 117.437C46.5495 117.634 48.586 117.728 50.579 117.728C55.6433 117.728 60.4334 117.123 65.7908 116.06C72.6351 114.704 79.1685 111.958 85.1887 108.484C89.0205 106.272 101.219 95.8082 102.494 91.1736C102.754 90.2271 102.456 89.8387 101.785 89.8387C98.7948 89.8387 88.3884 97.5564 86.798 98.2368C85.941 98.6029 84.7732 98.7359 83.4441 98.7359C82.7719 98.7359 82.0574 98.7018 81.3216 98.6477C82.573 96.9654 83.5748 94.9736 85.6114 92.5662C91.0783 86.1081 104.491 90.5803 108.466 79.6488C108.938 78.3527 109.332 77.1272 109.652 75.9547C111.829 74.4008 113.851 72.6762 115.67 70.7833C119.942 66.3394 123.265 60.7712 125.633 54.7522C125.71 57.787 126.942 61.1185 126.942 63.9108C126.942 65.44 126.951 66.9515 126.951 68.443C126.95 80.288 126.363 90.8793 115.924 98.8137C122.729 93.6422 125.343 87.3418 126.343 80.3022C123.364 87.283 117.437 94.7535 111.119 98.61C107.128 101.047 103.079 103.72 98.9008 105.804C96.7394 106.882 94.3474 107.58 92.1448 108.602C89.9906 109.602 88.4673 111.72 86.1623 112.412C83.4512 113.225 84.1869 116.853 86.798 117.109C87.1146 117.139 87.4278 117.154 87.7374 117.154C91.4715 117.154 94.8112 115.045 98.3852 114.002C100.98 113.245 103.409 112.241 105.796 111.125C109.174 106.62 112.853 101.143 115.723 98.9655C111.339 102.293 105.058 113.34 100.857 116.82C89.8928 125.912 75.2261 128 59.8707 128Z" fill="#00BD6B"/>
<path d="M30.7903 114.176C30.3077 113.817 29.818 113.456 29.3176 113.095C29.818 113.457 30.3088 113.817 30.7903 114.176ZM17.5963 82.2234C13.9999 79.5829 10.7709 76.4209 8.89322 72.5515C12.5178 75.1284 15.8516 77.3827 17.0536 80.6424C17.256 81.1945 17.4362 81.7207 17.5963 82.2234Z" fill="#00BD6B"/>
<path d="M102.564 41.664C102.584 38.1218 103.785 35.2 103.498 29.4706C103.355 26.6159 100.63 22.7382 96.8195 18.6592C97.0303 16.2777 96.9066 13.9268 96.3169 11.6643C96.2003 11.2157 95.8425 11.0062 95.4728 11.0062C95.0855 11.0062 94.6864 11.2369 94.544 11.6643C94.1426 12.8638 93.8059 14.0799 93.4987 15.3041C89.3325 11.2981 84.526 7.31568 80.4458 4.10663C80.4729 3.60867 80.4823 3.10718 80.4741 2.59863C79.8007 2.57508 79.1132 2.55152 78.4104 2.52327C78.4093 2.52327 78.4104 2.52327 78.4093 2.52209C83.7184 2.73516 88.1094 2.69161 92.5604 4.35029C92.5628 4.35146 92.5651 4.35264 92.5663 4.35264C92.5734 4.355 92.5804 4.35736 92.5863 4.36089C92.5899 4.36207 92.5922 4.36207 92.5957 4.36443C92.6016 4.3656 92.6087 4.36914 92.6146 4.37032C92.6181 4.37267 92.6216 4.37383 92.6252 4.375C92.631 4.37736 92.6369 4.37972 92.6428 4.38089C92.6475 4.38325 92.6522 4.38561 92.6569 4.38679C92.6652 4.39032 92.6734 4.39268 92.6817 4.39621C92.6875 4.39857 92.6934 4.40093 92.7005 4.40328C92.704 4.40446 92.7076 4.40561 92.7111 4.40679C92.717 4.40915 92.7241 4.41269 92.7299 4.41504C92.7335 4.41621 92.737 4.4174 92.7405 4.41858C92.7476 4.42093 92.7547 4.42447 92.7617 4.42682C92.7653 4.428 92.7676 4.42918 92.7699 4.43036C92.79 4.43742 92.8112 4.44566 92.8312 4.4539H92.8323C92.8418 4.45743 92.8524 4.46212 92.8618 4.46565C92.8629 4.46565 92.8653 4.46683 92.8665 4.46683C92.8759 4.47036 92.8841 4.4739 92.8936 4.47743C92.8947 4.47861 92.8959 4.47861 92.8983 4.47979C93.667 4.78115 94.4392 5.13433 95.2185 5.55106C95.2291 5.55694 95.2397 5.56164 95.2503 5.56752C95.2515 5.56752 95.2515 5.5687 95.2527 5.5687C95.2633 5.57459 95.2727 5.57928 95.2821 5.58517C95.2833 5.58517 95.2845 5.58635 95.2845 5.58635C95.2951 5.59224 95.3057 5.59696 95.3162 5.60284C95.3386 5.61462 95.3598 5.6264 95.381 5.63817L95.3822 5.63934C95.3916 5.64405 95.4022 5.64993 95.4116 5.65464C95.414 5.65581 95.4151 5.65699 95.4175 5.65817C95.4257 5.66288 95.4352 5.66757 95.4434 5.67228C95.4446 5.67346 95.4469 5.67346 95.4481 5.67464C95.4693 5.68641 95.4905 5.69819 95.5117 5.70996C95.5117 5.70996 95.5128 5.71114 95.514 5.71114C95.5234 5.71585 95.5317 5.72175 95.5411 5.72646C95.5446 5.72763 95.547 5.72879 95.5493 5.73114C95.5576 5.73467 95.5646 5.7394 95.5717 5.74292C95.5752 5.74528 95.5776 5.74646 95.5811 5.74882C95.5882 5.75235 95.5964 5.75704 95.6035 5.76057C95.6058 5.76292 95.6094 5.76411 95.6117 5.76529C95.6223 5.77117 95.6317 5.77707 95.6423 5.78296C104.226 10.5989 106.032 24.0932 115.84 28.4464C110.144 25.9178 107.146 20.3096 103.951 15.1052C102.472 21.1584 105.946 38.5621 103.279 40.946C103.079 41.1249 102.84 41.3662 102.564 41.664Z" fill="#00BD6B"/>
<path d="M96.8196 18.6592C95.7824 17.5503 94.6653 16.4261 93.4987 15.3042C93.8059 14.0799 94.1426 12.8639 94.544 11.6643C94.6865 11.237 95.0855 11.0062 95.4728 11.0062C95.8425 11.0062 96.2003 11.2158 96.3169 11.6643C96.9067 13.9269 97.0303 16.2777 96.8196 18.6592Z" fill="#268460"/>
<path d="M109.652 75.9547C112.031 67.2352 110.302 61.4622 105.486 51.8268C103.172 47.1993 102.55 44.2645 102.564 41.664C102.84 41.3662 103.079 41.1249 103.279 40.946C105.946 38.5621 102.473 21.1584 103.951 15.1052C107.146 20.3096 110.144 25.9178 115.84 28.4465H115.841C115.849 28.45 115.857 28.4535 115.866 28.4582C115.868 28.4582 115.87 28.4594 115.873 28.4606C115.88 28.4641 115.888 28.4676 115.895 28.4712C115.897 28.4723 115.901 28.4735 115.903 28.4747C115.911 28.4782 115.917 28.4806 115.926 28.4841C115.928 28.4853 115.933 28.4876 115.935 28.4888C115.942 28.4912 115.949 28.4947 115.956 28.4971C115.96 28.4994 115.963 28.5006 115.968 28.503C115.979 28.5077 115.991 28.5124 116.002 28.5171C116.007 28.5194 116.011 28.5218 116.016 28.523C116.022 28.5253 116.027 28.5277 116.033 28.53C116.039 28.5324 116.043 28.5347 116.049 28.5371C116.054 28.5394 116.06 28.5418 116.064 28.5441C116.07 28.5465 116.076 28.5489 116.082 28.5512C116.087 28.5536 116.092 28.5547 116.096 28.5571C116.102 28.5595 116.108 28.5618 116.114 28.5654C116.119 28.5665 116.125 28.5689 116.128 28.5712C116.135 28.5736 116.141 28.5759 116.148 28.5795C116.152 28.5806 116.156 28.583 116.161 28.5842C116.172 28.5889 116.182 28.5936 116.193 28.5971C122.534 31.2199 127.302 42.0349 127.306 47.7608C127.306 48.9238 127.11 49.8774 126.69 50.5096C126.685 50.5166 126.68 50.5225 126.676 50.5296C126.676 50.5307 126.675 50.5319 126.675 50.5331C126.665 50.5472 126.656 50.5614 126.646 50.5755L126.645 50.5767C126.637 50.5908 126.627 50.6049 126.619 50.619C126.618 50.6202 126.617 50.6226 126.616 50.6237C126.612 50.6296 126.609 50.6343 126.605 50.6402C126.604 50.6426 126.602 50.6461 126.599 50.6496C126.597 50.6532 126.595 50.6567 126.592 50.6602C126.59 50.6638 126.587 50.6685 126.585 50.672C126.585 50.6732 126.584 50.6743 126.584 50.6743C125.823 51.9033 125.595 53.2936 125.633 54.7522C123.265 60.7712 119.942 66.3394 115.67 70.7833C113.851 72.6762 111.829 74.4008 109.652 75.9547Z" fill="#268460"/>
<path d="M50.5791 117.728C48.5861 117.728 46.5495 117.634 44.4188 117.437C40.7647 117.1 37.1095 116.667 33.4531 116.203C32.5903 115.536 31.705 114.858 30.7903 114.176C30.3088 113.817 29.8179 113.457 29.3176 113.095C23.2621 108.725 15.2571 105.521 11.071 99.3269C6.93314 93.1996 8.01147 86.207 6.21506 78.8154C6.21152 78.8024 6.20918 78.7907 6.20564 78.7789C6.20447 78.7754 6.20446 78.7718 6.20329 78.7683C6.20093 78.7589 6.19857 78.7483 6.19622 78.7389C6.19504 78.7354 6.19386 78.7318 6.19386 78.7283C6.19033 78.7189 6.18798 78.7071 6.18563 78.6977C6.18445 78.6918 6.18327 78.6859 6.18091 78.68C6.17974 78.6753 6.17857 78.6694 6.17739 78.6635C6.17151 78.6388 6.16444 78.6153 6.15855 78.5906C6.15855 78.5894 6.15737 78.587 6.15737 78.5858C5.26741 75.0978 3.22026 70.7963 1.96772 66.7597C4.06314 69.0694 6.53996 70.8787 8.89319 72.5515C10.7708 76.421 13.9999 79.5829 17.5962 82.2234C20.1778 90.3272 17.7787 92.3885 29.473 97.5317C39.4733 101.934 47.5407 105.69 58.3439 105.69C60.9584 105.69 63.7319 105.47 66.7326 104.986C76.3951 103.427 79.2133 101.478 81.3217 98.6477C82.0574 98.7018 82.772 98.736 83.4442 98.736C84.7732 98.736 85.941 98.603 86.798 98.2369C88.3884 97.5564 98.7949 89.8387 101.785 89.8387C102.456 89.8387 102.754 90.2272 102.494 91.1736C101.219 95.8083 89.0206 106.272 85.1888 108.484C79.1686 111.958 72.6351 114.704 65.7909 116.06C60.4334 117.123 55.6434 117.728 50.5791 117.728Z" fill="#268460"/>
<path d="M87.7374 117.154C87.4278 117.154 87.1147 117.139 86.798 117.109C84.187 116.853 83.4512 113.225 86.1623 112.411C88.4673 111.72 89.9906 109.602 92.1449 108.602C94.3474 107.58 96.7395 106.882 98.9008 105.804C103.079 103.72 107.128 101.047 111.119 98.61C117.437 94.7535 123.364 87.283 126.343 80.3022C125.343 87.3418 122.729 93.6422 115.924 98.8136C115.924 98.8136 115.924 98.8136 115.923 98.8136C115.911 98.8231 115.898 98.8325 115.887 98.8419C115.884 98.8431 115.883 98.8442 115.882 98.8454C115.87 98.8536 115.86 98.8631 115.848 98.8713C115.845 98.8725 115.843 98.8748 115.841 98.876C115.83 98.8843 115.82 98.8925 115.808 98.9008C115.807 98.9031 115.804 98.9043 115.802 98.9066C115.789 98.916 115.776 98.9255 115.763 98.9349C115.758 98.9396 115.754 98.9431 115.748 98.9467C115.745 98.9478 115.743 98.9502 115.741 98.9525C115.738 98.9537 115.736 98.9549 115.735 98.9561C115.731 98.9596 115.728 98.962 115.724 98.9643L115.723 98.9655C112.853 101.143 109.174 106.62 105.796 111.125C103.409 112.241 100.98 113.245 98.3852 114.002C94.8112 115.045 91.4715 117.154 87.7374 117.154Z" fill="#268460"/>
<path d="M58.8242 38.2443C59.8872 34.6798 60.0637 30.8515 59.2821 27.9803C57.7906 22.5157 56.3014 17.0523 49.3441 15.0629C47.6761 14.5861 46.0939 14.2529 44.6118 14.0622C43.9655 10.3529 40.8707 8.24686 38.8741 5.6476C39.5369 5.31799 40.2656 4.99426 41.1014 4.67641C41.1744 4.64816 41.2474 4.62109 41.3215 4.59283C41.3215 4.59283 41.3227 4.59166 41.3239 4.59166C41.3357 4.58695 41.3474 4.58226 41.3592 4.57872C41.3604 4.57755 41.3615 4.57755 41.3627 4.57755C43.6359 3.71112 45.995 2.77996 48.4059 1.98417C55.608 5.30505 70.2206 12.3447 73.1919 16.0576C73.9936 17.0594 74.694 18.0612 75.3426 19.043C74.9083 23.122 74.9742 26.7972 72.0206 29.8085C68.3701 33.532 63.6648 36.5621 58.8242 38.2443Z" fill="#69B397"/>
<path d="M25.2198 27.5012C24.2368 27.5012 23.2656 27.4353 22.3003 27.0503C21.3598 26.676 20.6476 26.005 20.2214 25.2198C18.3473 24.0061 16.751 22.3698 15.6845 20.4356L15.5491 20.1755C17.289 18.2402 18.8829 17.2548 20.4204 16.6462C22.8972 15.668 25.2257 15.6703 27.7826 14.2518L28.0345 14.5414C29.3694 14.6956 30.6561 15.057 31.7921 15.8493C32.409 16.2801 32.8693 16.7875 33.193 17.336C31.1717 19.5268 28.6831 22.9089 26.7325 27.4835C26.4853 27.4835 26.2381 27.4882 25.992 27.4929C25.733 27.4965 25.4764 27.5012 25.2198 27.5012Z" fill="#69B397"/>
<path d="M40.149 58.0001C34.4196 57.9989 30.1699 56.518 24.663 53.9823C17.2925 50.5908 10.0045 46.4388 4.85773 40.3091C5.73357 38.4385 6.67063 36.5091 7.59003 34.3419C7.5912 34.3395 7.59237 34.336 7.59355 34.3336C7.59943 34.3195 7.60532 34.3054 7.61121 34.2912C7.61356 34.2854 7.61592 34.2795 7.61946 34.2724C7.62299 34.263 7.6277 34.2524 7.6324 34.2418C7.63711 34.2312 7.64182 34.2206 7.64535 34.21C7.64771 34.2041 7.65005 34.1994 7.65241 34.1935C7.65829 34.1794 7.66418 34.1665 7.67007 34.1523C7.67125 34.15 7.67242 34.1476 7.67242 34.1453C7.67949 34.1288 7.68654 34.1123 7.69361 34.0958C7.70773 34.0629 7.72187 34.0299 7.736 33.9958C7.73718 33.9934 7.73716 33.9922 7.73834 33.9899C7.73952 33.9852 7.74188 33.9816 7.74305 33.9781C8.2469 32.7821 8.73543 31.6849 9.21456 30.6478C11.3629 32.9528 13.3077 35.4484 15.7775 37.4108C19.448 40.3256 23.753 42.4316 28.0192 44.3198C29.4083 44.9355 30.948 45.7113 32.5643 46.4635C35.3025 48.9109 38.953 49.9245 42.5823 49.9245C46.0445 49.9245 49.4854 49.0015 52.0918 47.523C53.4644 47.3123 54.8264 47.0733 56.159 46.7295C61.0408 45.4676 65.785 46.4376 70.4302 43.8866C74.4398 41.6852 77.9702 38.8541 81.842 36.4585C84.1528 35.0293 85.8197 33.8545 87.1323 32.4642C87.8069 34.6844 87.735 37.6298 88.3849 41.69C85.6443 46.5765 80.0703 49.669 75.1378 51.9422C72.4503 53.1818 69.6721 54.0223 66.7774 54.6039C66.1558 54.7286 65.5283 54.7722 64.8985 54.7722C64.1769 54.7722 63.4517 54.7157 62.7278 54.658C62.0026 54.6015 61.2798 54.545 60.5617 54.545C59.8272 54.545 59.0985 54.6039 58.3804 54.784C55.7011 55.4514 52.9252 55.3525 50.2647 56.1566C47.43 57.0136 44.7978 57.8188 41.8313 57.9589C41.2556 57.986 40.6953 58.0001 40.149 58.0001Z" fill="#69B397"/>
<path d="M55.3749 82.606C52.7298 82.606 49.7927 82.0385 46.3635 81.6359C43.6618 81.3181 41.2156 80.2386 39.0872 78.753C35.5992 75.7758 33.0741 72.5562 33.4319 70.768C33.5861 69.9958 34.1794 69.7003 35.0918 69.7003C36.6009 69.7003 38.9813 70.5126 41.677 71.326C44.374 72.1383 47.3876 72.9506 50.1635 72.9506C51.4584 72.9506 52.7015 72.774 53.8363 72.3384C63.2339 68.7268 70.6809 67.7556 78.9496 65.2752C82.0209 64.3535 85.9221 60.8678 89.7257 56.7923C89.5103 61.8213 88.4037 66.4371 85.6114 68.7209C80.1468 73.1919 71.2036 68.7173 65.7402 76.6682C62.4935 81.3911 59.2468 82.606 55.3749 82.606Z" fill="#69B397"/>
<path d="M41.9772 49.1899C38.8906 49.1899 35.5921 47.8703 32.5643 46.4635C32.5278 46.4306 32.4914 46.3976 32.4549 46.3635C26.4923 40.8989 22.5169 43.3828 24.5052 34.4384C25.075 31.8757 25.8484 29.5566 26.7325 27.4835C26.7431 27.4835 26.7548 27.4835 26.7666 27.4835C26.7784 27.4835 26.7902 27.4835 26.8019 27.4835C27.1374 27.5094 27.4741 27.5271 27.8096 27.5271C27.8532 27.5271 27.8955 27.5271 27.9379 27.5259C28.0451 27.5353 28.151 27.54 28.2558 27.54C30.5961 27.54 32.5008 25.2198 32.5573 22.9972C33.8228 21.5139 34.2854 19.1866 33.193 17.336C33.452 17.0559 33.7027 16.7945 33.944 16.5532C35.7322 14.765 38.415 13.8704 41.7759 13.8704C42.6741 13.8704 43.6206 13.9339 44.6118 14.0622C44.6448 14.2518 44.6707 14.4472 44.6907 14.6461C45.0756 18.5262 42.6965 21.4963 40.4893 23.8895C38.0324 26.5535 37.1319 29.2434 36.8093 33.0046C36.5562 35.9606 39.1155 38.0159 41.4416 38.1949C43.8219 38.3773 45.5453 39.6723 48.008 39.6723C48.0457 39.6723 48.0845 39.6723 48.1246 39.6723C51.0028 39.624 53.7069 39.6581 56.5216 38.9389C57.2903 38.7423 58.059 38.5104 58.8242 38.2443C57.8624 41.4675 56.1755 44.4764 53.8164 46.3635C53.2972 46.779 52.718 47.1663 52.0918 47.523C49.5266 47.915 46.9215 48.2058 44.3881 48.8862C43.6053 49.0958 42.7989 49.1899 41.9772 49.1899Z" fill="#81E9BC"/>
<path d="M48.0081 39.6722C45.5454 39.6722 43.822 38.3773 41.4417 38.1948C39.1155 38.0159 36.5563 35.9605 36.8094 33.0046C37.1319 29.2434 38.0325 26.5535 40.4893 23.8895C42.6966 21.4962 45.0757 18.5261 44.6907 14.6461C44.6707 14.4471 44.6448 14.2517 44.6119 14.0622C46.094 14.2529 47.6761 14.586 49.3442 15.0628C56.3015 17.0523 57.7906 22.5157 59.2821 27.9802C60.0638 30.8514 59.8872 34.6797 58.8242 38.2443C58.059 38.5103 57.2903 38.7422 56.5216 38.9388C53.7069 39.6581 51.0029 39.6239 48.1246 39.6722C48.0846 39.6722 48.0457 39.6722 48.0081 39.6722Z" fill="#96CAB6"/>
<path d="M28.2558 27.54C28.1511 27.54 28.0451 27.5353 27.938 27.5259C27.8956 27.527 27.8532 27.527 27.8097 27.527C27.4742 27.527 27.1375 27.5094 26.802 27.4835C26.7902 27.4835 26.7784 27.4835 26.7667 27.4835C26.7549 27.4835 26.7431 27.4835 26.7325 27.4835C28.6831 22.9089 31.1718 19.5268 33.193 17.336C34.2855 19.1866 33.8228 21.5139 32.5573 22.9972C32.5008 25.2197 30.5961 27.54 28.2558 27.54Z" fill="#96CAB6"/>
<path d="M42.5824 49.9245C38.9531 49.9245 35.3026 48.9109 32.5644 46.4635C35.5921 47.8702 38.8907 49.1899 41.9773 49.1899C42.799 49.1899 43.6053 49.0957 44.3882 48.8862C46.9215 48.2057 49.5267 47.915 52.0918 47.523C49.4855 49.0015 46.0445 49.9245 42.5824 49.9245Z" fill="#96CAB6"/>
</g>
<defs>
<clipPath id="clip0_2_515">
<rect width="128" height="128" fill="white"/>
</clipPath>
</defs>
</svg>
