<svg width="128" height="128" viewBox="0 0 128 128" fill="none" xmlns="http://www.w3.org/2000/svg">
<path d="M79.0424 3.55042C78.5892 3.19725 78.1454 2.85351 77.7157 2.52154C78.4409 2.55097 79.1484 2.57571 79.8417 2.59925C79.5922 2.92769 79.3238 3.24552 79.0424 3.55042Z" fill="#E57900"/>
<path d="M126.248 63.9105C126.248 77.6391 126.994 89.9927 115.07 98.9359C110.685 102.225 104.377 113.331 100.164 116.82C89.1993 125.912 74.5325 128 59.1771 128C45.3509 128 39.0372 120.613 28.6227 113.095C22.5669 108.723 14.5628 105.522 10.376 99.3268C6.23917 93.203 7.31702 86.208 5.52002 78.8151C4.35105 74.0016 0.845686 67.5646 0.302994 62.419C-1.18641 48.2608 3.09709 43.3848 6.99976 34.0954C16.6989 10.9986 21.6114 18.6846 28.6227 13.2342C33.5426 9.4106 34.4825 6.92788 40.4066 4.67471C47.3986 2.0201 55.2174 -1.35497 62.9029 0.565063C77.8075 4.29092 85.7949 0.647469 94.9476 5.78127C103.634 10.6561 105.381 24.4129 115.499 28.5967C123.131 31.754 128.484 46.7692 125.996 50.5092C123.471 54.3046 126.248 59.7161 126.248 63.9105Z" fill="#FF4200"/>
<path d="M105.527 77.4155C100.488 73.6661 95.0653 72.6231 90.5684 76.4984C88.4306 78.3419 87.1416 81.1248 85.0967 83.0755C83.2521 84.8366 81.7864 88.8661 84.1491 91.4489L84.3351 91.6538C85.5488 92.9805 87.3534 94.1954 89.0274 93.7692C89.4418 93.6633 89.8268 93.5361 90.1976 93.3913C90.7956 93.8151 91.4748 94.153 92.2306 94.3731C94.8864 95.143 97.1184 94.2636 99.2797 92.9734C99.9001 92.6026 101.076 92.6932 102.317 92.785C103.482 92.8698 104.704 92.9558 105.575 92.6579C108.53 91.6432 110.324 89.0792 110.54 85.6229C110.759 82.1525 108.013 79.266 105.527 77.4155Z" fill="#CC1F00"/>
<path d="M107.068 31.3078C101.93 27.3889 94.1742 29.6268 90.7839 34.7559C88.7709 37.8025 87.5489 41.9086 87.6561 45.8251C86.6413 47.2707 85.8161 48.8329 85.5524 50.4244C84.9685 53.9431 87.8609 58.3824 91.9776 56.8508C93.2054 56.3929 93.9953 56.3058 95.2985 56.3081C95.6905 56.3128 96.0837 56.3176 96.4757 56.3223C97.7577 56.2399 98.0367 56.2717 97.3162 56.4165C99.3116 57.8385 102.116 57.0922 103.777 55.583C105.432 54.0785 106.405 54.2504 108.553 52.8295C111.326 50.9931 113.325 49.4015 114.266 46.0535C115.734 40.8326 110.984 34.2944 107.068 31.3078Z" fill="#CC1F00"/>
<path d="M51.6632 68.2933C49.4573 64.3991 42.5224 59.7915 38.0071 59.7915C34.637 59.7915 31.2208 62.2413 28.4823 65.1125C26.5832 66.2673 26.0043 67.9142 24.0173 69.2668C21.2416 71.1562 18.9658 73.925 17.2957 76.808C15.0139 80.7457 11.5807 86.6247 15.6283 90.6719C17.1117 92.1552 19.7628 92.4754 21.7512 92.7921C24.9112 93.2948 28.1421 94.6344 31.213 95.5727C34.206 96.4885 36.1926 99.7965 39.6971 99.5387C43.9172 99.2279 45.985 96.8311 49.4118 94.5968C51.0328 93.5396 53.1329 94.1106 54.8247 92.4566C56.5187 90.7991 58.7577 88.4717 59.402 86.1291C61.2593 79.379 54.5437 73.38 51.6632 68.2933Z" fill="#CC1F00"/>
<path d="M23.4488 48.4703C22.6014 48.2361 21.4039 48.2172 20.5519 48.4526C20.1854 48.6045 19.9274 48.7116 19.7604 48.7823C19.6028 48.8329 19.4446 48.8823 19.2938 48.9518C18.8978 49.1142 18.5258 49.3038 18.1478 49.4839C16.6505 48.8034 14.8158 49.1648 13.6661 50.8977C13.0329 51.85 12.8687 53.0084 12.5625 54.0938C12.288 55.0661 12.1165 56.0433 11.9794 57.0333C11.903 57.3794 11.847 57.7314 11.8332 58.0904C11.6442 59.9221 13.2555 61.6833 14.9165 62.1412C15.643 62.3413 16.388 62.3119 17.087 62.1247C18.3625 62.6003 19.5913 62.7392 21.0329 62.4814C23.9773 61.9528 25.87 59.6855 26.7225 56.9615C27.6621 53.9608 26.9368 49.4297 23.4488 48.4703Z" fill="#CC1F00"/>
<path d="M71.9274 106.969C70.4394 105.355 69.4788 103.838 67.3445 102.986C65.2479 102.147 62.1651 102.292 60.627 104.23C59.4084 105.765 58.7932 107.646 57.2375 108.77C56.3357 109.422 55.5223 110.126 54.8983 110.936C52.988 111.257 51.4784 113.43 52.7318 115.297C53.7808 116.86 54.7718 117.77 56.5941 118.346C56.9731 118.466 57.375 118.507 57.7783 118.488C58.5044 119.209 59.5174 119.685 60.7663 119.729C63.0571 119.809 65.2196 119.801 67.4257 120.476C69.3363 121.062 72.4253 121.005 74.1699 119.982C80.2737 116.408 75.0105 110.31 71.9274 106.969Z" fill="#CC1F00"/>
<path d="M118.516 65.6269C117.719 63.8529 115.798 62.6321 113.848 62.7581C112.821 62.8252 111.89 63.1607 111.007 63.6845C110.705 63.8635 110.418 64.0765 110.123 64.2684C109.992 64.3367 109.933 64.3732 109.915 64.3897C108.33 64.6239 107.046 65.7976 107.046 67.5081C107.046 68.7406 107.844 69.939 108.962 70.4346C109.499 70.9208 110.214 71.2234 110.994 71.2728C113.052 71.4046 116.111 73.3294 117.893 71.2681C119.336 69.5988 119.395 67.5811 118.516 65.6269Z" fill="#CC1F00"/>
<path d="M63.169 6.96441C61.3729 5.58472 58.9357 6.29335 57.6794 5.80128C54.8748 4.70177 53.3182 4.59821 50.3315 4.91958C46.1276 5.37163 43.4844 7.59773 42.0689 10.8327C35.1856 13.7062 26.7119 19.5122 30.5513 26.9793C32.7856 31.3243 39.4299 31.1642 43.0328 33.7929C47.5076 37.0585 52.4413 38.377 57.0949 34.3909C59.5832 32.259 57.7998 24.9027 61.3213 22.0844C69.5412 15.505 68.3934 10.9775 63.169 6.96441Z" fill="#CC1F00"/>
<path d="M71.6448 19.8536C70.6336 20.4328 69.826 21.2427 69.0361 22.0727C68.3781 22.3964 67.8107 22.9815 67.4587 23.6678L67.2421 23.8679C66.3062 24.6861 66.2944 26.2953 66.903 27.2853C67.5046 28.2624 68.4393 28.6238 69.4164 28.5615C70.2216 29.017 71.1845 29.2077 72.3335 29.0771C74.5325 28.8275 76.3501 27.9175 78.1383 26.6591C79.6745 25.5784 80.7081 23.1475 79.3779 21.4499C77.3531 18.8636 74.5278 18.2008 71.6448 19.8536Z" fill="#CC1F00"/>
<path d="M101.363 44.9622C100.22 43.8192 98.8512 43.6791 97.3374 43.898C97.1466 43.9251 97.0548 43.9392 97.0148 43.9451C97.0607 43.9381 97.1725 43.9216 97.395 43.8898C97.2491 43.9063 97.1031 43.9134 96.9571 43.9193C94.6274 43.0128 91.5891 44.7515 91.7409 47.3002L91.728 47.3237C91.4207 47.7099 91.1205 48.103 90.8874 48.5386C90.0811 50.0407 90.2035 51.5146 90.8474 53.0379C91.263 54.0232 92.6427 54.414 93.5891 54.1539C93.9788 54.0468 94.2919 53.8619 94.5462 53.6312C94.7911 53.6783 95.0418 53.7101 95.2984 53.7101C95.5739 53.7101 95.8446 53.6783 96.1083 53.6253C97.375 53.5747 98.6499 53.4052 99.773 52.7801C101.56 51.7842 102.591 49.9171 102.575 47.8888C102.568 46.7916 102.14 45.7392 101.363 44.9622Z" fill="#DE3D10"/>
<path d="M49.2504 72.7796C47.1452 67.8553 40.752 65.4562 35.788 66.7205C33.0266 67.4221 30.5214 68.677 28.339 70.5229C26.3561 72.2004 25.1067 74.6502 23.1772 76.2229C21.4876 77.5991 22.068 79.6545 23.4135 80.8223C23.7814 82.8165 25.5031 84.4563 27.805 84.5587C30.7094 84.687 33.5559 85.2945 36.4625 85.3675C39.0386 85.4322 41.4892 84.481 43.9474 83.8642C49.6606 82.4315 51.488 78.0135 49.2504 72.7796Z" fill="#DE3D10"/>
<path d="M23.8613 53.3062C23.6834 52.2279 22.6009 51.3215 21.6021 51.0472C20.6415 50.7823 19.805 50.973 19.0932 51.4392C18.2756 51.4051 17.5408 51.5405 16.7462 51.9042C15.3671 52.5352 14.6709 54.3081 14.762 55.736C14.8805 57.6066 16.3231 59.4972 18.3873 59.3618C19.1718 59.3112 19.9568 59.2594 20.7413 59.2088C22.5319 59.0922 24.3428 57.7161 24.2137 55.736C24.1612 54.9249 23.9947 54.1103 23.8613 53.3062Z" fill="#DE3D10"/>
<path d="M59.1771 128C45.3509 128 39.0372 120.613 28.6227 113.095C22.5669 108.723 14.5628 105.522 10.376 99.3268C6.23917 93.203 7.31702 86.208 5.52001 78.8152C5.51719 78.8046 5.51495 78.7928 5.51212 78.7822C5.51036 78.7751 5.50895 78.7692 5.50706 78.7622C5.50659 78.7598 5.50577 78.7563 5.50483 78.7528C4.63841 75.2329 2.54521 70.8596 1.27289 66.7582C6.19184 72.1781 13.21 74.8456 15.8104 79.4638C13.9149 83.0967 12.4168 87.4617 15.6283 90.672C16.8405 91.8845 18.8321 92.3189 20.6047 92.6108C22.0372 94.1377 24.4362 95.6233 28.7785 97.5339C38.7793 101.934 46.8463 105.691 57.65 105.691C58.3117 105.691 58.9849 105.677 59.6682 105.647C58.9647 106.807 58.3351 107.977 57.2375 108.77C56.3358 109.423 55.5223 110.126 54.8983 110.936C52.988 111.257 51.4784 113.43 52.7319 115.297C53.7809 116.86 54.7718 117.77 56.5942 118.346C56.9156 118.448 57.2536 118.493 57.5948 118.493C57.656 118.493 57.7171 118.492 57.7783 118.488C58.5044 119.209 59.5174 119.685 60.7663 119.729C63.0571 119.809 65.2197 119.801 67.4257 120.476C68.2145 120.718 69.2045 120.85 70.2169 120.85C71.6578 120.85 73.1458 120.582 74.1699 119.982C80.2738 116.408 75.0105 110.31 71.9274 106.969C71.0562 106.025 70.3664 105.113 69.5165 104.349C81.1637 101.907 79.9053 98.491 84.9178 92.5673C84.9708 92.5049 85.025 92.4425 85.0803 92.3813C86.0291 93.2089 87.184 93.8551 88.3247 93.8551C88.5601 93.8551 88.7956 93.8281 89.0275 93.7692C89.4418 93.6633 89.8268 93.5361 90.1976 93.3913C90.7956 93.8151 91.4749 94.153 92.2306 94.3731C92.917 94.572 93.575 94.6604 94.2107 94.6604C96.0354 94.6604 97.6764 93.9305 99.2798 92.9734C99.6247 92.7674 100.141 92.7038 100.745 92.7038C101.228 92.7038 101.766 92.7438 102.317 92.785C102.868 92.8251 103.431 92.8651 103.964 92.8651C104.56 92.8663 105.116 92.8157 105.575 92.6579C108.53 91.6432 110.324 89.0792 110.54 85.6229C110.689 83.2415 109.444 81.1354 107.845 79.4497C108.973 76.3112 109.646 73.5825 109.901 71.0232C110.241 71.1621 110.609 71.2481 110.994 71.2728C112.342 71.3587 114.121 72.2146 115.689 72.2157C116.513 72.2157 117.278 71.9791 117.893 71.2681C119.336 69.5988 119.395 67.5811 118.516 65.6269C117.757 63.9364 115.978 62.7498 114.125 62.7498C114.034 62.7498 113.941 62.7522 113.848 62.7581C112.821 62.8252 111.89 63.1607 111.007 63.6845C110.705 63.8635 110.418 64.0765 110.123 64.2684C109.992 64.3367 109.933 64.3732 109.915 64.3897C109.813 64.405 109.713 64.4238 109.614 64.4462C109.018 61.2724 107.769 58.0292 105.946 54.1904C106.674 53.8619 107.461 53.5511 108.553 52.8295C111.326 50.9931 113.325 49.4015 114.266 46.0535C115.734 40.8326 110.984 34.2944 107.068 31.3079C105.776 30.3214 104.317 29.7256 102.804 29.4678C102.456 22.5894 87.1251 9.76731 77.7145 2.52161C80.9106 2.64993 83.7724 2.68527 86.5165 3.05492C86.5235 3.05492 86.5306 3.05609 86.5377 3.05727C86.5424 3.05845 86.5459 3.05842 86.5506 3.05842C86.5542 3.05959 86.5589 3.06078 86.5636 3.06078C89.0228 3.3951 91.3878 4.00137 93.8105 5.18446C93.8116 5.18446 93.8128 5.18561 93.8128 5.18561C93.8222 5.19032 93.8328 5.19504 93.8422 5.19975C93.8434 5.20093 93.8434 5.20093 93.8446 5.20211C93.8552 5.20682 93.8658 5.21151 93.8764 5.2174C93.8976 5.22681 93.9188 5.23744 93.9388 5.24803C93.9411 5.24921 93.9423 5.25039 93.9446 5.25039C93.9529 5.2551 93.9611 5.2598 93.9694 5.26332C93.9717 5.2645 93.9753 5.26571 93.9776 5.26689C93.9847 5.27042 93.9929 5.27509 94.0012 5.27861C94.0035 5.27979 94.0059 5.281 94.0082 5.28218C94.0176 5.28689 94.0282 5.29276 94.0377 5.29747C94.0482 5.30335 94.0588 5.30805 94.0694 5.31276C94.0706 5.31393 94.073 5.31515 94.0753 5.31632C94.0824 5.31985 94.0906 5.32452 94.0989 5.32805C94.1024 5.3304 94.1059 5.33158 94.1095 5.33276C94.1165 5.33747 94.1224 5.33987 94.1295 5.34339C94.1318 5.34575 94.1365 5.34808 94.1401 5.34926C94.1471 5.35279 94.153 5.35633 94.1601 5.35869C94.1624 5.36104 94.1671 5.36337 94.1707 5.36455C94.1789 5.36926 94.1872 5.37283 94.1954 5.37754C94.1989 5.37989 94.2025 5.38105 94.2072 5.3834C94.2142 5.38693 94.2213 5.39047 94.2295 5.39519C94.2331 5.39636 94.2378 5.3987 94.2413 5.40105C94.2472 5.40458 94.2531 5.40697 94.2578 5.40932C94.2637 5.41286 94.2684 5.41519 94.2731 5.41754C94.2778 5.4199 94.2825 5.42223 94.2884 5.42577C94.2931 5.42812 94.2978 5.43048 94.3025 5.43284C94.3084 5.43636 94.3131 5.43876 94.319 5.44111C94.3237 5.44347 94.3284 5.44577 94.332 5.44813C94.3414 5.45284 94.3508 5.45756 94.3602 5.46227C94.3649 5.46462 94.3696 5.46815 94.3732 5.46934C94.379 5.47287 94.3838 5.47523 94.3896 5.47876C94.3943 5.48112 94.4002 5.48347 94.4049 5.48583C94.4097 5.48819 94.4144 5.4917 94.4191 5.49405C94.4238 5.49641 94.4297 5.49876 94.4344 5.50112C94.4391 5.50465 94.4438 5.50699 94.4497 5.50934C94.4544 5.5117 94.4591 5.51527 94.465 5.51762C94.4697 5.51997 94.4744 5.52231 94.4791 5.52584C94.4873 5.52937 94.4956 5.53407 94.5038 5.53877C94.5097 5.54112 94.5156 5.54469 94.5215 5.54705C94.5262 5.55058 94.5321 5.55412 94.5368 5.55647C94.5415 5.55883 94.5462 5.56113 94.5509 5.56349C94.5556 5.56702 94.5603 5.56941 94.5662 5.57176C94.5709 5.57529 94.5756 5.57645 94.5803 5.57999C94.5862 5.58234 94.5909 5.58588 94.5956 5.58706C94.6004 5.59058 94.6062 5.59413 94.611 5.59648C94.6157 5.59884 94.6204 5.6012 94.6251 5.60355C94.6321 5.60709 94.6404 5.6118 94.6475 5.61533C94.6533 5.61887 94.6592 5.62238 94.6663 5.62592C94.6722 5.62945 94.6769 5.63181 94.6828 5.63534C94.6875 5.6377 94.6934 5.64005 94.6969 5.64241C94.7028 5.64594 94.7075 5.64828 94.7122 5.65063C94.7181 5.65416 94.7228 5.65649 94.7275 5.65885C94.7322 5.66238 94.7381 5.66477 94.7428 5.66713C94.7475 5.67065 94.7522 5.67299 94.7569 5.67535C94.764 5.67888 94.7699 5.68239 94.7758 5.68592C94.7805 5.68828 94.7828 5.68949 94.7864 5.69184C94.7958 5.69655 94.8064 5.70242 94.8158 5.70713C94.8193 5.70949 94.8229 5.71182 94.8264 5.713C94.8323 5.7177 94.8393 5.7201 94.8464 5.72363C94.8499 5.72598 94.8535 5.72835 94.857 5.7307C94.864 5.73423 94.8699 5.73775 94.8758 5.74128C94.8805 5.74363 94.8841 5.74596 94.8876 5.74714C94.8947 5.75185 94.9017 5.75539 94.9076 5.75893C94.9111 5.76128 94.9147 5.76249 94.9182 5.76485C94.9276 5.77073 94.9382 5.7754 94.9476 5.78128C103.634 10.6561 105.381 24.4129 115.499 28.5967C121.842 31.2207 126.61 42.0345 126.612 47.7605C126.613 48.9235 126.417 49.8783 125.996 50.5092C125.208 51.6959 124.936 53.039 124.936 54.454C124.936 57.5677 126.248 61.0276 126.248 63.9105C126.248 65.4385 126.258 66.9501 126.258 68.4416C126.257 80.3479 125.666 90.9886 115.07 98.9359C110.685 102.225 104.377 113.331 100.164 116.82C89.1993 125.912 74.5325 128 59.1771 128Z" fill="#E53B00"/>
<path d="M94.2107 94.6603C93.575 94.6603 92.917 94.572 92.2306 94.3731C91.4749 94.1529 90.7956 93.8151 90.1976 93.3913C89.8268 93.5361 89.4418 93.6632 89.0275 93.7692C88.7956 93.828 88.5601 93.8551 88.3247 93.8551C87.184 93.8551 86.0291 93.2088 85.0803 92.3812C90.6438 86.1939 103.836 90.473 107.772 79.6486C107.797 79.5827 107.82 79.5156 107.845 79.4496C109.444 81.1354 110.689 83.2414 110.54 85.6229C110.324 89.0792 108.53 91.6432 105.575 92.6579C105.116 92.8156 104.56 92.8663 103.964 92.8651C103.431 92.8651 102.868 92.825 102.317 92.785C101.766 92.7438 101.228 92.7038 100.745 92.7038C100.141 92.7038 99.6247 92.7674 99.2797 92.9734C97.6764 93.9305 96.0354 94.6603 94.2107 94.6603Z" fill="#B71C00"/>
<path d="M105.946 54.1903C105.584 53.4275 105.199 52.6411 104.791 51.8265C99.328 40.8973 103.301 39.407 102.804 29.4702V29.4678C104.317 29.7256 105.776 30.3213 107.068 31.3078C110.984 34.2944 115.734 40.8326 114.266 46.0535C113.325 49.4015 111.326 50.993 108.553 52.8295C107.461 53.5511 106.674 53.8619 105.946 54.1903Z" fill="#B71C00"/>
<path d="M20.6048 92.6108C18.8321 92.3189 16.8405 91.8845 15.6283 90.6719C12.4168 87.4617 13.9149 83.0966 15.8105 79.4638C16.0238 79.8428 16.2078 80.2348 16.3581 80.6433C18.6201 86.7825 17.9396 89.769 20.6048 92.6108Z" fill="#B71C00"/>
<path d="M70.2169 120.85C69.2045 120.85 68.2145 120.718 67.4257 120.476C65.2196 119.801 63.0571 119.809 60.7663 119.729C59.5174 119.685 58.5044 119.209 57.7783 118.488C57.7171 118.492 57.656 118.493 57.5948 118.493C57.2536 118.493 56.9156 118.448 56.5941 118.346C54.7718 117.77 53.7808 116.86 52.7318 115.297C51.4784 113.43 52.988 111.257 54.8983 110.936C55.5223 110.127 56.3357 109.423 57.2375 108.77C58.3351 107.977 58.9647 106.807 59.6682 105.647C61.6846 105.562 63.7988 105.348 66.0402 104.987C67.3127 104.781 68.4664 104.569 69.5165 104.349C70.3664 105.113 71.0562 106.025 71.9274 106.969C75.0105 110.31 80.2737 116.408 74.1699 119.982C73.1458 120.582 71.6578 120.85 70.2169 120.85ZM66.4169 106.9C66.3651 106.9 66.3133 106.902 66.2603 106.906C65.2491 106.979 64.604 107.32 64.0095 107.944C63.8058 108.13 63.621 108.327 63.4621 108.537C63.2608 108.639 63.0595 108.746 62.8476 108.862C61.549 109.584 61.502 111.517 62.6781 112.354C62.352 113.769 63.0559 115.349 64.8076 116.03C65.2726 116.21 65.8106 116.266 66.3662 116.266C67.1326 116.266 67.9319 116.161 68.6147 116.138C70.9821 116.061 72.4771 113.558 71.3011 111.457C70.6489 110.291 69.8366 109.217 68.8902 108.275C68.2168 107.605 67.4234 106.9 66.4169 106.9Z" fill="#B71C00"/>
<path d="M115.689 72.2157C114.121 72.2145 112.342 71.3587 110.994 71.2728C110.609 71.2481 110.241 71.1621 109.901 71.0232C110.127 68.7536 110.023 66.6158 109.614 64.4462C109.713 64.4238 109.813 64.405 109.915 64.3897C109.933 64.3732 109.992 64.3367 110.123 64.2684C110.418 64.0765 110.705 63.8634 111.007 63.6845C111.89 63.1607 112.821 62.8252 113.848 62.7581C113.941 62.7522 114.034 62.7498 114.126 62.7498C115.978 62.7498 117.757 63.9364 118.517 65.6269C119.395 67.5811 119.336 69.5988 117.893 71.2681C117.278 71.9791 116.513 72.2157 115.689 72.2157Z" fill="#B71C00"/>
<path d="M66.3663 116.266C65.8106 116.266 65.2726 116.21 64.8076 116.03C63.0559 115.349 62.352 113.769 62.6781 112.354C61.502 111.517 61.549 109.584 62.8476 108.862C63.0595 108.746 63.2608 108.638 63.4621 108.537C63.621 108.326 63.8058 108.13 64.0095 107.944C64.604 107.32 65.2491 106.979 66.2603 106.906C66.3133 106.902 66.3651 106.9 66.4169 106.9C67.4234 106.9 68.2168 107.605 68.8902 108.275C69.8367 109.216 70.6489 110.291 71.3011 111.457C72.4771 113.558 70.9821 116.061 68.6147 116.138C67.9319 116.161 67.1326 116.266 66.3663 116.266Z" fill="#C7370E"/>
<path d="M59.4971 81.6981C58.4372 76.7315 53.8972 72.2381 51.6632 68.2933C49.4573 64.3991 42.5224 59.7915 38.0071 59.7915C34.7092 59.7915 31.367 62.1377 28.6589 64.9288C27.6983 63.4467 26.2949 61.9399 24.695 60.5108C25.6258 59.5431 26.3013 58.3082 26.7225 56.9615C27.6621 53.9608 26.9368 49.4297 23.4488 48.4703C23.0088 48.3491 22.4735 48.2855 21.942 48.2855C21.4504 48.2855 20.9612 48.3396 20.5519 48.4526C20.1854 48.6045 19.9273 48.7116 19.7604 48.7823C19.6028 48.8329 19.4446 48.8823 19.2938 48.9518C18.8978 49.1142 18.5258 49.3038 18.1478 49.4839C17.6819 49.272 17.1835 49.1613 16.6832 49.1613C15.575 49.1613 14.4579 49.704 13.6661 50.8977C13.2918 51.4604 13.0812 52.0961 12.9087 52.7447C9.71426 50.8494 5.55861 47.6263 3.04233 42.7785C4.23472 40.0333 5.63995 37.3327 6.99974 34.0954C16.6989 10.9986 21.6113 18.6846 28.6227 13.2342C33.5426 9.41059 34.4824 6.92787 40.4066 4.6747C42.7597 3.78238 45.2075 2.80999 47.7122 1.98241C49.3732 2.74995 51.4291 3.71413 53.6451 4.78891C53.3674 4.77008 53.0855 4.76064 52.7949 4.76064C52.0587 4.76064 51.265 4.8195 50.3315 4.91956C46.1276 5.37161 43.4844 7.59771 42.0689 10.8327C37.5951 12.7009 32.4503 15.8064 30.45 19.8018C27.9366 23.1486 25.2349 28.0269 23.8104 34.438C21.8229 43.3824 25.7978 40.8973 31.7592 46.3631C34.5092 48.8835 38.2095 49.9241 41.8868 49.9241C46.1819 49.9241 50.4456 48.5032 53.1223 46.3631C57.8459 42.5831 59.8761 34.3097 58.7826 28.8074C59.0916 26.2552 59.4857 23.5536 61.3213 22.0844C66.358 18.0525 67.8778 14.7904 67.0973 11.9463C69.6165 13.492 71.5954 14.9282 72.4983 16.0559C73.2753 17.0283 73.958 18.0007 74.5902 18.953C73.6355 18.986 72.6431 19.2815 71.6448 19.8536C70.6336 20.4328 69.826 21.2427 69.0361 22.0726C68.3781 22.3964 67.8107 22.9814 67.4587 23.6677L67.2421 23.8679C66.3062 24.686 66.2944 26.2952 66.903 27.2853C67.461 28.1917 68.3063 28.5685 69.2057 28.5685C69.2751 28.5685 69.3457 28.5661 69.4164 28.5614C70.0556 28.9228 70.7937 29.117 71.6448 29.117C71.8661 29.117 72.0957 29.1041 72.3335 29.077C74.5325 28.8274 76.3501 27.9175 78.1383 26.659C78.5338 26.38 78.8964 26.0116 79.1943 25.589C80.2302 26.7356 81.4192 27.7209 82.9307 28.4766C87.8455 30.9334 86.4411 34.8465 87.8514 42.6219C87.696 43.6873 87.6266 44.7633 87.656 45.8251C86.6413 47.2707 85.816 48.8329 85.5523 50.4244C85.1227 53.0178 86.5812 56.1115 89.0251 56.945C88.7932 61.914 87.6807 66.4592 84.9178 68.7194C79.4532 73.1904 70.5112 68.7182 65.0454 76.6679C63.2325 79.306 61.4193 80.8493 59.4971 81.6981Z" fill="#FF7A4C"/>
<path d="M89.0251 56.945C86.5812 56.1115 85.1227 53.0178 85.5524 50.4244C85.816 48.8328 86.6413 47.2707 87.656 45.8251C87.6266 44.7633 87.696 43.6873 87.8514 42.6219C87.8667 42.709 87.8832 42.7962 87.8997 42.8845C88.6366 46.8151 89.2523 52.0831 89.0251 56.945Z" fill="#DB624C"/>
<path d="M54.679 82.6069C52.6326 82.6058 50.4106 82.2667 47.9229 81.9265C50.3774 79.8099 50.8415 76.5008 49.2504 72.7796C47.5191 68.7289 42.8852 66.3874 38.5332 66.3874C37.5938 66.3874 36.6685 66.4957 35.788 66.7205C33.8709 67.2079 32.0774 67.9613 30.4298 68.9949C30.1572 68.3734 29.9374 67.78 29.7717 67.2279C29.5469 66.4792 29.1643 65.707 28.6589 64.9288C31.367 62.1377 34.7092 59.7915 38.0071 59.7915C42.5224 59.7915 49.4573 64.3991 51.6632 68.2933C53.8972 72.2381 58.4372 76.7315 59.4971 81.6981C57.9769 82.3691 56.3896 82.6069 54.679 82.6069Z" fill="#DB624C"/>
<path d="M24.695 60.5108C23.9915 59.8833 23.2507 59.2712 22.492 58.6826C23.5363 58.0904 24.2986 57.0451 24.2136 55.736C24.1611 54.9249 23.9947 54.1103 23.8613 53.3063C23.6834 52.2279 22.6009 51.3215 21.6021 51.0472C21.3046 50.9648 21.019 50.9271 20.7455 50.9271C20.1357 50.9271 19.5847 51.1167 19.0931 51.4392C19.0127 51.4357 18.9327 51.4334 18.8536 51.4334C18.1303 51.4334 17.4626 51.5758 16.7462 51.9042C15.9341 52.2762 15.3593 53.0426 15.0419 53.9031C14.983 53.8725 14.9247 53.8431 14.8667 53.8148C14.281 53.5217 13.6183 53.165 12.9087 52.7447C13.0812 52.0961 13.2918 51.4604 13.6661 50.8977C14.4579 49.704 15.5749 49.1613 16.6832 49.1613C17.1835 49.1613 17.6819 49.272 18.1477 49.4839C18.5257 49.3038 18.8977 49.1143 19.2937 48.9518C19.4445 48.8823 19.6028 48.8329 19.7604 48.7823C19.9273 48.7117 20.1854 48.6045 20.5518 48.4526C20.9611 48.3396 21.4504 48.2855 21.942 48.2855C22.4735 48.2855 23.0088 48.3491 23.4488 48.4703C26.9367 49.4298 27.662 53.9608 26.7225 56.9615C26.3013 58.3082 25.6258 59.5431 24.695 60.5108Z" fill="#DB624C"/>
<path d="M58.7825 28.8074C58.7259 28.5237 58.6612 28.2471 58.5881 27.9799C57.4871 23.9421 56.3859 19.9054 53.0818 17.2708C52.129 14.9647 50.5007 13.2601 47.6211 12.9304C47.5034 12.9163 47.3853 12.9104 47.2671 12.9104C46.1635 12.9104 45.0603 13.472 44.1005 14.0865C43.0429 13.9429 42.0354 13.8711 41.0817 13.8711C37.7202 13.8711 35.0379 14.7645 33.2495 16.5527C32.4057 17.3979 31.4424 18.4798 30.45 19.8018C32.4503 15.8064 37.5951 12.7009 42.0689 10.8327C43.4844 7.59772 46.1276 5.37162 50.3315 4.91957C51.265 4.81951 52.0587 4.76064 52.7949 4.76064C53.0854 4.76064 53.3674 4.77008 53.6451 4.78892C58.1162 6.95851 63.2396 9.58013 67.0973 11.9463C67.8778 14.7904 66.358 18.0525 61.3213 22.0844C59.4857 23.5536 59.0916 26.2552 58.7825 28.8074Z" fill="#DB624C"/>
<path d="M71.6448 29.117C70.7937 29.117 70.0556 28.9228 69.4164 28.5614C69.3457 28.5661 69.2751 28.5685 69.2057 28.5685C68.3063 28.5685 67.461 28.1917 66.903 27.2853C66.2944 26.2952 66.3062 24.686 67.2421 23.8679L67.4587 23.6677C67.8107 22.9814 68.3781 22.3964 69.0361 22.0726C69.826 21.2427 70.6336 20.4328 71.6448 19.8536C72.6431 19.2815 73.6355 18.986 74.5902 18.953C76.2065 21.3899 77.492 23.7054 79.1942 25.589C78.8964 26.0116 78.5338 26.38 78.1383 26.659C76.3501 27.9175 74.5325 28.8274 72.3335 29.077C72.0957 29.1041 71.8661 29.117 71.6448 29.117Z" fill="#DB624C"/>
<path d="M53.0818 17.2708C51.9129 16.3397 50.4685 15.5827 48.6503 15.0636C47.051 14.6068 45.5303 14.2807 44.1006 14.0865C45.0603 13.472 46.1635 12.9104 47.2671 12.9104C47.3853 12.9104 47.5034 12.9163 47.6211 12.9304C50.5007 13.2601 52.129 14.9647 53.0818 17.2708Z" fill="#E87757"/>
<path d="M47.9229 81.9265C47.1953 81.8276 46.4449 81.7275 45.6691 81.6369C38.1608 80.7528 32.6155 73.978 30.4298 68.9949C32.0774 67.9613 33.8709 67.2079 35.788 66.7205C36.6685 66.4957 37.5938 66.3874 38.5332 66.3874C42.8852 66.3874 47.5191 68.7288 49.2504 72.7796C50.8415 76.5008 50.3774 79.8099 47.9229 81.9265Z" fill="#E87757"/>
<path d="M22.492 58.6826C19.9367 56.7001 17.1858 54.992 15.042 53.9031C15.3593 53.0426 15.9342 52.2762 16.7462 51.9042C17.4627 51.5758 18.1304 51.4333 18.8536 51.4333C18.9327 51.4333 19.0128 51.4357 19.0932 51.4392C19.5848 51.1167 20.1357 50.9271 20.7455 50.9271C21.0191 50.9271 21.3047 50.9648 21.6022 51.0472C22.6009 51.3215 23.6835 52.2279 23.8614 53.3062C23.9947 54.1103 24.1612 54.9249 24.2137 55.736C24.2987 57.0451 23.5363 58.0904 22.492 58.6826Z" fill="#E87757"/>
<path d="M41.8868 49.9241C38.2095 49.9241 34.5092 48.8835 31.7592 46.3631C25.7978 40.8973 21.8229 43.3824 23.8104 34.438C25.2349 28.0269 27.9366 23.1486 30.45 19.8018C29.3727 21.9537 29.2072 24.3647 30.5513 26.9792C32.7856 31.3243 39.4299 31.1642 43.0329 33.7929C45.5569 35.6352 48.2277 36.8571 50.9114 36.8571C52.9848 36.8571 55.0666 36.1273 57.0949 34.3909C58.2859 33.3703 58.4984 31.1524 58.7826 28.8074C59.8761 34.3097 57.8459 42.5831 53.1223 46.3631C50.4456 48.5032 46.1819 49.9241 41.8868 49.9241Z" fill="#FFA281"/>
<path d="M50.9114 36.8571C48.2277 36.8571 45.5569 35.6352 43.0329 33.7929C39.4299 31.1642 32.7856 31.3243 30.5513 26.9792C29.2072 24.3647 29.3727 21.9537 30.45 19.8018C31.4424 18.4798 32.4057 17.3979 33.2496 16.5527C35.038 14.7645 37.7202 13.871 41.0817 13.871C42.0354 13.871 43.043 13.9429 44.1006 14.0865C43.7916 14.2843 43.4973 14.4879 43.2223 14.6809C42.2023 15.3943 40.2927 15.9935 39.5766 16.0418C36.3334 16.2537 34.0304 19.6182 35.7953 22.6318C36.2809 23.4606 36.9642 24.0327 37.7294 24.374L37.8389 24.513C40.0976 26.8674 42.6985 28.346 45.6871 28.346C46.5709 28.346 47.4887 28.2164 48.4415 27.9422C52.198 26.8615 54.6991 23.9173 53.8631 19.9007C53.67 18.9718 53.418 18.0842 53.0818 17.2708C56.3859 19.9054 57.4872 23.9421 58.5881 27.9799C58.6612 28.2471 58.7259 28.5237 58.7826 28.8074C58.4984 31.1524 58.2859 33.3703 57.0949 34.3909C55.0666 36.1273 52.9848 36.8571 50.9114 36.8571Z" fill="#E69181"/>
<path d="M45.6871 28.346C42.6985 28.346 40.0976 26.8674 37.8389 24.513L37.7294 24.3741C36.9642 24.0327 36.2808 23.4606 35.7952 22.6318C34.0304 19.6182 36.3333 16.2537 39.5765 16.0418C40.2926 15.9936 42.2023 15.3944 43.2222 14.681C43.4972 14.4879 43.7915 14.2843 44.1005 14.0865C45.5303 14.2807 47.051 14.6068 48.6503 15.0636C50.4685 15.5827 51.9128 16.3397 53.0818 17.2708C53.418 18.0843 53.6699 18.9719 53.8631 19.9007C54.699 23.9173 52.1979 26.8615 48.4415 27.9422C47.4887 28.2165 46.5709 28.346 45.6871 28.346Z" fill="#EFA089"/>
</svg>
