<svg width="128" height="128" viewBox="0 0 128 128" fill="none" xmlns="http://www.w3.org/2000/svg">
<path d="M126.248 63.9093C126.248 77.6403 126.994 89.9927 115.07 98.9348C110.683 102.225 104.377 113.33 100.164 116.82C89.1994 125.912 74.5326 128 59.1771 128C45.3509 128 39.0372 120.613 28.6222 113.095C22.5664 108.724 14.5624 105.524 10.376 99.3279C6.23917 93.2018 7.31702 86.2068 5.52002 78.8163C4.35105 74.0015 0.845215 67.5646 0.302994 62.419C-1.18641 48.2607 3.09709 43.3848 6.99977 34.0942C16.6989 10.9986 21.6114 18.6846 28.6222 13.2353C33.5426 9.41055 34.4825 6.92783 40.4067 4.67583C47.3982 2.01888 55.2174 -1.35617 62.903 0.566208C77.8076 4.29089 85.7949 0.646271 94.9477 5.78242C103.634 10.6549 105.381 24.4129 115.499 28.5967C123.131 31.7528 128.484 46.7704 125.997 50.5092C123.471 54.3033 126.248 59.7161 126.248 63.9093Z" fill="#FFA200"/>
<path d="M30.5419 95.9435C32.574 95.5962 34.5077 94.1153 36.6088 94.5567C39.4404 95.1512 42.022 97.03 44.856 97.7729C49.8128 99.0725 55.4697 100.291 60.551 99.4398C64.0047 98.8618 66.4262 90.8944 63.6068 91.928C59.7803 93.3324 53.8939 87.4464 47.4196 86.8578C39.4428 86.1315 33.2909 77.4955 25.8074 74.9998C18.3414 72.51 10.2103 67.2879 6.37893 60.4165C4.59052 57.211 2.48862 53.1391 0.923288 48.9329C0.0495652 52.521 -0.297592 56.7095 0.302901 62.419C0.845123 67.5645 4.35096 74.0015 5.51993 78.8163C6.62309 83.3532 6.64604 87.7407 7.45443 91.8703C9.13148 92.7003 10.9148 93.376 12.7979 93.9446C17.9289 95.4961 25.2036 96.8582 30.5419 95.9435Z" fill="#D85400"/>
<path d="M94.9147 27.2264C94.1907 36.2768 91.0558 41.9297 85.0579 48.4926C82.5022 51.2908 80.5422 54.5129 77.4461 56.8225C74.7067 58.865 71.2516 58.0645 68.1344 58.7249C65.1631 59.3536 62.6145 60.5508 60.1151 62.2707C58.6658 63.2689 56.8843 64.8205 55.0712 65.0595C55.01 65.0677 54.8472 65.0618 54.6384 65.0559C54.094 65.0406 53.2372 65.0242 53.0603 65.2561C52.8441 65.2054 52.6367 65.1407 52.4399 65.0571C48.5073 63.3796 43.5993 68.1873 47.4524 71.5212C50.6345 74.2746 54.5506 73.9839 58.2463 72.6077C60.3194 72.1616 62.399 71.6471 64.4886 71.5624C67.9978 71.4176 71.5695 71.6766 75.0834 71.7331C75.6556 71.7425 76.2654 71.6507 76.8846 71.5577C77.9629 71.3964 79.0683 71.2363 80.0477 71.6142C81.5263 72.1851 82.9295 72.6889 84.5105 72.8714C90.4413 73.5554 95.1383 71.9496 99.6977 68.1791C102.173 66.1331 103.992 64.0683 106.906 62.5355C109.692 61.0699 111.998 59.2405 113.963 56.7814C119.582 49.7523 121.02 41.0821 120.412 32.472C118.946 30.7298 117.286 29.3348 115.499 28.5967C105.987 24.6636 103.871 12.2735 96.4344 6.75362C96.837 13.3683 95.4362 20.7117 94.9147 27.2264Z" fill="#D85400"/>
<path d="M108.45 67.0572C102.7 71.0162 95.389 73.666 89.1487 76.961C83.8842 79.7416 76.9104 83.9183 73.6978 89.0627C72.3641 91.197 74.5443 93.2783 76.6656 92.9228C83.9384 91.7079 90.8533 84.9625 96.4839 80.2984C99.1432 78.0971 102.79 72.8644 106.91 74.3112C110.043 75.4118 113.881 75.0175 116.732 73.3282C121.018 70.789 123.906 66.6617 126.122 62.2106C125.611 58.3294 123.801 53.8078 125.996 50.5092C127.11 48.8352 126.649 44.8998 125.118 40.7808C121.383 50.7258 116.893 61.2453 108.45 67.0572Z" fill="#FF8700"/>
<path d="M54.2811 8.26397C51.1367 9.08801 52.2109 19.4569 54.4829 19.4286C58.4767 19.3792 62.1306 18.5422 65.5445 16.4291C69.6447 13.891 71.1457 9.00446 75.2071 6.61002C76.8728 5.62823 78.5809 4.25207 79.8417 2.59927C75.1659 2.43446 69.8284 2.27554 63.0547 0.600372C60.4615 3.60343 57.1381 5.57994 54.2811 8.26397Z" fill="#FF8700"/>
<path d="M59.177 128C49.5272 128 43.5358 124.401 37.2566 119.671C38.9939 120.977 40.7092 122.198 42.4833 123.279C42.618 123.211 42.7467 123.163 42.8847 123.088C45.7031 121.536 47.468 120.606 50.5288 120.606C50.8038 120.606 51.0893 120.613 51.3873 120.628C53.847 120.757 56.149 121.767 58.6031 121.908C59.0704 121.935 59.5381 121.947 60.0048 121.947C61.7287 121.947 63.4491 121.786 65.1749 121.623C66.8995 121.461 68.63 121.299 70.3746 121.299C70.7972 121.299 71.2198 121.309 71.6448 121.33C72.5901 121.377 73.5425 121.406 74.496 121.406C77.8746 121.406 81.2673 121.044 84.4528 119.874C88.7908 118.28 90.1952 113.985 93.6762 111.37C94.9865 110.387 97.4162 110.031 98.9431 109.253C100.523 108.449 101.817 106.535 102.838 105.141C105.779 101.128 107.832 96.5662 111.504 93.137C113.278 91.4795 115.325 90.0916 117.145 88.4753C117.411 88.2375 117.701 87.6383 117.991 86.9873C118.535 86.2916 119 85.5146 119.375 84.6611C121.093 83.7288 120.425 80.9412 118.674 80.482C118.298 80.3832 117.968 80.3384 117.671 80.3384C116.462 80.3384 115.767 81.0601 114.441 81.7158C111.182 83.3274 107.636 83.2885 104.27 85.185C100.397 87.3675 97.4209 91.35 93.4961 93.7091C89.051 96.3814 85.8772 99.7153 82.84 103.934C79.9606 107.935 78.1807 110.792 72.9539 111.318C71.0491 111.51 69.1009 111.572 67.142 111.572C64.2437 111.572 61.3246 111.434 58.4984 111.374C56.8765 111.339 55.2716 111.3 53.6745 111.3C50.6212 111.3 47.5967 111.441 44.5374 112.019C42.7045 112.364 30.7402 112.997 29.8155 113.968C29.4231 113.678 29.0258 113.386 28.6222 113.095C22.5664 108.724 14.5623 105.524 10.3759 99.3279C6.31408 93.3136 7.27927 86.4599 5.61505 79.2177C6.62486 83.6122 6.66995 87.8631 7.45444 91.8703C9.13149 92.7003 10.9148 93.376 12.7979 93.9446C16.5737 95.0865 21.5119 96.1248 25.984 96.2307C26.8131 96.6451 27.7407 97.0771 28.7785 97.5339C38.7801 101.934 46.8477 105.692 57.6522 105.692C60.2656 105.692 63.0394 105.472 66.039 104.988C81.4403 102.503 79.4532 99.0266 84.9178 92.5673C90.3836 86.1103 103.797 90.5801 107.772 79.6486C108.395 77.9381 108.882 76.3501 109.242 74.8456C109.713 74.9021 110.191 74.9292 110.669 74.9292C112.801 74.9292 114.958 74.3794 116.732 73.3282C121.018 70.7889 123.906 66.6616 126.122 62.2106C125.616 58.3647 123.833 53.8901 125.938 50.5987C125.194 51.7617 124.936 53.0743 124.936 54.454C124.936 57.5677 126.248 61.0264 126.248 63.9093C126.248 65.4385 126.258 66.9501 126.258 68.4416C126.257 80.3479 125.666 90.9874 115.07 98.9348C110.683 102.225 104.377 113.33 100.164 116.82C89.1993 125.912 74.5325 128 59.177 128ZM5.59905 79.1483C5.59716 79.1412 5.59528 79.133 5.59399 79.1259C5.59575 79.1342 5.59716 79.1412 5.59905 79.1483ZM5.58657 79.0965C5.58562 79.0906 5.58386 79.0835 5.58292 79.0776C5.58434 79.0847 5.58515 79.0906 5.58657 79.0965Z" fill="#E59100"/>
<path d="M25.984 96.2307C21.512 96.1248 16.5737 95.0865 12.7979 93.9446C10.9149 93.376 9.1315 92.7003 7.45445 91.8704C6.66996 87.8631 6.62488 83.6122 5.61507 79.2177C5.61377 79.2119 5.61237 79.2048 5.61095 79.1989C5.60872 79.1907 5.60683 79.1824 5.60495 79.1742C5.60318 79.166 5.60083 79.1565 5.59906 79.1483C5.59718 79.1412 5.59577 79.1342 5.594 79.1259C5.59165 79.1165 5.58941 79.1059 5.58658 79.0965C5.58517 79.0906 5.58435 79.0847 5.58294 79.0777C5.57882 79.0624 5.57505 79.0459 5.5714 79.0306C5.57046 79.027 5.56963 79.0223 5.56869 79.0188C5.56539 79.0058 5.56269 78.9941 5.55998 78.9811C5.55857 78.9752 5.55716 78.9705 5.55574 78.9646C5.55351 78.9541 5.55068 78.9423 5.54798 78.9317C5.54656 78.9258 5.54526 78.9199 5.54385 78.914C5.54103 78.9023 5.53832 78.8905 5.53561 78.8787C5.5342 78.874 5.53326 78.8705 5.53184 78.8658C5.5282 78.8493 5.52407 78.8316 5.51995 78.8163C5.51666 78.8034 5.51395 78.7904 5.51077 78.7775C5.5103 78.7751 5.50983 78.774 5.50936 78.7716C5.47899 78.6492 5.44767 78.5255 5.41459 78.4008C5.41412 78.3996 5.41365 78.3984 5.41365 78.3972C5.41 78.3831 5.40635 78.3702 5.40317 78.3572C5.4027 78.356 5.40224 78.3537 5.40177 78.3525C5.39894 78.3419 5.39623 78.3313 5.3934 78.3207C5.39211 78.316 5.39116 78.3125 5.38975 78.3078C5.38752 78.2983 5.3847 78.2889 5.38246 78.2807C5.38011 78.2724 5.37833 78.2654 5.37598 78.2571C5.37457 78.2513 5.37328 78.2454 5.37139 78.2407C5.36904 78.2324 5.36727 78.2242 5.36491 78.2171C5.36491 78.2159 5.36397 78.2136 5.36397 78.2124C4.42774 74.7915 2.48076 70.6512 1.27283 66.757C6.59545 72.6242 14.3761 75.2647 16.358 80.641C19.5452 89.2946 16.8896 91.6855 25.984 96.2307Z" fill="#C24B00"/>
<path d="M42.4833 123.279C40.7092 122.198 38.9939 120.977 37.2566 119.671C34.888 117.887 32.4784 115.942 29.8155 113.968C30.7402 112.997 42.7045 112.364 44.5374 112.019C47.5967 111.441 50.6212 111.3 53.6745 111.3C55.2716 111.3 56.8765 111.339 58.4984 111.374C61.3246 111.434 64.2437 111.572 67.142 111.572C69.1009 111.572 71.0492 111.51 72.9539 111.318C78.1807 110.792 79.9606 107.935 82.8401 103.934C85.8772 99.7153 89.051 96.3814 93.4961 93.7091C97.4209 91.35 100.397 87.3675 104.27 85.185C107.636 83.2885 111.182 83.3274 114.441 81.7158C115.767 81.0601 116.462 80.3384 117.671 80.3384C117.968 80.3384 118.298 80.3831 118.674 80.482C120.425 80.9411 121.093 83.7288 119.375 84.6611C119 85.5146 118.535 86.2915 117.991 86.9873C117.701 87.6383 117.411 88.2375 117.145 88.4753C115.325 90.0916 113.278 91.4795 111.504 93.137C107.832 96.5662 105.779 101.128 102.838 105.141C101.817 106.535 100.523 108.449 98.9431 109.253C97.4162 110.031 94.9865 110.387 93.6762 111.37C90.1952 113.985 88.7908 118.28 84.4528 119.874C81.2673 121.044 77.8746 121.406 74.496 121.406C73.5425 121.406 72.5901 121.377 71.6448 121.33C71.2198 121.309 70.7972 121.299 70.3746 121.299C68.63 121.299 66.8995 121.461 65.1749 121.623C63.4491 121.786 61.7287 121.947 60.0048 121.947C59.5381 121.947 59.0704 121.935 58.6031 121.908C56.149 121.767 53.847 120.757 51.3873 120.628C51.0893 120.613 50.8038 120.606 50.5288 120.606C47.4681 120.606 45.7031 121.536 42.8847 123.088C42.7467 123.163 42.618 123.211 42.4833 123.279Z" fill="#C24B00"/>
<path d="M109.857 66.0177C109.674 64.4932 109.337 62.9735 108.855 61.3984C110.793 60.1435 112.476 58.6425 113.963 56.7814C119.582 49.7523 121.02 41.0821 120.412 32.472C118.981 30.771 117.365 29.4007 115.625 28.6497C121.904 31.3643 126.61 42.0733 126.612 47.7604C126.613 48.887 126.429 49.817 126.035 50.4492C127.098 48.7422 126.631 44.8515 125.118 40.7807C121.596 50.1584 117.402 60.0469 109.857 66.0177ZM115.576 28.6284C115.572 28.6261 115.568 28.6249 115.564 28.6226C115.568 28.6249 115.571 28.6261 115.576 28.6284ZM115.397 28.5531C115.393 28.5519 115.39 28.5508 115.385 28.5484C115.39 28.5508 115.392 28.5519 115.397 28.5531ZM115.369 28.5413C115.365 28.5402 115.362 28.5378 115.357 28.5366C115.36 28.5378 115.365 28.5402 115.369 28.5413ZM115.34 28.5296C115.337 28.5284 115.332 28.526 115.329 28.5249C115.332 28.526 115.337 28.5272 115.34 28.5296ZM115.284 28.5049C115.28 28.5037 115.277 28.5013 115.272 28.5001C115.276 28.5013 115.28 28.5037 115.284 28.5049ZM115.254 28.4931C115.251 28.4907 115.247 28.4895 115.245 28.4884C115.247 28.4895 115.252 28.4907 115.254 28.4931ZM115.227 28.4801C115.224 28.4789 115.22 28.4778 115.217 28.4754C115.22 28.4778 115.223 28.4789 115.227 28.4801ZM115.199 28.4684C115.196 28.466 115.192 28.4648 115.189 28.4636C115.191 28.4648 115.196 28.466 115.199 28.4684ZM114.983 28.3706C114.98 28.3695 114.978 28.3695 114.977 28.3683C114.979 28.3695 114.98 28.3695 114.983 28.3706ZM114.849 28.3094C114.846 28.3071 114.841 28.3047 114.837 28.3035C114.841 28.3047 114.845 28.3071 114.849 28.3094ZM114.794 28.2835C114.791 28.2812 114.786 28.2788 114.781 28.2765C114.785 28.2788 114.791 28.2812 114.794 28.2835ZM114.713 28.2435C114.707 28.2411 114.702 28.2388 114.695 28.2353C114.701 28.2388 114.707 28.2411 114.713 28.2435ZM114.686 28.2306C114.679 28.2282 114.673 28.2247 114.667 28.2211C114.673 28.2247 114.679 28.227 114.686 28.2306ZM114.658 28.2176C114.649 28.2129 114.642 28.2094 114.633 28.2058C114.641 28.2094 114.649 28.2129 114.658 28.2176ZM114.406 28.0917C105.812 23.6948 103.577 12.0557 96.4344 6.75361C96.6628 10.4936 96.3132 14.4655 95.8729 18.3903C90.944 13.1682 84.2963 7.65062 79.0424 3.55041C79.3238 3.24551 79.5922 2.92768 79.8417 2.59924C79.1484 2.5757 78.4408 2.55096 77.7157 2.52153H77.7145C84.2303 2.78287 89.3618 2.65809 94.9206 5.7671C94.9288 5.7718 94.9382 5.77653 94.9476 5.78241C103.312 10.4748 105.242 23.404 114.406 28.0917Z" fill="#E59100"/>
<path d="M108.855 61.3984C107.971 58.5119 106.598 55.4405 104.791 51.8277C99.3269 40.8973 103.301 39.407 102.804 29.4702C102.658 26.5531 99.8154 22.567 95.873 18.3903C96.3132 14.4655 96.6629 10.4936 96.4345 6.75362C103.577 12.0558 105.812 23.6948 114.406 28.0917H114.407C114.416 28.0964 114.425 28.1011 114.434 28.1058H114.435C114.443 28.1105 114.453 28.1152 114.461 28.1199C114.462 28.1199 114.462 28.1199 114.463 28.1199C114.472 28.1246 114.481 28.1293 114.489 28.134C114.49 28.134 114.49 28.134 114.49 28.134C114.538 28.1576 114.583 28.1811 114.631 28.2047C114.632 28.2047 114.633 28.2047 114.633 28.2058C114.642 28.2094 114.649 28.2129 114.658 28.2176C114.661 28.2188 114.664 28.22 114.667 28.2211C114.673 28.2247 114.679 28.2282 114.686 28.2306C114.689 28.2329 114.692 28.2341 114.695 28.2353C114.702 28.2388 114.707 28.2411 114.713 28.2435C114.717 28.2459 114.72 28.247 114.724 28.2494C114.729 28.2517 114.734 28.2541 114.74 28.2576C114.745 28.2588 114.748 28.2612 114.753 28.2635C114.758 28.2659 114.762 28.2682 114.767 28.2706C114.772 28.273 114.777 28.2741 114.781 28.2765C114.786 28.2788 114.791 28.2812 114.794 28.2835C114.799 28.2859 114.805 28.2882 114.81 28.2906C114.814 28.2918 114.818 28.2941 114.822 28.2965C114.827 28.2989 114.832 28.3012 114.837 28.3035C114.841 28.3047 114.846 28.3071 114.85 28.3094C114.855 28.3118 114.86 28.3141 114.865 28.3165C114.868 28.3177 114.873 28.32 114.877 28.3224C114.882 28.3247 114.887 28.3271 114.893 28.3295C114.897 28.3306 114.9 28.333 114.904 28.3341C114.91 28.3377 114.915 28.34 114.921 28.3424C114.924 28.3436 114.927 28.3459 114.931 28.3471C114.937 28.3495 114.943 28.353 114.948 28.3554C114.952 28.3565 114.954 28.3577 114.958 28.3589C114.964 28.3624 114.97 28.3648 114.977 28.3683C114.978 28.3695 114.98 28.3695 114.983 28.3706C115.017 28.386 115.051 28.4025 115.086 28.4178C115.093 28.4213 115.099 28.4236 115.106 28.4272C115.109 28.4283 115.112 28.4295 115.114 28.4307C115.12 28.433 115.127 28.4366 115.133 28.4389C115.136 28.4401 115.139 28.4413 115.143 28.4436C115.149 28.446 115.154 28.4483 115.16 28.4507C115.164 28.453 115.167 28.4542 115.171 28.4554C115.177 28.4578 115.183 28.4613 115.189 28.4636C115.192 28.4648 115.196 28.466 115.199 28.4684C115.205 28.4707 115.21 28.4731 115.217 28.4754C115.22 28.4778 115.224 28.4789 115.227 28.4801C115.233 28.4825 115.238 28.4848 115.245 28.4884C115.247 28.4895 115.251 28.4907 115.254 28.4931C115.262 28.4954 115.266 28.4978 115.272 28.5002C115.277 28.5013 115.28 28.5037 115.284 28.5049C115.29 28.5072 115.295 28.5096 115.3 28.5119C115.304 28.5143 115.309 28.5154 115.312 28.5178C115.318 28.5202 115.323 28.5213 115.329 28.5249C115.332 28.526 115.337 28.5284 115.34 28.5296C115.346 28.5319 115.352 28.5343 115.357 28.5366C115.362 28.5378 115.365 28.5402 115.369 28.5413C115.375 28.5437 115.38 28.5461 115.385 28.5484C115.39 28.5508 115.393 28.5519 115.397 28.5531C115.403 28.5555 115.409 28.5578 115.415 28.5602C115.418 28.5625 115.422 28.5637 115.425 28.5649C115.431 28.5673 115.437 28.5696 115.443 28.5719C115.448 28.5743 115.452 28.5767 115.457 28.579C115.462 28.5802 115.466 28.5826 115.471 28.5849C115.481 28.5884 115.49 28.592 115.499 28.5967C115.506 28.599 115.513 28.6026 115.521 28.6049C115.523 28.6061 115.525 28.6073 115.526 28.6073C115.532 28.6096 115.537 28.612 115.543 28.6143C115.545 28.6155 115.549 28.6167 115.551 28.6179C115.556 28.6202 115.559 28.6214 115.564 28.6226C115.568 28.6249 115.572 28.6261 115.576 28.6284C115.578 28.6296 115.582 28.6308 115.585 28.632C115.59 28.6343 115.595 28.6367 115.599 28.6379C115.602 28.6391 115.603 28.6402 115.605 28.6402C115.611 28.6438 115.617 28.6461 115.623 28.6485C115.624 28.6485 115.625 28.6497 115.625 28.6497C117.365 29.4007 118.982 30.771 120.412 32.472C121.02 41.0821 119.582 49.7523 113.963 56.7814C112.476 58.6425 110.793 60.1435 108.855 61.3984Z" fill="#C24B00"/>
<path d="M110.669 74.9292C110.191 74.9292 109.713 74.9021 109.243 74.8456C110.008 71.6471 110.194 68.8265 109.857 66.0177C117.402 60.0469 121.596 50.1584 125.118 40.7808C126.631 44.8515 127.098 48.7422 126.035 50.4492C126.035 50.4492 126.035 50.4492 126.034 50.4492C126.033 50.4527 126.031 50.4551 126.029 50.4586C126.028 50.4586 126.028 50.4598 126.028 50.4598C126.026 50.4621 126.025 50.4656 126.022 50.468C126.022 50.4692 126.021 50.4703 126.021 50.4715C126.019 50.4739 126.018 50.4762 126.017 50.4786C126.015 50.4798 126.014 50.481 126.014 50.4821C126.013 50.4845 126.012 50.4868 126.009 50.488C126.008 50.4904 126.007 50.4927 126.006 50.4939C126.005 50.4962 126.004 50.4974 126.004 50.4986C126.001 50.5021 125.999 50.5057 125.997 50.5092C125.992 50.5163 125.987 50.5233 125.982 50.5304C125.981 50.5316 125.98 50.5327 125.98 50.5339C125.975 50.5398 125.972 50.5457 125.968 50.5516C125.967 50.5539 125.966 50.5551 125.966 50.5563C125.961 50.5622 125.958 50.5681 125.954 50.574C125.953 50.5751 125.952 50.5763 125.952 50.5775C125.947 50.5846 125.942 50.5904 125.939 50.5975C125.938 50.5975 125.938 50.5975 125.938 50.5987C123.833 53.8901 125.616 58.3647 126.122 62.2106C123.906 66.6616 121.018 70.789 116.732 73.3282C114.958 74.3794 112.801 74.9292 110.669 74.9292Z" fill="#E57900"/>
<path d="M79.0424 3.55042C78.5892 3.19725 78.1454 2.85351 77.7157 2.52154C78.4409 2.55097 79.1484 2.57571 79.8417 2.59925C79.5922 2.92769 79.3238 3.24552 79.0424 3.55042Z" fill="#E57900"/>
<path d="M54.6807 82.6069C52.0353 82.6069 49.0972 82.0395 45.6691 81.6345C37.2236 80.641 31.2622 72.1981 29.7717 67.2291C28.2809 62.2601 19.8354 56.2987 14.8663 53.8148C11.6415 52.202 6.11731 48.7034 3.04233 42.7773C4.00481 40.5618 5.10703 38.3734 6.2116 35.9083C6.5298 37.6388 7.15337 39.2363 8.62299 40.3805C12.8237 43.6496 14.5941 48.734 18.0899 52.6176C22.492 57.5077 28.9951 59.981 35.4973 59.981C37.088 59.981 38.6777 59.8339 40.2375 59.5372C46.8767 58.2741 59.9745 59.7832 63.581 52.6305C63.8365 52.1255 63.6952 51.5864 63.2243 51.272C61.8778 50.3738 60.163 50.036 58.3085 50.036C54.328 50.036 49.7024 51.5922 46.6831 52.501C44.5075 53.1556 41.514 53.8949 38.8275 53.8949C37.4453 53.8949 36.1448 53.6995 35.078 53.1956C32.3157 51.8936 28.4075 49.0965 26.0632 47.0506C23.237 44.5843 22.2827 40.4488 19.9927 37.5729C17.6277 34.6028 16.537 32.5003 16.4046 28.5861C16.3093 25.7537 15.6172 22.8225 15.128 19.883C13.0219 22.1232 10.7052 25.729 8.01238 31.7551C17.0497 11.526 21.8593 18.4915 28.6222 13.2353C33.5426 9.41056 34.4825 6.92783 40.4066 4.67584C42.7598 3.78234 45.2075 2.80998 47.7118 1.98241C50.0979 3.08427 53.2989 4.59345 56.6199 6.25449C55.8225 6.89607 55.0358 7.55528 54.2812 8.26396C52.1097 8.83373 51.9507 13.9546 52.8078 17.06C51.689 16.2242 50.3287 15.5426 48.6504 15.0623C45.8683 14.2677 43.3248 13.871 41.0835 13.871C37.7212 13.871 35.038 14.7657 33.2496 16.5539C30.2689 19.5334 25.7978 25.4959 23.8099 34.438C21.822 43.3812 25.7978 40.8973 31.7592 46.3619C34.5092 48.8835 38.2095 49.9241 41.8868 49.9241C46.1824 49.9241 50.4456 48.5033 53.1223 46.3619C54.3864 45.3507 55.4579 44.0169 56.3279 42.5007C57.0853 42.2111 57.8435 41.8897 58.6032 41.5354C59.7446 41.0021 60.9471 40.8184 62.1639 40.8184C63.5233 40.8184 64.9018 41.048 66.2368 41.2776C67.5717 41.5083 68.862 41.7378 70.0451 41.7378C72.2135 41.7378 74.0228 40.9656 75.0835 38.0037C75.8122 34.8971 78.6151 26.2317 76.2607 25.0545C76.1041 24.9756 75.9111 24.9391 75.6862 24.9391C72.5407 24.9391 63.1925 32.1366 59.7804 32.7063C59.5395 32.7463 59.2967 32.7793 59.053 32.8064C59.128 31.0606 58.9758 29.4019 58.5877 27.9786C57.7535 24.9203 56.9193 21.8619 55.1268 19.4145C58.8709 19.285 62.3155 18.428 65.5446 16.4291C66.9466 15.5603 68.045 14.4184 69.0456 13.1953C70.6254 14.2595 71.8438 15.2389 72.4972 16.0559C76.4726 21.0249 77.9629 25.9939 82.9307 28.4766C87.8997 30.9594 86.4094 34.9348 87.8997 42.8844C88.0116 43.4789 88.1199 44.1029 88.2235 44.7515C87.2735 45.9852 86.2199 47.2224 85.058 48.4926C82.5022 51.2909 80.5422 54.5129 77.4462 56.8226C74.7068 58.865 71.2517 58.0645 68.1344 58.7249C65.1632 59.3536 62.6145 60.5508 60.1152 62.2707C58.6658 63.2689 56.8843 64.8205 55.0712 65.0595C55.0505 65.0618 55.0174 65.063 54.9741 65.063C54.8927 65.063 54.7755 65.0595 54.6385 65.056C54.5024 65.0513 54.3459 65.0477 54.1864 65.0477C53.7078 65.0477 53.1927 65.083 53.0603 65.2561C52.8442 65.2055 52.6367 65.1407 52.4399 65.0571C51.8831 64.8193 51.3064 64.7122 50.738 64.7122C47.2924 64.7122 44.1447 68.6594 47.4524 71.5212C49.2002 73.0339 51.1698 73.6272 53.2024 73.6272C54.8703 73.6272 56.5809 73.2281 58.2464 72.6077C60.3194 72.1616 62.3991 71.6471 64.4886 71.5624C65.235 71.5318 65.9837 71.5188 66.7336 71.5188C68.8314 71.5188 70.9409 71.6153 73.0399 71.6824C70.1098 72.2381 67.2857 73.4094 65.0455 76.6679C61.7992 81.3909 58.5532 82.6069 54.6807 82.6069Z" fill="#FFBE4C"/>
<path d="M53.2023 73.6272C51.1698 73.6272 49.2002 73.0339 47.4524 71.5212C44.1447 68.6594 47.2923 64.7122 50.738 64.7122C51.3063 64.7122 51.883 64.8193 52.4399 65.0571C52.6367 65.1407 52.8441 65.2054 53.0603 65.2561C53.1927 65.083 53.7077 65.0477 54.1864 65.0477C54.3459 65.0477 54.5023 65.0512 54.6384 65.0559C54.7754 65.0595 54.8927 65.063 54.974 65.063C55.0174 65.063 55.0504 65.0618 55.0712 65.0595C56.8843 64.8205 58.6658 63.2689 60.1151 62.2707C62.6145 60.5508 65.1631 59.3536 68.1344 58.7249C71.2516 58.0645 74.7067 58.865 77.4461 56.8225C80.5421 54.5129 82.5022 51.2908 85.0579 48.4926C86.2198 47.2224 87.2734 45.9852 88.2234 44.7515C89.503 52.7883 89.9751 64.5815 84.9178 68.7182C81.6935 71.3575 77.2577 70.8819 73.0398 71.6824C70.9408 71.6153 68.8313 71.5188 66.7335 71.5188C65.9836 71.5188 65.2349 71.5318 64.4886 71.5624C62.399 71.6471 60.3194 72.1616 58.2463 72.6077C56.5808 73.2281 54.8702 73.6272 53.2023 73.6272Z" fill="#E4874C"/>
<path d="M56.3278 42.5007C57.986 39.6118 58.9136 36.0578 59.0529 32.8064C59.2966 32.7793 59.5395 32.7463 59.7803 32.7063C63.1925 32.1366 72.5407 24.9391 75.6862 24.9391C75.911 24.9391 76.1041 24.9756 76.2606 25.0545C78.615 26.2317 75.8121 34.8971 75.0834 38.0037C74.0228 40.9656 72.2134 41.7378 70.045 41.7378C68.8619 41.7378 67.5717 41.5083 66.2367 41.2776C64.9018 41.048 63.5233 40.8184 62.1638 40.8184C60.9471 40.8184 59.7445 41.0021 58.6031 41.5354C57.8435 41.8897 57.0852 42.2111 56.3278 42.5007Z" fill="#E4874C"/>
<path d="M35.4973 59.981C28.9951 59.981 22.492 57.5077 18.0898 52.6176C14.5941 48.7339 12.8237 43.6496 8.62297 40.3805C7.15334 39.2363 6.52978 37.6388 6.21158 35.9083C6.44926 35.3774 6.68752 34.8335 6.92426 34.2732C6.92662 34.2685 6.92849 34.2637 6.93026 34.259C6.93356 34.252 6.93674 34.2437 6.93992 34.2367C6.95463 34.2025 6.96888 34.1672 6.98312 34.1331C6.98865 34.1201 6.99419 34.1072 6.99972 34.0942C7.34005 33.2843 7.67391 32.5132 8.0027 31.7763C8.004 31.7728 8.00541 31.7704 8.00682 31.7681C8.00811 31.7645 8.01047 31.7598 8.01235 31.7551C10.7052 25.729 13.0218 22.1232 15.128 19.883C15.6172 22.8225 16.3093 25.7537 16.4045 28.5861C16.537 32.5003 17.6277 34.6028 19.9927 37.5728C22.2827 40.4488 23.2369 44.5843 26.0632 47.0505C28.4075 49.0965 32.3157 51.8936 35.078 53.1956C36.1448 53.6994 37.4452 53.8948 38.8275 53.8948C41.514 53.8948 44.5075 53.1555 46.6831 52.501C49.7024 51.5922 54.328 50.0359 58.3085 50.0359C60.163 50.0359 61.8778 50.3738 63.2243 51.272C63.6952 51.5863 63.8364 52.1255 63.581 52.6305C59.9745 59.7832 46.8766 58.274 40.2374 59.5372C38.6776 59.8338 37.0879 59.981 35.4973 59.981Z" fill="#FFAB4C"/>
<path d="M55.1267 19.4145C54.4894 18.5433 53.7307 17.7487 52.8077 17.06C51.9506 13.9546 52.1097 8.83373 54.2811 8.26396C55.0357 7.55528 55.8225 6.89607 56.6199 6.25449C61.114 8.50178 65.8282 11.0269 69.0455 13.1953C68.0449 14.4184 66.9466 15.5603 65.5445 16.4291C62.3154 18.428 58.8708 19.285 55.1267 19.4145Z" fill="#FFAB4C"/>
<path d="M41.8868 49.9241C38.2095 49.9241 34.5092 48.8835 31.7592 46.3619C25.7978 40.8973 21.8219 43.3812 23.8099 34.438C25.7978 25.4959 30.2689 19.5334 33.2496 16.5539C35.038 14.7657 37.7212 13.871 41.0835 13.871C43.3248 13.871 45.8683 14.2677 48.6504 15.0623C50.3287 15.5426 51.689 16.2242 52.8078 17.06C53.1899 18.4444 53.7749 19.4286 54.4733 19.4286C54.4766 19.4286 54.4798 19.4286 54.4829 19.4286C54.6987 19.4262 54.9135 19.4215 55.1268 19.4144C56.9193 21.8619 57.7535 24.9202 58.5876 27.9786C58.9758 29.4019 59.128 31.0606 59.053 32.8064C58.5499 32.8617 58.0413 32.8888 57.5294 32.8888C52.6828 32.8888 47.5421 30.4743 43.8877 26.8203C41.5333 25.6431 42.7105 22.1114 40.3561 19.757C38.96 18.8259 37.6095 18.4244 36.3324 18.4244C31.1495 18.4244 27.1741 25.0403 26.2296 29.7633C22.6984 39.1809 28.5844 39.7695 34.4701 42.124C37.654 43.7155 41.3879 44.5949 45.4061 44.5949C48.8904 44.5949 52.5889 43.9333 56.3279 42.5007C55.4579 44.0169 54.3864 45.3507 53.1223 46.3619C50.4456 48.5032 46.1823 49.9241 41.8868 49.9241Z" fill="#FFD181"/>
<path d="M45.4061 44.5949C41.388 44.5949 37.654 43.7156 34.4701 42.124C28.5844 39.7696 22.6984 39.181 26.2297 29.7633C27.1742 25.0404 31.1496 18.4245 36.3325 18.4245C37.6095 18.4245 38.96 18.8259 40.3562 19.7571C42.7106 22.1115 41.5334 25.6431 43.8878 26.8203C47.5422 30.4743 52.6828 32.8888 57.5295 32.8888C58.0413 32.8888 58.5499 32.8617 59.053 32.8064C58.9136 36.0578 57.9861 39.6118 56.3279 42.5007C52.589 43.9333 48.8904 44.5949 45.4061 44.5949Z" fill="#ECAB81"/>
<path d="M54.4733 19.4286C53.7748 19.4286 53.1899 18.4444 52.8077 17.06C53.7307 17.7487 54.4894 18.5433 55.1267 19.4144C54.9134 19.4215 54.6987 19.4262 54.4829 19.4286C54.4797 19.4286 54.4765 19.4286 54.4733 19.4286Z" fill="#FFC481"/>
</svg>
