<svg width="128" height="128" viewBox="0 0 128 128" fill="none" xmlns="http://www.w3.org/2000/svg">
<g clip-path="url(#clip0_2_496)">
<path d="M126.942 63.9112C126.942 77.6397 127.687 89.9932 115.763 98.9364C111.376 102.225 105.069 113.33 100.856 116.822C89.8917 125.913 75.2249 128 59.8707 128C46.0446 128 39.7301 120.614 29.3166 113.095C23.2599 108.725 15.2561 105.522 11.07 99.3272C6.93218 93.2023 8.01048 86.2085 6.21407 78.8145C5.04394 74.001 1.53825 67.5653 0.996738 62.4197C-0.493595 48.2592 3.79141 43.3868 7.69264 34.0963C17.3927 11.0009 22.3052 18.6856 29.3166 13.2364C34.2361 9.41167 35.1767 6.92897 41.1003 4.67817C48.0917 2.02006 55.9107 -1.355 63.5966 0.565018C78.4999 4.29203 86.4872 0.648613 95.6411 5.78237C104.328 10.656 106.073 24.4139 116.191 28.5976C123.824 31.7549 129.176 46.7689 126.691 50.5088C124.162 54.3053 126.942 59.7169 126.942 63.9112Z" fill="#00B5B0"/>
<path d="M102.84 24.3821C102.528 23.5569 101.401 23.7029 101.322 24.5881C100.632 32.3871 104.258 38.9723 97.3892 45.1926C95.3597 47.0302 93.98 49.7378 91.8599 51.6554C88.5896 54.6126 85.1051 57.1753 81.085 59.0012C67.187 65.3121 52.9582 67.0261 38.7918 60.2078C37.1591 59.4238 35.1978 61.5333 36.7411 62.8659C43.078 68.3399 51.8905 68.3575 59.467 71.1793C65.679 73.4925 77.2391 70.9332 81.975 66.5164C85.8491 62.9012 90.2542 60.0783 93.9859 56.2912C97.1773 53.0539 98.331 49.3905 100.989 45.8989C106.07 39.2254 105.614 31.7008 102.84 24.3821Z" fill="#009095"/>
<path d="M74.6364 9.99676C74.1867 9.41405 73.1649 9.36225 72.9553 10.2169C71.8499 14.7209 73.2979 20.8823 69.6827 24.3515C68.3171 25.6629 67.1576 26.6977 66.1487 28.3269C63.8403 32.0633 59.1079 31.2417 55.3927 31.8703C44.4012 33.7279 28.4372 36.8086 19.434 27.7878C18.1238 26.474 15.7823 27.4334 15.7917 29.2969C15.8247 35.6538 24.4948 38.598 29.6968 38.1753C31.4838 38.0306 33.219 37.4937 34.9836 37.2042C37.2403 36.8333 39.2922 37.6809 41.4688 37.9164C45.5525 38.3566 48.6991 38.9641 52.97 38.3661C57.2703 37.7645 60.331 36.4366 63.7061 33.7738C66.622 31.4724 68.044 27.9561 70.9823 25.6523C74.8035 22.654 77.9278 14.2747 74.6364 9.99676Z" fill="#009095"/>
<path d="M58.1038 3.30556C56.9078 2.72285 55.6905 3.66225 55.9425 4.96659C56.2356 6.48047 56.8442 7.99316 57.421 9.42346C58.0862 11.0715 56.5664 12.4547 55.8118 13.6755C55.0042 14.9845 54.8677 15.8933 53.6505 17.0541C52.0801 18.5515 50.7451 19.5544 48.532 19.8205C46.3518 20.0818 42.7037 20.3149 42.0339 23.0684C41.5253 25.1567 42.9862 25.9866 44.7814 26.3421C52.1154 27.7936 55.9095 22.6304 58.0626 16.5926C58.404 15.6367 60.8431 15.4849 61.6142 14.7138C62.7325 13.5955 62.9244 12.0922 63.1187 10.6219C63.5436 7.39515 60.7242 4.57812 58.1038 3.30556Z" fill="#008B87"/>
<path d="M35.9124 104.482C38.3904 106.729 40.8025 109.006 43.4924 111.001C49.4561 115.43 56.8654 116.22 64.0074 116.563C70.4314 116.871 76.6058 117.175 82.5342 114.316C84.3317 113.449 87.3395 111.626 88.9028 110.281C89.8446 109.471 90.4226 108.774 91.0382 107.701C92.4073 105.307 90.9146 106.27 93.6469 105.177C99.9285 102.66 104.629 99.7039 109.724 95.2706C112.461 92.8879 115.518 90.9185 118.256 88.5429C121.157 86.026 122.748 81.7599 124.286 78.3919C124.546 77.821 123.833 77.4219 123.461 77.9092C121.071 81.0194 118.532 85.368 115.343 87.6305C112.369 89.7413 108.815 90.5841 105.464 91.859C100.213 93.8556 95.1396 95.8027 89.7751 97.572C87.9363 98.1771 86.4236 99.2307 84.971 100.473C84.4436 101.074 84.0045 101.738 83.6549 102.46C83.5242 102.77 83.3935 103.08 83.2617 103.39C80.7131 104.049 78.8342 106.57 76.2762 107.425C73.4509 108.369 70.3031 108.246 67.3672 108.233C60.9255 108.207 54.8653 108.242 49.0335 105.108C43.7349 102.261 40.879 96.4784 35.4333 93.8026C26.1617 89.2433 14.3544 86.803 6.4189 79.7421C7.28885 83.8223 7.39244 87.7718 8.08228 91.5118C13.7116 95.2376 20.2722 97.9428 24.9551 99.6686C28.9623 101.145 32.5986 101.478 35.9124 104.482Z" fill="#008B87"/>
<path d="M110.627 41.402C109.885 45.2409 108.352 48.6853 107.857 52.6195C107.481 55.6037 107.581 58.5597 106.377 61.3779C105.525 63.3732 103.843 64.9695 102.787 66.8813C100.473 71.0686 97.0655 74.1811 93.8988 77.6526C90.339 81.5527 87.7303 85.6258 83.2311 88.6736C79.3275 91.3176 73.651 91.1222 69.133 91.0951C67.5449 91.0857 65.9792 91.1881 64.4136 91.2905C61.8955 91.4553 59.3787 91.6201 56.7724 91.3199C55.8106 91.2093 55.4892 92.6772 56.2897 93.1022C60.4452 95.3036 62.9527 96.7998 67.8004 96.1606C73.0471 95.4695 78.1715 95.5932 83.2758 93.8803C88.054 92.277 91.1018 87.1703 95.3515 84.7323C100.313 81.8859 103.568 78.3213 106.905 73.7185C109.71 69.8502 112.524 65.6158 113.881 61.0035C114.779 57.9499 114.351 54.6373 115.061 51.5236C115.765 48.4322 117.697 46.0107 119.107 43.2373C120.754 40.0023 121.304 36.3012 121.1 32.4694C119.636 30.7284 117.978 29.3357 116.191 28.5976C113.379 27.4357 111.225 25.5193 109.378 23.2732C109.407 23.405 109.43 23.5392 109.461 23.6687C110.967 29.8525 111.857 35.0393 110.627 41.402Z" fill="#009095"/>
<path d="M13.9188 72.7191C15.6328 73.4784 17.2479 73.6137 19.0973 73.6867C23.0245 73.8397 25.7155 74.6555 29.1306 76.7192C36.9283 81.4291 45.0993 81.8824 53.8294 82.9595C62.9197 84.0802 72.6162 83.4892 78.8213 76.0658C79.6006 75.1335 78.8743 73.7726 77.6394 74.0363C74.3209 74.7474 71.7545 76.6485 68.5502 77.6939C64.8138 78.9135 58.3663 78.093 54.5804 77.4161C47.4101 76.1318 39.8972 74.7203 33.1154 71.9303C30.2901 70.7696 27.1682 68.9461 24.0981 68.6248C19.5764 68.1492 18.1308 65.079 15.5763 61.8417C11.2454 56.3525 5.2052 48.8255 4.35997 41.3879C2.22806 46.0473 0.587045 50.5571 0.704765 57.7333C1.72657 59.6451 2.87317 61.4662 4.07156 63.1473C6.93686 67.1662 9.33129 70.6884 13.9188 72.7191Z" fill="#008B87"/>
<path d="M77.2662 11.7826C78.062 16.9163 80.9673 21.8794 78.1479 26.8507C76.3633 29.9962 74.2055 33.3159 71.937 36.14C70.243 38.2495 66.7432 38.4661 64.5442 40.0177C62.3829 41.5421 60.9596 42.3238 59.7554 44.8112C58.2827 47.8531 50.9452 46.2003 48.532 45.959C45.177 45.6235 42.5542 45.2868 39.5864 46.9243C38.5929 47.4729 38.7789 48.7513 39.5864 49.3387C44.5754 52.9633 55.4774 55.7851 61.354 52.3735C62.5371 51.6872 63.287 51.1222 64.2735 50.1828C65.4153 49.0974 65.4377 47.2104 66.6903 46.2768C70.0194 43.7965 73.91 44.1108 76.8871 41.0901C82.6554 35.2406 83.8055 24.574 85.7938 17.027C86.9286 12.7184 86.247 8.68891 85.961 4.28148C85.9292 3.79647 85.8538 3.3456 85.7726 2.89827C83.005 2.6334 80.0761 2.61338 76.7941 2.44504L76.8283 2.71815C77.0802 5.75533 76.7953 8.75129 77.2662 11.7826Z" fill="#008B87"/>
<path d="M59.8707 128C46.0446 128 39.7301 120.614 29.3166 113.095C23.2599 108.725 15.2561 105.522 11.07 99.3272C8.28831 95.2094 7.86451 90.6984 7.33831 85.9378C7.55138 87.8389 7.74796 89.7001 8.08229 91.5118C13.7116 95.2376 20.2722 97.9428 24.9551 99.6686C28.9623 101.145 32.5986 101.478 35.9124 104.482C38.3904 106.729 40.8025 109.006 43.4924 111.001C49.4561 115.43 56.8654 116.22 64.0074 116.563C66.0063 116.658 67.9816 116.754 69.9323 116.754C74.2502 116.754 78.4505 116.285 82.5342 114.316C84.3317 113.449 87.3395 111.626 88.9028 110.281C89.8446 109.471 90.4226 108.774 91.0382 107.701C92.4073 105.307 90.9147 106.27 93.6469 105.177C99.9285 102.66 104.629 99.7039 109.724 95.2706C112.461 92.888 115.518 90.9185 118.256 88.5429C121.157 86.0261 122.748 81.7599 124.286 78.3919C124.464 78.0011 124.185 77.6903 123.871 77.6903C123.728 77.6903 123.577 77.7563 123.461 77.9093C121.071 81.0194 118.532 85.368 115.343 87.6306C112.369 89.7413 108.815 90.5842 105.464 91.8591C100.213 93.8556 95.1396 95.8027 89.7751 97.572C87.9363 98.1771 86.4236 99.2307 84.971 100.473C84.4436 101.074 84.0045 101.738 83.6549 102.46C83.5242 102.771 83.3935 103.08 83.2617 103.39C80.7131 104.049 78.8342 106.57 76.2762 107.425C74.1113 108.148 71.7569 108.246 69.4532 108.246C68.7504 108.246 68.0535 108.236 67.3672 108.233C60.9255 108.207 54.8653 108.242 49.0335 105.108C48.6709 104.913 48.3189 104.705 47.9775 104.483C51.2348 105.246 54.6263 105.69 58.3416 105.69C60.9561 105.69 63.732 105.47 66.7326 104.985C81.8126 102.554 80.221 99.1695 85.2782 92.9668C86.6179 92.1934 87.8327 91.174 89.0111 90.0874C95.3739 87.1844 105.168 88.7171 108.464 79.6492C110.092 75.1747 110.803 71.5336 110.701 68.042C112.027 65.8018 113.159 63.4568 113.881 61.0036C114.779 57.9499 114.351 54.6373 115.061 51.5236C115.765 48.4323 117.697 46.0108 119.107 43.2373C120.754 40.0023 121.304 36.3012 121.1 32.4695C119.785 30.9073 118.315 29.6242 116.736 28.8449C122.806 31.8408 127.303 42.2002 127.307 47.7601C127.307 48.9231 127.111 49.8779 126.691 50.5088C125.901 51.6954 125.629 53.0398 125.629 54.4548C125.628 57.5685 126.942 61.0283 126.942 63.9112C126.942 65.4392 126.951 66.9507 126.951 68.4423C126.95 80.3484 126.359 90.9891 115.763 98.9364C111.376 102.225 105.069 113.33 100.856 116.822C89.8917 125.913 75.2249 128 59.8707 128ZM18.8372 87.0549C14.3085 85.142 9.97994 82.9089 6.42598 79.7493C6.36005 79.4385 6.28942 79.1265 6.21408 78.8145C6.21054 78.8028 6.2082 78.7898 6.20466 78.7781C6.20349 78.7745 6.20348 78.771 6.20231 78.7675C6.19995 78.7581 6.19759 78.7475 6.19524 78.738C6.19406 78.7357 6.19406 78.7321 6.19288 78.7298C6.19053 78.7192 6.187 78.7074 6.18465 78.6968C6.18347 78.6909 6.18229 78.6862 6.18111 78.6815C6.17876 78.6745 6.17759 78.6674 6.17523 78.6615C6.17406 78.6521 6.1717 78.6439 6.16934 78.6356C6.16699 78.6286 6.1658 78.6215 6.16345 78.6144C6.16227 78.6074 6.15993 78.6003 6.15875 78.5933C6.15757 78.5897 6.15639 78.585 6.15522 78.5815C5.26408 75.0934 3.21929 70.7931 1.96675 66.7589C7.29004 72.6249 15.0701 75.2665 17.0514 80.6439C18.0249 83.2844 18.4534 85.3421 18.8372 87.0549ZM107.526 56.1182C106.925 54.7656 106.243 53.3447 105.485 51.8273C103.653 48.165 102.882 45.5634 102.647 43.3479C105.919 37.3395 105.266 30.7825 102.84 24.3821C102.7 24.0113 102.395 23.8371 102.096 23.8371C101.806 23.8371 101.52 23.9995 101.391 24.3056C98.2839 19.5662 92.2084 13.8462 86.3177 8.88194C86.2153 7.3763 86.0634 5.853 85.961 4.28144C85.9292 3.79644 85.8539 3.34557 85.7726 2.89824C84.307 2.75815 82.7967 2.68633 81.2122 2.62512C85.8762 2.79699 89.8975 3.05362 94.0684 4.97833L94.0695 4.97952C94.1131 4.99953 94.1578 5.02072 94.2002 5.04073L94.2014 5.04191C94.2108 5.04544 94.2179 5.049 94.2261 5.05252L94.2296 5.05487C94.265 5.07135 94.2979 5.08665 94.332 5.10313L94.3344 5.10431C94.3426 5.10784 94.3497 5.11138 94.3579 5.11491L94.3626 5.11727C94.3709 5.1208 94.378 5.12549 94.3862 5.12902L94.3897 5.13138C94.398 5.13491 94.4062 5.13846 94.4133 5.14199H94.4145C94.4392 5.15494 94.4639 5.16672 94.4886 5.17849C94.491 5.17966 94.4933 5.18081 94.4957 5.18199C94.5028 5.18552 94.5086 5.18906 94.5157 5.19259C94.5192 5.19377 94.5216 5.19496 94.5239 5.19614C94.531 5.19967 94.5381 5.20321 94.5451 5.20674C94.5475 5.20674 94.551 5.2091 94.551 5.2091C94.5746 5.22087 94.5981 5.23262 94.6228 5.24439L94.6275 5.24675C94.6346 5.25028 94.6405 5.25263 94.6476 5.25616C94.6511 5.25852 94.6534 5.25971 94.657 5.26207C94.6628 5.26442 94.6687 5.26793 94.6758 5.27029C94.6793 5.27264 94.6828 5.27382 94.6864 5.27617C94.6923 5.2797 94.6982 5.28207 94.7041 5.28561C94.7076 5.28678 94.7111 5.28914 94.7146 5.29032C94.7288 5.29738 94.7417 5.30444 94.7558 5.31149L94.7594 5.31267C94.7653 5.3162 94.7723 5.31974 94.7782 5.3221C94.7817 5.32446 94.7853 5.32561 94.7888 5.32796C94.7947 5.33031 94.8006 5.33386 94.8065 5.33622C94.81 5.33857 94.8147 5.34092 94.8182 5.34328C94.8241 5.34563 94.83 5.348 94.8359 5.35153C94.8394 5.35389 94.8441 5.35622 94.8477 5.35739C94.8536 5.36092 94.8594 5.3633 94.8653 5.36683C94.8688 5.368 94.8724 5.37036 94.8771 5.37271C94.8877 5.37742 94.8971 5.38329 94.9077 5.388C94.9124 5.39036 94.9159 5.39272 94.9206 5.39507C94.9265 5.39861 94.9313 5.40096 94.9371 5.40332C94.9418 5.40568 94.9454 5.40804 94.9501 5.41039C94.956 5.41393 94.9607 5.41626 94.9666 5.41861C94.9713 5.42097 94.9748 5.42333 94.9795 5.42568C94.9854 5.42804 94.9901 5.43157 94.996 5.43393C95.0007 5.43629 95.0054 5.43864 95.0101 5.44218C95.016 5.44453 95.0207 5.44687 95.0254 5.44922C95.0337 5.45393 95.0419 5.45865 95.0501 5.46218C95.056 5.46571 95.0619 5.46808 95.0678 5.47161C95.0725 5.47396 95.0772 5.47629 95.0819 5.47865C95.0878 5.48218 95.0925 5.48454 95.0972 5.4869C95.1019 5.48926 95.1078 5.49279 95.1125 5.49515C95.1172 5.4975 95.1219 5.49986 95.1266 5.50222C95.1314 5.50575 95.1373 5.50808 95.142 5.51044C95.1467 5.51279 95.1525 5.51633 95.1573 5.51868C95.162 5.52103 95.1655 5.5234 95.1702 5.52576C95.1808 5.53046 95.1902 5.53633 95.2008 5.54221C95.2055 5.54457 95.2091 5.54694 95.2138 5.54812C95.2185 5.55165 95.2244 5.55518 95.2303 5.55753C95.235 5.55989 95.2397 5.56223 95.2444 5.56458C95.2479 5.56693 95.2538 5.57047 95.2585 5.57282C95.2632 5.57518 95.2691 5.57873 95.275 5.58109C95.2785 5.58344 95.2832 5.58578 95.2879 5.58814C95.2938 5.59167 95.2997 5.59519 95.3056 5.59755C95.3091 5.5999 95.3138 5.60226 95.3186 5.60462C95.3268 5.60933 95.335 5.61404 95.3444 5.61875C95.348 5.62111 95.3527 5.62344 95.3562 5.62579C95.3633 5.62933 95.3703 5.63287 95.3762 5.6364C95.3809 5.63876 95.3845 5.64112 95.388 5.64347C95.3951 5.64583 95.401 5.64935 95.4068 5.65288C95.4115 5.65523 95.4151 5.65759 95.4198 5.65995C95.4257 5.66348 95.4316 5.66583 95.4374 5.66936C95.441 5.67172 95.4457 5.67408 95.4492 5.67644C95.4563 5.67997 95.4645 5.68467 95.4728 5.6882C95.4728 5.6882 95.4763 5.69173 95.4786 5.6929C95.4892 5.69761 95.4986 5.70351 95.5092 5.7094C95.5116 5.71058 95.5151 5.71174 95.5175 5.71409C95.5246 5.71762 95.5316 5.72116 95.5387 5.72587C95.5422 5.72822 95.5457 5.72942 95.5505 5.73177C95.5563 5.7353 95.5634 5.73881 95.5693 5.74234C95.574 5.7447 95.5763 5.74706 95.5811 5.74823C95.5881 5.75294 95.5952 5.75648 95.6022 5.76119C95.6046 5.76237 95.6081 5.76355 95.6105 5.76591C95.6211 5.77179 95.6305 5.7765 95.6411 5.78238C101.921 9.30573 104.574 17.4743 109.386 23.3097C109.412 23.4297 109.432 23.551 109.461 23.6687C110.967 29.8525 111.857 35.0393 110.627 41.402C109.885 45.2409 108.352 48.6854 107.857 52.6196C107.709 53.792 107.634 54.961 107.526 56.1182ZM116.728 28.8402C116.726 28.839 116.724 28.8378 116.721 28.8366C116.724 28.8378 116.725 28.839 116.728 28.8402ZM116.102 28.56C116.094 28.5564 116.084 28.5529 116.076 28.5494C116.086 28.5529 116.093 28.5564 116.102 28.56ZM116.007 28.5199C116.001 28.5176 115.995 28.5152 115.989 28.5117C115.996 28.5152 116.001 28.5176 116.007 28.5199Z" fill="#00A39E"/>
<path d="M102.647 43.348C102.18 38.9523 103.827 36.0788 103.497 29.4712C103.422 27.9879 102.65 26.2268 101.391 24.3056C101.52 23.9995 101.806 23.8371 102.096 23.8371C102.395 23.8371 102.7 24.0113 102.84 24.3821C105.266 30.7826 105.919 37.3395 102.647 43.348Z" fill="#008186"/>
<path d="M69.9323 116.754C67.9816 116.754 66.0063 116.658 64.0074 116.563C56.8654 116.22 49.4561 115.43 43.4924 111.001C40.8025 109.006 38.3904 106.729 35.9124 104.482C32.5986 101.478 28.9623 101.145 24.9551 99.6686C20.2722 97.9428 13.7117 95.2376 8.08229 91.5118C7.74797 89.7001 7.55138 87.8389 7.33831 85.9378C7.11582 83.9165 6.87449 81.8505 6.42598 79.7492C9.97994 82.9088 14.3085 85.142 18.8372 87.0549C19.8284 91.4671 20.5264 93.599 29.472 97.5343C36.0337 100.42 41.7607 103.03 47.9775 104.483C48.3189 104.705 48.6709 104.913 49.0335 105.108C54.8653 108.242 60.9255 108.207 67.3672 108.233C68.0535 108.236 68.7504 108.246 69.4532 108.246C71.7569 108.246 74.1113 108.148 76.2762 107.425C78.8342 106.57 80.7131 104.049 83.2617 103.39C83.3935 103.08 83.5242 102.771 83.6549 102.46C84.0045 101.738 84.4436 101.074 84.971 100.473C86.4236 99.2307 87.9363 98.1771 89.7751 97.572C95.1396 95.8027 100.213 93.8556 105.464 91.8591C108.815 90.5842 112.369 89.7413 115.343 87.6306C118.532 85.368 121.071 81.0194 123.461 77.9093C123.577 77.7562 123.728 77.6903 123.871 77.6903C124.185 77.6903 124.464 78.0011 124.286 78.3919C122.748 81.7599 121.157 86.0261 118.256 88.5429C115.518 90.9185 112.461 92.8879 109.724 95.2706C104.629 99.7039 99.9285 102.66 93.6469 105.177C90.9147 106.27 92.4073 105.307 91.0382 107.701C90.4226 108.774 89.8446 109.471 88.9028 110.281C87.3395 111.626 84.3317 113.449 82.5342 114.316C78.4505 116.285 74.2502 116.754 69.9323 116.754Z" fill="#007D79"/>
<path d="M85.2782 92.9668C85.3865 92.8338 85.4972 92.7008 85.6102 92.5666C86.5413 91.4659 87.7044 90.6831 89.0111 90.0874C87.8327 91.1739 86.6178 92.1934 85.2782 92.9668ZM110.701 68.042C110.588 64.189 109.484 60.5197 107.526 56.1182C107.634 54.961 107.709 53.792 107.857 52.6195C108.352 48.6854 109.885 45.2409 110.627 41.402C111.857 35.0393 110.967 29.8525 109.461 23.6687C109.432 23.551 109.412 23.4297 109.386 23.3097C111.178 25.4839 113.27 27.3345 115.961 28.4999C115.963 28.5011 115.965 28.5023 115.968 28.5035C115.975 28.5058 115.983 28.5094 115.989 28.5117C115.995 28.5152 116.001 28.5176 116.007 28.5199C116.01 28.5211 116.015 28.5235 116.018 28.5247C116.025 28.5282 116.032 28.5305 116.041 28.5341C116.043 28.5352 116.044 28.5352 116.047 28.5364C116.055 28.54 116.063 28.5435 116.071 28.547C116.073 28.5482 116.075 28.5482 116.076 28.5494C116.084 28.5529 116.094 28.5564 116.102 28.56C116.103 28.56 116.103 28.5612 116.104 28.5612C116.133 28.5729 116.162 28.5859 116.191 28.5976C116.369 28.6706 116.546 28.7507 116.721 28.8366C116.724 28.8378 116.726 28.839 116.728 28.8401C116.731 28.8413 116.734 28.8437 116.736 28.8448C118.315 29.6242 119.785 30.9073 121.1 32.4694C121.304 36.3012 120.754 40.0023 119.107 43.2373C117.697 46.0107 115.765 48.4322 115.061 51.5236C114.351 54.6373 114.779 57.9499 113.881 61.0035C113.159 63.4568 112.026 65.8018 110.701 68.042Z" fill="#008186"/>
<path d="M86.3177 8.88194C83.5266 6.53108 80.779 4.34973 78.4058 2.52272C79.2427 2.55568 80.0573 2.58275 80.8531 2.61101C80.9732 2.61572 81.0921 2.62042 81.2122 2.62513C82.7967 2.68635 84.307 2.75816 85.7726 2.89825C85.8539 3.34559 85.9292 3.79645 85.961 4.28146C86.0634 5.85302 86.2153 7.37631 86.3177 8.88194Z" fill="#007D79"/>
<path d="M63.5071 78.3201C60.3675 78.3201 56.9513 77.8399 54.5804 77.4161C47.4101 76.1317 39.8972 74.7203 33.1154 71.9303C32.9258 71.8526 32.7352 71.7726 32.5433 71.689C31.5638 70.0939 30.8587 68.5412 30.4655 67.2298C28.9752 62.2608 20.53 56.3007 15.5598 53.8156C12.804 52.4371 8.36834 49.6813 5.21816 45.2115C4.80261 43.9413 4.50477 42.664 4.35997 41.3879C4.1469 41.8529 3.93853 42.3167 3.73723 42.7817C3.73723 42.7805 3.73605 42.7794 3.73605 42.7794C4.14925 41.8258 4.58953 40.8782 5.04275 39.9129C5.77026 38.3672 6.53544 36.7721 7.29356 35.031C7.29356 35.0287 7.29473 35.0275 7.29473 35.0263C7.29944 35.0169 7.30297 35.0087 7.3065 34.9993C7.30886 34.9957 7.3112 34.991 7.31238 34.9863C7.3218 34.9663 7.33005 34.9451 7.33947 34.9251C7.34182 34.9204 7.34299 34.9157 7.34535 34.911C7.3477 34.9051 7.35124 34.898 7.35359 34.8921C7.40539 34.7721 7.45718 34.6508 7.51016 34.5296C7.51016 34.5284 7.51016 34.5284 7.51016 34.5272C7.53723 34.466 7.56314 34.4036 7.58903 34.3424C7.59021 34.3412 7.5902 34.3389 7.59138 34.3377C7.59373 34.3306 7.59727 34.3224 7.6008 34.3153C7.60198 34.3118 7.60316 34.3094 7.60434 34.3059C7.61493 34.2812 7.62552 34.2576 7.63611 34.2329C7.63611 34.2317 7.63611 34.2305 7.63729 34.2294C7.64082 34.2223 7.64436 34.2129 7.64672 34.2058C7.64907 34.2023 7.65024 34.1976 7.65141 34.1952C7.65612 34.1835 7.66201 34.1717 7.66672 34.1599C7.66907 34.154 7.67143 34.1481 7.67379 34.1423C7.67614 34.1376 7.67731 34.1328 7.67967 34.1281C7.68438 34.1175 7.6891 34.1069 7.69263 34.0963C17.2409 11.3611 22.1498 18.4537 28.9881 13.4824C23.8485 17.2189 19.7966 14.1487 14.0471 22.0442C14.6051 22.3102 15.1113 22.4762 15.747 22.4762C15.8789 22.4762 16.0154 22.4692 16.159 22.4539C16.79 22.3891 17.3044 22.156 17.7059 21.8311C19.288 21.3508 20.7607 20.4726 22.5029 19.7604C24.1616 19.0824 25.858 18.9187 27.5673 18.9187C28.363 18.9187 29.1612 18.9541 29.9605 18.9894C30.5479 19.0153 31.1353 19.0412 31.7228 19.0529C29.4202 21.9453 26.8586 26.1609 25.2129 31.7008C23.0915 30.7696 21.1386 29.4959 19.434 27.7877C19.0149 27.3675 18.4899 27.1803 17.9707 27.1803C16.8665 27.1803 15.7847 28.0291 15.7917 29.2969C15.8141 33.6114 19.8154 36.3542 24.0109 37.5385C23.6507 42.8488 27.3142 41.6528 32.4526 46.3639C34.614 48.344 37.3615 49.4117 40.2245 49.7766C43.7231 52.0557 49.4737 53.9121 54.5851 53.9121C57.1149 53.9121 59.4882 53.4565 61.354 52.3735C62.5371 51.6872 63.287 51.1222 64.2735 50.1828C65.4153 49.0974 65.4377 47.2103 66.6903 46.2768C70.0194 43.7965 73.91 44.1108 76.8871 41.0901C80.0938 37.8387 81.8726 33.0993 83.1628 28.2339C83.3123 28.3175 83.4665 28.3987 83.6231 28.4764C88.5932 30.9615 87.1017 34.9357 88.5932 42.8841C89.1571 45.893 89.6491 49.686 89.748 53.4801C87.0875 55.6661 84.2528 57.5626 81.085 59.0012C73.3755 62.5021 65.5637 64.5881 57.7188 64.5881C51.4208 64.5881 45.1004 63.2438 38.7918 60.2078C38.547 60.0912 38.2951 60.0383 38.049 60.0383C36.6505 60.0383 35.4286 61.7334 36.7411 62.8659C43.078 68.3399 51.8905 68.3575 59.467 71.1793C61.0691 71.7761 63.028 72.048 65.1328 72.048C71.1883 72.048 78.461 69.7937 81.975 66.5164C84.3423 64.3068 86.9074 62.395 89.396 60.3773C88.8675 63.9383 87.7197 66.9955 85.6102 68.7213C80.1456 73.1911 71.2036 68.7189 65.7391 76.6685C65.3259 77.2689 64.9139 77.8116 64.5007 78.3037C64.1734 78.3154 63.8426 78.3201 63.5071 78.3201ZM54.996 46.6229C54.5192 46.6229 54.033 46.6029 53.5492 46.5699C53.6398 46.5017 53.7281 46.4334 53.8152 46.3639C56.5746 44.1555 58.4145 40.4156 59.2503 36.5897C60.7642 35.8798 62.2039 34.9592 63.7061 33.7738C66.622 31.4724 68.044 27.9561 70.9823 25.6523C72.7552 24.2609 74.3785 21.7111 75.2803 18.9505C76.6246 20.9788 77.7418 22.9224 79.0591 24.6034C78.8672 25.3533 78.5729 26.102 78.1479 26.8507C76.3633 29.9962 74.2055 33.3159 71.937 36.14C70.243 38.2495 66.7432 38.4661 64.5442 40.0177C62.3829 41.5421 60.9596 42.3238 59.7554 44.8112C59.0726 46.2227 57.1267 46.6229 54.996 46.6229ZM59.7577 31.4641C59.7259 30.2139 59.567 29.0332 59.281 27.9808C58.5464 25.2874 57.8118 22.594 56.4227 20.3173C57.0584 19.1542 57.5988 17.8934 58.0626 16.5926C58.404 15.6367 60.8431 15.4849 61.6142 14.7138C62.7325 13.5955 62.9244 12.0922 63.1186 10.6218C63.1798 10.1604 63.174 9.70717 63.1116 9.26572C67.0634 11.4118 70.5903 13.5601 72.4126 15.2412C72.249 18.6174 72.063 22.0677 69.6827 24.3515C68.3171 25.6629 67.1576 26.6977 66.1487 28.3269C64.6937 30.6825 62.2769 31.2263 59.7577 31.4641ZM53.5798 17.12C52.4462 16.2571 51.0618 15.5531 49.3431 15.0622C47.3171 14.4842 45.4195 14.1158 43.6701 13.9592C43.9468 13.6602 44.2246 13.3471 44.5095 13.021C46.5755 10.6572 49.4172 9.2457 51.4597 6.91368C51.8281 6.49224 51.7316 5.96249 51.296 5.6423C50.1153 4.7747 48.8463 4.41919 47.549 4.41919C43.5265 4.41919 39.2345 7.84249 36.4857 10.065C35.2685 11.048 33.4167 11.3823 31.4214 11.4883C34.6681 8.61708 36.1302 6.56641 41.1003 4.67818C43.4535 3.78351 45.9009 2.81114 48.4048 1.98357C50.4979 2.94888 53.2172 4.22849 56.0943 5.64819C56.418 6.93369 56.9313 8.20859 57.421 9.42346C58.0861 11.0715 56.5663 12.4547 55.8118 13.6755C55.0042 14.9845 54.8677 15.8933 53.6504 17.0541C53.6269 17.0764 53.6033 17.0988 53.5798 17.12ZM29.0505 13.4377C29.0529 13.4353 29.0552 13.433 29.0588 13.4318C29.0564 13.433 29.0529 13.4353 29.0505 13.4377ZM29.0811 13.4142C29.0835 13.413 29.0858 13.4118 29.087 13.4106C29.0847 13.4118 29.0835 13.413 29.0811 13.4142ZM29.1447 13.3671C29.1459 13.3671 29.1459 13.3671 29.147 13.3659C29.1459 13.3659 29.1459 13.3671 29.1447 13.3671ZM29.2224 13.3082C29.2224 13.3082 29.2224 13.3082 29.2236 13.3082H29.2224ZM29.2683 13.2741C29.2695 13.2729 29.2695 13.2717 29.2707 13.2717C29.2707 13.2717 29.2683 13.2729 29.2683 13.2741ZM29.2989 13.2505C29.3001 13.2482 29.3013 13.2482 29.3024 13.247C29.3013 13.2482 29.3001 13.2494 29.2989 13.2505Z" fill="#4CCBC8"/>
<path d="M65.1329 72.048C63.028 72.048 61.0692 71.7761 59.467 71.1793C51.8905 68.3575 43.078 68.3399 36.7412 62.8659C35.4286 61.7334 36.6505 60.0383 38.0491 60.0383C38.2951 60.0383 38.547 60.0912 38.7919 60.2078C45.1005 63.2438 51.4208 64.5881 57.7188 64.5881C65.5637 64.5881 73.3756 62.5021 81.085 59.0012C84.2529 57.5626 87.0876 55.6661 89.7481 53.4801C89.8093 55.8416 89.7174 58.203 89.3961 60.3773C86.9075 62.395 84.3424 64.3068 81.975 66.5164C78.4611 69.7937 71.1884 72.048 65.1329 72.048Z" fill="#4CB1B5"/>
<path d="M24.011 37.5385C19.8154 36.3542 15.8141 33.6113 15.7918 29.2969C15.7847 28.0291 16.8665 27.1803 17.9707 27.1803C18.4899 27.1803 19.0149 27.3675 19.434 27.7877C21.1386 29.4958 23.0916 30.7696 25.2129 31.7007C24.9515 32.5801 24.7137 33.4924 24.503 34.4389C24.2287 35.6726 24.0686 36.6885 24.011 37.5385ZM59.2504 36.5896C59.6282 34.8533 59.8013 33.1004 59.7577 31.4641C62.2769 31.2263 64.6937 30.6825 66.1487 28.3269C67.1576 26.6977 68.3172 25.6629 69.6827 24.3515C72.063 22.0677 72.249 18.6174 72.4126 15.2412C72.7234 15.5284 72.9847 15.8003 73.1908 16.0581C73.9665 17.0281 74.6481 17.9982 75.2803 18.9505C74.3785 21.711 72.7552 24.2608 70.9823 25.6523C68.044 27.9561 66.622 31.4724 63.7061 33.7738C62.204 34.9592 60.7642 35.8798 59.2504 36.5896Z" fill="#4CB1B5"/>
<path d="M56.4227 20.3172C55.6893 19.1153 54.7747 18.0299 53.5798 17.12C53.6034 17.0988 53.6269 17.0764 53.6505 17.054C54.8677 15.8933 55.0042 14.9845 55.8118 13.6755C56.5664 12.4547 58.0861 11.0715 57.421 9.42344C56.9313 8.20857 56.4181 6.93367 56.0943 5.64817C58.4122 6.79358 60.8337 8.02846 63.1116 9.2657C63.174 9.70714 63.1799 10.1604 63.1187 10.6218C62.9244 12.0921 62.7325 13.5954 61.6142 14.7138C60.8431 15.4848 58.404 15.6367 58.0626 16.5926C57.5988 17.8934 57.0584 19.1542 56.4227 20.3172Z" fill="#4CAEAB"/>
<path d="M55.3727 82.6075C52.7275 82.6063 49.7904 82.04 46.3624 81.6374C40.1456 80.9064 35.2756 76.1364 32.5433 71.6889C32.7352 71.7725 32.9259 71.8526 33.1154 71.9303C39.8972 74.7202 47.4101 76.1317 54.5804 77.416C56.9513 77.8398 60.3675 78.3201 63.5071 78.3201C63.8426 78.3201 64.1734 78.3154 64.5007 78.3036C61.6566 81.681 58.7536 82.6075 55.3727 82.6075ZM5.21818 45.2114C4.68256 44.4509 4.18459 43.6422 3.73726 42.7817C3.93856 42.3167 4.14693 41.8529 4.36 41.3879C4.5048 42.6639 4.80263 43.9412 5.21818 45.2114Z" fill="#4CAEAB"/>
<path d="M54.5851 53.9121C49.4737 53.9121 43.7231 52.0557 40.2245 49.7766C41.005 49.8767 41.7925 49.925 42.5812 49.925C46.7356 49.925 50.8616 48.5947 53.5492 46.57C54.033 46.6029 54.5192 46.6229 54.996 46.6229C57.1267 46.6229 59.0726 46.2227 59.7554 44.8112C60.9596 42.3238 62.3829 41.5421 64.5442 40.0177C66.7432 38.4661 70.243 38.2495 71.937 36.14C74.2055 33.3159 76.3633 29.9962 78.1479 26.8507C78.5729 26.102 78.8672 25.3533 79.0591 24.6034C80.188 26.0455 81.4664 27.2933 83.1628 28.2339C81.8726 33.0993 80.0938 37.8387 76.8871 41.0901C73.91 44.1108 70.0194 43.7965 66.6903 46.2768C65.4377 47.2104 65.4153 49.0974 64.2735 50.1828C63.287 51.1222 62.5371 51.6872 61.354 52.3735C59.4882 53.4566 57.1149 53.9121 54.5851 53.9121Z" fill="#4CAEAB"/>
<path d="M15.747 22.4762C15.1113 22.4762 14.6051 22.3102 14.0471 22.0442C19.7966 14.1487 23.8485 17.2189 28.9881 13.4824H28.9893C28.9928 13.4801 28.9952 13.4777 28.9987 13.4754H28.9999C29.0093 13.4683 29.0175 13.4612 29.027 13.4542C29.0293 13.453 29.0305 13.4518 29.0317 13.4506C29.0376 13.4471 29.0435 13.4424 29.0482 13.4389C29.0494 13.4389 29.0494 13.4377 29.0505 13.4377C29.0529 13.4353 29.0564 13.433 29.0588 13.4318C29.0599 13.4306 29.0611 13.4295 29.0623 13.4283C29.0658 13.4259 29.0694 13.4236 29.0729 13.4212C29.0764 13.4189 29.0788 13.4165 29.0811 13.4142C29.0835 13.413 29.0846 13.4118 29.087 13.4106C29.0905 13.4083 29.0929 13.4059 29.0953 13.4047C29.0976 13.4024 29.1 13.4012 29.1023 13.3989C29.1059 13.3965 29.1094 13.3942 29.1141 13.3906C29.1153 13.3894 29.1164 13.3883 29.1176 13.3883C29.12 13.3859 29.1235 13.3824 29.127 13.3812C29.1282 13.38 29.1294 13.3788 29.1318 13.3777C29.1353 13.3741 29.1412 13.3706 29.1447 13.3671C29.1459 13.3671 29.1459 13.3659 29.147 13.3659C29.1506 13.3624 29.1553 13.36 29.1588 13.3565C29.16 13.3553 29.1612 13.3553 29.1624 13.3541C29.1671 13.3506 29.1718 13.3471 29.1753 13.3447C29.1765 13.3435 29.1776 13.3424 29.1788 13.3424C29.1824 13.3388 29.1859 13.3365 29.1894 13.3329C29.1906 13.3329 29.1918 13.3318 29.193 13.3306C29.1965 13.3282 29.2024 13.3247 29.2059 13.3212C29.2071 13.32 29.2083 13.32 29.2094 13.3188C29.213 13.3153 29.2177 13.3117 29.2224 13.3082H29.2236C29.2283 13.3047 29.233 13.3 29.2377 13.2964C29.2389 13.2964 29.2389 13.2964 29.24 13.2953C29.2448 13.2917 29.2483 13.2882 29.253 13.2847H29.2542C29.2589 13.2811 29.2636 13.2776 29.2683 13.2741C29.2683 13.2729 29.2707 13.2717 29.2707 13.2717C29.2742 13.2682 29.2789 13.2647 29.2836 13.2623C29.2848 13.2611 29.286 13.26 29.2871 13.2588C29.2907 13.2564 29.2954 13.2529 29.2989 13.2505C29.3001 13.2493 29.3013 13.2482 29.3024 13.247C29.3071 13.2435 29.3119 13.2399 29.3166 13.2364C29.3225 13.2317 29.3295 13.227 29.3354 13.2211C30.1194 12.6113 30.8034 12.0345 31.4214 11.4883C33.4167 11.3823 35.2685 11.048 36.4857 10.065C39.2345 7.84249 43.5265 4.41919 47.549 4.41919C48.8463 4.41919 50.1153 4.7747 51.296 5.6423C51.7316 5.96249 51.8281 6.49224 51.4597 6.91368C49.4172 9.2457 46.5755 10.6572 44.5095 13.021C44.2246 13.3471 43.9468 13.6602 43.6701 13.9592C43.018 13.9003 42.3858 13.8709 41.776 13.8709C38.4139 13.8709 35.7311 14.7644 33.9429 16.5526C33.2649 17.2318 32.508 18.0653 31.7228 19.0529C31.1353 19.0412 30.5479 19.0153 29.9605 18.9894C29.1612 18.9541 28.363 18.9187 27.5672 18.9187C25.858 18.9187 24.1616 19.0824 22.5029 19.7604C20.7607 20.4726 19.288 21.3508 17.7059 21.8311C17.3044 22.156 16.79 22.3891 16.159 22.4539C16.0154 22.4692 15.8789 22.4762 15.747 22.4762Z" fill="#4CB1B5"/>
<path d="M40.2245 49.7766C37.3615 49.4117 34.614 48.344 32.4526 46.3639C27.3142 41.6528 23.6507 42.8488 24.0109 37.5385C25.6084 37.9893 27.2341 38.2142 28.6797 38.2142C29.0305 38.2142 29.3707 38.2012 29.6968 38.1753C31.4838 38.0305 33.219 37.4937 34.9836 37.2041C35.3791 37.1394 35.7688 37.1123 36.1549 37.1123C37.9643 37.1123 39.6747 37.7221 41.4688 37.9163C44.3317 38.2248 46.7344 38.6156 49.3855 38.6156C50.5167 38.6156 51.6928 38.545 52.97 38.366C55.3562 38.0317 57.3609 37.4749 59.2503 36.5896C58.4145 40.4155 56.5746 44.1555 53.8152 46.3639C53.7281 46.4334 53.6398 46.5016 53.5492 46.5699C51.5374 46.431 49.575 46.0637 48.532 45.959C47.1476 45.82 45.888 45.6811 44.6767 45.6811C42.9532 45.6811 41.3287 45.9625 39.5865 46.9243C38.5929 47.4728 38.7789 48.7513 39.5865 49.3387C39.7889 49.4858 40.002 49.633 40.2245 49.7766ZM37.5923 33.9174C33.2366 33.9174 28.9622 33.3453 25.2129 31.7007C26.8586 26.1608 29.4202 21.9453 31.7228 19.0529C31.9347 19.0576 32.1477 19.06 32.3608 19.06C33.365 19.06 34.3679 19.0046 35.3638 18.8222C39.1226 18.1371 41.2769 16.5549 43.6702 13.9592C45.4195 14.1158 47.3171 14.4842 49.3431 15.0622C51.0618 15.5531 52.4462 16.2571 53.5798 17.12C52.0412 18.5809 50.7122 19.5591 48.532 19.8205C46.3518 20.0818 42.7037 20.3149 42.0338 23.0683C41.5253 25.1567 42.9862 25.9866 44.7814 26.3421C45.6278 26.5093 46.4283 26.5893 47.1841 26.5893C51.5597 26.5893 54.4497 23.9253 56.4227 20.3172C57.8118 22.5939 58.5464 25.2874 59.281 27.9808C59.567 29.0332 59.7259 30.2139 59.7577 31.4641C58.2803 31.6042 56.7665 31.6383 55.3927 31.8703C50.1577 32.7555 43.7937 33.9174 37.5923 33.9174Z" fill="#81DAD8"/>
<path d="M49.3855 38.6156C46.7344 38.6156 44.3318 38.2248 41.4688 37.9164C39.6748 37.7221 37.9643 37.1123 36.1549 37.1123C35.7688 37.1123 35.3792 37.1394 34.9836 37.2042C33.219 37.4937 31.4838 38.0305 29.6968 38.1753C29.3707 38.2012 29.0305 38.2142 28.6797 38.2142C27.2341 38.2142 25.6084 37.9894 24.011 37.5385C24.0686 36.6886 24.2287 35.6726 24.503 34.4389C24.7137 33.4925 24.9515 32.5801 25.2129 31.7008C28.9622 33.3453 33.2366 33.9174 37.5923 33.9174C43.7938 33.9174 50.1577 32.7555 55.3927 31.8703C56.7665 31.6384 58.2804 31.6042 59.7577 31.4641C59.8013 33.1004 59.6282 34.8533 59.2504 36.5897C57.361 37.4749 55.3562 38.0317 52.97 38.3661C51.6928 38.545 50.5168 38.6156 49.3855 38.6156Z" fill="#81C8CB"/>
<path d="M47.1841 26.5894C46.4283 26.5894 45.6279 26.5093 44.7814 26.3421C42.9862 25.9866 41.5253 25.1567 42.0339 23.0684C42.7037 20.3149 46.3518 20.0818 48.532 19.8205C50.7122 19.5591 52.0412 18.5809 53.5798 17.12C54.7747 18.0299 55.6894 19.1153 56.4227 20.3172C54.4498 23.9254 51.5597 26.5894 47.1841 26.5894Z" fill="#81C6C4"/>
<path d="M42.5812 49.9249C41.7925 49.9249 41.005 49.8767 40.2245 49.7766C40.002 49.633 39.7889 49.4858 39.5864 49.3387C38.7789 48.7513 38.5929 47.4728 39.5864 46.9243C41.3287 45.9625 42.9532 45.6811 44.6767 45.6811C45.888 45.6811 47.1476 45.82 48.532 45.959C49.575 46.0637 51.5373 46.431 53.5492 46.5699C50.8616 48.5947 46.7356 49.9249 42.5812 49.9249Z" fill="#81C6C4"/>
<path d="M32.3608 19.06C32.1477 19.06 31.9347 19.0576 31.7228 19.0529C32.508 18.0653 33.2649 17.2318 33.943 16.5526C35.7311 14.7644 38.414 13.8709 41.776 13.8709C42.3858 13.8709 43.018 13.9003 43.6702 13.9592C41.2769 16.5549 39.1226 18.1371 35.3638 18.8222C34.3679 19.0047 33.365 19.06 32.3608 19.06Z" fill="#81C8CB"/>
</g>
<defs>
<clipPath id="clip0_2_496">
<rect width="128" height="128" fill="white"/>
</clipPath>
</defs>
</svg>
