<svg width="128" height="128" viewBox="0 0 128 128" fill="none" xmlns="http://www.w3.org/2000/svg">
<g clip-path="url(#clip0_2_382)">
<path d="M126.941 63.9108C126.941 77.6417 127.685 89.9929 115.762 98.9349C111.377 102.225 105.07 113.33 100.858 116.82C89.8934 125.912 75.2266 128 59.87 128C46.0438 128 39.7305 120.613 29.3169 113.095C23.2602 108.724 15.2565 105.521 11.0715 99.3269C6.93364 93.1996 8.01078 86.207 6.21437 78.8154C5.04424 74.0053 1.5397 67.566 0.998189 62.4205C-0.493325 48.2611 3.79167 43.3863 7.69292 34.0958C17.3931 11.0003 22.3055 18.6851 29.3169 13.2346C34.2365 9.41227 35.1759 6.92838 41.1007 4.6764C48.0933 2.01945 55.9099 -1.35558 63.597 0.56562C78.5016 4.29264 86.4889 0.648033 95.6416 5.78298C104.328 10.6554 106.075 24.4145 116.192 28.5971C123.824 31.7532 129.177 46.7708 126.689 50.5096C124.164 54.3037 126.941 59.7165 126.941 63.9108Z" fill="#C098A4"/>
<path d="M31.4536 25.6918C35.3478 28.4771 41.0395 28.6948 45.3351 30.8715C50.1864 33.3283 49.7214 40.4068 53.1318 44.2268C56.2702 47.7431 62.1126 49.7409 66.7472 48.194C73.223 46.0315 75.1996 41.3192 79.1703 36.3349C83.9238 30.37 89.7356 32.5761 96.2785 32.9551C102.035 33.2895 107.661 29.5707 111.968 25.9402C105.364 20.2555 102.951 9.88318 95.6416 5.78299C86.4889 0.648041 78.5016 4.29264 63.5971 0.565628C55.9099 -1.35556 48.0933 2.01946 41.1007 4.6764C35.1759 6.92839 34.2365 9.41228 29.317 13.2347C27.4958 14.6496 25.8171 15.1782 24.1585 15.5914C25.5817 19.6116 27.9585 23.1926 31.4536 25.6918Z" fill="#9A718E"/>
<path d="M52.0181 104.344C53.2495 101.455 55.6097 100.579 58.0524 98.9502C67.4653 92.6722 63.3122 80.7142 53.4508 78.0078C49.2011 76.8412 44.5076 77.3721 40.1696 77.4793C32.9133 77.6594 31.27 71.8664 27.2039 67.0175C23.3462 62.4193 17.6556 60.3215 11.9956 58.6158C8.31334 57.5069 5.6976 55.9612 2.75695 53.4726C2.62158 53.3584 1.89055 52.7121 1.03944 51.9564C0.629771 54.8735 0.55795 58.2344 0.998223 62.4205C1.53974 67.5661 5.04427 74.0053 6.21441 78.8154C8.01082 86.207 6.93368 93.1996 11.0715 99.3269C15.2565 105.521 23.2603 108.725 29.317 113.095C35.8646 117.822 40.7947 122.494 46.9868 125.315C49.3588 122.287 50.8291 118.708 50.8527 114.72C50.8727 111.2 50.6031 107.663 52.0181 104.344Z" fill="#9A718E"/>
<path d="M71.2583 100.529L71.3736 100.514L71.1335 100.816C69.6373 101.723 68.5613 102.935 67.8561 104.316C66.8802 104.863 65.962 105.546 65.1615 106.384C60.2715 111.5 60.9919 120.012 67.7761 122.992C73.3372 125.436 81.6259 125.229 86.4865 121.219C91.6356 116.971 89.0917 109.165 86.6643 104.181C83.9591 98.6218 76.1166 95.3598 71.2583 100.529Z" fill="#9A718E"/>
<path d="M121.944 35.6839C121.122 37.9135 120.292 40.1173 118.575 41.9808C114.984 45.8773 109.611 47.4383 105.043 49.8186C97.3556 53.8234 84.8632 55.4444 83.2316 66.1546C82.6418 70.0264 84.7678 72.4797 87.6579 74.7293C88.8162 75.6311 89.9746 77.3721 91.2683 77.9372C93.8853 79.0826 97.8748 80.5918 98.2491 83.8138C98.846 88.9346 97.5781 93.6893 98.9107 98.9114C100.064 103.438 103.47 104.853 107.265 106.206C107.673 106.65 108.095 107.046 108.52 107.428C111.081 103.935 113.645 100.524 115.762 98.9349C127.685 89.9929 126.941 77.6417 126.941 63.9109C126.941 59.7165 124.164 54.3037 126.689 50.5096C128.477 47.8209 126.212 39.3003 121.962 33.552C121.916 34.2571 121.905 34.9694 121.944 35.6839Z" fill="#9A718E"/>
<path d="M59.87 128C46.882 128 40.5239 121.481 31.1675 114.459C36.8275 118.706 41.3915 122.766 46.9867 125.315C49.3588 122.287 50.8291 118.708 50.8527 114.72C50.8715 111.5 50.6467 108.265 51.692 105.198C53.8133 105.515 56.0147 105.69 58.3432 105.69C60.9578 105.69 63.7324 105.47 66.7331 104.986C66.7578 104.982 66.7837 104.977 66.8085 104.974C66.2222 105.385 65.6689 105.853 65.1616 106.384C60.2715 111.5 60.9919 120.012 67.7761 122.992C70.1235 124.025 72.9593 124.584 75.8152 124.584C79.7259 124.584 83.6777 123.536 86.4865 121.219C91.6356 116.971 89.0917 109.165 86.6643 104.181C85.5319 101.854 83.5 99.9296 81.1621 98.8572C82.4923 97.1326 83.4894 95.0749 85.6119 92.5662C88.5101 89.1418 93.6416 88.791 98.4175 87.5867C98.3751 91.3337 97.9101 94.9913 98.9107 98.9113C100.064 103.438 103.47 104.853 107.265 106.206C107.673 106.65 108.094 107.046 108.519 107.428C105.776 111.172 103.037 115.014 100.858 116.82C89.8934 125.912 75.2266 128 59.87 128Z" fill="#AC8993"/>
<path d="M46.9867 125.315C41.3915 122.766 36.8275 118.706 31.1675 114.459C31.1663 114.459 31.1651 114.458 31.164 114.456C31.1592 114.453 31.1533 114.449 31.1486 114.445C30.5506 113.996 29.9408 113.546 29.3169 113.095C23.2602 108.725 15.2564 105.521 11.0715 99.3269C6.93363 93.1996 8.01077 86.207 6.21436 78.8154C6.21201 78.8048 6.20965 78.7954 6.20729 78.786C5.34558 75.2626 3.2431 70.874 1.96701 66.7597C7.29149 72.6257 15.0704 75.2661 17.054 80.6424C20.5303 90.0836 17.054 92.0695 29.4723 97.5317C37.3172 100.986 43.9731 104.04 51.692 105.198C50.6466 108.265 50.8715 111.5 50.8526 114.72C50.8291 118.708 49.3588 122.287 46.9867 125.315Z" fill="#8A6580"/>
<path d="M75.8152 124.584C72.9593 124.584 70.1234 124.025 67.7761 122.992C60.9919 120.012 60.2715 111.5 65.1615 106.384C65.6689 105.853 66.2222 105.385 66.8085 104.974C76.1684 103.455 79.0749 101.567 81.1621 98.8572C83.5 99.9297 85.5319 101.854 86.6643 104.181C89.0917 109.165 91.6356 116.971 86.4865 121.219C83.6777 123.536 79.7259 124.584 75.8152 124.584Z" fill="#8A6580"/>
<path d="M104.632 50.0281C100.777 41.4004 103.482 39.159 103.541 31.466C106.624 30.1099 109.498 28.0203 111.948 25.9567C113.193 27.0291 114.588 27.9344 116.192 28.5971C118.337 29.4848 120.301 31.3071 121.962 33.5532C121.916 34.2571 121.905 34.9705 121.944 35.6839C121.122 37.9135 120.292 40.1173 118.575 41.9808C114.984 45.8773 109.611 47.4383 105.043 49.8186C104.907 49.8892 104.771 49.9586 104.632 50.0281ZM96.0007 5.99137C95.9972 5.98902 95.9948 5.98784 95.9925 5.98666C95.9948 5.98784 95.9983 5.98902 96.0007 5.99137ZM95.9289 5.94781C95.9207 5.9431 95.9148 5.93955 95.9065 5.93484C95.9136 5.93955 95.9218 5.9431 95.9289 5.94781ZM95.8912 5.92545C95.8806 5.91956 95.8724 5.91484 95.8618 5.90895C95.8712 5.91484 95.8818 5.91956 95.8912 5.92545ZM95.85 5.90191C95.8383 5.89484 95.8277 5.88776 95.8159 5.88187C95.8265 5.88776 95.8383 5.89484 95.85 5.90191ZM95.7252 5.82891C95.7123 5.82185 95.7005 5.81479 95.6876 5.80773C95.6994 5.81479 95.7123 5.82185 95.7252 5.82891ZM95.6805 5.80419C95.6676 5.79713 95.6546 5.79007 95.6417 5.78301C95.6546 5.79007 95.6687 5.79713 95.6805 5.80419Z" fill="#AC8993"/>
<path d="M103.541 31.466C103.545 30.8397 103.532 30.1758 103.497 29.4706C103.153 22.5934 87.8203 9.77016 78.4098 2.52331C83.4894 2.72697 87.7273 2.69519 91.9829 4.14432C91.9841 4.1455 91.9853 4.1455 91.9865 4.14668C91.9935 4.14903 92.0005 4.15139 92.0076 4.15375C92.0111 4.15492 92.0147 4.15493 92.0182 4.15611C92.0241 4.15846 92.03 4.16082 92.0359 4.16318C92.0394 4.16435 92.0441 4.16553 92.0477 4.16671C92.0547 4.16906 92.0618 4.1714 92.0688 4.17375C92.0771 4.17728 92.0842 4.17965 92.0924 4.182C92.0948 4.18318 92.0994 4.18436 92.103 4.18554C92.1089 4.18789 92.1148 4.19025 92.1218 4.1926C92.1254 4.19378 92.1289 4.19496 92.1324 4.19614C92.1395 4.19849 92.1466 4.20083 92.1536 4.20436C92.156 4.20436 92.1595 4.20554 92.1607 4.20672C92.1701 4.20907 92.1795 4.21261 92.1889 4.21614C92.1901 4.21614 92.1901 4.21614 92.1913 4.21732C93.3014 4.60698 94.4127 5.10023 95.5428 5.7265C95.5451 5.72768 95.5451 5.72883 95.5475 5.73001C95.5557 5.73472 95.5639 5.73944 95.5734 5.74415C95.5757 5.74533 95.5781 5.74651 95.5804 5.74768C95.5887 5.75239 95.5958 5.75709 95.604 5.7618C95.6075 5.76297 95.6087 5.76415 95.6111 5.76533C95.6217 5.77122 95.6322 5.77712 95.6416 5.783C95.6546 5.79007 95.6676 5.79712 95.6805 5.80419C95.684 5.80536 95.6852 5.80654 95.6876 5.80772C95.7005 5.81479 95.7123 5.82184 95.7252 5.8289C95.7264 5.83008 95.7299 5.83244 95.7323 5.83362C95.7441 5.84068 95.757 5.84773 95.7699 5.8548C95.7699 5.85598 95.7711 5.85598 95.7723 5.85715C95.7841 5.86304 95.7959 5.87009 95.8076 5.87716C95.81 5.87834 95.8123 5.87952 95.8159 5.88187C95.8276 5.88776 95.8382 5.89484 95.85 5.9019C95.8535 5.90426 95.8571 5.90659 95.8618 5.90895C95.8724 5.91483 95.8806 5.91956 95.8912 5.92544C95.8959 5.92897 95.9018 5.93249 95.9065 5.93484C95.9148 5.93955 95.9206 5.94309 95.9289 5.9478C95.9348 5.95133 95.9418 5.95605 95.9477 5.95959C95.956 5.96429 95.9642 5.96899 95.9712 5.9737C95.9795 5.9784 95.9854 5.98195 95.9925 5.98666C95.9948 5.98783 95.9971 5.98902 96.0007 5.99137C96.0148 5.99961 96.0301 6.00903 96.0431 6.01727C96.0443 6.01727 96.0443 6.01727 96.0454 6.01727C103.042 10.267 105.468 20.3779 111.948 25.9567C109.498 28.0203 106.624 30.1099 103.541 31.466Z" fill="#8A6580"/>
<path d="M108.519 107.428C108.094 107.046 107.673 106.65 107.265 106.206C103.47 104.853 100.064 103.438 98.9107 98.9114C97.9101 94.9913 98.3751 91.3337 98.4175 87.5867C102.648 86.5202 106.6 84.7838 108.467 79.6488C112.442 68.7174 110.95 62.7584 105.487 51.8269C105.171 51.1971 104.887 50.5979 104.632 50.0281C104.771 49.9586 104.907 49.8892 105.043 49.8186C109.611 47.4382 114.984 45.8773 118.575 41.9808C120.292 40.1173 121.122 37.9135 121.944 35.6839C121.905 34.9705 121.916 34.2571 121.962 33.5532C124.04 36.3643 125.645 39.8394 126.531 42.9696C126.533 42.9731 126.534 42.9755 126.535 42.9779C126.536 42.9849 126.538 42.9931 126.541 43.0002C126.541 43.0026 126.542 43.0061 126.543 43.0096C126.546 43.0202 126.549 43.0308 126.553 43.0414C126.554 43.0461 126.555 43.0532 126.557 43.0591C126.558 43.0626 126.56 43.0685 126.561 43.0732C126.563 43.0815 126.566 43.0897 126.568 43.0991C126.569 43.1015 126.569 43.1026 126.57 43.105C126.573 43.1156 126.576 43.1273 126.58 43.1391C126.58 43.1403 126.58 43.1426 126.581 43.1438C126.583 43.1544 126.587 43.1674 126.59 43.178C127.454 46.3258 127.58 49.0993 126.721 50.4613C126.717 50.4672 126.714 50.4719 126.71 50.4778C126.707 50.4825 126.704 50.4872 126.701 50.4919C126.701 50.4931 126.7 50.4943 126.699 50.4954C126.696 50.5001 126.693 50.5049 126.689 50.5096C125.9 51.695 125.628 53.0394 125.628 54.4544C125.628 57.5681 126.941 61.0279 126.941 63.9109C126.941 65.44 126.95 66.9516 126.95 68.4431C126.95 80.3493 126.358 90.9876 115.762 98.9349C113.646 100.524 111.081 103.933 108.519 107.428Z" fill="#8A6580"/>
<path d="M59.923 81.8113C58.2596 80.082 56.0536 78.7224 53.4508 78.0078C51.3283 77.4251 49.0939 77.2662 46.849 77.2662C44.6006 77.2662 42.3403 77.4251 40.1696 77.4792C40.0601 77.4828 39.9506 77.4839 39.8435 77.4839C38.7981 77.4839 37.8728 77.3557 37.0406 77.1237C33.6337 74.0513 31.3182 70.0711 30.4659 67.2294C28.9756 62.2604 20.5303 56.3014 15.5614 53.8152C12.337 52.2036 6.81122 48.7038 3.73637 42.7777C4.10484 41.9313 4.49215 41.0884 4.89357 40.2326C5.79178 38.3161 6.75352 36.3337 7.69293 34.0959C14.875 16.997 19.4308 16.7698 24.1585 15.5926C25.185 18.492 26.7095 21.1643 28.7908 23.3657C27.6489 25.3375 26.5635 27.6318 25.6759 30.2476C23.9218 30.2747 22.2279 30.6231 21.0177 31.2965C16.5231 33.7969 17.665 40.069 19.452 43.7995C19.4061 43.7042 19.3731 43.6618 19.3508 43.6618C19.1848 43.6618 19.5638 45.9008 19.6121 46.2034C19.8263 47.3194 20.1995 48.3106 20.5468 49.3889C21.2449 51.5502 22.8188 53.2548 24.7871 54.3284C26.3846 55.2007 28.2398 55.4939 29.9868 55.9047C31.2028 56.1896 32.7097 57.5022 33.941 57.9942C35.0794 58.4486 36.2577 58.6758 37.4055 58.6758C40.3532 58.677 43.0949 57.1737 44.4205 54.1671C45.035 52.771 45.2775 51.2701 45.2115 49.7503C48.5618 49.31 51.6897 48.0645 53.8157 46.3635C54.0982 46.1375 54.3713 45.8949 54.635 45.6383C57.0224 47.5312 60.242 48.7238 63.3487 48.7238C64.5141 48.7238 65.663 48.5554 66.7472 48.194C73.223 46.0315 75.1996 41.3192 79.1703 36.3349C81.5517 33.3472 84.1981 32.4101 87.0693 32.2653C87.8804 34.7151 87.6908 38.0713 88.5926 42.8848C89.3189 46.7531 89.9263 51.9163 89.7297 56.7122C86.443 58.8453 83.9073 61.7212 83.2316 66.1546C83.0138 67.5919 83.168 68.8327 83.5977 69.9416C78.1355 72.3278 70.5755 69.6332 65.7396 76.6682C63.8431 79.4287 61.9454 80.9897 59.923 81.8113Z" fill="#D3B7BF"/>
<path d="M63.3487 48.7238C60.242 48.7238 57.0224 47.5312 54.635 45.6383C58.9977 41.3815 60.687 33.1352 59.2814 27.9803C57.7899 22.5157 56.2996 17.0523 49.3435 15.0629C46.5618 14.2682 44.0178 13.8704 41.7764 13.8704C38.4144 13.8704 35.7315 14.765 33.9434 16.5532C32.4366 18.0612 30.5471 20.332 28.7908 23.3657C26.7095 21.1643 25.185 18.492 24.1585 15.5926C25.8171 15.1794 27.4958 14.6497 29.317 13.2347C34.2365 9.41228 35.1759 6.92839 41.1007 4.67641C41.1784 4.64698 41.2561 4.61755 41.3326 4.58812C41.3644 4.57635 41.395 4.56457 41.4268 4.5528C43.68 3.69344 46.0167 2.77289 48.4053 1.98417C55.6074 5.30505 70.2212 12.3447 73.1912 16.0576C77.1667 21.0242 78.657 25.9944 83.6236 28.4771C85.5848 29.4565 86.5395 30.669 87.0693 32.2653C84.1981 32.4101 81.5517 33.3472 79.1703 36.3349C75.1996 41.3192 73.223 46.0315 66.7472 48.194C65.663 48.5554 64.5141 48.7238 63.3487 48.7238Z" fill="#B89BB0"/>
<path d="M55.3743 82.606C52.7291 82.606 49.792 82.0385 46.364 81.6359C42.7488 81.211 39.5892 79.4216 37.0405 77.1238C37.8728 77.3557 38.7981 77.484 39.8435 77.484C39.9506 77.484 40.0601 77.4828 40.1696 77.4792C42.3403 77.4251 44.6005 77.2662 46.849 77.2662C49.0939 77.2662 51.3282 77.4251 53.4507 78.0078C56.0535 78.7224 58.2596 80.082 59.923 81.8113C58.4856 82.3952 56.9835 82.606 55.3743 82.606Z" fill="#B89BB0"/>
<path d="M37.4055 58.6758C36.2578 58.6758 35.0794 58.4486 33.941 57.9942C32.7097 57.5022 31.2029 56.1896 29.9868 55.9047C28.2398 55.4938 26.3846 55.2007 24.7871 54.3284C22.8188 53.2548 21.2449 51.5502 20.5468 49.3889C20.1996 48.3106 19.8264 47.3193 19.6121 46.2034C19.5638 45.9008 19.1848 43.6618 19.3508 43.6618C19.3731 43.6618 19.4061 43.7042 19.452 43.7995C17.665 40.069 16.5232 33.7968 21.0177 31.2965C22.2279 30.6231 23.9218 30.2746 25.6759 30.2476C25.2297 31.5625 24.833 32.9598 24.5046 34.4384C22.5163 43.3828 26.4917 40.8989 32.4542 46.3635C35.203 48.8839 38.9041 49.9245 42.5817 49.9245C43.4634 49.9245 44.3451 49.8645 45.2116 49.7503C45.2775 51.27 45.035 52.771 44.4205 54.1671C43.0949 57.1737 40.3532 58.677 37.4055 58.6758Z" fill="#B89BB0"/>
<path d="M83.5977 69.9417C83.168 68.8327 83.0138 67.5919 83.2316 66.1546C83.9073 61.7212 86.443 58.8453 89.7297 56.7123C89.5214 61.773 88.4183 66.4253 85.6119 68.7209C84.9833 69.2353 84.3076 69.6309 83.5977 69.9417Z" fill="#B89BB0"/>
<path d="M45.2116 49.7503C44.9703 44.1468 40.5534 38.2726 35.276 36.3125C34.5249 34.7645 33.7186 33.2483 32.3142 32.084C30.8391 30.8597 28.3282 30.2452 25.8984 30.2452C25.8242 30.2452 25.7501 30.2464 25.6759 30.2476C26.5635 27.6318 27.6489 25.3375 28.7908 23.3657C29.5937 24.2168 30.4801 24.9961 31.4536 25.6918C35.3478 28.4771 41.0396 28.6948 45.3352 30.8715C50.1864 33.3283 49.7214 40.4068 53.1318 44.2268C53.5815 44.7307 54.0865 45.2027 54.6351 45.6383C54.3714 45.8949 54.0983 46.1374 53.8157 46.3635C51.6897 48.0645 48.5619 49.31 45.2116 49.7503Z" fill="#E0CCD2"/>
<path d="M54.635 45.6383C54.0864 45.2027 53.5814 44.7307 53.1317 44.2268C49.7214 40.4068 50.1863 33.3283 45.3351 30.8715C41.0395 28.6948 35.3477 28.4771 31.4536 25.6918C30.48 24.9961 29.5936 24.2168 28.7907 23.3657C30.5471 20.332 32.4365 18.0612 33.9434 16.5532C35.7315 14.765 38.4143 13.8704 41.7764 13.8704C44.0178 13.8704 46.5618 14.2682 49.3435 15.0628C56.2996 17.0523 57.7899 22.5157 59.2814 27.9803C60.687 33.1352 58.9977 41.3815 54.635 45.6383Z" fill="#CDB9C8"/>
<path d="M42.5817 49.9245C38.9041 49.9245 35.203 48.8838 32.4542 46.3635C26.4917 40.8989 22.5163 43.3828 24.5046 34.4384C24.833 32.9598 25.2297 31.5625 25.6759 30.2476C25.7501 30.2464 25.8242 30.2452 25.8984 30.2452C28.3281 30.2452 30.8391 30.8597 32.3141 32.084C33.7185 33.2483 34.5249 34.7645 35.276 36.3125C40.5534 38.2725 44.9702 44.1468 45.2116 49.7503C44.3452 49.8645 43.4634 49.9245 42.5817 49.9245Z" fill="#CDB9C8"/>
</g>
<defs>
<clipPath id="clip0_2_382">
<rect width="128" height="128" fill="white"/>
</clipPath>
</defs>
</svg>
