<svg width="128" height="128" viewBox="0 0 128 128" fill="none" xmlns="http://www.w3.org/2000/svg">
<g clip-path="url(#clip0_2_477)">
<path d="M126.941 63.9096C126.941 77.6393 127.687 89.9928 115.762 98.936C111.377 102.225 105.07 113.331 100.858 116.82C89.8932 125.91 75.2264 128 59.8698 128C46.0436 128 39.7302 120.613 29.3167 113.095C23.26 108.723 15.2562 105.523 11.0713 99.3269C6.9334 93.2031 8.01054 86.207 6.21413 78.8141C5.04399 74.0006 1.53827 67.5648 0.997939 62.4193C-0.493576 48.2599 3.79027 43.3851 7.69152 34.0958C17.3928 10.9991 22.3053 18.685 29.3167 13.2346C34.2362 9.41103 35.1756 6.92831 41.1005 4.67515C48.0919 2.02056 55.9097 -1.35567 63.5968 0.565521C78.5014 4.29137 86.4887 0.646751 95.6414 5.78171C104.327 10.6553 106.074 24.4121 116.192 28.5971C123.826 31.7543 129.178 46.7695 126.689 50.5095C124.165 54.3048 126.941 59.7164 126.941 63.9096Z" fill="#AB45E2"/>
<path d="M109.795 47.0097C109.19 43.9502 106.732 42.6681 105.3 40.2325C104.746 39.2872 102.979 39.6133 103.107 40.8258C103.311 42.7411 102.313 45.092 101.963 47.0097C101.483 49.6372 100.058 49.0992 97.5403 48.7049C95.3589 48.3623 94.0169 47.0179 92.4983 45.5488C91.1269 44.2197 89.2822 43.3839 88.1239 41.8053C87.4352 40.8671 87.2009 38.8588 87.3857 37.7027C87.5706 37.2201 87.6435 36.8799 87.6294 36.6503C87.9484 36.5938 88.2321 36.5608 88.3757 36.5973C92.1287 37.5367 94.5078 33.0999 92.0263 30.3252C87.082 24.7947 78.9558 28.1144 77.9493 35.1011C77.4584 38.5068 79.1453 41.697 81.2384 44.2715C82.4544 45.7665 84.4828 46.8826 85.9319 48.1457C87.7883 49.762 88.2157 52.2329 89.9309 54.0117C94.25 58.491 103.763 59.6234 108.163 54.7592C110.127 52.5908 110.335 49.7443 109.795 47.0097Z" fill="#8B31B1"/>
<path d="M101.669 29.4812C100.784 28.709 99.5698 28.244 98.7563 27.52C96.6762 25.6706 93.725 28.5642 95.6874 30.5889C96.5209 31.4506 97.5261 32.1076 98.5291 32.7527C99.6004 33.4425 100.586 34.1512 101.93 34.0829C102.474 34.0546 102.794 33.7533 102.995 33.2718C103.621 31.7732 102.787 30.456 101.669 29.4812Z" fill="#8B31B1"/>
<path d="M96.7198 105.86C94.7786 103.332 92.589 103.575 90.1663 102.302C88.1839 101.26 85.8589 101.615 83.541 101.971C81.9565 102.213 80.3755 102.456 78.9099 102.253C77.2335 102.023 75.6843 102.332 74.1316 102.643C72.7095 102.927 71.284 103.212 69.7536 103.08C64.8352 102.657 59.167 105.158 55.2293 107.939C51.7954 110.364 48.9736 115.685 53.9756 118.21C56.4924 119.481 60.2571 116.817 58.682 114.094V114.093C59.2683 113.626 59.8851 113.207 60.5361 112.835C61.2377 112.399 62.0288 111.91 62.8422 111.718C66.4374 110.875 70.5776 109.02 73.9892 107.518C80.1165 104.819 82.558 107.754 87.1985 110.471C89.3846 111.752 89.2139 115.451 92.1416 115.891C94.0628 116.18 95.9675 115.736 97.0023 113.914C98.5326 111.218 98.6869 108.421 96.7198 105.86Z" fill="#8B31B1"/>
<path d="M30.0537 71.4343C29.6146 66.6148 26.7351 62.4098 26.2207 57.4644C25.3837 49.4182 19.5624 43.1767 11.707 47.6077C9.16539 49.0416 10.1543 53.5361 13.2479 53.2972C18.2028 52.9157 19.38 59.4198 20.9715 63.3434C22.4725 67.0433 21.0775 71.5084 21.6343 75.3579C22.29 79.8795 23.8027 84.0374 23.7945 88.7003C23.7862 92.8641 18.7184 93.9883 16.4794 90.4696C15.7177 89.2724 15.0585 88.0976 14.185 86.9781C13.6753 86.3259 12.4533 86.5389 12.1049 87.2464C9.48796 92.5533 14.4899 97.0631 19.7013 97.4504C23.1588 97.7082 25.4873 95.6987 28.1501 93.721C31.8465 90.977 32.6906 88.4072 32.6541 83.7584C32.62 79.5381 30.4316 75.6063 30.0537 71.4343Z" fill="#8B31B1"/>
<path d="M121.562 58.4297C118.221 59.2797 114.153 59.9719 111.421 62.1509C108.043 64.8443 109.848 70.8786 109.264 74.4197C108.586 78.5304 106.418 82.0056 107.631 86.4165C108.605 89.9599 112.746 91.2207 115.668 89.469C117.294 88.4955 117.341 86.5189 116.224 85.1616C113.707 82.1044 115.097 75.8629 115.132 72.2772C115.15 70.509 114.119 66.769 116.056 66.7796C118.609 66.7949 121.56 64.7913 123.801 63.7413C126.87 62.3027 124.658 57.641 121.562 58.4297Z" fill="#8B31B1"/>
<path d="M95.652 13.3712C94.1628 13.4053 92.4136 12.4305 90.9173 12.1998C88.9797 11.902 88.0438 11.0415 86.5664 9.90784C85.5599 9.13559 84.5804 8.86481 83.3691 8.58935L83.289 8.57406C83.2949 8.46105 83.2443 8.28444 83.0972 8.01604C82.7134 7.31678 82.4261 6.56221 82.053 5.85471C80.7745 3.43556 76.7155 5.11073 77.6137 7.7253C78.2365 9.53701 78.5426 11.6984 80.3354 12.7896C81.1253 13.2711 81.7563 13.6207 82.7028 13.5089C84.1649 13.337 83.5798 13.1004 84.6829 14.1246C86.0802 15.4242 87.9625 15.9527 89.7919 16.2835C92.4018 16.7532 93.6284 15.7609 95.858 14.8886C96.6244 14.5884 96.582 13.35 95.652 13.3712Z" fill="#8B31B1"/>
<path d="M59.8698 128C46.0436 128 39.7303 120.613 29.3167 113.095C23.26 108.723 15.2562 105.523 11.0713 99.3269C6.93341 93.2031 8.01055 86.207 6.21414 78.8142C6.21061 78.8012 6.20707 78.7882 6.20353 78.7753C6.20353 78.7741 6.20353 78.7718 6.20353 78.7706C6.1588 78.5928 6.11289 78.4127 6.06227 78.2303C6.06227 78.2291 6.06227 78.2267 6.0611 78.2256C6.05521 78.2008 6.04698 78.1749 6.04109 78.149C6.03874 78.1443 6.03756 78.1396 6.03638 78.1349C6.03403 78.1278 6.03284 78.1208 6.03049 78.1137C6.02696 78.0996 6.02341 78.0855 6.0187 78.0725C6.0187 78.0713 6.0187 78.069 6.01753 78.069C5.06752 74.6763 3.15811 70.5973 1.96679 66.7584C7.29127 72.6233 15.0702 75.2661 17.0526 80.6435C19.2646 86.6496 18.6619 89.6385 21.1305 92.4261C20.7961 92.5191 20.4465 92.5662 20.0933 92.5662C18.7749 92.5662 17.3917 91.9035 16.4793 90.4696C15.7177 89.2724 15.0585 88.0976 14.185 86.9781C13.9742 86.7085 13.6411 86.586 13.2985 86.586C12.8135 86.586 12.3097 86.8309 12.1049 87.2464C9.48794 92.5533 14.4898 97.0631 19.7013 97.4504C19.9026 97.4657 20.1016 97.4728 20.2958 97.4728C22.3159 97.4728 23.951 96.6888 25.5296 95.634C26.6268 96.2273 27.9264 96.8536 29.4721 97.534C39.4736 101.934 47.5398 105.691 58.3441 105.691C58.5513 105.691 58.7597 105.688 58.9681 105.686C57.6202 106.374 56.3547 107.145 55.2293 107.939C51.7954 110.364 48.9736 115.685 53.9756 118.21C54.4205 118.434 54.9044 118.536 55.3917 118.536C57.6567 118.536 59.9781 116.335 58.682 114.094V114.093C59.2683 113.626 59.8851 113.207 60.5361 112.835C61.2377 112.399 62.0288 111.91 62.8423 111.718C66.4374 110.875 70.5776 109.02 73.9892 107.518C75.7067 106.761 77.1347 106.448 78.4025 106.448C81.6586 106.448 83.8588 108.516 87.1985 110.471C89.3846 111.752 89.2139 115.451 92.1416 115.891C92.4924 115.944 92.8421 115.973 93.1858 115.973C94.7291 115.973 96.1559 115.403 97.0023 113.914C98.5327 111.218 98.6869 108.421 96.7198 105.86C94.7786 103.332 92.589 103.575 90.1663 102.302C89.1833 101.785 88.1168 101.612 87.009 101.612C85.8813 101.612 84.7099 101.791 83.541 101.971C82.3708 102.15 81.203 102.329 80.0812 102.329C79.6845 102.329 79.2925 102.306 78.9099 102.253C78.5014 102.198 78.1023 102.173 77.708 102.173C77.4925 102.173 77.2795 102.18 77.0676 102.193C81.6292 99.9379 81.9164 96.9336 85.6105 92.5674C90.6689 86.5919 102.526 89.9693 107.422 81.8561C107.196 83.3017 107.185 84.7955 107.631 86.4165C108.31 88.891 110.535 90.2518 112.81 90.2518C113.794 90.2518 114.786 89.9976 115.668 89.469C117.294 88.4955 117.341 86.5189 116.224 85.1616C113.707 82.1044 115.097 75.8629 115.132 72.2771C115.15 70.5125 114.121 66.7796 116.048 66.7796C116.051 66.7796 116.054 66.7796 116.056 66.7796C116.066 66.7808 116.075 66.7808 116.085 66.7808C118.63 66.7808 121.568 64.7878 123.801 63.7413C126.634 62.4134 124.967 58.3403 122.26 58.3403C122.034 58.3403 121.801 58.3685 121.562 58.4297C118.221 59.2797 114.153 59.9719 111.421 62.1509C110.873 62.5864 110.462 63.1103 110.155 63.6965C109.597 61.1561 108.63 58.5416 107.291 55.5938C107.599 55.3372 107.891 55.0594 108.163 54.7592C110.127 52.5908 110.335 49.7443 109.795 47.0097C109.19 43.9502 106.732 42.6682 105.3 40.2325C105.081 39.8593 104.673 39.684 104.267 39.684C103.645 39.684 103.03 40.0924 103.107 40.8258C103.211 41.8017 103.004 42.8906 102.728 43.9772C102.023 39.2119 103.843 36.3878 103.497 29.4706C103.32 25.9366 99.1848 20.8311 93.9286 15.7197C94.5208 15.4654 95.1364 15.1711 95.858 14.8886C96.6185 14.5908 96.5832 13.37 95.6756 13.37C95.6685 13.37 95.6603 13.3712 95.652 13.3712C95.6261 13.3712 95.6003 13.3723 95.5744 13.3723C94.1017 13.3723 92.3877 12.4258 90.9173 12.1998C90.5359 12.1421 90.1945 12.0609 89.879 11.962C85.9377 8.45161 81.7917 5.1272 78.4096 2.52206C80.5933 2.60917 82.6228 2.65394 84.5652 2.7905C88.424 3.06361 91.938 3.70396 95.6414 5.78172C104.327 10.6553 106.074 24.4121 116.192 28.5971C122.536 31.2211 127.303 42.0348 127.306 47.7607C127.306 48.9238 127.109 49.8785 126.689 50.5095C125.9 51.6961 125.63 53.0393 125.63 54.4543C125.63 57.568 126.941 61.0278 126.941 63.9096C126.941 65.4376 126.95 66.9491 126.95 68.4418C126.95 80.348 126.359 90.9888 115.762 98.9361C111.377 102.225 105.07 113.331 100.858 116.82C89.8932 125.91 75.2264 128 59.8698 128ZM122.176 45.7842C120.932 45.7842 119.65 46.7001 119.785 48.0939C119.892 49.204 120.415 49.8656 121.276 50.486C121.601 50.719 121.948 50.8215 122.289 50.8215C123.589 50.8215 124.802 49.3394 124.353 48.0445C124.362 47.4641 124.138 46.8614 123.769 46.454C123.352 45.9926 122.768 45.7842 122.176 45.7842ZM113.604 31.4189C112.405 31.4189 111.238 32.1958 111.275 33.7626C111.337 36.4455 112.181 39.0518 113.739 41.2367C115.349 43.4946 117.232 44.0361 119.735 44.853C119.819 44.8801 119.901 44.8931 119.982 44.8931C120.717 44.8931 121.28 43.8466 120.631 43.3157C119.348 42.268 118.799 40.2066 117.931 38.7869C117.001 37.2683 116.222 35.5602 116.131 33.7626C116.051 32.2052 114.811 31.4189 113.604 31.4189Z" fill="#9A3ECB"/>
<path d="M107.291 55.5938C106.748 54.399 106.146 53.15 105.485 51.8268C103.824 48.5059 103.035 46.0561 102.728 43.9772C103.004 42.8906 103.211 41.8017 103.107 40.8258C103.03 40.0924 103.645 39.684 104.267 39.684C104.673 39.684 105.081 39.8593 105.3 40.2325C106.732 42.6681 109.19 43.9501 109.795 47.0097C110.335 49.7443 110.127 52.5908 108.163 54.7592C107.891 55.0594 107.599 55.3372 107.291 55.5938Z" fill="#7D2C9F"/>
<path d="M55.3917 118.536C54.9044 118.536 54.4205 118.434 53.9756 118.21C48.9736 115.685 51.7954 110.364 55.2293 107.939C56.3547 107.145 57.6202 106.374 58.9681 105.686C61.399 105.654 63.9712 105.432 66.7341 104.987C71.7207 104.182 74.8839 103.274 77.0676 102.193C77.2795 102.18 77.4925 102.173 77.708 102.173C78.1023 102.173 78.5014 102.198 78.9099 102.253C79.2925 102.306 79.6844 102.329 80.0812 102.329C81.203 102.329 82.3708 102.15 83.541 101.971C84.7099 101.791 85.8812 101.612 87.009 101.612C88.1167 101.612 89.1833 101.785 90.1663 102.302C92.589 103.575 94.7786 103.332 96.7198 105.86C98.6869 108.421 98.5326 111.218 97.0023 113.914C96.1559 115.403 94.7291 115.973 93.1858 115.973C92.8421 115.973 92.4924 115.944 92.1416 115.891C89.2139 115.451 89.3846 111.752 87.1985 110.471C83.8588 108.516 81.6586 106.448 78.4025 106.448C77.1346 106.448 75.7067 106.761 73.9892 107.518C70.5776 109.02 66.4374 110.875 62.8422 111.718C62.0288 111.91 61.2377 112.399 60.5361 112.835C59.8851 113.207 59.2683 113.626 58.682 114.093V114.094C59.9781 116.335 57.6567 118.536 55.3917 118.536Z" fill="#7D2C9F"/>
<path d="M20.2958 97.4728C20.1016 97.4728 19.9026 97.4658 19.7013 97.4504C14.4899 97.0631 9.48796 92.5533 12.1049 87.2464C12.3097 86.8309 12.8135 86.586 13.2985 86.586C13.6411 86.586 13.9743 86.7085 14.185 86.9781C15.0585 88.0976 15.7177 89.2724 16.4793 90.4696C17.3917 91.9035 18.7749 92.5662 20.0933 92.5662C20.4465 92.5662 20.7961 92.5191 21.1305 92.4261C22.0581 93.4738 23.4201 94.4933 25.5297 95.634C23.951 96.6888 22.3159 97.4728 20.2958 97.4728Z" fill="#7D2C9F"/>
<path d="M112.81 90.2518C110.535 90.2518 108.311 88.891 107.631 86.4165C107.185 84.7955 107.196 83.3017 107.422 81.856C107.817 81.1992 108.168 80.4681 108.466 79.6488C110.772 73.3049 111.238 68.6361 110.155 63.6965C110.462 63.1103 110.873 62.5864 111.421 62.1509C114.153 59.9719 118.221 59.2797 121.562 58.4297C121.801 58.3685 122.034 58.3403 122.26 58.3403C124.967 58.3403 126.634 62.4134 123.801 63.7413C121.568 64.7878 118.63 66.7808 116.085 66.7808C116.075 66.7808 116.066 66.7808 116.056 66.7796C116.054 66.7796 116.051 66.7796 116.048 66.7796C114.121 66.7796 115.15 70.5125 115.132 72.2771C115.097 75.8629 113.707 82.1044 116.224 85.1616C117.341 86.5189 117.294 88.4955 115.668 89.469C114.786 89.9976 113.794 90.2518 112.81 90.2518Z" fill="#7D2C9F"/>
<path d="M119.982 44.8931C119.901 44.8931 119.819 44.8801 119.735 44.853C117.232 44.0361 115.349 43.4946 113.739 41.2367C112.181 39.0518 111.337 36.4455 111.275 33.7626C111.238 32.1958 112.405 31.4189 113.604 31.4189C114.811 31.4189 116.051 32.2052 116.131 33.7626C116.222 35.5602 117.001 37.2683 117.931 38.7869C118.799 40.2066 119.348 42.2679 120.631 43.3157C121.28 43.8466 120.717 44.8931 119.982 44.8931Z" fill="#7D2C9F"/>
<path d="M122.289 50.8215C121.948 50.8215 121.601 50.719 121.276 50.4859C120.414 49.8656 119.892 49.204 119.785 48.0939C119.65 46.7001 120.932 45.7842 122.176 45.7842C122.768 45.7842 123.352 45.9926 123.769 46.454C124.138 46.8613 124.362 47.4641 124.353 48.0445C124.802 49.3394 123.589 50.8215 122.289 50.8215Z" fill="#7D2C9F"/>
<path d="M55.3729 82.6071C52.7277 82.6059 49.7906 82.0397 46.3638 81.6371C37.9162 80.6435 31.956 72.1971 30.4657 67.2281C30.0113 65.7119 28.9082 64.1038 27.4532 62.5287C26.887 60.8936 26.4043 59.2267 26.2207 57.4644C25.5756 51.2653 21.971 46.1362 16.7572 46.1362C15.2044 46.1362 13.5093 46.5906 11.707 47.6077C10.6381 48.2104 10.1931 49.3559 10.2684 50.4624C7.87636 48.5789 5.43249 46.0479 3.73615 42.7776C4.92865 40.0336 6.33306 37.3319 7.69155 34.0958C17.3929 10.9991 22.3053 18.685 29.3167 13.2346C34.2363 9.41103 35.1757 6.92832 41.1005 4.67516C43.4537 3.78284 45.9023 2.81046 48.4051 1.98288C55.6072 5.30612 70.221 12.3435 73.191 16.0564C77.0193 20.8393 78.5426 25.6235 83.0843 28.1886C80.5038 29.2999 78.4261 31.7885 77.9493 35.1011C77.4584 38.5067 79.1453 41.697 81.2384 44.2715C82.4544 45.7665 84.4828 46.8825 85.9319 48.1457C87.7236 49.7055 88.1839 52.0622 89.7567 53.8233C89.8767 59.9365 88.9455 65.9921 85.6105 68.7196C80.1471 73.1907 71.2039 68.7185 65.7394 76.6681C62.4926 81.3922 59.2459 82.6071 55.3729 82.6071ZM58.5478 57.322C58.4113 57.322 58.2712 57.3326 58.1299 57.3561C53.8767 58.053 51.0338 60.544 51.5623 65.1562C51.9967 68.9421 56.6325 71.6627 59.8369 72.8787C60.4855 73.1247 61.1212 73.2354 61.738 73.2354C65.212 73.2366 68.0961 69.6991 69.3581 66.7337C70.0444 65.1233 72.1787 65.686 72.7002 63.7895C73.2805 61.6812 71.4594 60.4804 69.7383 59.8612C69.4934 59.7741 69.2627 59.7329 69.0485 59.7329C67.4675 59.7329 66.7671 61.9142 67.7194 63.1691C66.5528 63.8543 65.2885 64.4017 64.1984 65.2175C63.4297 65.7931 62.754 66.4288 61.9134 66.4288C61.6615 66.4288 61.3931 66.3711 61.1035 66.2369C59.798 65.6342 58.7009 64.696 57.7344 63.6494C57.2458 63.1209 59.7862 61.826 59.9734 61.7271C62.389 60.4345 60.8422 57.322 58.5478 57.322ZM24.5714 34.1417C24.5491 34.2406 24.5255 34.3395 24.5043 34.4384C22.5149 43.3804 26.4914 40.8976 32.454 46.3634C35.2027 48.8838 38.9027 49.9244 42.5803 49.9244C46.8759 49.9244 51.1397 48.5035 53.8155 46.3634C58.7833 42.388 60.7716 33.4448 59.2812 27.9802C58.1382 23.787 56.9939 19.5962 53.3834 16.9734C53.54 16.3848 53.3764 15.7208 52.9373 15.2629C52.5123 14.8191 52.0414 14.6331 51.4564 14.5471C51.321 14.5271 51.1844 14.5177 51.0502 14.5177C50.4451 14.5177 49.8719 14.7167 49.4681 15.0981C49.4269 15.0863 49.3857 15.0746 49.3433 15.0628C46.5616 14.2682 44.0188 13.8703 41.7774 13.8703C40.7956 13.8703 39.8715 13.9468 39.011 14.0998C39.0004 14.0987 38.9886 14.0986 38.978 14.0986C38.7037 14.0986 38.4401 14.1611 38.1975 14.2706C36.4765 14.6944 35.0415 15.456 33.9432 16.5531C33.5511 16.9463 33.132 17.3913 32.6965 17.8881C32.3151 17.6762 31.8595 17.5526 31.3333 17.5526C31.3215 17.5526 31.3097 17.5526 31.298 17.5526C25.9358 17.6079 21.712 21.4208 20.649 26.6229C19.9062 30.2593 21.8474 32.6678 24.5714 34.1417ZM16.5359 54.3236C16.1992 54.1412 15.8731 53.9705 15.5611 53.8151C15.3198 53.6939 15.0667 53.5631 14.8018 53.4219C15.4564 53.5902 16.0297 53.9022 16.5359 54.3236ZM88.477 42.2432C88.3534 42.1031 88.2357 41.9571 88.1239 41.8053C87.4352 40.8671 87.2009 38.8587 87.3858 37.7027C87.5706 37.2201 87.6435 36.8799 87.6294 36.6503C87.6847 36.6409 87.7377 36.6315 87.7907 36.6244C87.9437 38.2277 88.105 40.083 88.477 42.2432Z" fill="#C47CEB"/>
<path d="M89.7566 53.8233C88.1839 52.0622 87.7236 49.7055 85.9319 48.1457C84.4828 46.8826 82.4544 45.7665 81.2384 44.2715C79.1453 41.697 77.4584 38.5068 77.9493 35.1011C78.426 31.7885 80.5038 29.2999 83.0842 28.1886C83.2597 28.2887 83.4398 28.384 83.6234 28.4758C87.0691 30.1993 87.4093 32.6384 87.7907 36.6244C87.7377 36.6315 87.6847 36.6409 87.6294 36.6503C87.6435 36.8799 87.5706 37.2201 87.3857 37.7027C87.2009 38.8588 87.4352 40.8671 88.1239 41.8053C88.2357 41.9572 88.3534 42.1031 88.477 42.2432C88.5135 42.4539 88.5524 42.6682 88.5924 42.8848C89.1739 45.9844 89.6801 49.9162 89.7566 53.8233Z" fill="#AE6EC8"/>
<path d="M27.4532 62.5287C24.4431 59.2691 19.9262 56.1577 16.5359 54.3237C16.0297 53.9022 15.4564 53.5902 14.8018 53.4219C13.4798 52.7132 11.8859 51.7362 10.2684 50.4625C10.1931 49.3559 10.6381 48.2105 11.707 47.6077C13.5093 46.5906 15.2044 46.1362 16.7572 46.1362C21.971 46.1362 25.5756 51.2653 26.2207 57.4644C26.4043 59.2267 26.887 60.8936 27.4532 62.5287Z" fill="#AE6EC8"/>
<path d="M61.738 73.2354C61.1212 73.2354 60.4855 73.1248 59.8369 72.8787C56.6325 71.6627 51.9967 68.9421 51.5623 65.1563C51.0337 60.544 53.8767 58.053 58.1299 57.3561C58.2712 57.3326 58.4112 57.322 58.5478 57.322C60.8422 57.322 62.389 60.4345 59.9734 61.7271C59.7862 61.826 57.2458 63.1209 57.7344 63.6494C58.7008 64.696 59.798 65.6342 61.1035 66.2369C61.3931 66.3711 61.6615 66.4288 61.9134 66.4288C62.754 66.4288 63.4297 65.7931 64.1984 65.2175C65.2885 64.4017 66.5528 63.8543 67.7194 63.1692C66.767 61.9143 67.4675 59.7329 69.0485 59.7329C69.2627 59.7329 69.4934 59.7741 69.7383 59.8612C71.4594 60.4804 73.2805 61.6812 72.7001 63.7895C72.1786 65.686 70.0444 65.1233 69.3581 66.7337C68.0961 69.6991 65.212 73.2366 61.738 73.2354Z" fill="#AE6EC8"/>
<path d="M42.5802 49.9244C38.9027 49.9244 35.2027 48.8838 32.454 46.3634C26.4914 40.8976 22.5148 43.3804 24.5043 34.4384C24.5255 34.3395 24.5491 34.2406 24.5714 34.1417C26.4738 35.1706 28.7575 35.7439 30.7753 35.964C31.1979 36.0099 31.617 36.0311 32.0313 36.0311C34.5647 36.0311 36.9638 35.2282 39.2817 34.2429C43.4302 32.4818 47.0395 32.6431 51.2539 31.533C52.9078 31.0974 54.9008 29.9273 55.7555 28.3923C56.6207 26.8348 56.8173 23.9812 57.0092 23.3738C57.3012 22.445 56.8362 21.2972 55.9756 20.837C55.3694 20.5121 54.8573 20.3696 54.4123 20.3696C52.3911 20.3696 51.7695 23.3091 50.0826 25.3739C48.9418 26.7701 47.1725 26.8843 45.3314 26.8843C45.1513 26.8843 44.9712 26.8831 44.791 26.8819C44.6097 26.8807 44.4296 26.8795 44.2495 26.8795C42.7945 26.8795 41.363 26.9502 40.227 27.6612C38.081 29.0056 36.0797 29.7743 34.042 29.7743C32.5717 29.7743 31.0825 29.3752 29.5051 28.5017C26.8622 27.0408 30.0654 23.7788 32.0619 23.189C34.6353 22.4285 34.6706 18.9829 32.6965 17.8881C33.132 17.3913 33.5511 16.9463 33.9431 16.5531C35.0415 15.456 36.4765 14.6943 38.1975 14.2706C37.3558 14.6508 36.7555 15.5984 36.7555 16.4978C36.7555 17.9281 37.855 18.7227 39.1464 18.8887C39.8774 18.9829 40.7827 19.3125 41.5938 19.4031C41.6279 19.4066 41.6632 19.409 41.7009 19.409C42.1317 19.409 42.7757 19.17 43.1135 18.9782C43.3549 18.8404 43.5632 18.6568 43.7786 18.4826C44.0788 18.2389 44.1306 18.153 44.0988 18.1282C44.9252 17.7986 44.9241 16.7556 44.0894 16.4307L44.0329 16.4083C43.8799 16.127 43.5974 15.9233 43.3431 15.735C43.1147 15.4807 42.8875 15.2688 42.5838 15.0428C41.7338 14.4094 40.5131 14.0975 39.4489 14.0975C39.3465 14.0975 39.2452 14.101 39.1464 14.1069C39.1016 14.1022 39.0557 14.0998 39.011 14.0998C39.8715 13.9468 40.7956 13.8703 41.7774 13.8703C44.0188 13.8703 46.5615 14.2682 49.3433 15.0628C49.3856 15.0746 49.4269 15.0863 49.4681 15.0981C49.1173 15.4313 48.8947 15.901 48.8947 16.4978C48.8947 17.781 49.9201 18.4779 51.0502 18.4791C51.1844 18.4791 51.321 18.4684 51.4563 18.4484C52.0414 18.3625 52.5123 18.1765 52.9373 17.7327C53.1621 17.5172 53.3093 17.2536 53.3834 16.9734C56.9939 19.5962 58.1382 23.7871 59.2812 27.9802C60.7716 33.4448 58.7832 42.388 53.8155 46.3634C51.1397 48.5035 46.8759 49.9244 42.5802 49.9244Z" fill="#D6A3F1"/>
<path d="M32.0314 36.0311C31.617 36.0311 31.1979 36.0099 30.7753 35.964C28.7576 35.7439 26.4738 35.1706 24.5714 34.1417C26.3219 26.5346 29.8641 21.116 32.6965 17.8881C34.6707 18.9829 34.6353 22.4285 32.062 23.189C30.0654 23.7788 26.8623 27.0408 29.5051 28.5017C31.0825 29.3752 32.5717 29.7743 34.042 29.7743C36.0798 29.7743 38.081 29.0056 40.227 27.6612C41.363 26.9502 42.7945 26.8796 44.2495 26.8796C44.4296 26.8796 44.6098 26.8807 44.7911 26.8819C44.9712 26.8831 45.1513 26.8843 45.3314 26.8843C47.1725 26.8843 48.9419 26.7701 50.0826 25.3739C51.7695 23.3091 52.3911 20.3696 54.4123 20.3696C54.8573 20.3696 55.3694 20.5121 55.9757 20.837C56.8362 21.2973 57.3012 22.445 57.0092 23.3738C56.8174 23.9813 56.6207 26.8348 55.7555 28.3923C54.9009 29.9273 52.9079 31.0974 51.2539 31.533C47.0395 32.6431 43.4302 32.4818 39.2817 34.2429C36.9638 35.2283 34.5647 36.0311 32.0314 36.0311Z" fill="#C699D8"/>
<path d="M41.7009 19.409C41.6632 19.409 41.6279 19.4067 41.5938 19.4031C40.7827 19.3125 39.8774 18.9829 39.1464 18.8887C37.855 18.7227 36.7555 17.9281 36.7555 16.4978C36.7555 15.5984 37.3558 14.6508 38.1975 14.2706C38.4624 14.2058 38.7332 14.1481 39.011 14.0999C39.0557 14.0999 39.1016 14.1022 39.1464 14.1069C39.2453 14.101 39.3465 14.0975 39.4489 14.0975C40.5131 14.0975 41.7339 14.4094 42.5838 15.0428C42.8875 15.2688 43.1147 15.4807 43.3431 15.735C43.5974 15.9234 43.8799 16.127 44.0329 16.4083L44.0894 16.4307C44.9241 16.7556 44.9252 17.7986 44.0988 18.1283C44.1306 18.153 44.0788 18.2389 43.7786 18.4826C43.5632 18.6568 43.3549 18.8404 43.1135 18.9782C42.7757 19.1701 42.1317 19.409 41.7009 19.409Z" fill="#C699D8"/>
</g>
<defs>
<clipPath id="clip0_2_477">
<rect width="128" height="128" fill="white"/>
</clipPath>
</defs>
</svg>
