<svg width="128" height="128" viewBox="0 0 128 128" fill="none" xmlns="http://www.w3.org/2000/svg">
<path d="M36.6521 65.2148V56.4381H42.6336V65.2148H36.6521ZM79.5286 42.9224C80.279 42.9039 81.0336 42.8939 81.7946 42.8939C109.211 42.8939 125.676 65.2148 125.676 65.2148H105.11C105.11 58.6478 99.7853 53.324 93.219 53.324C91.3203 53.324 89.5257 53.769 87.9337 54.5608L79.5286 42.9224Z" fill="#151518"/>
<path d="M29.9011 50.3867V44.3361H42.6336H33.3226V50.3867H29.9011Z" fill="#151518"/>
<path d="M33.3226 44.3361V50.3866H42.6335V44.3361H33.3226Z" fill="#151518"/>
<path d="M23.9796 50.3867V42.9117L24.9075 43.3711V50.3867H23.9796ZM25.7335 50.3867V43.7798L28.2135 45.008V50.3867H27.3868V44.5993L26.5609 44.1899V50.3867H25.7335ZM29.9011 54.9302V50.3867H29.0402V45.4174L28.7706 45.284L29.9011 45.8439V54.9302Z" fill="#151518"/>
<path d="M24.9075 50.3867V43.3703L25.7335 43.7798V50.3867H24.9075Z" fill="#151518"/>
<path d="M26.5609 50.3867V44.1899L27.3868 44.5993V50.3867H26.5609Z" fill="#151518"/>
<path d="M28.2135 50.3867V45.008L28.7706 45.284L29.0402 45.4174V50.3867H28.2135Z" fill="#151518"/>
<path d="M29.9011 80.0671V74.0158H33.3226V80.0671H29.9011Z" fill="#151518"/>
<path d="M33.3226 80.0543V74.0036H42.6335V80.0543H33.3226Z" fill="#151518"/>
<path d="M23.9796 80.0671V72.5914L26.5609 73.8695V80.0671H25.7335V73.4608L24.9075 73.0521V80.0671H23.9796ZM27.3868 80.0671V74.279L28.2135 74.6891V80.0671H27.3868ZM29.9011 84.6106V80.0671H29.0402V75.0978L29.9011 75.5243V84.6106Z" fill="#151518"/>
<path d="M24.9075 80.0671V73.0521L25.7335 73.4608V80.0671H24.9075Z" fill="#151518"/>
<path d="M26.5609 80.0671V73.8695L27.3868 74.2789V80.0671H26.5609Z" fill="#151518"/>
<path d="M28.2135 80.0671V74.6884L29.0402 75.0978V80.0671H28.2135Z" fill="#151518"/>
<path d="M74.632 94.2881L76.443 91.7803H82.1677C83.5528 91.7803 84.6755 92.903 84.6755 94.2881H74.632Z" fill="#151518"/>
<path d="M67.2633 104.492L70.2462 100.361H70.6741C72.9559 100.361 74.8054 102.21 74.8054 104.492H67.2633Z" fill="#151518"/>
<path d="M39.8839 100.361V104.492H42.6333V100.361H39.8839Z" fill="#151518"/>
<path d="M35.8411 104.492V99.3873L37.6036 100.26V104.492H37.0387V99.9807L36.4745 99.7019V104.492H35.8411ZM39.8839 107.593V104.492H39.2962V101.099L39.2263 101.064L39.8839 101.39V107.593ZM38.1678 104.492V100.54L38.732 100.82V104.492H38.1678Z" fill="#151518"/>
<path d="M36.4745 104.492V99.7019L37.0387 99.9807V104.492H36.4745Z" fill="#151518"/>
<path d="M37.6036 104.492V100.26L38.1678 100.54V104.492H37.6036Z" fill="#151518"/>
<path d="M38.732 104.492V100.819L39.2263 101.064L39.2962 101.099V104.492H38.732Z" fill="#151518"/>
<path d="M72.8204 33.6336H82.1677C83.5528 33.6336 84.6755 34.7562 84.6755 36.1421H74.632L72.8204 33.6336Z" fill="#151518"/>
<path d="M64.2918 21.824H70.6741C72.9559 21.824 74.8054 23.6742 74.8054 25.9546H67.2747L64.2918 21.824Z" fill="#151518"/>
<path d="M39.8839 21.824V25.9546H42.6333V21.824H39.8839Z" fill="#151518"/>
<path d="M35.8411 25.9545V20.8512L37.6036 21.7242V25.9545H37.0387V21.4446L36.4745 21.165V25.9545H35.8411ZM39.8839 29.0572V25.9545H39.2962V22.5623L38.732 22.2834V25.9545H38.1678V22.0031L39.8839 22.854V29.0572Z" fill="#151518"/>
<path d="M36.4745 25.9546V21.165L37.0387 21.4446V25.9546H36.4745Z" fill="#151518"/>
<path d="M37.6036 25.9545V21.7242L38.1678 22.0031V25.9545H37.6036Z" fill="#151518"/>
<path d="M38.732 25.9545V22.2834L39.2962 22.5623V25.9545H38.732Z" fill="#151518"/>
<path d="M48.1257 10.2057H50.4089L84.3859 57.254C83.9551 57.7319 83.5621 58.2455 83.2119 58.789L48.1257 10.2057Z" fill="#151518"/>
<path d="M81.3282 65.2148H83.1855C83.1855 70.7561 87.6777 75.2483 93.219 75.2483C98.7604 75.2483 103.252 70.7561 103.252 65.2148H105.11C105.11 71.7811 99.7853 77.1049 93.219 77.1049C91.3203 77.1049 89.5257 76.6598 87.9337 75.8688C86.5864 75.1991 85.3838 74.2818 84.3866 73.1755C83.9551 72.6976 83.5621 72.1841 83.2126 71.6406C82.02 69.7875 81.3282 67.5821 81.3282 65.2148Z" fill="#151518"/>
<path d="M81.3282 65.2148C81.3282 62.8475 82.02 60.642 83.2119 58.789C83.5621 58.2455 83.9551 57.7319 84.3859 57.254C85.3838 56.1485 86.5864 55.2298 87.9337 54.5607C89.5257 53.769 91.3196 53.324 93.2183 53.324C99.7853 53.324 105.11 58.6478 105.11 65.2148H103.252C103.252 59.6741 98.7596 55.182 93.219 55.182C87.6777 55.182 83.1855 59.6741 83.1855 65.2148H81.3282Z" fill="#151518"/>
<path d="M83.1855 65.2148C83.1855 59.6741 87.6777 55.182 93.219 55.182C98.7596 55.182 103.252 59.6741 103.252 65.2148H103.145L89.9209 55.7483C88.0885 56.386 86.5008 57.5358 85.3274 59.0315L93.9672 65.2148H91.0164L84.3809 60.4651C84.0436 61.0907 83.7782 61.7583 83.5792 62.4545L87.4344 65.2148H83.1855Z" fill="#151518"/>
<path d="M83.1855 65.2148H87.4344L98.9387 73.4523C99.5278 73.0421 100.067 72.5678 100.556 72.0429L91.0164 65.2148H93.9672L101.62 70.6912C102.636 69.1349 103.234 67.2833 103.249 65.289L103.145 65.2148H103.252C103.252 70.7561 98.7604 75.2483 93.219 75.2483C87.6777 75.2483 83.1855 70.7561 83.1855 65.2148Z" fill="#151518"/>
<path d="M85.3274 59.0315C86.5008 57.5358 88.0885 56.386 89.9209 55.7483L103.145 65.2148L103.249 65.289C103.234 67.2833 102.636 69.1349 101.62 70.6912L93.9672 65.2148L85.3274 59.0315Z" fill="#151518"/>
<path d="M83.5792 62.4544C83.7782 61.7583 84.0436 61.0907 84.3809 60.4651L91.0164 65.2148L100.556 72.0429C100.067 72.5678 99.5278 73.0421 98.9387 73.4523L87.4344 65.2148L83.5792 62.4544Z" fill="#151518"/>
<path d="M46.1656 25.9467V44.2832H48.5567V25.9467H46.1656Z" fill="#151518"/>
<path d="M46.1656 86.1448V104.483H48.5567V86.1448H46.1656Z" fill="#151518"/>
<path d="M50.1221 25.9467V44.2832H52.5129V25.9467H50.1221Z" fill="#151518"/>
<path d="M50.1221 86.1448V104.483H52.5129V86.1448H50.1221Z" fill="#151518"/>
<path d="M48.1257 65.2176V62.4174H54.0622V65.2148H58.6513V65.2176H48.1257Z" fill="#151518"/>
<path d="M48.1257 68.0243V65.224H58.6513V65.2276H54.0622V68.0243H48.1257Z" fill="#151518"/>
<path d="M54.0622 65.2148V59.269H70.4601C73.7433 59.269 76.4052 61.9316 76.4052 65.2148H58.6513H54.0622Z" fill="#151518"/>
<path d="M54.0622 71.172V65.2276H76.4052C76.4052 68.5108 73.7433 71.172 70.4601 71.172H54.0622Z" fill="#151518"/>
<path d="M127.816 63.075C127.816 63.075 111.351 85.3959 83.9344 85.3959C60.4616 85.3959 41.6507 76.2326 36.7256 73.5978C35.9488 73.182 35.4624 72.3753 35.4624 71.4951V63.075V54.6556C35.4624 53.774 35.9488 52.9673 36.7256 52.5515C41.6507 49.9167 60.4616 40.7541 83.9344 40.7541C111.351 40.7541 127.816 63.075 127.816 63.075Z" fill="#4D6A7B"/>
<path d="M35.4624 71.4951C35.4624 72.3753 35.9488 73.182 36.7256 73.5978C41.6507 76.2326 60.4616 85.3959 83.9344 85.3959C111.351 85.3959 127.816 63.075 127.816 63.075H35.4624V71.4951Z" fill="#415565"/>
<path d="M35.4624 77.9273V48.2469H38.7919V77.9273H35.4624Z" fill="#D3D8DD"/>
<path d="M35.4624 63.0878V48.2469H38.7919V63.0878H35.4624Z" fill="#EEF0F2"/>
<path d="M22.2072 85.6774C24.2521 85.0519 26.8741 83.1504 26.8741 83.1504V77.9585V77.9336V72.7417C26.8741 72.7417 24.2521 72.7698 22.2072 72.1443C20.5567 71.6386 14.9022 73.2291 14.9022 73.2291L17.6781 74.6011L6.35547 77.932H6.28558L6.32053 77.9456L6.28558 77.957H6.35547L17.173 83.1504L14.7124 84.2459C14.7124 84.2459 20.5567 86.1824 22.2072 85.6774Z" fill="#F5E80C"/>
<path d="M24.3202 82.4139C25.4786 82.0594 27.0473 80.6804 27.0473 80.6804V77.7375V77.7239V75.6289C27.0473 75.6289 25.4786 74.7018 24.3202 74.3473C23.3844 74.0613 18.5088 75.6289 18.5088 75.6289L20.8118 76.4668L16.7105 77.9134H16.6706L16.6906 77.9213L16.6706 77.927H16.7105L22.0022 79.7714L20.1015 81.1622C20.1015 81.1622 23.3844 82.7013 24.3202 82.4139Z" fill="#F8A411"/>
<path d="M16.5114 77.9642H16.5513L19.7186 79.7258L17.9644 80.7491C17.9644 80.7491 22.4246 82.5745 23.3604 82.2871C24.5188 81.9326 26.8741 80.8958 26.8741 80.8958V77.9585V77.9528V77.9471L16.5313 77.9585L16.5114 77.9642Z" fill="#F68316"/>
<path d="M6.38824 77.9634L16.6975 83.1496L11.5323 84.355C11.5323 84.355 20.2365 86.8822 21.887 86.3772C23.9319 85.7516 26.8741 83.1496 26.8741 83.1496V80.895C26.8741 80.895 24.6895 81.8644 23.5311 82.2189C22.5953 82.5064 18.0131 80.7248 18.0131 80.7248L19.743 79.7258L16.5513 77.9463L13.2828 77.952L13.3028 77.9463L6.35329 77.952L6.31834 77.9634H6.38824Z" fill="#F8CD11"/>
<path d="M21.7208 55.9785C23.7657 55.353 26.3877 53.4515 26.3877 53.4515V48.2596V48.2347V43.0428C26.3877 43.0428 23.7657 43.0708 21.7208 42.4453C20.0703 41.9396 14.4158 43.5302 14.4158 43.5302L17.1917 44.9022L5.86907 48.2331H5.79918L5.83413 48.2467L5.79918 48.2581H5.86907L16.6866 53.4515L14.226 54.547C14.226 54.547 20.0703 56.4835 21.7208 55.9785Z" fill="#F5E80C"/>
<path d="M23.8338 52.715C24.9922 52.3605 26.5609 50.9815 26.5609 50.9815V48.0386V48.025V45.93C26.5609 45.93 24.9922 45.0029 23.8338 44.6484C22.898 44.3624 18.0224 45.93 18.0224 45.93L20.3254 46.7678L16.2241 48.2145H16.1842L16.2042 48.2224L16.1842 48.2281H16.2241L21.5158 50.0725L19.6151 51.4633C19.6151 51.4633 22.898 53.0024 23.8338 52.715Z" fill="#F8A411"/>
<path d="M16.025 48.2653H16.0649L19.2322 50.0269L17.478 51.0502C17.478 51.0502 21.9382 52.8756 22.874 52.5882C24.0324 52.2337 26.3877 51.1969 26.3877 51.1969V48.2596V48.2539V48.2482L16.0449 48.2596L16.025 48.2653Z" fill="#F68316"/>
<path d="M5.90185 48.2645L16.2111 53.4507L11.0459 54.6561C11.0459 54.6561 19.7501 57.1833 21.4006 56.6783C23.4455 56.0527 26.3877 53.4507 26.3877 53.4507V51.1961C26.3877 51.1961 24.2031 52.1654 23.0447 52.5199C22.1089 52.8074 17.5267 51.0258 17.5267 51.0258L19.2566 50.0269L16.0649 48.2474L12.7964 48.2531L12.8164 48.2474L5.8669 48.2531L5.83195 48.2645H5.90185Z" fill="#F8CD11"/>
<path d="M32.0409 54.299V42.1963H47.7142V54.299H32.0409Z" fill="#4D6A7B"/>
<path d="M32.0409 48.2469V54.299H47.7142V48.2469H32.0409Z" fill="#415565"/>
<path d="M35.4624 54.299V42.1963H47.7141V54.299H35.4624Z" fill="#F8A411"/>
<path d="M35.4624 48.2469V54.299H47.7141V48.2469H35.4624Z" fill="#F68316"/>
<path d="M26.1194 55.7234V40.7719L32.0409 43.7041V52.7904L26.1194 55.7234Z" fill="#4D6A7B"/>
<path d="M26.1194 48.2469V55.7234L32.0409 52.7904V48.2469H26.1194Z" fill="#415565"/>
<path d="M27.0473 48.2469V55.264L27.8733 54.8539V48.2469H27.0473Z" fill="#6E8892"/>
<path d="M28.7006 48.2469V54.4452L29.5266 54.0358V48.2469H28.7006Z" fill="#6E8892"/>
<path d="M31.18 53.217V48.2469H30.3533V53.6257L31.18 53.217Z" fill="#6E8892"/>
<path d="M27.8733 48.2469V41.64L27.0473 41.2306V48.2469H27.8733Z" fill="#8BA1AB"/>
<path d="M29.5266 48.2469V42.4595L28.7006 42.0501V48.2469H29.5266Z" fill="#8BA1AB"/>
<path d="M31.18 48.2469V43.2776L30.3533 42.8682V48.2469H31.18Z" fill="#8BA1AB"/>
<path d="M32.0409 83.9786V71.876H47.7142V83.9786H32.0409Z" fill="#4D6A7B"/>
<path d="M32.0409 77.9273V83.9786H47.7142V77.9273H32.0409Z" fill="#415565"/>
<path d="M35.4624 83.9651V71.8638H47.7141V83.9651H35.4624Z" fill="#F8A411"/>
<path d="M35.4624 77.9145V83.9651H47.7141V77.9145H35.4624Z" fill="#F68316"/>
<path d="M26.1194 85.403V70.4516L32.0409 73.3845V82.4708L26.1194 85.403Z" fill="#4D6A7B"/>
<path d="M26.1194 77.9273V85.403L32.0409 82.4708V77.9273H26.1194Z" fill="#415565"/>
<path d="M27.0473 77.9273V84.9437L27.8733 84.5343V77.9273H27.0473Z" fill="#6E8892"/>
<path d="M28.7006 77.9273V84.1249L29.5266 83.7162V77.9273H28.7006Z" fill="#6E8892"/>
<path d="M31.18 82.8966V77.9273H30.3533V83.306L31.18 82.8966Z" fill="#6E8892"/>
<path d="M27.8733 77.9273V71.321L27.0473 70.9123V77.9273H27.8733Z" fill="#8BA1AB"/>
<path d="M29.5266 77.9273V72.1391L28.7006 71.7297V77.9273H29.5266Z" fill="#8BA1AB"/>
<path d="M31.18 77.9273V72.958L30.3533 72.5486V77.9273H31.18Z" fill="#8BA1AB"/>
<path d="M49.2412 94.6569V89.6405H84.3075C85.6926 89.6405 86.8153 90.7632 86.8153 92.1484C86.8153 93.5328 85.6926 94.6569 84.3075 94.6569H49.2412Z" fill="#4D6A7B"/>
<path d="M49.2412 92.1483V94.6569H84.3075C85.6926 94.6569 86.8153 93.5328 86.8153 92.1483H49.2412Z" fill="#415565"/>
<path d="M35.6499 106.955C37.0457 106.527 38.0287 105.897 38.0287 105.897V102.352V102.334V99.243C38.0287 99.243 36.6464 98.4274 35.2505 98.0001C34.1235 97.6549 30.657 98.6899 30.657 98.6899L32.1011 99.6578L30.4112 100.441L26.3878 102.317H26.34L26.3642 102.326L26.34 102.334H26.3878L32.9153 105.772L31.7016 106.556C31.7016 106.556 34.5229 107.299 35.6499 106.955Z" fill="#E5F6FC"/>
<path d="M35.9467 104.918C36.7377 104.676 37.9809 104.357 37.9809 104.357V102.348V102.338V100.33C37.9809 100.33 36.3255 99.6252 35.5345 99.3834C34.8961 99.1872 31.9118 100.146 31.9118 100.146L33.8502 101.099L29.7826 102.348H29.7555L29.7691 102.353L29.7555 102.358H29.7826L34.48 103.413L33.4996 104.638C33.4996 104.638 35.3083 105.114 35.9467 104.918Z" fill="#548DD2"/>
<path d="M29.7813 102.357H29.8084L33.6067 104.205L31.9628 104.559C31.9628 104.559 35.2727 105.86 35.9111 105.665C36.7021 105.423 37.9809 104.357 37.9809 104.357V102.352V102.348V102.343L29.7949 102.352L29.7813 102.357Z" fill="#4773C2"/>
<path d="M26.4185 102.343L32.946 105.772L31.6556 106.571C31.6556 106.571 34.4769 107.361 35.6038 107.017C36.9997 106.59 37.9809 105.897 37.9809 105.897V104.357C37.9809 104.357 36.7635 105.392 35.9725 105.634C35.3341 105.829 32.1011 104.605 32.1011 104.605L33.6066 104.19L29.7352 102.348H28.7021L28.7156 102.343L26.395 102.334L26.3707 102.343H26.4185Z" fill="#AFE4F9"/>
<path d="M35.789 28.328C37.1848 27.9 38.1678 27.2697 38.1678 27.2697V23.7247V23.7067V20.6158C38.1678 20.6158 36.7855 19.8002 35.3896 19.3729C34.2626 19.0277 30.7961 20.0627 30.7961 20.0627L32.2402 21.0306L30.5503 21.8141L26.5269 23.6897H26.4791L26.5033 23.6987L26.4791 23.7067H26.5269L33.0544 27.145L31.8408 27.9285C31.8408 27.9285 34.662 28.672 35.789 28.328Z" fill="#E5F6FC"/>
<path d="M36.0858 26.2907C36.8768 26.0487 38.12 25.7297 38.12 25.7297V23.7207V23.7107V21.7027C38.12 21.7027 36.4646 20.9979 35.6736 20.7561C35.0352 20.5599 32.0509 21.5188 32.0509 21.5188L33.9893 22.4721L29.9217 23.7207H29.8946L29.9082 23.7257L29.8946 23.7307H29.9217L34.6191 24.7857L33.6387 26.0107C33.6387 26.0107 35.4474 26.4867 36.0858 26.2907Z" fill="#548DD2"/>
<path d="M29.9204 23.7297H29.9475L33.7458 25.578L32.1019 25.9313C32.1019 25.9313 35.4118 27.2325 36.0502 27.0375C36.8412 26.7955 38.12 25.7297 38.12 25.7297V23.7247V23.7207V23.7157L29.934 23.7247L29.9204 23.7297Z" fill="#4773C2"/>
<path d="M26.5576 23.7157L33.0851 27.145L31.7947 27.9439C31.7947 27.9439 34.616 28.7334 35.7429 28.3894C37.1388 27.9624 38.12 27.2697 38.12 27.2697V25.7297C38.12 25.7297 36.9026 26.7647 36.1116 27.0067C35.4732 27.2017 32.2402 25.9774 32.2402 25.9774L33.7458 25.5626L29.8743 23.7207H28.8412L28.8547 23.7157L26.5341 23.7067L26.5098 23.7157H26.5576Z" fill="#AFE4F9"/>
<path d="M42.0237 106.484V98.2211H72.8139C75.0957 98.2211 76.9452 100.07 76.9452 102.352C76.9452 104.633 75.0957 106.484 72.8139 106.484H42.0237Z" fill="#F8A411"/>
<path d="M42.0237 102.352V106.484H72.8139C75.0957 106.484 76.9452 104.633 76.9452 102.352H42.0237Z" fill="#F68316"/>
<path d="M42.0237 106.484V98.2211H51.4559C53.7377 98.2211 55.5864 100.07 55.5864 102.352C55.5864 104.633 53.7377 106.484 51.4559 106.484H42.0237Z" fill="#4D6A7B"/>
<path d="M42.0237 102.352V106.484H51.4559C53.7377 106.484 55.5864 104.633 55.5864 102.352H42.0237Z" fill="#415565"/>
<path d="M37.9809 107.456V97.2475L42.0237 99.2504V105.453L37.9809 107.456Z" fill="#4D6A7B"/>
<path d="M37.9809 102.352V107.456L42.0237 105.453V102.352H37.9809Z" fill="#415565"/>
<path d="M38.6143 102.352V107.141L39.1785 106.862V102.352H38.6143Z" fill="#6E8892"/>
<path d="M39.7434 102.352V106.583L40.3076 106.303V102.352H39.7434Z" fill="#6E8892"/>
<path d="M41.436 105.744V102.352H40.8718V106.024L41.436 105.744Z" fill="#6E8892"/>
<path d="M39.1785 102.352V97.8409L38.6143 97.5621V102.352H39.1785Z" fill="#8BA1AB"/>
<path d="M40.3076 102.352V98.4001L39.7434 98.1205V102.352H40.3076Z" fill="#8BA1AB"/>
<path d="M41.436 102.352V98.9593L40.8718 98.679V102.352H41.436Z" fill="#8BA1AB"/>
<path d="M93.9679 63.075V68.3367L58.0408 118.084H44.7733V63.075H93.9679Z" fill="#D3D8DD"/>
<path d="M49.2412 36.5095V31.4938H84.3075C85.6926 31.4938 86.8153 32.6164 86.8153 34.0016C86.8153 35.3868 85.6926 36.5095 84.3075 36.5095H49.2412Z" fill="#4D6A7B"/>
<path d="M49.2412 34.0016V36.5095H84.3075C85.6926 36.5095 86.8153 35.3868 86.8153 34.0016H49.2412Z" fill="#415565"/>
<path d="M42.0237 27.9467V19.6843H72.8139C75.0957 19.6843 76.9452 21.5345 76.9452 23.8148C76.9452 26.0965 75.0957 27.9467 72.8139 27.9467H42.0237Z" fill="#F8A411"/>
<path d="M42.0237 23.8148V27.9467H72.8139C75.0957 27.9467 76.9452 26.0965 76.9452 23.8148H42.0237Z" fill="#F68316"/>
<path d="M42.0237 27.9467V19.6843H51.4559C53.7377 19.6843 55.5864 21.5345 55.5864 23.8148C55.5864 26.0965 53.7377 27.9467 51.4559 27.9467H42.0237Z" fill="#4D6A7B"/>
<path d="M42.0237 23.8148V27.9467H51.4559C53.7377 27.9467 55.5864 26.0965 55.5864 23.8148H42.0237Z" fill="#415565"/>
<path d="M37.9809 28.9196V18.7114L42.0237 20.7142V26.9175L37.9809 28.9196Z" fill="#4D6A7B"/>
<path d="M37.9809 23.8148V28.9196L42.0237 26.9175V23.8148H37.9809Z" fill="#415565"/>
<path d="M38.6143 23.8148V28.6058L39.1785 28.3262V23.8148H38.6143Z" fill="#6E8892"/>
<path d="M39.7434 23.8148V28.0473L40.3076 27.7677V23.8148H39.7434Z" fill="#6E8892"/>
<path d="M41.436 27.2085V23.8148H40.8718V27.4881L41.436 27.2085Z" fill="#6E8892"/>
<path d="M39.1785 23.8148V19.3048L38.6143 19.0252V23.8148H39.1785Z" fill="#8BA1AB"/>
<path d="M40.3076 23.8148V19.8633L39.7434 19.5844V23.8148H40.3076Z" fill="#8BA1AB"/>
<path d="M41.436 23.8148V20.4225L40.8718 20.1436V23.8148H41.436Z" fill="#8BA1AB"/>
<path d="M93.9679 63.075V57.8132L58.0408 8.06589H44.7733V63.075H93.9679Z" fill="#EEF0F2"/>
<path d="M88.4751 68.3367V63.075H86.1926V68.3367L50.2655 118.084H52.5486L88.4751 68.3367Z" fill="#EEF0F2"/>
<path d="M88.4751 57.8132L52.5486 8.06589H50.2655L86.1926 57.8132V63.075H88.4751V57.8132Z" fill="white"/>
<path d="M95.3588 51.1842C88.7918 51.1842 83.468 56.508 83.468 63.075C83.468 69.6413 88.7918 74.9651 95.3588 74.9651C101.926 74.9651 107.249 69.6413 107.249 63.075C107.249 56.508 101.926 51.1842 95.3588 51.1842Z" fill="#354852"/>
<path d="M95.3581 51.1842C101.926 51.1842 107.249 56.508 107.249 63.075H83.468C83.468 56.508 88.7918 51.1842 95.3581 51.1842Z" fill="#4C6573"/>
<path d="M95.3588 53.0422C89.8175 53.0422 85.3253 57.5343 85.3253 63.075C85.3253 68.6163 89.8175 73.1085 95.3588 73.1085C100.901 73.1085 105.392 68.6163 105.392 63.075C105.392 57.5343 100.9 53.0422 95.3588 53.0422Z" fill="#6ACEDA"/>
<path d="M85.3253 63.075C85.3253 68.6163 89.8175 73.1085 95.3588 73.1085C100.901 73.1085 105.392 68.6163 105.392 63.075H85.3253Z" fill="#56C7D7"/>
<path d="M105.388 63.1492L92.0607 53.6086C90.2283 54.2462 88.6405 55.396 87.4672 56.8917L103.76 68.5514C104.776 66.9951 105.373 65.1435 105.388 63.1492Z" fill="#92DBE5"/>
<path d="M85.719 60.3147L101.079 71.3125C101.668 70.9024 102.207 70.428 102.696 69.9024L86.5207 58.3254C86.1834 58.9509 85.918 59.6185 85.719 60.3147Z" fill="#92DBE5"/>
<path d="M48.3054 42.1442V23.8069H50.6963V42.1442H48.3054Z" fill="#4D6A7B"/>
<path d="M48.3054 102.343V84.005H50.6963V102.343H48.3054Z" fill="#415565"/>
<path d="M52.2619 42.1442V23.8069H54.6528V42.1442H52.2619Z" fill="#4D6A7B"/>
<path d="M52.2619 102.343V84.005H54.6528V102.343H52.2619Z" fill="#415565"/>
<path d="M50.2655 63.0778V60.2776H57.9909C59.5372 60.2776 60.7911 61.5308 60.7911 63.0778H50.2655Z" fill="#F8A411"/>
<path d="M50.2655 63.0843V65.8845H57.9909C59.5372 65.8845 60.7911 64.6306 60.7911 63.0843H50.2655Z" fill="#F68316"/>
<path d="M56.202 63.075V57.1292H72.5999C75.8831 57.1292 78.5443 59.7918 78.5443 63.075H56.202Z" fill="#F8A411"/>
<path d="M56.202 63.0878V69.0322H72.5999C75.8831 69.0322 78.5443 66.371 78.5443 63.0878H56.202Z" fill="#F68316"/>
</svg>
