<svg width="128" height="128" viewBox="0 0 128 128" fill="none" xmlns="http://www.w3.org/2000/svg">
<path d="M65.0186 128C8.37746 128 7.69075 64.0001 39.2725 38.012C39.2725 38.012 35.8396 61.2853 47.5115 68.6546C47.5115 68.6546 43.0487 20.9454 85.9593 0C85.9593 0 81.1532 38.7877 87.6757 47.321C87.6757 47.321 93.1677 36.8487 104.496 32.9699C104.496 32.9699 97.9737 57.4065 105.869 69.0428C113.765 80.6791 113.422 128 65.0186 128Z" fill="#EF3B2E"/>
<path d="M63.0112 120.595C30.0722 120.595 18.0053 81.4549 32.0286 58.5343C32.0286 58.5343 34.964 77.9281 52.2492 78.2808C52.2492 78.2808 49.3138 37.7304 71.4909 23.6253C71.4909 23.6253 71.4909 48.3087 84.8617 60.6503C84.8617 60.6503 87.4713 51.8348 94.6462 48.6613C94.6462 48.6613 92.0366 57.1242 96.6026 66.9972C101.169 76.8708 111.931 120.595 63.0112 120.595Z" fill="#F57D17"/>
<path d="M65.6079 115.306C36.1151 115.306 36.7112 88.5714 38.7964 80.8407C38.7964 80.8407 49.2232 90.8263 59.6499 88.5714C59.6499 88.5714 56.9687 65.3799 67.9915 48.3086C67.9915 48.3086 74.5455 70.8558 85.2699 76.0092C85.2699 76.0092 86.1637 70.8558 88.845 68.6009C88.845 68.6009 89.4404 75.6873 92.1217 81.1632C94.8029 86.6391 102.548 115.306 65.6079 115.306Z" fill="#FAD820"/>
<path d="M71.5136 110.695C55.5258 110.695 55.849 96.2022 56.9794 92.011C56.9794 92.011 62.6316 97.4239 68.2839 96.2022C68.2839 96.2022 66.8302 83.6299 72.8056 74.3752C72.8056 74.3752 76.3585 86.5982 82.173 89.3921C82.173 89.3921 82.6571 86.5982 84.1107 85.3759C84.1107 85.3759 84.4339 89.2171 85.8875 92.186C87.3405 95.1543 91.5397 110.695 71.5136 110.695Z" fill="#FAF780"/>
</svg>
