<svg width="128" height="128" viewBox="0 0 128 128" fill="none" xmlns="http://www.w3.org/2000/svg">
<path d="M69.139 127.922C22.4012 130.165 17.8191 83.3944 24.6115 64.9046C24.6115 64.9046 26.1208 74.3384 32.1587 78.8664C32.1587 78.8664 31.7809 61.8859 40.0826 49.8106C48.3849 37.7353 48.0071 16.9811 48.0071 16.9811C48.0071 16.9811 58.9502 27.5465 61.2145 35.0938C61.2145 35.0938 64.6104 15.849 57.0637 0C57.0637 0 75.5536 8.67944 78.95 29.0558C82.3459 49.4328 86.4967 62.2631 86.4967 62.2631C86.4967 62.2631 90.2704 56.2251 89.1382 42.6405C89.1382 42.6405 103.855 59.6216 97.0627 89.0546C97.0627 89.0546 102.346 88.6774 104.61 80.3758C104.61 80.3758 116.308 125.658 69.139 127.922Z" fill="#EF3B2E"/>
<path d="M67.6297 121.143C37.8641 123.176 29.8944 101.557 29.1395 90.2182C29.1395 90.2182 31.781 93.3105 36.3096 94.685C36.3096 94.685 34.4225 78.5356 43.1019 67.5398C51.7808 56.5447 52.5357 41.426 52.5357 41.426C52.5357 41.426 58.9503 45.2059 61.2146 52.0779C61.2146 52.0779 69.1391 46.9236 67.2519 29.0558C67.2519 29.0558 76.6858 46.5798 76.6858 59.2932C76.6858 72.0072 82.3459 79.2225 82.3459 79.2225C82.3459 79.2225 87.2517 78.1918 89.1382 73.038C89.1382 73.038 92.9119 88.8437 88.0067 98.8081C88.0067 98.8081 92.9119 97.7773 96.3084 96.0596C96.3084 96.0596 97.8177 119.081 67.6297 121.143Z" fill="#F57D17"/>
<path d="M62.0932 115.093C43.4414 114.771 39.3282 102.682 39.3282 102.682C39.3282 102.682 41.3978 101.648 44.8468 102.338C44.8468 102.338 42.0878 88.2025 47.2614 82.342C52.4349 76.4815 54.1601 67.5183 54.1601 67.5183C54.1601 67.5183 57.9541 69.2415 58.9886 73.7232C58.9886 73.7232 64.8522 67.8626 66.2323 59.2444C66.2323 59.2444 69.6813 63.0366 69.3363 71.6549C68.9913 80.2737 75.5449 89.9264 75.5449 89.9264C75.5449 89.9264 78.3045 89.5814 81.0635 85.7898C81.0635 85.7898 83.133 99.5791 76.58 105.785C76.58 105.785 80.029 106.474 83.4781 104.061C83.4781 104.061 82.0986 115.437 62.0932 115.093Z" fill="#FAD820"/>
<path d="M61.8335 112.21C50.2015 112.01 47.6367 104.471 47.6367 104.471C47.6367 104.471 48.9271 103.826 51.0783 104.256C51.0783 104.256 49.3575 95.4407 52.5839 91.7864C55.8104 88.1314 56.8862 82.5418 56.8862 82.5418C56.8862 82.5418 59.252 83.6164 59.8975 86.4113C59.8975 86.4113 63.5543 82.7563 64.4144 77.3818C64.4144 77.3818 66.5655 79.7469 66.3504 85.1214C66.1352 90.4959 70.2223 96.516 70.2223 96.516C70.2223 96.516 71.9431 96.3008 73.6639 93.9363C73.6639 93.9363 74.9544 102.535 70.8679 106.405C70.8679 106.405 73.0184 106.835 75.1696 105.33C75.1696 105.33 74.3095 112.425 61.8335 112.21Z" fill="#FAF780"/>
</svg>
