<svg width="128" height="128" viewBox="0 0 128 128" fill="none" xmlns="http://www.w3.org/2000/svg">
<path d="M60.0434 128C22.6819 128 15.2631 97.0848 22.1521 80.0001C29.0417 62.9153 40.9652 57.763 36.4605 45.5591C36.4605 45.5591 45.4698 49.3557 46.2648 60.746C46.2648 60.746 62.1631 56.1358 59.2484 39.8647C56.3337 23.5929 59.513 7.32232 71.7016 0C71.7016 0 71.9668 21.9663 79.916 32.0002C87.8651 42.034 91.9348 56.0353 88.2251 66.8827C88.2251 66.8827 96.0795 61.8303 97.4042 50.9829C97.4042 50.9829 138.475 128 60.0434 128Z" fill="#EF3B2E"/>
<path d="M63.3028 119.928C33.7975 119.928 14.6046 96.288 38.0947 66.0181C38.0947 66.0181 42.9645 70.342 42.6781 79.5675C42.6781 79.5675 68.7459 69.4775 67.3135 32.0001C67.3135 32.0001 84.2144 56.5046 82.4956 81.5853C82.4956 81.5853 92.5223 83.0269 97.1051 70.3421C97.1051 70.3421 118.017 119.928 63.3028 119.928Z" fill="#F57D17"/>
<path d="M59.1818 113.297C36.5303 113.297 40.7249 89.9379 52.1903 83.4653C63.6563 76.992 69.8086 59.8247 69.8086 59.8247C69.8086 59.8247 94.4178 113.297 59.1818 113.297Z" fill="#FAD820"/>
<path d="M59.6725 109.822C45.3295 109.822 47.9854 95.0315 55.2453 90.9326C62.5052 86.8344 66.4007 75.9637 66.4007 75.9637C66.4007 75.9637 81.9832 109.822 59.6725 109.822Z" fill="#FAF780"/>
</svg>
