<svg width="128" height="128" viewBox="0 0 128 128" fill="none" xmlns="http://www.w3.org/2000/svg">
<path d="M57.5337 127.858C17.2834 125.751 22.6638 88.7365 33.7201 79.0977C44.7765 69.4589 38.2562 58.1186 31.4518 57.2684C24.6481 56.4176 25.7823 64.9229 28.3334 66.6238C28.3334 66.6238 19.262 67.758 19.262 56.4176C19.262 45.0779 39.6731 36.0065 48.7451 51.5982C48.7451 51.5982 56.3996 39.125 48.4617 31.4705C40.5238 23.8161 45.6266 -0.280914 60.3682 0.00247192C60.3682 0.00247192 49.5959 14.744 62.0697 24.6662C74.543 34.589 78.7956 43.6604 77.3781 59.2527C77.3781 59.2527 83.8984 44.5112 95.2381 44.7945C106.578 45.0779 110.547 55.0001 107.995 61.521C107.995 61.521 105.444 53.8666 98.6405 54.4333C91.8362 55.0001 88.4344 67.474 93.5371 78.8137C98.6405 90.154 111.681 130.693 57.5337 127.858Z" fill="#EF3B2E"/>
<path d="M63.2032 122.189C39.9786 123.198 25.4989 102.911 33.1527 90.7208C40.8072 78.5303 45.3432 77.3968 44.2091 65.4897C43.0755 53.5832 39.1063 52.1657 34.8537 52.1657C34.8537 52.1657 46.7608 47.0629 52.4309 63.5054C52.4309 63.5054 60.6522 52.1657 57.5337 42.2429C54.4153 32.3207 48.1783 26.9345 51.5802 17.8625C51.5802 17.8625 53.2811 26.6511 60.0848 31.1872C66.8891 35.7225 75.9605 56.985 72.5587 76.546C72.5587 76.546 75.9605 61.237 85.3159 58.1186C85.3159 58.1186 81.6307 69.1749 85.8833 78.2469C90.1353 87.3189 102.326 120.488 63.2032 122.189Z" fill="#F57D17"/>
<path d="M59.2525 116.519C36.6846 114.689 34.0169 97.8078 41.6403 90.154C49.2637 82.4995 49.5262 74.5617 48.4751 68.8915C48.4751 68.8915 53.4694 72.01 54.2581 77.6801C54.2581 77.6801 61.6184 69.1749 62.9333 58.6859C62.9333 58.6859 70.2936 72.8607 68.7163 86.4681C68.7163 86.4681 75.2879 81.082 76.8652 75.4118C76.8652 75.4118 94.2149 119.354 59.2525 116.519Z" fill="#FAD820"/>
<path d="M59.3494 112.36C46.2422 111.297 44.6928 101.492 49.1204 97.0471C53.548 92.6011 53.7008 87.9909 53.0897 84.6981C53.0897 84.6981 55.9907 86.5093 56.449 89.8021C56.449 89.8021 60.7239 84.8629 61.4871 78.7705C61.4871 78.7705 65.762 87.0032 64.8459 94.9062C64.8459 94.9062 68.663 91.7782 69.5791 88.4848C69.5791 88.4848 79.6559 114.006 59.3494 112.36Z" fill="#FAF780"/>
</svg>
