<svg width="128" height="128" viewBox="0 0 128 128" fill="none" xmlns="http://www.w3.org/2000/svg">
<path d="M61.5358 128C17.0952 128 4.4169 67.4908 66.7289 7.62939e-06C66.7289 7.62939e-06 68.4598 18.0364 85.7682 41.309C103.077 64.5816 125.002 128 61.5358 128Z" fill="#EF3B2E"/>
<path d="M61.9673 119.442C29.3272 119.442 20.016 75.0002 65.7812 25.4305C65.7812 25.4305 67.0527 38.6776 79.7653 55.7707C92.4779 72.8638 108.581 119.442 61.9673 119.442Z" fill="#F57D17"/>
<path d="M61.0764 113.382C39.4109 113.382 33.2308 83.8834 63.6078 50.9814C63.6078 50.9814 64.4516 59.7742 72.8897 71.1197C81.3278 82.4652 92.016 113.382 61.0764 113.382Z" fill="#FADA1E"/>
<path d="M61.5564 107.097C48.5471 107.097 44.8357 89.3836 63.0763 69.6272C63.0763 69.6272 63.5834 74.9071 68.6501 81.7196C73.7168 88.5321 80.135 107.097 61.5564 107.097Z" fill="#FAF780"/>
</svg>
