<svg width="550" height="200" viewBox="0 0 550 200" fill="none" xmlns="http://www.w3.org/2000/svg">
<mask id="mask0_14_406" style="mask-type:luminance" maskUnits="userSpaceOnUse" x="-39" y="0" width="589" height="241">
<path d="M530.777 154.545C521.384 109.297 480.487 75.2391 431.458 75.2391C394.676 75.2391 362.478 94.4003 344.715 123.083C328.695 111.763 309.026 105.065 287.748 105.065L287.632 105.069C287.703 103.572 287.748 102.066 287.748 100.553C287.748 45.4373 242.072 0.755051 185.721 0.755051C129.375 0.755051 83.6918 45.4373 83.6918 100.553C83.6918 104.011 83.8757 107.421 84.2247 110.795C80.0843 109.562 75.78 108.699 71.3468 108.26C60.7601 58.1898 15.4183 20.5429 -38.9111 20.5429V240.817H116.689H506.662H549.684V154.545H530.777Z" fill="white"/>
</mask>
<g mask="url(#mask0_14_406)">
<path d="M0.774002 240.744V240.337H-2.55396V239.93H-5.04993V239.523H-6.29792V239.116H-7.5459V238.709H-9.20988V238.302H-10.4579V237.895H-11.7059V237.488H-12.5378V237.082H-13.3698V236.675H-14.2018V236.268H-15.0338V235.861H-15.8658V235.454H-16.2818V235.047H-17.1138V234.64H-17.9458V234.233H-18.7778V233.826H-19.1938V233.419H-19.6098V233.012H-20.4418V232.606H-20.8578V232.199H-21.2737V231.792H-21.6897V231.385H-22.1057V230.978H-22.9377V230.571H-23.3537V230.164H-23.7697V229.757H-24.1857V229.35H-24.6017V228.943H-25.0177V228.536H-25.4337V228.13H-25.8497V227.723H-26.2657V226.909H-26.6817V226.502H-27.0977V226.095H-27.5137V225.688H-27.9297V225.281H-28.3457V224.467H-28.7617V224.061H-29.1777V223.654H-29.5937V222.84H-30.0096V222.026H-30.4256V221.619H-30.8416V220.805H-31.2576V219.991H-31.6736V219.178H-32.0896V218.364H-32.5056V217.55H-32.9216V216.736H-33.3376V215.516H-33.7536V214.295H-34.1696V213.074H-34.5856V211.446H-35.0016V210.226H-35.4176V208.191H-35.8336V204.936H-36.2496V20.2008H-35.0016V20.6077H-28.3457V21.0146H-25.4337V21.4216H-22.1057V21.8285H-19.1938V22.2354H-17.1138V22.6423H-15.0338V23.0492H-13.3698V23.4561H-11.2899V23.863H-9.62588V24.2699H-8.37789V24.6768H-6.71391V25.0837H-5.46593V25.4906H-4.21794V25.8975H-2.96996V26.3044H-1.72197V26.7113H-0.473984V27.1182H0.774002V27.5251H1.60599V27.932H2.85398V28.3389H3.68597V28.7458H4.93396V29.1528H5.76595V29.5597H6.59793V29.9666H7.84592V30.3735H8.67791V30.7804H9.5099V31.1873H10.3419V31.5942H11.1739V32.0011H12.0059V32.408H12.8379V32.8149H13.6699V33.2218H14.5018V33.6287H15.3338V34.0356H16.1658V34.4425H16.5818V34.8494H17.4138V35.2563H18.2458V35.6633H18.6618V36.0702H19.4938V36.4771H20.3258V36.884H20.7418V37.2909H21.5738V37.6978H21.9898V38.1047H22.8218V38.5116H23.6537V38.9185H24.0697V39.3254H24.9017V39.7323H25.3177V40.1392H26.1497V40.5461H26.5657V40.953H26.9817V41.3599H27.8137V41.7668H28.2297V42.1737H28.6457V42.5806H29.0617V42.9875H29.8937V43.3945H30.3097V43.8014H30.7257V44.2083H31.5577V44.6152H31.9736V45.0221H32.3896V45.429H33.2216V45.8359H33.6376V46.2428H34.0536V46.6497H34.4696V47.0566H34.8856V47.4635H35.3016V47.8704H35.7176V48.2773H36.1336V48.6842H36.9656V49.0911H37.3816V49.498H37.7976V49.9049H38.2136V50.3118H38.6296V50.7188H39.0456V51.1257H39.4616V51.5326H39.8776V51.9395H40.2936V52.3464H40.7095V52.7533H41.1255V53.1602H41.5415V53.5671H41.9575V53.974H42.3735V54.3809H42.7895V54.7878H43.2055V55.1947H43.6215V55.6016H44.0375V56.0085H44.4535V56.4154H44.8695V56.8223H45.2855V57.2292H45.7015V58.0431H46.1175V58.45H46.5335V58.8569H46.9495V59.2638H47.3655V59.6707H47.7815V60.4845H48.1975V60.8914H48.6135V61.2983H49.0295V61.7052H49.4454V62.519H49.8614V62.9259H50.2774V63.3328H50.6934V63.7397H51.1094V64.5535H51.5254V64.9604H51.9414V65.3674H52.3574V66.1812H52.7734V66.5881H53.1894V67.4019H53.6054V67.8088H54.0214V68.6226H54.4374V69.0295H54.8534V69.8433H55.2694V70.2502H55.6854V71.064H56.1014V71.4709H56.5174V72.2847H56.9334V72.6917H57.3494V73.5055H57.7654V73.9124H58.1813V74.7262H58.5973V75.54H59.0133V76.3538H59.4293V77.1676H59.8453V77.5745H60.2613V78.3883H60.6773V79.2021H61.0933V80.016H61.5093V80.8298H61.9253V81.2367H62.3413V82.4574H62.7573V83.2712H63.1733V84.085H63.5893V84.8988H64.0053V86.1195H64.4213V86.9333H64.8373V87.7472H65.2533V88.561H65.6693V89.7817H66.0853V90.5955H66.5013V91.8162H66.9172V93.0369H67.3332V94.2576H67.7492V95.4784H68.1652V96.6991H68.5812V97.9198H68.9972V99.1405H69.4132V100.361H69.8292V101.989H70.2452V103.616H70.6612V104.837H71.0772V106.872H71.4932V108.092H73.5732V108.499H76.0691V108.906H78.5651V109.313H80.2291V109.72H81.8931V110.127H83.5571V110.534H83.9731V107.686H83.5571V93.8507H83.9731V88.9679H84.389V86.5264H84.805V83.6781H85.221V81.2367H85.637V79.2021H86.053V77.5745H86.469V75.9469H86.885V74.3193H87.301V72.6917H87.717V71.064H88.133V69.8433H88.549V69.0295H88.965V67.8088H89.381V66.5881H89.797V65.3674H90.213V64.5535H90.629V63.3328H91.045V62.1121H91.461V61.2983H91.877V60.4845H92.293V59.6707H92.709V58.45H93.125V57.6362H93.541V56.8223H93.9569V56.0085H94.3729V55.1947H94.7889V54.3809H95.2049V53.5671H95.6209V52.7533H96.0369V51.9395H96.4529V51.5326H96.8689V50.7188H97.2849V49.9049H97.7009V49.498H98.1169V48.6842H98.5329V47.8704H98.9489V47.4635H99.3649V46.6497H99.7809V45.8359H100.197V45.429H100.613V44.6152H101.029V44.2083H101.445V43.3945H101.861V42.9875H102.277V42.5806H102.693V41.7668H103.109V41.3599H103.525V40.953H103.941V40.1392H104.357V39.7323H104.773V39.3254H105.189V38.5116H105.605V38.1047H106.021V37.6978H106.437V36.884H106.853V36.4771H107.269V36.0702H107.685V35.6633H108.101V35.2563H108.517V34.8494H108.933V34.4425H109.349V34.0356H109.765V33.6287H110.181V32.8149H110.597V32.408H111.013V32.0011H111.429V31.5942H111.845V31.1873H112.261V30.7804H112.677V30.3735H113.093V29.9666H113.509V29.5597H113.925V29.1528H114.341V28.7458H114.757V28.3389H115.173V27.932H115.589V27.5251H116.005V27.1182H116.421V26.7113H117.253V26.3044H117.669V25.8975H118.085V25.4906H118.501V25.0837H118.917V24.6768H119.333V24.2699H119.749V23.863H120.165V23.4561H120.581V23.0492H121.413V22.6423H121.829V22.2354H122.245V21.8285H123.077V21.4216H123.493V21.0146H123.909V20.6077H124.741V20.2008H125.157V19.7939H125.573V19.387H126.405V18.9801H126.821V18.5732H127.237V18.1663H128.069V17.7594H128.485V17.3525H129.317V16.9456H129.733V16.5387H130.565V16.1318H131.397V15.7249H131.813V15.318H132.644V14.9111H133.476V14.5042H133.892V14.0973H134.724V13.6904H135.556V13.2834H135.972V12.8765H136.804V12.4696H137.636V12.0627H138.468V11.6558H139.3V11.2489H140.132V10.842H140.964V10.4351H141.796V10.0282H142.628V9.62129H143.46V9.21439H144.292V8.80748H145.54V8.40057H146.372V7.99367H147.62V7.58676H148.452V7.17986H149.7V6.77295H150.948V6.36604H152.196V5.95914H153.028V5.55223H154.276V5.14532H155.524V4.73843H157.188V4.33153H158.852V3.92462H160.516V3.51772H162.18V3.11081H163.844V2.7039H165.508V2.297H168.004V1.89009H170.916V1.48318H173.828V1.07628H177.988V0.669373H193.38V1.07628H197.956V1.48318H200.452V1.89009H203.364V2.297H205.86V2.7039H207.94V3.11081H209.604V3.51772H210.852V3.92462H212.516V4.33153H214.18V4.73843H215.844V5.14532H217.092V5.55223H218.34V5.95914H219.588V6.36604H220.419V6.77295H221.667V7.17986H222.915V7.58676H223.747V7.99367H224.995V8.40057H226.243V8.80748H227.075V9.21439H227.907V9.62129H228.739V10.0282H229.571V10.4351H230.403V10.842H231.235V11.2489H232.067V11.6558H232.899V12.0627H233.731V12.4696H234.563V12.8765H235.395V13.2834H236.227V13.6904H236.643V14.0973H237.475V14.5042H238.307V14.9111H238.723V15.318H239.555V15.7249H239.971V16.1318H240.803V16.5387H241.635V16.9456H242.051V17.3525H242.883V17.7594H243.299V18.1663H244.131V18.5732H244.547V18.9801H244.963V19.387H245.795V19.7939H246.211V20.2008H246.627V20.6077H247.459V21.0146H247.875V21.4216H248.291V21.8285H249.123V22.2354H249.539V22.6423H249.955V23.0492H250.787V23.4561H251.203V23.863H251.619V24.2699H252.035V24.6768H252.451V25.0837H252.867V25.4906H253.283V25.8975H254.115V26.3044H254.531V26.7113H254.947V27.1182H255.363V27.5251H255.779V27.932H256.195V28.3389H256.611V28.7458H257.027V29.1528H257.443V29.5597H257.859V29.9666H258.275V30.3735H258.691V30.7804H259.107V31.1873H259.523V31.5942H259.939V32.0011H260.355V32.408H260.771V32.8149H261.187V33.2218H261.603V33.6287H262.019V34.4425H262.435V34.8494H262.851V35.2563H263.267V35.6633H263.683V36.0702H264.099V36.4771H264.515V36.884H264.931V37.6978H265.347V38.1047H265.763V38.5116H266.179V39.3254H266.595V39.7323H267.011V40.1392H267.427V40.953H267.843V41.3599H268.259V41.7668H268.675V42.5806H269.091V42.9875H269.507V43.3945H269.923V44.2083H270.339V44.6152H270.755V45.429H271.171V45.8359H271.587V46.6497H272.003V47.0566H272.419V47.8704H272.835V48.6842H273.251V49.0911H273.667V49.9049H274.083V50.7188H274.499V51.1257H274.915V51.9395H275.331V52.7533H275.747V53.5671H276.163V54.3809H276.579V55.1947H276.995V56.0085H277.411V56.8223H277.827V57.6362H278.243V58.45H278.659V59.2638H279.075V60.0776H279.491V60.8914H279.907V62.1121H280.323V62.9259H280.739V64.1466H281.155V65.3674H281.571V66.5881H281.987V67.4019H282.403V68.6226H282.819V69.8433H283.235V71.064H283.651V72.6917H284.067V74.3193H284.483V75.54H284.899V77.1676H285.315V78.7952H285.731V80.4229H286.147V83.2712H286.563V86.1195H286.979V88.561H287.395V92.63H287.811V104.837H293.219V105.244H298.211V105.651H301.539V106.058H304.451V106.465H306.531V106.872H308.611V107.279H310.69V107.686H312.354V108.092H313.602V108.499H315.266V108.906H316.514V109.313H318.178V109.72H319.426V110.127H320.258V110.534H321.506V110.941H322.754V111.348H323.586V111.755H324.834V112.161H325.666V112.568H326.914V112.975H327.746V113.382H328.578V113.789H329.41V114.196H330.242V114.603H331.074V115.01H331.906V115.417H332.738V115.824H333.57V116.231H334.402V116.637H335.234V117.044H335.65V117.451H336.482V117.858H337.314V118.265H338.146V118.672H338.978V119.079H339.394V119.486H340.226V119.893H340.642V120.3H341.474V120.707H341.89V121.113H342.722V121.52H343.138V121.927H343.97V122.334H344.386V122.741H344.802V121.927H345.218V121.52H345.634V120.707H346.05V119.893H346.466V119.486H346.882V119.079H347.298V118.265H347.714V117.858H348.13V117.451H348.546V116.637H348.962V116.231H349.378V115.417H349.794V115.01H350.21V114.603H350.626V113.789H351.042V113.382H351.458V112.975H351.874V112.161H352.29V111.755H352.706V111.348H353.122V110.941H353.538V110.534H353.954V110.127H354.37V109.72H354.786V109.313H355.202V108.499H355.618V108.092H356.034V107.686H356.45V107.279H356.866V106.872H357.282V106.465H357.698V106.058H358.114V105.651H358.53V105.244H358.946V104.837H359.362V104.023H359.778V103.616H360.194V103.21H360.61V102.803H361.026V102.396H361.858V101.989H362.274V101.582H362.69V101.175H363.106V100.768H363.522V100.361H363.938V99.9543H364.77V99.5474H365.186V99.1405H365.602V98.7336H366.018V98.3267H366.434V97.9198H366.85V97.5129H367.682V97.106H368.098V96.6991H368.514V96.2922H368.93V95.8853H369.346V95.4784H369.762V95.0715H370.594V94.6646H371.01V94.2576H371.842V93.8507H372.258V93.4438H373.09V93.0369H373.506V92.63H374.338V92.2231H374.754V91.8162H375.586V91.4093H376.002V91.0024H376.834V90.5955H377.25V90.1886H378.082V89.7817H378.498V89.3748H379.33V88.9679H379.746V88.561H380.578V88.1541H381.41V87.7472H382.242V87.3403H383.074V86.9333H383.906V86.5264H384.738V86.1195H385.57V85.7126H386.402V85.3057H387.234V84.8988H388.066V84.4919H388.898V84.085H389.73V83.6781H390.562V83.2712H391.394V82.8643H392.226V82.4574H393.474V82.0505H394.722V81.6436H395.97V81.2367H397.217V80.8298H398.465V80.4229H399.297V80.016H400.545V79.6091H401.793V79.2021H403.041V78.7952H404.289V78.3883H406.369V77.9814H408.033V77.5745H410.113V77.1676H412.193V76.7607H414.273V76.3538H416.353V75.9469H419.681V75.54H424.257V75.1331H439.233V75.54H442.977V75.9469H446.305V76.3538H449.217V76.7607H451.297V77.1676H453.377V77.5745H455.041V77.9814H456.705V78.3883H458.785V78.7952H460.033V79.2021H461.281V79.6091H462.529V80.016H463.777V80.4229H465.025V80.8298H466.273V81.2367H467.521V81.6436H468.353V82.0505H469.601V82.4574H470.433V82.8643H471.265V83.2712H472.513V83.6781H473.345V84.085H474.593V84.4919H475.425V84.8988H476.257V85.3057H476.673V85.7126H477.505V86.1195H478.337V86.5264H479.169V86.9333H480.001V87.3403H480.833V87.7472H481.665V88.1541H482.497V88.561H482.913V88.9679H483.745V89.3748H484.576V89.7817H484.992V90.1886H485.824V90.5955H486.24V91.0024H487.072V91.4093H487.488V91.8162H488.32V92.2231H489.152V92.63H489.568V93.0369H489.984V93.4438H490.816V93.8507H491.232V94.2576H491.648V94.6646H492.48V95.0715H492.896V95.4784H493.312V95.8853H494.144V96.2922H494.56V96.6991H494.976V97.106H495.808V97.5129H496.224V97.9198H496.64V98.3267H497.056V98.7336H497.472V99.1405H497.888V99.5474H498.304V99.9543H499.136V100.361H499.552V100.768H499.968V101.175H500.384V101.582H500.8V101.989H501.216V102.396H501.632V102.803H502.048V103.21H502.464V103.616H502.88V104.023H503.296V104.43H503.712V104.837H504.128V105.244H504.544V105.651H504.96V106.058H505.376V106.465H505.792V106.872H506.208V107.279H506.624V107.686H507.04V108.092H507.456V108.499H507.872V108.906H508.288V109.72H508.704V110.127H509.12V110.534H509.536V110.941H509.952V111.755H510.368V112.161H510.784V112.568H511.2V112.975H511.616V113.789H512.032V114.196H512.448V114.603H512.864V115.01H513.28V115.824H513.696V116.231H514.112V117.044H514.528V117.451H514.944V118.265H515.36V118.672H515.776V119.486H516.192V119.893H516.608V120.707H517.024V121.113H517.44V121.927H517.856V122.334H518.272V123.148H518.688V123.555H519.104V124.369H519.52V125.182H519.936V125.996H520.352V126.81H520.768V127.624H521.184V128.031H521.6V128.845H522.016V129.658H522.432V130.472H522.848V131.286H523.264V132.1H523.68V133.321H524.096V134.134H524.512V134.948H524.928V136.169H525.344V136.983H525.76V137.797H526.176V139.017H526.592V140.238H527.008V141.459H527.424V142.679H527.84V143.493H528.256V144.714H528.672V145.935H529.088V147.562H529.504V149.19H529.92V150.818H530.336V152.038H530.752V154.073H531.168V154.48L538.202 187.474L549.888 240.744" fill="url(#paint0_linear_14_406)"/>
</g>
<defs>
<linearGradient id="paint0_linear_14_406" x1="266.766" y1="67.3734" x2="212.175" y2="384.791" gradientUnits="userSpaceOnUse">
<stop stop-color="#1C1D44"/>
<stop offset="0.553191" stop-color="#F03187"/>
<stop offset="1" stop-color="#EDA523"/>
</linearGradient>
</defs>
</svg>
