<svg width="1139" height="458" viewBox="0 0 1139 458" fill="none" xmlns="http://www.w3.org/2000/svg">
<mask id="mask0_14_275" style="mask-type:luminance" maskUnits="userSpaceOnUse" x="-39" y="0" width="1178" height="499">
<path d="M1138.28 318.464C1138.28 271.992 1099.77 234.32 1052.26 234.32C1046.52 234.32 1040.92 234.878 1035.49 235.928L1035.51 235.187C1035.51 153.2 967.568 86.7398 883.753 86.7398C799.938 86.7398 731.998 153.2 731.998 235.187C731.998 237.071 732.073 238.943 732.144 240.819C720.978 237.181 709.052 235.187 696.63 235.187C692.424 235.187 688.277 235.427 684.192 235.871C684.712 231.891 685.011 227.846 685.011 223.729C685.011 171.409 641.648 128.993 588.155 128.993C534.666 128.993 491.303 171.409 491.303 223.729L491.311 224.03C489.19 223.834 487.052 223.729 484.876 223.729C478.977 223.729 473.249 224.457 467.783 225.824C444.171 183.783 398.486 155.283 345.979 155.283C300.935 155.283 260.925 176.271 235.549 208.775C220.106 199.184 201.805 193.601 182.157 193.601C168.082 193.601 154.692 196.47 142.551 201.617C143.452 194.415 143.972 187.099 143.972 179.665C143.972 80.8681 62.0925 0.776886 -38.9111 0.776886V358.553V498.817H1097.44L1072.72 400.195C1110.35 391.211 1138.28 358.036 1138.28 318.464Z" fill="white"/>
</mask>
<g mask="url(#mask0_14_275)">
<path d="M0.774002 498.744V498.337H-2.55396V497.93H-5.04993V497.523H-6.29792V497.116H-7.5459V496.709H-9.20988V496.302H-10.4579V495.895H-11.7059V495.488H-12.5378V495.082H-13.3698V494.675H-14.2018V494.268H-15.0338V493.861H-15.8658V493.454H-16.2818V493.047H-17.1138V492.64H-17.9458V492.233H-18.7778V491.826H-19.1938V491.419H-19.6098V491.012H-20.4418V490.606H-20.8578V490.199H-21.2737V489.792H-21.6897V489.385H-22.1057V488.978H-22.9377V488.571H-23.3537V488.164H-23.7697V487.757H-24.1857V487.35H-24.6017V486.943H-25.0177V486.536H-25.4337V486.13H-25.8497V485.723H-26.2657V484.909H-26.6817V484.502H-27.0977V484.095H-27.5137V483.688H-27.9297V483.281H-28.3457V482.467H-28.7617V482.061H-29.1777V481.654H-29.5937V480.84H-30.0096V480.026H-30.4256V479.619H-30.8416V478.805H-31.2576V477.991H-31.6736V477.178H-32.0896V476.364H-32.5056V475.55H-32.9216V474.736H-33.3376V473.516H-33.7536V472.295H-34.1696V471.074H-34.5856V469.446H-35.0016V468.226H-35.4176V466.191H-35.8336V462.936H-36.2496V0.691254H-27.9297V1.09814H-22.5217V1.50507H-18.3618V1.91196H-15.0338V2.31888H-11.7059V2.72577H-9.20988V3.13269H-6.71391V3.53958H-4.63394V3.9465H-2.13797V4.35339H-0.473984V4.76031H1.60599V5.16721H3.26997V5.5741H4.93396V5.98102H7.01393V6.38791H8.26192V6.79483H9.9259V7.20172H11.1739V7.60864H12.8379V8.01553H14.0858V8.42245H15.7498V8.82935H16.9978V9.23627H18.2458V9.64316H19.4938V10.0501H20.7418V10.457H21.9898V10.8639H23.2377V11.2708H24.4857V11.6777H25.3177V12.0846H26.5657V12.4915H27.3977V12.8984H28.6457V13.3053H29.4777V13.7122H30.7257V14.1191H31.5577V14.526H32.8056V14.933H33.6376V15.3398H34.4696V15.7468H35.3016V16.1537H36.5496V16.5605H37.3816V16.9675H38.2136V17.3744H39.0456V17.7813H39.8776V18.1882H41.1255V18.5951H41.5415V19.002H42.3735V19.4089H43.2055V19.8158H44.0375V20.2227H44.8695V20.6296H45.7015V21.0365H46.5335V21.4434H47.3655V21.8503H48.1975V22.2572H49.0295V22.6642H49.8614V23.071H50.2774V23.478H51.1094V23.8849H51.9414V24.2918H52.7734V24.6987H53.1894V25.1056H54.0214V25.5125H54.8534V25.9194H55.6854V26.3263H56.1014V26.7332H56.9334V27.1401H57.3494V27.547H58.1813V27.9539H59.0133V28.3608H59.4293V28.7677H60.2613V29.1746H60.6773V29.5815H61.5093V29.9884H61.9253V30.3954H62.7573V30.8022H63.1733V31.2092H64.0053V31.6161H64.4213V32.023H65.2533V32.4299H65.6693V32.8368H66.5013V33.2437H66.9172V33.6506H67.3332V34.0575H68.1652V34.4644H68.5812V34.8713H69.4132V35.2782H69.8292V35.6851H70.2452V36.092H71.0772V36.4989H71.4932V36.9059H71.9092V37.3127H72.7412V37.7197H73.1572V38.1266H73.5732V38.5334H73.9892V38.9404H74.8212V39.3473H75.2372V39.7542H75.6531V40.1611H76.0691V40.568H76.9011V40.9749H77.3171V41.3818H77.7331V41.7887H78.1491V42.1956H78.9811V42.6025H79.3971V43.0094H79.8131V43.4163H80.2291V43.8232H80.6451V44.2301H81.0611V44.6371H81.4771V45.0439H82.3091V45.4509H82.7251V45.8578H83.1411V46.2647H83.5571V46.6716H83.9731V47.0785H84.389V47.4854H84.805V47.8923H85.221V48.2992H85.637V48.7061H86.053V49.113H86.885V49.5199H87.301V49.9268H87.717V50.3337H88.133V50.7406H88.549V51.1475H88.965V51.5544H89.381V51.9613H89.797V52.3683H90.213V52.7751H90.629V53.1821H91.045V53.589H91.461V53.9959H91.877V54.4028H92.293V54.8097H92.709V55.2166H93.125V55.6235H93.541V56.0304H93.9569V56.4373H94.3729V56.8442H94.7889V57.658H95.2049V58.0649H95.6209V58.4718H96.0369V58.8788H96.4529V59.2856H96.8689V59.6926H97.2849V60.0995H97.7009V60.5063H98.1169V60.9133H98.5329V61.3202H98.9489V62.134H99.3649V62.5409H99.7809V62.9478H100.197V63.3547H100.613V63.7616H101.029V64.1685H101.445V64.9823H101.861V65.3892H102.277V65.7961H102.693V66.203H103.109V66.61H103.525V67.4238H103.941V67.8307H104.357V68.2376H104.773V69.0514H105.189V69.4583H105.605V69.8652H106.021V70.2721H106.437V71.0859H106.853V71.4928H107.269V71.8997H107.685V72.3066H108.101V73.1204H108.517V73.5273H108.933V74.3412H109.349V74.748H109.765V75.155H110.181V75.9688H110.597V76.3757H111.013V77.1895H111.429V77.5964H111.845V78.4102H112.261V78.8171H112.677V79.224H113.093V80.0378H113.509V80.4447H113.925V81.2585H114.341V82.0724H114.757V82.4792H115.173V83.2931H115.589V83.7H116.005V84.5138H116.421V84.9207H116.837V85.7345H117.253V86.1414H117.669V86.9552H118.085V87.769H118.501V88.5829H118.917V88.9897H119.333V89.8036H119.749V90.6174H120.165V91.4312H120.581V91.8381H120.997V92.6519H121.413V93.4657H121.829V94.2795H122.245V94.6864H122.661V95.5002H123.077V96.3141H123.493V97.1279H123.909V97.9417H124.325V98.7555H124.741V99.5693H125.157V100.383H125.573V101.197H125.989V102.011H126.405V102.825H126.821V103.638H127.237V104.859H127.653V105.673H128.069V106.487H128.485V107.301H128.901V108.521H129.317V109.335H129.733V110.149H130.149V111.37H130.565V112.183H130.981V113.404H131.397V114.218H131.813V115.439H132.229V116.252H132.644V117.473H133.06V118.694H133.476V119.508H133.892V120.728H134.308V121.949H134.724V123.17H135.14V124.391H135.556V125.611H135.972V126.832H136.388V128.46H136.804V130.087H137.22V131.308H137.636V132.936H138.052V134.156H138.468V135.784H138.884V137.411H139.3V139.446H139.716V141.074H140.132V142.701H140.548V145.143H140.964V147.177H141.38V149.619H141.796V151.653H142.212V154.908H142.628V158.164H143.044V161.419H143.46V166.709H143.876V174.44H144.292V184.613H143.876V192.344H143.46V197.227H143.044V200.889H143.876V200.482H145.124V200.075H146.372V199.668H147.62V199.261H148.452V198.854H149.7V198.447H150.948V198.04H152.196V197.634H153.86V197.227H155.524V196.82H157.188V196.413H158.436V196.006H160.1V195.599H161.764V195.192H164.676V194.785H167.172V194.378H170.084V193.971H173.828V193.564H190.052V193.971H194.212V194.378H197.54V194.785H199.62V195.192H201.284V195.599H203.364V196.006H205.028V196.413H207.108V196.82H208.772V197.227H210.852V197.634H211.684V198.04H212.932V198.447H214.18V198.854H215.012V199.261H216.26V199.668H217.508V200.075H218.34V200.482H219.588V200.889H220.836V201.296H221.667V201.703H222.915V202.109H224.163V202.516H224.995V202.923H225.411V203.33H226.243V203.737H227.075V204.144H227.907V204.551H228.739V204.958H229.571V205.365H230.403V205.772H231.235V206.179H232.067V206.585H232.899V206.992H233.731V207.399H234.147V207.806H234.979V208.213H235.811V207.806H236.227V206.992H236.643V206.585H237.059V206.179H237.475V205.772H237.891V205.365H238.307V204.551H238.723V204.144H239.139V203.737H239.555V203.33H239.971V202.923H240.387V202.109H240.803V201.703H241.219V201.296H241.635V200.889H242.051V200.482H242.467V200.075H242.883V199.668H243.299V199.261H243.715V198.854H244.131V198.04H244.547V197.634H244.963V197.227H245.379V196.82H245.795V196.413H246.211V196.006H246.627V195.599H247.043V195.192H247.459V194.785H247.875V194.378H248.291V193.971H248.707V193.564H249.123V193.158H249.539V192.751H249.955V192.344H250.371V191.937H250.787V191.53H251.203V191.123H252.035V190.716H252.451V190.309H252.867V189.902H253.283V189.495H253.699V189.089H254.115V188.682H254.531V188.275H254.947V187.868H255.779V187.461H256.195V187.054H256.611V186.647H257.027V186.24H257.443V185.833H258.275V185.426H258.691V185.019H259.107V184.613H259.523V184.206H260.355V183.799H260.771V183.392H261.187V182.985H261.603V182.578H262.435V182.171H262.851V181.764H263.267V181.357H264.099V180.95H264.515V180.544H265.347V180.137H265.763V179.73H266.595V179.323H267.011V178.916H267.427V178.509H268.259V178.102H268.675V177.695H269.507V177.288H269.923V176.881H270.755V176.474H271.171V176.068H272.003V175.661H272.835V175.254H273.251V174.847H274.083V174.44H274.915V174.033H275.331V173.626H276.163V173.219H276.995V172.812H277.411V172.405H278.243V171.998H279.075V171.592H279.907V171.185H280.739V170.778H281.571V170.371H281.987V169.964H282.819V169.557H283.651V169.15H284.483V168.743H285.731V168.336H286.563V167.929H287.395V167.523H288.227V167.116H289.059V166.709H289.891V166.302H291.139V165.895H291.971V165.488H293.219V165.081H294.051V164.674H295.299V164.267H296.131V163.86H296.963V163.453H298.211V163.047H299.459V162.64H300.707V162.233H301.955V161.826H303.203V161.419H304.451V161.012H305.699V160.605H307.363V160.198H309.026V159.791H310.274V159.384H311.938V158.978H313.602V158.571H315.682V158.164H317.346V157.757H319.426V157.35H321.506V156.943H324.418V156.536H327.33V156.129H330.658V155.722H335.234V155.315H342.722V154.908H349.378V155.315H356.866V155.722H361.026V156.129H365.186V156.536H367.682V156.943H370.178V157.35H372.258V157.757H374.754V158.164H376.418V158.571H378.082V158.978H379.746V159.384H381.41V159.791H383.074V160.198H384.738V160.605H385.986V161.012H387.234V161.419H388.482V161.826H389.73V162.233H391.394V162.64H392.642V163.047H393.474V163.453H394.722V163.86H395.97V164.267H396.802V164.674H398.049V165.081H398.881V165.488H400.129V165.895H400.961V166.302H401.793V166.709H403.041V167.116H403.873V167.523H404.705V167.929H405.537V168.336H406.369V168.743H407.201V169.15H408.033V169.557H408.865V169.964H409.697V170.371H410.529V170.778H411.361V171.185H412.193V171.592H413.025V171.998H413.441V172.405H414.273V172.812H415.105V173.219H415.937V173.626H416.353V174.033H417.185V174.44H418.017V174.847H418.849V175.254H419.265V175.661H420.097V176.068H420.513V176.474H421.345V176.881H421.761V177.288H422.593V177.695H423.009V178.102H423.841V178.509H424.257V178.916H425.089V179.323H425.505V179.73H426.337V180.137H426.753V180.544H427.169V180.95H428.001V181.357H428.417V181.764H428.833V182.171H429.665V182.578H430.081V182.985H430.497V183.392H431.329V183.799H431.745V184.206H432.161V184.613H432.993V185.019H433.409V185.426H433.825V185.833H434.241V186.24H434.657V186.647H435.489V187.054H435.905V187.461H436.321V187.868H436.737V188.275H437.153V188.682H437.569V189.089H438.401V189.495H438.817V189.902H439.233V190.309H439.649V190.716H440.065V191.123H440.481V191.53H440.897V191.937H441.313V192.344H441.729V192.751H442.145V193.158H442.561V193.564H442.977V193.971H443.393V194.378H443.809V194.785H444.225V195.192H444.641V195.599H445.473V196.006H445.889V196.413H446.305V196.82H446.721V197.634H447.137V198.04H447.553V198.447H447.969V198.854H448.385V199.261H448.801V199.668H449.217V200.075H449.633V200.482H450.049V200.889H450.465V201.703H450.881V202.109H451.297V202.516H451.713V202.923H452.129V203.33H452.545V203.737H452.961V204.551H453.377V204.958H453.793V205.365H454.209V205.772H454.625V206.585H455.041V206.992H455.457V207.399H455.873V207.806H456.289V208.62H456.705V209.027H457.121V209.434H457.537V209.841H457.953V210.655H458.369V211.061H458.785V211.875H459.201V212.282H459.617V213.096H460.033V213.503H460.449V214.317H460.865V214.724H461.281V215.13H461.697V215.944H462.113V216.351H462.529V217.165H462.945V217.572H463.361V218.386H463.777V218.793H464.193V219.606H464.609V220.42H465.025V220.827H465.441V221.641H465.857V222.455H466.273V222.862H466.689V223.676H467.105V224.489H467.521V225.303H470.017V224.896H472.513V224.489H474.593V224.082H478.337V223.676H491.232V215.944H491.648V212.282H492.064V209.434H492.48V206.992H492.896V204.144H493.312V202.516H493.728V201.296H494.144V199.668H494.56V198.04H494.976V196.413H495.392V194.785H495.808V193.971H496.224V192.751H496.64V191.53H497.056V190.309H497.472V189.495H497.888V188.275H498.304V187.054H498.72V186.24H499.136V185.426H499.552V184.613H499.968V183.799H500.384V182.985H500.8V182.171H501.216V180.95H501.632V180.137H502.048V179.323H502.464V178.509H502.88V177.695H503.296V177.288H503.712V176.474H504.128V176.068H504.544V175.254H504.96V174.44H505.376V174.033H505.792V173.219H506.208V172.405H506.624V171.998H507.04V171.185H507.456V170.371H507.872V169.964H508.288V169.557H508.704V168.743H509.12V168.336H509.536V167.929H509.952V167.116H510.368V166.709H510.784V166.302H511.2V165.488H511.616V165.081H512.032V164.674H512.448V163.86H512.864V163.453H513.28V163.047H513.696V162.64H514.112V162.233H514.528V161.826H514.944V161.012H515.36V160.605H515.776V160.198H516.192V159.791H516.608V159.384H517.024V158.978H517.44V158.571H517.856V158.164H518.272V157.757H518.688V157.35H519.104V156.536H519.52V156.129H520.352V155.722H520.768V155.315H521.184V154.908H521.6V154.502H522.016V154.095H522.432V153.688H522.848V153.281H523.264V152.874H523.68V152.467H524.096V152.06H524.928V151.653H525.344V151.246H525.76V150.839H526.176V150.432H526.592V150.026H527.008V149.619H527.84V149.212H528.256V148.805H528.672V148.398H529.504V147.991H529.92V147.584H530.336V147.177H531.168V146.77H531.584V146.363H532V145.957H532.832V145.55H533.248V145.143H533.664V144.736H534.496V144.329H535.328V143.922H535.744V143.515H536.576V143.108H537.408V142.701H537.824V142.294H538.656V141.887H539.488V141.481H539.904V141.074H540.736V140.667H541.568V140.26H541.984V139.853H542.816V139.446H544.064V139.039H544.896V138.632H545.728V138.225H546.56V137.818H547.392V137.411H548.224V137.005H549.056V136.598H549.888V136.191H551.136V135.784H551.968V135.377H553.216V134.97H554.464V134.563H555.296V134.156H556.544V133.749H557.792V133.342H559.04V132.936H560.288V132.529H561.952V132.122H563.616V131.715H565.28V131.308H566.944V130.901H568.608V130.494H571.104V130.087H574.015V129.68H576.511V129.273H581.087V128.866H595.231V129.273H599.391V129.68H602.303V130.087H605.215V130.494H607.711V130.901H609.375V131.308H611.039V131.715H612.703V132.122H614.367V132.529H616.031V132.936H617.279V133.342H618.527V133.749H619.775V134.156H621.023V134.563H621.855V134.97H623.103V135.377H624.351V135.784H625.183V136.191H626.431V136.598H627.263V137.005H628.095V137.411H628.927V137.818H629.759V138.225H630.591V138.632H631.423V139.039H632.255V139.446H633.503V139.853H634.335V140.26H634.751V140.667H635.583V141.074H636.415V141.481H636.831V141.887H637.663V142.294H638.495V142.701H638.911V143.108H639.743V143.515H640.575V143.922H640.991V144.329H641.823V144.736H642.655V145.143H643.071V145.55H643.487V145.957H644.319V146.363H644.735V146.77H645.151V147.177H645.983V147.584H646.399V147.991H646.815V148.398H647.647V148.805H648.063V149.212H648.479V149.619H649.311V150.026H649.727V150.432H650.143V150.839H650.559V151.246H650.975V151.653H651.391V152.06H652.223V152.467H652.639V152.874H653.055V153.281H653.471V153.688H653.887V154.095H654.303V154.502H654.719V154.908H655.135V155.315H655.551V155.722H655.967V156.129H656.799V156.536H657.215V157.35H657.631V157.757H658.047V158.164H658.463V158.571H658.879V158.978H659.294V159.384H659.711V159.791H660.127V160.198H660.542V160.605H660.958V161.012H661.375V161.826H661.79V162.233H662.206V162.64H662.622V163.047H663.038V163.453H663.454V163.86H663.87V164.674H664.286V165.081H664.702V165.488H665.118V166.302H665.534V166.709H665.95V167.116H666.366V167.929H666.782V168.336H667.198V168.743H667.614V169.557H668.03V169.964H668.446V170.371H668.862V171.185H669.278V171.998H669.694V172.405H670.11V173.219H670.526V174.033H670.942V174.44H671.358V175.254H671.774V176.068H672.19V176.474H672.606V177.288H673.022V177.695H673.438V178.509H673.854V179.323H674.27V180.137H674.686V180.95H675.102V182.171H675.518V182.985H675.934V183.799H676.35V184.613H676.766V185.426H677.182V186.24H677.598V187.054H678.014V188.275H678.43V189.495H678.846V190.716H679.262V191.53H679.678V192.751H680.094V193.971H680.51V194.785H680.926V196.413H681.342V198.04H681.758V199.668H682.174V201.296H682.59V202.516H683.006V204.144H683.422V206.992H683.838V209.434H684.254V212.282H684.67V215.944H685.086V231H684.67V235.476H689.246V235.069H704.638V235.476H708.798V235.883H712.126V236.29H715.454V236.696H717.534V237.103H719.198V237.51H721.278V237.917H723.358V238.324H725.022V238.731H726.686V239.138H727.934V239.545H729.598V239.952H730.846V240.359H732.094V239.545H731.678V229.779H732.094V223.676H732.51V218.793H732.926V216.351H733.342V213.503H733.758V211.061H734.174V208.213H734.59V205.365H735.006V203.737H735.422V202.109H735.838V200.482H736.254V198.854H736.67V197.634H737.086V196.006H737.502V194.378H737.918V192.751H738.334V191.123H738.75V189.902H739.166V188.682H739.582V187.868H739.998V186.647H740.414V185.426H740.83V184.206H741.246V183.392H741.662V182.171H742.078V180.95H742.494V179.73H742.91V178.916H743.326V177.695H743.742V176.881H744.158V176.068H744.574V174.847H744.99V174.033H745.406V173.219H745.822V172.405H746.238V171.592H746.653V170.778H747.07V169.964H747.486V169.15H747.901V168.336H748.318V167.523H748.734V166.709H749.149V165.895H749.565V165.081H749.982V164.267H750.397V163.453H750.813V162.64H751.229V162.233H751.645V161.419H752.061V160.605H752.477V160.198H752.893V159.384H753.309V158.571H753.725V158.164H754.141V157.35H754.557V156.536H754.973V156.129H755.389V155.315H755.805V154.908H756.221V154.095H756.637V153.281H757.053V152.874H757.469V152.06H757.885V151.653H758.301V150.839H758.717V150.432H759.133V150.026H759.549V149.212H759.965V148.805H760.381V148.398H760.797V147.584H761.213V147.177H761.629V146.77H762.045V145.957H762.461V145.55H762.877V145.143H763.293V144.329H763.709V143.922H764.125V143.515H764.541V142.701H764.957V142.294H765.373V141.887H765.789V141.074H766.205V140.667H766.621V140.26H767.037V139.853H767.453V139.446H767.869V138.632H768.285V138.225H768.701V137.818H769.117V137.411H769.533V137.005H769.949V136.598H770.365V136.191H770.781V135.784H771.197V135.377H771.613V134.97H772.029V134.156H772.445V133.749H772.861V133.342H773.277V132.936H773.693V132.529H774.109V132.122H774.525V131.715H774.941V131.308H775.357V130.901H775.773V130.494H776.189V129.68H777.021V129.273H777.437V128.866H777.853V128.46H778.269V128.053H778.685V127.646H779.101V127.239H779.517V126.832H779.933V126.425H780.349V126.018H780.765V125.611H781.597V125.204H782.013V124.797H782.429V124.391H782.845V123.984H783.261V123.577H783.677V123.17H784.093V122.763H784.509V122.356H784.925V121.949H785.341V121.542H786.173V121.135H786.589V120.728H787.005V120.321H787.421V119.915H787.837V119.508H788.669V119.101H789.085V118.694H789.501V118.287H790.333V117.88H790.749V117.473H791.165V117.066H791.997V116.659H792.413V116.252H792.829V115.846H793.661V115.439H794.077V115.032H794.493V114.625H795.325V114.218H795.741V113.811H796.157V113.404H796.989V112.997H797.405V112.59H797.821V112.183H798.653V111.776H799.069V111.37H799.901V110.963H800.733V110.556H801.149V110.149H801.981V109.742H802.813V109.335H803.229V108.928H804.061V108.521H804.893V108.114H805.309V107.707H806.141V107.301H806.557V106.894H807.389V106.487H808.221V106.08H808.637V105.673H809.469V105.266H810.301V104.859H810.717V104.452H811.549V104.045H812.381V103.638H813.213V103.231H814.045V102.825H815.293V102.418H816.125V102.011H816.957V101.604H817.789V101.197H818.621V100.79H819.453V100.383H820.285V99.9762H821.117V99.5693H821.949V99.1624H822.781V98.7555H823.613V98.3486H824.445V97.9417H825.693V97.5348H826.941V97.1279H828.189V96.7209H829.021V96.3141H830.269V95.9071H831.517V95.5002H832.765V95.0933H833.597V94.6864H834.845V94.2795H836.093V93.8726H837.341V93.4657H838.172V93.0588H839.836V92.6519H841.5V92.245H843.164V91.8381H844.828V91.4312H846.492V91.0243H847.74V90.6174H849.404V90.2105H851.068V89.8036H852.732V89.3967H855.228V88.9897H858.14V88.5829H860.636V88.1759H863.548V87.769H866.46V87.3621H870.204V86.9552H876.444V86.5483H891.004V86.9552H897.244V87.3621H901.404V87.769H903.9V88.1759H906.812V88.5829H909.308V88.9897H912.22V89.3967H914.716V89.8036H916.38V90.2105H918.044V90.6174H919.708V91.0243H921.372V91.4312H922.62V91.8381H924.284V92.245H925.948V92.6519H927.611V93.0588H929.275V93.4657H930.523V93.8726H931.355V94.2795H932.603V94.6864H933.851V95.0933H935.099V95.5002H935.931V95.9071H937.179V96.3141H938.427V96.7209H939.259V97.1279H940.507V97.5348H941.755V97.9417H943.003V98.3486H943.835V98.7555H944.667V99.1624H945.499V99.5693H946.331V99.9762H947.163V100.383H947.995V100.79H948.827V101.197H949.659V101.604H950.491V102.011H951.739V102.418H952.571V102.825H953.403V103.231H954.235V103.638H955.067V104.045H955.899V104.452H956.731V104.859H957.147V105.266H957.979V105.673H958.811V106.08H959.227V106.487H960.059V106.894H960.891V107.301H961.307V107.707H962.139V108.114H962.971V108.521H963.387V108.928H964.219V109.335H965.051V109.742H965.467V110.149H966.299V110.556H966.715V110.963H967.547V111.37H968.379V111.776H968.795V112.183H969.627V112.59H970.043V112.997H970.459V113.404H971.291V113.811H971.707V114.218H972.123V114.625H972.955V115.032H973.371V115.439H973.787V115.846H974.619V116.252H975.035V116.659H975.451V117.066H976.283V117.473H976.699V117.88H977.115V118.287H977.947V118.694H978.363V119.101H978.779V119.508H979.611V119.915H980.027V120.321H980.443V120.728H980.859V121.135H981.691V121.542H982.107V121.949H982.523V122.356H982.939V122.763H983.355V123.17H983.771V123.577H984.187V123.984H984.603V124.391H985.019V124.797H985.435V125.204H986.267V125.611H986.683V126.018H987.099V126.425H987.515V126.832H987.931V127.239H988.347V127.646H988.763V128.053H989.179V128.46H989.595V128.866H990.011V129.273H990.843V129.68H991.259V130.087H991.675V130.494H992.091V131.308H992.507V131.715H992.923V132.122H993.339V132.529H993.755V132.936H994.171V133.342H994.587V133.749H995.003V134.156H995.419V134.563H995.835V134.97H996.251V135.784H996.667V136.191H997.083V136.598H997.499V137.005H997.915V137.411H998.331V137.818H998.747V138.225H999.163V138.632H999.579V139.039H999.995V139.446H1000.41V140.26H1000.83V140.667H1001.24V141.074H1001.66V141.481H1002.07V142.294H1002.49V142.701H1002.91V143.108H1003.32V143.922H1003.74V144.329H1004.15V144.736H1004.57V145.55H1004.99V145.957H1005.4V146.363H1005.82V147.177H1006.23V147.584H1006.65V147.991H1007.07V148.805H1007.48V149.212H1007.9V149.619H1008.31V150.432H1008.73V150.839H1009.15V151.246H1009.56V152.06H1009.98V152.467H1010.39V153.281H1010.81V154.095H1011.23V154.502H1011.64V155.315H1012.06V156.129H1012.47V156.536H1012.89V157.35H1013.31V158.164H1013.72V158.571H1014.14V159.384H1014.55V159.791H1014.97V160.605H1015.39V161.419H1015.8V161.826H1016.22V162.64H1016.63V163.453H1017.05V163.86H1017.47V164.674H1017.88V165.488H1018.3V166.302H1018.71V167.116H1019.13V168.336H1019.55V169.15H1019.96V169.964H1020.38V170.778H1020.79V171.592H1021.21V172.405H1021.63V173.219H1022.04V174.033H1022.46V174.847H1022.87V175.661H1023.29V176.474H1023.71V177.695H1024.12V178.509H1024.54V179.73H1024.95V180.95H1025.37V182.171H1025.79V182.985H1026.2V184.206H1026.62V185.426H1027.03V186.24H1027.45V187.461H1027.87V188.682H1028.28V189.902H1028.7V190.716H1029.11V192.344H1029.53V193.971H1029.95V195.599H1030.36V197.227H1030.78V198.854H1031.19V200.482H1031.61V202.109H1032.03V203.737H1032.44V205.365H1032.86V207.806H1033.27V210.655H1033.69V213.096H1034.11V215.944H1034.52V218.386H1034.94V222.862H1035.35V228.965H1035.77V235.476H1037.85V235.069H1041.18V234.662H1044.51V234.255H1059.9V234.662H1063.23V235.069H1066.14V235.476H1068.63V235.883H1070.71V236.29H1072.38V236.696H1074.04V237.103H1075.71V237.51H1077.37V237.917H1078.62V238.324H1079.87V238.731H1081.11V239.138H1081.95V239.545H1083.19V239.952H1084.44V240.359H1085.27V240.766H1086.52V241.172H1087.35V241.579H1088.19V241.986H1089.02V242.393H1089.85V242.8H1090.68V243.207H1091.51V243.614H1092.35V244.021H1093.18V244.428H1094.01V244.835H1094.84V245.241H1095.26V245.648H1096.09V246.055H1096.92V246.462H1097.34V246.869H1098.17V247.276H1099V247.683H1099.42V248.09H1100.25V248.497H1100.67V248.904H1101.5V249.311H1101.91V249.717H1102.33V250.124H1103.16V250.531H1103.58V250.938H1103.99V251.345H1104.83V251.752H1105.24V252.159H1105.66V252.566H1106.49V252.973H1106.91V253.38H1107.32V253.786H1107.74V254.193H1108.57V254.6H1108.99V255.007H1109.4V255.414H1109.82V255.821H1110.23V256.228H1110.65V256.635H1111.07V257.042H1111.48V257.449H1111.9V257.856H1112.31V258.262H1113.15V258.669H1113.56V259.076H1113.98V259.89H1114.39V260.297H1114.81V260.704H1115.23V261.111H1115.64V261.518H1116.06V261.925H1116.47V262.332H1116.89V262.738H1117.31V263.145H1117.72V263.552H1118.14V264.366H1118.55V264.773H1118.97V265.18H1119.39V265.587H1119.8V266.401H1120.22V266.807H1120.63V267.214H1121.05V268.028H1121.47V268.435H1121.88V268.842H1122.3V269.656H1122.71V270.063H1123.13V270.47H1123.55V271.283H1123.96V271.69H1124.38V272.504H1124.79V273.318H1125.21V273.725H1125.63V274.539H1126.04V275.352H1126.46V275.759H1126.87V276.573H1127.29V276.98H1127.71V277.794H1128.12V278.608H1128.54V279.422H1128.95V280.235H1129.37V281.049H1129.79V281.863H1130.2V282.677H1130.62V283.491H1131.03V284.711H1131.45V285.525H1131.87V286.339H1132.28V287.56H1132.7V288.78H1133.11V289.594H1133.53V290.815H1133.95V292.036H1134.36V293.256H1134.78V294.477H1135.19V296.105H1135.61V297.732H1136.03V299.36H1136.44V300.988H1136.86V303.429H1137.27V305.87H1137.69V308.719H1138.11V313.602H1138.52V323.367H1138.11V327.843H1137.69V331.099H1137.27V333.947H1136.86V335.575H1136.44V337.609H1136.03V339.237H1135.61V340.864H1135.19V342.085H1134.78V343.713H1134.36V344.933H1133.95V346.154H1133.53V347.375H1133.11V348.596H1132.7V349.409H1132.28V350.223H1131.87V351.444H1131.45V352.258H1131.03V353.478H1130.62V354.292H1130.2V355.106H1129.79V355.92H1129.37V356.734H1128.95V357.547H1128.54V358.361H1128.12V359.175H1127.71V359.989H1127.29V360.396H1126.87V361.21H1126.46V361.616H1126.04V362.43H1125.63V363.244H1125.21V363.651H1124.79V364.465H1124.38V365.279H1123.96V365.686H1123.55V366.499H1123.13V366.906H1122.71V367.313H1122.3V368.127H1121.88V368.534H1121.47V368.941H1121.05V369.755H1120.63V370.161H1120.22V370.568H1119.8V371.382H1119.39V371.789H1118.97V372.196H1118.55V372.603H1118.14V373.01H1117.72V373.417H1117.31V374.231H1116.89V374.637H1116.47V375.044H1116.06V375.451H1115.64V375.858H1115.23V376.265H1114.81V376.672H1114.39V377.079H1113.98V377.486H1113.56V377.893H1113.15V378.3H1112.73V378.707H1112.31V379.113H1111.9V379.52H1111.48V379.927H1111.07V380.334H1110.65V380.741H1110.23V381.148H1109.82V381.555H1109.4V381.962H1108.99V382.369H1108.15V382.776H1107.74V383.182H1107.32V383.589H1106.91V383.996H1106.49V384.403H1105.66V384.81H1105.24V385.217H1104.83V385.624H1104.41V386.031H1103.58V386.438H1103.16V386.845H1102.33V387.252H1101.91V387.658H1101.08V388.065H1100.67V388.472H1100.25V388.879H1099.42V389.286H1099V389.693H1098.17V390.1H1097.34V390.507H1096.92V390.914H1096.09V391.321H1095.26V391.727H1094.84V392.134H1094.01V392.541H1093.18V392.948H1092.35V393.355H1091.51V393.762H1090.68V394.169H1089.85V394.576H1089.02V394.983H1088.19V395.39H1087.35V395.797H1086.52V396.203H1085.27V396.61H1084.03V397.017H1083.19V397.424H1081.95V397.831H1081.11V398.238H1079.87V398.645H1078.62V399.052H1076.95V399.459H1075.71V399.866H1074.46V400.273H1073.21V401.9H1073.63V403.528H1074.04V405.155H1074.46V406.783H1074.87V408.411H1075.29V410.038H1075.71V412.073H1076.12V413.7H1076.54V415.328H1076.95V416.956H1077.37V418.583H1077.79V420.211H1078.2V421.839H1078.62V423.466H1079.03V425.094H1079.45V426.721H1079.87V428.349H1080.28V429.977H1080.7V431.604H1081.11V433.639H1081.53V435.266H1081.95V436.894H1082.36V438.522H1082.78V440.149H1083.19V441.777H1083.61V443.404H1084.03V445.032H1084.44V446.66H1084.86V448.287H1085.27V449.915H1085.69V451.543H1086.11V453.577H1086.52V455.205H1086.94V456.832H1087.35V458.46H1087.77V460.088H1088.19V461.715H1088.6V463.343H1089.02V464.97H1089.43V466.598H1089.85V468.226H1090.27V469.853H1090.68V471.481H1091.1V473.109H1091.51V475.143H1091.93V476.771H1092.35V478.398H1092.76V480.026H1093.18V481.654H1093.59V483.281H1094.01V484.909H1094.43V486.536H1094.84V488.164H1095.26V489.792H1095.67V491.419H1096.09V493.047H1096.51V494.675H1096.92V496.709H1097.34V498.337H1097.75V498.744" fill="url(#paint0_linear_14_275)"/>
</g>
<defs>
<linearGradient id="paint0_linear_14_275" x1="545.341" y1="194.952" x2="483.961" y2="676.038" gradientUnits="userSpaceOnUse">
<stop stop-color="#1C1D44"/>
<stop offset="0.553191" stop-color="#F03187"/>
<stop offset="1" stop-color="#EDA523"/>
</linearGradient>
</defs>
</svg>
